<svg width="320" height="496" viewBox="0 0 320 496" fill="none" xmlns="http://www.w3.org/2000/svg">
<path d="M209.692 289L219 295.222L209.692 297L208 291.667L209.692 289Z" fill="#DC5959"/>
<path d="M84.9 263.05C81.05 260.05 81.05 255.7 80.93 251.45C80.85 248.67 81.05 245.88 81.12 243.1C82.01 240.87 81.43 238.55 81.51 236.28C81.57 234.46 80.71 233.83 79.06 234.99C78.01 237.19 77.23 239.57 74.92 240.87L74.94 240.84C74.71 241.22 74.49 241.61 74.29 242C73.27 243.67 72.24 245.34 71.22 247C69.88 249.62 70.64 252.43 70.62 255.13C70.6 258.25 70.33 261.51 67.02 262.36C63.77 263.2 59.93 264.7 57.06 261.06C56.77 260 56.36 259 57.08 257.87C59.21 254.56 58.09 251.04 57.6 247.58C57.58 247.05 57.58 246.51 57.59 245.99C60.47 235.53 65.92 226.25 71.12 216.86C72.32 214.69 73.86 212.71 74.46 210.24C75.12 205.52 76.28 200.89 75.16 196.02C74.42 192.82 74.55 189.45 75.06 186.15C75.67 183.78 77.09 181.87 78.61 180.03C82.45 176.3 82.84 170.75 85.36 167.11C82.69 170.79 82.51 176.63 78.33 180.3C75.77 183.64 72.15 184.5 68.24 184.3C65.47 184.16 63.03 184.66 60.66 186.17C54.93 189.83 48.21 189.46 41.85 190.38C32.29 191.77 29.51 197.4 35.23 205.29C38.31 209.55 39.82 214.06 40.33 219.09C40.61 221.87 40.35 224.79 37.25 225.72C34.17 226.65 31.81 224.86 30.21 222.27C27.61 218.07 27.83 218.23 24.37 221.8C21.63 224.63 19.19 227.9 15.53 229.78C13.42 229.37 11.54 228.77 9.13999 229.31C4.62999 230.34 1.83999 226.01 2.73999 220.06C3.88999 217.35 6.10999 215.66 8.53999 214.28C10.02 213.44 11.21 212.41 12.06 210.96C13.93 203.74 15.52 196.47 16.62 189.09C16.83 187.66 17.25 186.21 18.28 185.06C24.21 176.73 32.97 172.63 42.1 169.1C48.48 164.21 56.42 162.41 63.27 158.32C68.47 155.22 73.43 152 77.61 147.71C79.94 145.32 82.05 142.68 84.39 140.27C86.43 138.17 87.68 135.84 87.58 132.76C87.43 128.28 89.73 124.13 89.59 119.61C89.54 117.91 91.49 117.4 92 115.99C94.41 112.01 94.6 106.79 98.82 103.83C103.06 100.42 105.19 95.49 107.96 91.04C109.17 89.09 108.05 87.26 106.92 85.52C105.63 83.52 104.37 81.41 106.49 79.12C107.44 78.56 108.42 78.88 109.39 79.03C113.05 79.25 112.32 76.68 112.09 74.61C111.44 68.79 108.68 63.21 109.96 58.85C109.62 62.63 111.39 68.49 107.13 73.29C106.46 73.82 105.71 73.99 104.89 73.76C102.56 71.51 101.44 68.61 101.12 65.52C100.9 63.43 100.49 61.78 98.62 60.53C96.14 58.87 96.89 56.09 96.63 53.68C96.78 50.54 97.21 47.67 99.07 44.79C101.37 41.24 99.87 36.94 98.74 33.32C97 27.75 97.89 22.12 97.45 16.55C97.26 14.15 99.95 12.44 102.06 11.04C104.95 9.73 107.63 7.49 111.16 8.98C111.4 9.32 111.72 9.51999 112.11 9.59999C112.46 9.74999 112.82 9.89999 113.18 10.02C113.5 10.15 113.82 10.31 114.1 10.5C114.34 10.67 114.61 10.84 114.88 10.99C114.88 10.98 115.3 11.13 115.31 11.12C115.65 11.1 115.97 11.13 116.32 11.2C116.71 11.33 117 11.57 117.24 11.91C117.82 13.89 118.19 15.89 118.06 17.54C118.99 15.54 116.2 12.99 118.3 10.61C122.4 9.81 125.56 11.24 127.92 14.61C129.45 16.28 130.36 18.2 130.32 20.51C135.44 23.26 134.32 28.09 134.63 32.59C134.84 35.7 136.01 38.73 135.4 41.94C136.33 37.6 134.14 33.53 134.5 29.21C134.71 26.69 134.31 24.02 137.95 23.75C141.39 23.5 144.77 23.46 146.17 27.51C146.82 29.38 147.4 31.34 147.05 33.37C146.68 35.53 147.21 37.51 147.93 39.5C146.71 48.28 146.38 56.98 149.51 65.51C151.67 71.38 150.03 76.1 145.22 80.11C139.34 85 137.28 91.95 136.67 99.16C136.24 104.23 134.95 108.4 130.9 111.74C122.38 118.77 119.33 128.84 116.16 138.8C119.39 128.57 122.63 118.32 131.46 111.17C134.96 108.34 136.28 104.72 136.6 100.36C137.21 92.01 139.62 84.47 146.54 78.89C149.48 76.52 151.47 72.95 150.27 69.15C147.08 59.01 146.58 48.73 147.61 38.28C146.2 35.02 147.54 32.08 148.83 29.23C151.11 24.21 155.51 26.43 159 26.82C161.76 27.14 163.92 29.04 163.23 32.64C162.96 34.05 163.74 35.57 163.54 36.95C163.15 28.63 163.66 27.88 168.77 29.46C170.02 31.47 168.52 33.62 169.05 35.45C169.35 33.89 168.16 31.48 171.07 30.75C173.78 30.9 174.25 33.36 175.42 35.06C178.15 39.03 179.47 39.24 183.29 36.19C185.81 34.18 192.1 34.05 194.48 36.07C196.31 37.62 195.26 39.81 195.51 41.71C195.57 42.15 195.51 42.61 195.51 43.06C195.8 43.03 195.49 42.75 195.56 42.58C196.33 40.47 193.77 37.6 197.01 36.07C197.38 36.35 197.75 36.63 198.12 36.9C201.78 40.12 200.26 44.6 200.74 48.53C200.93 50.07 200.52 51.8 200.56 53.81C200.55 54.13 199.54 53.41 200.19 53.56C200.4 53.61 200.52 53.51 200.53 53.24C200.65 49.28 201.02 45.3 200.36 41.37C199.61 36.93 201.86 37.08 204.89 38.15L207.17 40.88C208.43 42.14 209.32 43.61 209.64 45.38C211.4 48.38 213.21 51.39 216.2 53.35C219.1 55.25 217.88 58.04 218.01 60.73C217.98 61.22 218.68 61.07 218.01 61.05C218 61.05 218.01 60.89 218.01 60.56C218.17 55.7 216.91 50.84 218.24 45.97C218.64 44.51 218.7 43.05 220.08 42.11C221.06 41.76 222.03 41.42 223.01 41.07C225.08 43.33 223.41 46.1 224.01 48.17C224.01 47.26 223.93 45.94 224.03 44.64C224.12 43.4 223.41 41.73 224.92 41.09C226.73 40.32 227.4 42.09 228.28 43.21C228.4 43.7 228.46 44.18 228.47 44.68C229.19 56.13 227.05 67.37 226.1 78.69C225.5 85.97 225.25 93.57 230.05 99.44C233.56 103.72 236.78 108.06 238.57 113.14C240.07 117.41 241.98 121.15 244.9 124.59C246.91 126.96 248.92 128.95 252.05 129.54C254.45 130.99 256.72 132.65 259.27 133.86C266.92 137.5 272.34 143.61 277.04 150.4C279.09 153.37 282.1 155.67 283.28 159.27C282.59 161.27 282.63 163.52 281.28 165.29C277.38 166.93 274.24 166.07 271.66 162.26C269.24 158.7 266.85 155.11 264.64 151.44C261.44 146.13 257.19 142.76 250.97 142.11C244.89 141.48 241.39 138.21 240.29 132.17C239.78 129.39 238.23 126.94 237.17 124.33C238.35 127.33 239.93 130.15 240.58 133.38C241.58 138.34 244.88 141.09 249.73 141.98C252.18 142.43 254.57 143.07 256.97 143.71C258.84 144.21 260.27 145.27 260.99 147.1C263.15 152.61 266.89 157.47 267.8 163.5C268.2 164.74 267.49 166.07 268.16 167.29C268.36 167.66 268.55 168.04 268.75 168.41C269.09 168.97 269.38 169.55 269.55 170.18C271.21 173.16 274.16 175.25 275.39 178.53C275.46 179.85 274.65 180.82 274.06 181.87C272.65 183.7 270.49 181.24 269.02 182.75C267.68 182.55 266.73 181.72 265.94 180.97C267.03 181.72 267.99 183.27 269.89 182.44C271.16 181.42 272.89 183.81 274.04 181.89C274.42 181.28 274.9 180.8 275.58 180.53C276.02 180.29 276.48 180.18 276.98 180.18C277.47 180.29 277.92 180.48 278.34 180.76C278.54 180.91 278.74 181.06 278.94 181.22C279.33 181.54 279.71 181.87 280.08 182.21C286.87 188.99 292.75 196.59 299.19 203.69C303.23 208.15 305.29 213.76 302.87 220.02C302.9 220.68 302.94 221.34 302.97 222.01C303.76 222.93 303.24 224.18 303.75 225.17C304.81 227.24 304.33 229.47 304.45 231.64C303.79 238.51 301.48 244.81 297.91 250.67C295.71 256.92 294.98 263.3 296.64 269.82C296.46 271.77 295.58 273.5 294.96 275.32C292.55 279.48 289.34 278.51 286.13 276.57C284.19 275.4 282.51 273.85 281.21 271.95C281.03 271.5 280.88 271.04 280.74 270.57C280.42 269.81 279.94 268.74 280.57 268.26C285.13 264.74 283.36 259.23 284.98 255.11C284.6 257.38 283.88 259.88 283.85 262.55C283.81 265.6 282.17 266.66 279.3 265.06C273.57 255.31 273.43 245.1 277.32 234.81C279.76 228.36 279.98 222.25 276.54 216.18C275.56 214.69 275.08 212.79 273.18 212.05C272.76 211.9 272.35 211.75 271.92 211.62C270.05 210.16 268.8 207.86 266.2 207.37C265.75 207.33 265.31 207.28 264.86 207.25C263.92 207.17 263.12 206.73 262.33 206.26C253.66 201.98 246.57 195.99 241.92 187.38C241.84 187.25 241.74 187.11 241.65 186.98C241.65 187 241.26 186.71 241.26 186.72C241.26 186.74 240.79 186.64 240.78 186.65C240.77 186.66 240.29 186.65 240.27 186.65C239.89 186.69 239.53 186.72 239.14 186.77C238.69 186.88 238.27 186.94 237.81 186.96C235.15 185.68 232.94 184.04 232.63 180.8C232.53 179.11 231.95 177.6 230.89 176.26C230.63 173.76 229.62 171.78 228.03 169.68C224.75 165.33 222.41 160.35 221.47 154.85C221.11 152.76 221.03 150.58 219.16 148.82C219.13 152.9 219.53 156.89 220.61 160.93C221.55 164.44 223.59 168.18 220.36 171.68C213.58 169.17 211.33 162.96 208.77 157.14C205.58 149.91 206.31 142.23 207 135.69C204.99 149.06 207.48 162.02 219.24 171.94C220.29 172.51 221.52 172.61 222.55 173.22C226.12 177.85 231.03 181.22 234.56 185.9C237.5 187.6 237.9 192.08 241.93 192.58C242.4 192.77 242.8 193.05 243.13 193.43C243.62 193.98 244.03 194.59 244.47 195.18C249.67 201.13 255.2 206.86 257.52 214.73C258.01 215.8 258.09 216.96 258.18 218.11C258.27 218.56 258.35 219.01 258.42 219.47C258.54 220.68 259.12 221.72 259.62 222.8C259.74 223.32 259.77 223.83 259.72 224.36C259.75 234.41 260.58 244.38 262.24 254.28C263.2 256.75 265.37 257.95 267.36 259.45C272.24 263.13 278.32 265.51 281.02 271.64C285.08 275.54 285.81 280.18 284.74 285.58C284.16 288.53 283.51 291.84 285.79 294.61C286.29 295.13 286.83 295.59 287.43 295.99C289.35 297.28 291.48 297.48 293.51 296.55C295.35 295.71 297.04 296.52 298.8 296.45C300.9 296.77 303.41 295.59 304.91 298.12C305.43 299 305.4 299.97 305.39 300.93C305.39 301.37 305.33 301.81 305.19 302.24C304.9 302.93 304.92 303.69 304.86 304.42C304.94 304.72 304.98 305.03 305.06 305.34C305.25 305.65 305.44 305.93 305.67 306.21C305.8 306.36 305.92 306.5 306.05 306.65C306.33 306.97 306.56 307.3 306.76 307.67C306.83 307.88 306.9 308.08 306.97 308.29C307.15 308.71 307.33 309.13 307.49 309.56C307.6 309.77 307.71 309.98 307.83 310.19C309.37 312.11 310.23 314.01 307.74 315.85H307.84C303.22 318.88 301.55 318.6 298.96 313.99C297.84 312 296.45 310.48 294.4 309.53C293.99 309.32 293.58 309.13 293.17 308.93C292.77 308.72 292.38 308.5 291.98 308.29C291.39 307.96 290.81 307.62 290.31 307.14C289.98 306.82 289.65 306.49 289.32 306.17C286.2 304.65 282.02 305.64 279.77 302.1C279.19 301.61 278.64 301.09 278.18 300.48C275.89 298.21 275.32 295.4 275.34 292.29C275.35 289.34 275.73 286.28 273.82 283.66C273.01 281.9 273.98 279.31 271.34 278.39C270.45 277.87 269.63 277.22 268.69 276.78C268.32 276.64 267.95 276.5 267.57 276.39C266.54 276.31 265.51 276.19 264.68 275.48C264 274.95 263.47 274.27 262.79 273.73C260.38 272.31 258.02 273.07 255.64 273.86C250.31 275.61 245.5 277.91 243.72 283.92C243.14 285.88 241.45 287.19 240.22 288.76C234.51 296.07 228.35 303.04 225.49 312.21C224.09 316.7 218.86 318.83 214.42 317.25C211.79 316.31 210.49 314.33 212.51 311.88C214.54 309.42 215.07 307.2 214.8 303.86C214.53 300.55 217.52 297.47 218.86 294.18C219.35 292.97 220.21 291.9 220.44 290.56C221.02 288.02 222.81 286.28 224.52 284.49C225.89 283.06 227.24 281.56 228.75 280.31C243.17 268.32 242.36 252.99 238.27 237C237.82 235.24 237.79 232.27 234.38 233.21C230.97 237.43 230.4 242.48 230.13 247.63C229.85 248.11 229.47 248.47 228.99 248.73C224.96 249.84 223.99 247.78 223.31 244.16C221.91 236.68 224.6 230.74 229.14 225.24C232.52 220.91 230.47 217.26 227.67 213.69C225.26 209.89 221.77 207.3 218.26 204.57C212.67 200.22 207.87 194.96 201.83 191.03C199.56 189.55 196.29 189.67 194.85 186.92C192.81 183.06 189.22 180.46 186.88 176.76C182.35 169.58 180.68 161.8 180.46 153.54C180.28 146.73 179.56 140.04 176.98 133.63C176.12 135.54 176.68 137.38 177.26 139.15C179.37 145.54 178.47 151.63 175.5 157.5C173.69 161.08 172.44 164.85 171.31 168.69C170.13 172.68 170.93 175.9 174.46 178.29C180.74 182.54 183.8 189.31 187.84 195.33C189.9 198.34 190.24 201.97 191.46 205.29C191.75 205.84 191.92 206.42 191.98 207.04C192.35 209.46 191.64 211.7 190.73 213.84C189.65 216.37 188.01 218.76 184.93 218.45C181.51 218.11 181.87 215.1 181.72 212.65C181.31 210.09 182.21 207.47 181.47 204.92C182.38 201.23 178.63 199.6 177.82 196.67C177.71 196.24 177.58 195.82 177.41 195.4C177.23 194.99 177.05 194.57 176.87 194.17C175.83 192.89 174.31 192.26 172.96 191.45C166.65 187.68 164.13 188.46 160.2 195.25C160.15 195.73 160.04 196.18 159.89 196.63C159.62 197.03 159.32 197.4 159 197.76C157.51 199.63 155.02 200.38 153.72 202.46C151.98 204.63 149.64 206.16 147.68 208.1C146.35 209.79 143.76 209.42 142.53 210.89C140.53 213.26 139.87 216.22 140.68 219.33C143.81 231.32 142.18 243.5 142.15 255.62C140.84 257.35 141.05 259.97 138.85 261.15C131.89 260.91 131.2 260.48 130.48 255.87C128.83 249.46 131.54 243.28 131.56 236.96C131.56 236.13 131.67 235.3 131.56 234.48C131.37 233.04 131.56 231.15 129.77 230.76C127.88 230.35 127.46 232.23 126.81 233.52C126.44 234.25 126.25 235.08 125.76 235.77C124.18 237.43 123.51 239.29 123.18 241.67C122.21 248.78 122.54 255.89 122.53 263.01C122.53 267.04 123.38 270.91 125.37 274.47C127.43 278.14 127.35 281.84 126.35 285.92C124.81 292.22 124.66 298.64 127.13 304.88C128.11 307.34 129.67 309.09 132.34 309.68C139.15 312.58 144.89 316.91 149.31 322.87C150.91 325.02 153.15 326.48 154.87 328.49C154.97 334.34 158.78 339.72 157.02 345.79C156.81 346.33 156.64 346.89 156.51 347.45C154.43 351.12 156.24 354.47 157.44 357.83C158.44 360.63 160.06 363.19 160.71 366.12C161.19 368.27 161.49 370.55 158.94 371.67C156.72 372.65 154.2 371.98 153.13 370.22C149.86 364.88 145.03 360.36 143.98 353.78C144.26 350.61 145.44 347.54 144.99 344.3C145.44 337.06 141.03 332.48 135.98 328.41C134.05 326.85 131.97 327.41 130.53 329.57C129.02 331.94 129.96 334.29 130.74 336.54C131.51 338.77 131.7 340.9 130.83 343.1C131.01 345.58 129.93 347.94 130.46 350.53C130.79 352.14 130.08 354.05 128.11 354.74C125.89 355.52 124.4 354.26 123.14 352.68C121.85 351.06 121.64 349.09 121.65 347.1C121.67 344.97 121.92 342.83 121.34 340.74C121.18 340.23 121.03 339.7 120.87 339.19C120.68 338.71 120.52 338.21 120.36 337.72C120.23 336.98 120.15 336.22 120 335.47C119.88 334.98 119.75 334.5 119.58 334.02C118.58 331.1 117.88 328.15 118.6 325.04C118.94 322.52 120.66 320.57 121.39 318.22C121.88 316.34 121.74 314.74 120 313.41C115.06 309.63 112.36 304.75 111.81 298.36C111.39 293.43 110.19 293.21 105.93 296.22C105.63 296.52 105.35 296.85 105.09 297.18C104.71 297.67 104.19 298 103.69 298.35C103.38 298.57 103.06 298.79 102.75 299.02C102.47 299.27 102.19 299.52 101.92 299.77C101.41 300.32 101.01 300.95 100.71 301.65C100.43 302.41 100.16 303.17 99.9 303.94C99.76 304.36 99.62 304.77 99.48 305.19C98.82 307.64 96.34 309.06 96.67 312.35C96.91 314.76 93.28 314.92 91.05 315.26C89.12 315.56 87.51 315.01 86.72 312.83C85.57 309.64 85.48 306.37 85.82 302.73C82.33 303.85 83.29 307.59 81.12 309.07C80.3 310.58 78.73 311.47 77.93 313C77.91 313.54 77.9 314.08 77.88 314.63C76.9 318.03 78.15 321.58 77.16 324.98C75.98 328.75 75.55 332.76 73.48 336.25C72.85 337.32 72.22 338.32 70.82 337.76C69.58 337.27 68.95 336.17 69.57 334.95C73.92 326.36 71.16 316.58 74.16 307.76C74.96 305.4 75.67 303.05 77.22 301.05C77.77 295.14 82.2 292.29 86.48 289.32C89.43 286.14 92.92 283.75 97.02 282.3C99.59 280.28 102.21 278.34 104.58 276.09C104.94 275.64 105.29 275.17 105.47 274.59C105.35 273.99 105.35 273.37 104.87 272.91C103.18 270.84 102.36 268.37 101.77 265.81C97.44 257.73 96.36 249.24 98.58 240.34C98.7 239.86 98.94 239.3 98.75 238.89C95.57 232.12 98.39 226.87 102.99 222.08C104.12 214.72 105.17 207.32 110.73 201.64C115.56 200.13 116.61 195.23 119.44 191.93C119.99 190.27 121.33 188.76 120.43 186.82C120.34 186.39 120.38 185.96 120.5 185.54C120.79 184.52 121.08 183.5 121.2 182.44C121.24 182.02 121.28 181.59 121.32 181.17C121.52 179.87 120.79 178.6 121.18 177.29C123.28 166.87 129.98 158.93 135.8 150.53C130.6 157.96 121.75 162.69 119.61 172.35C118.86 177.41 117.89 182.43 120.52 187.34C121.38 188.94 119.88 190.48 119.39 192.03C116.56 195.05 115.86 199.95 111.17 201.31C105.47 200.81 104.69 201.55 103.72 207.5C103.15 210.98 104.32 214.4 103.8 217.86C103.33 220.99 102.57 223.75 99.82 225.99C97.03 228.26 96.85 232.1 97.76 235.22C98.64 238.24 98.64 241.08 97.97 243.89C96.18 251.48 99.2 258.55 100.01 265.85C100.05 268.46 103.71 269.47 102.94 272.45C100.68 278.44 99.39 279.13 93.02 277.86C92.05 277.67 91.04 277.69 90.04 277.77C89.42 277.71 88.88 277.47 88.39 277.1C87.8 276.48 87.31 275.77 86.98 274.97C84.88 271.27 85.2 267.13 84.9 263.1V263.05Z" fill="#FEF2E2"/>
<path d="M147.14 39.92C144.97 38.77 144.22 36.94 144.34 34.55C144.41 33.07 144.31 31.57 144.15 30.1C143.75 26.38 141.22 25.59 138.07 25.95C134.34 26.37 134.6 29.4 135.16 31.65C136.58 37.37 136.22 42.99 135.18 48.68C135.28 42.89 134.51 37.19 133.99 31.46C133.67 27.95 134.55 24.35 129.58 23.5C128.91 23.38 128.46 21.95 127.92 21.13C127.11 19.08 128.06 17.34 129.97 17.94C136.48 20 140.18 17.1 142.8 11.63C144.16 11.03 145.37 11.25 146.45 12.25C147.25 13.2 147.26 14.21 146.82 15.36C145.74 18.21 147.43 18.68 149.7 18.57C150.81 18.46 151.52 19.16 152.28 19.81C155.82 22.84 159.75 23.63 164.1 21.75C165.41 22.39 166.71 23.5 168.21 22.89C171.07 21.73 173.3 21.8 175.43 24.53C176.77 26.25 178.64 23.23 180.42 24.21C182.72 27.07 183.38 31.58 188.18 31.92C190.66 34.27 194.13 34.52 196.99 36.08C195.07 40.13 197.1 44.6 195.33 50C195.16 46.22 195.11 43.69 194.91 41.17C194.76 39.3 195.29 36.6 192.52 36.51C190.08 36.42 187.27 35.37 185.15 37.92C179.98 44.14 176.89 43.64 173.08 36.14C172.41 34.82 171.66 33.54 170.95 32.24C170.12 31.48 168.66 32.31 168.01 31.08C164.46 30.35 164.35 33.02 164.16 35.24C163.94 37.68 164.11 40.15 163.85 42.63C162.59 39.5 163.7 36.11 162.31 32.88C160.59 28.89 157.61 28.09 153.95 28.24C150.49 28.38 150.73 31.49 149.99 33.68C149.42 35.39 149.18 37.22 148.8 38.99C148.47 39.68 148.32 40.68 147.16 39.94L147.14 39.92Z" fill="#DBD3C8"/>
<path d="M236.92 46.06C236.71 58.5 233.35 70.55 232.36 82.9C231.97 87.75 231.94 92.46 234.01 96.97C234.32 97.34 234.61 97.73 235.03 97.99H235.02C237.93 99.92 239.35 102.48 238.37 106.03C237.81 108.05 236.73 109.12 234.9 107.34C229.01 101.61 222.59 96.68 224.25 86.43C226.12 74.86 226.7 63.04 227.73 51.31C227.95 48.85 226.53 46.37 227.98 44L227.94 44.05C228.27 43.45 228.64 43.44 229.03 43.99L229.01 43.97C229.62 44.67 230.29 44.6 231.01 44.15C233.66 42.66 235.2 44.65 236.93 46.05L236.92 46.06Z" fill="#DBD3C8"/>
<path d="M91.99 116.02C90.95 120.2 89.25 124.34 89 128.57C88.41 138.61 82.95 145.61 75.81 151.7C65.94 160.12 54.85 166.25 42.1 169.12C45.04 165.78 46.87 161.61 52.87 161.75C56.14 161.83 58.44 156.78 62.5 156.23C64.91 155.9 66.63 154.32 68.65 153.19C75.19 149.5 78.79 142.73 84.65 138.36C86.51 136.97 86.95 134.68 86.88 132.49C86.73 127.96 89.18 123.82 88.65 119.21C88.42 117.19 90.51 116.72 91.99 116.02Z" fill="#DBD3C8"/>
<path d="M100 83.07C99.29 81.16 97.28 81.06 95.88 80.12C96.41 78.17 98.44 78.86 99.59 78.01C101.13 76.69 101.9 74.63 103.77 73.63C109.2 74.55 110.07 76.25 107.21 80.36C107.31 81.01 107.23 81.76 107.54 82.3C112.27 90.67 111.03 96.09 103.11 101.6C101.76 102.54 100.59 103.78 98.8 103.87C100.34 99.73 100.79 95.41 101.03 91.04C102.17 90.5 104.94 91.06 102.83 88.33C101.59 86.74 103.13 83.64 99.99 83.08L100 83.07Z" fill="#DBD3C8"/>
<path d="M220.04 42.11C220.61 50.92 218.03 59.42 218.22 68.52C216.63 67.65 216.75 66.75 216.85 66.04C217.62 60.64 217.64 55.8 211.57 52.91C209.18 51.77 208.68 48.6 207.99 46.02C206.76 42.47 209.25 42.53 211.45 42.64C214.02 42.76 216.61 43.61 219.01 41.97C219.35 42.02 219.69 42.06 220.03 42.11H220.04Z" fill="#DBD3C8"/>
<path d="M4.09001 219.1C5.02001 227.1 5.27002 227.26 16 226.95C17.62 229.82 15.01 229.89 13.5 230.67C13.07 230.8 12.64 230.93 12.21 231.01C11.78 231.12 11.36 231.25 10.95 231.41C9.97001 231.41 9.46001 232.25 8.71001 232.65C7.59001 233.34 6.16001 233.18 5.07001 233.96C3.41001 234.29 1.72001 235.48 0.120013 233.8C-1.48999 229.06 -4.07998 224.25 1.08002 219.98C2.04002 219.55 2.72001 218.15 4.09001 219.08V219.1Z" fill="#DBD3C8"/>
<path d="M163.97 23.01C165.98 20.39 166.53 14.73 171.94 19.17C172.96 20.18 173.98 21.19 174.99 22.2C176.66 23.09 178.65 21.91 180.28 23.04C180.72 23.82 180.63 24.52 179.94 25.13C178.33 28.76 176.48 30.82 173.72 25.99C173.03 24.78 172.68 25.17 171.57 25.72C168.31 27.35 165.61 26.39 163.96 23L163.97 23.01Z" fill="#DBD3C8"/>
<path d="M135.01 7.09999C136.68 8.71999 138.35 10.35 140.02 11.97C139.96 13.81 138.6 15.09 137.21 14.55C133.44 13.11 130.64 14.6 127.78 16.64C127.27 17.01 126.54 16.47 125.96 16.16C124.02 13.46 122.28 10.44 118.14 11.21C117.54 11.78 116.64 11.55 116.01 12.02C115.36 12.66 114.69 12.66 114.01 12.06C113.7 11.71 113.37 11.37 113.01 11.07C112.71 10.71 112.39 10.36 111.92 10.2C111.66 9.79999 111.41 9.38999 111.15 8.98999C116.95 10.28 122.6 10.09 128.15 7.69999C130.31 6.76999 132.7 7.02 135.02 7.08L135.01 7.09999Z" fill="#DBD3C8"/>
<path d="M100 83.07C101.15 81.08 102.58 80.7 103.57 82.98C104.61 85.4 105.23 87.93 107.04 90.06C108.56 91.83 108.24 94.14 107.21 96.18C106.74 97.12 105.8 97.69 104.73 97.49C102.11 97 102.29 94.72 101.87 92.82C101.73 92.19 101.32 91.62 101.04 91.03L99.92 86.05C99.95 85.06 99.97 84.07 100 83.07Z" fill="#DBD3C8"/>
<path d="M89.04 52.06C93.27 52.04 94.84 54.62 93.89 58.2C92.77 62.39 94.71 65.14 97.05 67.98C97.39 68.35 97.69 68.75 98.16 68.97V68.86C98.85 70.21 98.76 71.13 96.93 71.11C92.5 69.2 92.3 64.4 90.05 61C88.76 60.27 87.75 59.28 87.04 57.98C87.01 55.77 87.2 53.63 89.03 52.04L89.04 52.06Z" fill="#DBD3C8"/>
<path d="M18.28 185.08C16.75 190.15 16.85 195.44 16.13 200.61C15.61 204.33 14.86 208.09 12.06 210.96C9.71999 206.77 12.47 202.92 13.39 199.19C14.57 194.41 15.15 189.24 18.28 185.07V185.08Z" fill="#DBD3C8"/>
<path d="M219.02 41.97C219.18 46.36 217.1 47.04 213.48 45.39C211.59 44.53 209.52 43.19 208 46.02C207.1 44.41 206.85 42.69 207.13 40.87C211.1 41.1 215.11 40.95 219.02 41.96V41.97Z" fill="#DBD3C8"/>
<path d="M263.8 86.86C262.66 87.13 261.5 87.47 260.39 86.87C257.96 85.57 256.92 83.28 258.26 81.03C260.13 77.9 262.55 80.02 264.69 81.17L264.72 81.02C265.97 82.27 265.52 83.64 265 85.02C264.85 85.18 264.81 85.36 264.89 85.56C264.77 86.22 264.34 86.66 263.83 87.05L263.8 86.86Z" fill="#DBD3C8"/>
<path d="M179.95 25.13C179.98 24.56 180 23.99 180.03 23.42C180.1 22.63 180.43 22.49 181.04 23C184.38 25.2 185.39 29.26 188.17 31.9C182.69 32.81 180.85 31.29 179.95 25.12V25.13Z" fill="#DBD3C8"/>
<path d="M229.02 44C228.66 44.02 228.29 44.04 227.93 44.06C227.37 43.5 226.83 42.49 226.24 42.46C224.75 42.37 225.08 43.77 225.05 44.66C224.93 48.09 225.18 51.56 222.97 54.77V41.07C226.5 38.92 227.91 41.15 229.02 44Z" fill="#DBD3C8"/>
<path d="M204.85 38.15C201.71 37.93 200.71 39.59 201.09 42.45C201.68 46.92 201.54 51.36 200.4 55.85C199.66 49.52 200.85 42.92 198.08 36.89C200.39 37.03 202.88 36.15 204.85 38.14V38.15Z" fill="#DBD3C8"/>
<path d="M4.09002 219.1C3.09002 219.4 2.08002 219.7 1.08002 220C3.53002 215.52 7.84001 213.31 12.05 210.98C10.75 215.01 6.77002 216.43 4.09002 219.1Z" fill="#DBD3C8"/>
<path d="M36.63 131.78C34.67 129.46 33.43 127.49 35.94 125.14C36.67 124.46 37.44 124.23 38.02 125.05C39.9 127.69 38.02 129.52 36.62 131.78H36.63Z" fill="#DBD3C8"/>
<path d="M27.63 113.72C26 113.67 25.85 112.31 25.51 111.29C24.93 109.57 25.99 108.1 27.33 107.68C28.81 107.22 29.69 108.86 29.83 110.11C30.01 111.68 28.83 112.82 27.63 113.71V113.72Z" fill="#DBD3C8"/>
<path d="M83.82 85.15C83.55 86.6 82.8 87.79 81.26 87.66C79.73 87.53 79.09 86.26 79.07 84.78C79.05 83.38 79.75 82.51 81.18 82.62C82.65 82.74 83.59 83.61 83.82 85.15Z" fill="#DBD3C8"/>
<path d="M272.95 91.08C271.28 90.53 269.92 89.68 270.21 87.64C270.33 86.78 271.02 86.14 271.93 86.24C274.09 86.48 275.05 87.76 274.81 89.93H274.96C274.59 90.39 274.17 90.79 273.58 90.96L273.25 90.94L272.95 91.08Z" fill="#DBD3C8"/>
<path d="M67 44.95C66.9 46.32 66.22 47.21 64.82 47.16C63.12 47.1 62 46.16 61.86 44.41C61.76 43.19 62.59 42.53 63.69 42.53C65.32 42.53 66.58 43.22 67 44.95Z" fill="#DBD3C8"/>
<path d="M66.03 60.06C65.29 59.04 65.15 58.03 66.03 57.01C68.84 56.12 70.66 56.56 70.18 60.1L68.1 60.96C67.5 60.46 66.6 60.64 66.03 60.07V60.06Z" fill="#DBD3C8"/>
<path d="M70.18 60.09C69.75 57.77 68.24 56.92 66.03 57C69.28 55.51 70.93 56.19 70.18 60.09Z" fill="#DBD3C8"/>
<path d="M181.04 23.01C180.7 23.15 180.37 23.29 180.03 23.43C178.3 23.25 176.53 23.23 174.99 22.21C177.05 22.14 179.11 22.09 181.03 23.01H181.04Z" fill="#DBD3C8"/>
<path d="M231 44.16C230.26 44.89 229.59 44.93 229 43.98C229.67 44.04 230.33 44.1 231 44.16Z" fill="#DBD3C8"/>
<path d="M185.16 402.64C184.42 400.41 183.69 398.17 182.95 395.94C181.84 394.02 183.1 391.78 182.13 389.83V389.85C181.117 387.123 179.343 387.097 176.81 389.77L176.84 389.74C176.7 390.31 176.3 390.61 175.76 390.76C173.58 391.48 171.79 395.96 169.33 392.6C166.95 389.37 171.28 388.25 173.03 386.82C184.9 377.12 191.59 364.11 195.96 349.95C197.34 345.48 195.86 340.17 197.05 335.27C197.73 332.46 201 330.48 199.62 327.06C200.14 324.95 201.82 325.57 203.24 325.48C211.34 324.96 212.57 322.8 208.76 315.79C210.41 311.4 211.97 306.99 212.41 302.28C212.6 300.28 212.95 298.38 214.28 296.79C215.83 295.11 217.52 293.55 218.21 291.25C218.47 290.78 218.8 290.35 219.18 289.98C219.91 289.5 220.69 289.38 221.53 289.6C222.04 289.83 222.47 290.17 222.82 290.61C223.1 293.5 220.8 295.06 219.36 296.98C215.78 301.8 217.85 308.45 213.93 313.15C213.37 313.82 213.93 314.68 214.9 315.02C217.67 315.97 223.46 313.55 224.44 310.57C227.39 301.52 233.68 294.63 239.2 287.24C239.79 286.45 240.95 285.62 240.9 284.87C240.25 274.01 249.63 274.83 255.81 271.94C256.25 272.22 256.54 272.61 256.68 273.12C256.81 275.21 255.32 276.47 254.09 277.71C246.96 284.92 241.19 293.28 234.46 300.83C230.34 305.45 228.51 312.07 228.56 318.71C224.9 323.28 221.59 328.19 216.54 331.44C215.1 332.23 213.33 331.3 211.93 332.31C211.59 332.57 211.21 332.74 210.79 332.84C210.4 332.94 209.99 332.92 209.6 332.85C209.21 332.91 208.82 332.96 208.44 333.05C207.75 333.27 207.36 333.77 207.1 334.44C207.39 341.76 204.74 348.6 203.77 355.7C203.28 359.3 202.86 362.93 204.89 366.35C205.65 367.63 205.56 369.18 205.12 370.71C203.06 377.98 203.93 385.34 204.9 392.62C205.39 396.3 208.05 399.27 209.36 402.75C210.27 405.16 210.97 407.43 210.01 409.94C206.45 413.7 206 417.84 207.56 422.77C208.56 425.94 211.25 428.86 209.86 432.62C208.31 433.22 207.06 435.4 205.04 433.52L204.99 433.8L205.27 433.85C203.86 433.31 204.94 431.65 203.95 430.93C202.29 428.44 200.61 428.36 198.92 430.9V430.87C197.86 432.02 199.18 433.82 197.84 434.9L197.86 434.8C197.55 435.6 197.23 436.39 196.35 436.73C191.11 436.73 190.29 433.15 190.14 429.05C191.08 425.05 193.43 421.59 195.98 418.73C201.94 412.04 199.51 405.63 196.12 399.34C191.37 390.55 190.27 385.38 192.23 375.22C189.23 380 188.82 385.04 190.09 390.13C191.05 393.99 191.09 397.52 188.93 400.93L188.95 400.91C188.39 401.7 187.96 402.59 187.16 403.18C186.63 403.46 186.05 403.46 185.48 403.55C185.1 403.36 184.97 403.06 185.13 402.66L185.16 402.64Z" fill="#DBD3C8"/>
<path d="M79.1 308C79.71 303.16 83.07 300.14 86.37 297.11C87.39 296.17 88.7 295.51 89.96 296.48C91.21 297.43 90.21 298.64 89.83 299.65C88.57 302.99 88.11 306.4 88.59 309.93C88.79 311.4 88.87 313.07 91.04 312.99C92.98 312.91 94.54 312.54 94.99 310.13C95.44 307.71 96.36 305.38 97.08 303.01C98.69 303.18 99.11 304.42 99.57 305.69C102.88 314.85 108.05 322.03 118.61 323.4C119.69 323.54 120.34 324.28 121.03 324.97C121.37 328.28 121.7 331.59 122.04 334.9C121.6 338.17 119.45 338.8 117.04 337.45C110.26 333.63 101.92 333.31 95.88 327.87C94.65 326.77 93.91 327.26 93.54 328.86C92.34 334.06 94.8 338.99 99.76 340.93C103 342.2 106.26 343.32 109.8 343.62C116.11 344.14 120.56 347.45 123.62 352.97C124.43 354.44 124.62 355.57 123.87 356.96C123.53 361.01 125.04 364.84 125.32 368.81C125.45 370.59 126.95 373.26 123.94 373.77C120.81 374.3 121.49 371.31 121.18 369.56C120.39 365.15 119.69 360.73 117.06 356.92C114.92 355.2 112.46 354.17 109.77 353.66C107.38 351.29 105.05 353.57 102.7 353.75C102.24 353.69 101.81 353.53 101.43 353.27C100.31 352.53 99.37 351.5 98.03 351.1C97.61 351.01 97.18 350.92 96.75 350.85C95.3 350.48 94.07 349.53 92.59 349.21C92.18 349.06 91.78 348.9 91.38 348.72C91 348.48 90.64 348.22 90.31 347.92C90.15 347.76 89.98 347.6 89.82 347.44C89.48 347.11 89.15 346.78 88.82 346.43C88.65 346.25 88.48 346.08 88.31 345.9C87.97 345.52 87.65 345.13 87.34 344.72C83.94 339.65 83.57 333.91 83.51 328.07C83.48 325.26 83.94 322.43 83.17 319.65C83.17 319.13 83.16 318.61 83.15 318.09C83.3 314.12 81.98 310.75 79.1 308.01V308Z" fill="#DBD3C8"/>
<path d="M57.94 259.73C60.57 261.11 63.47 260.44 66.22 260.58C69.27 260.73 69.69 258.12 69.92 255.69C70.19 252.77 69.34 249.68 71.21 247C73.24 258.57 67.35 266.22 58.62 272.48C53.26 276.33 50.1 281.5 48.67 288.01C47.24 294.5 41.5 297.83 37 301.88C35.06 303.62 33.19 301.58 32.96 299.38C32.82 298.03 33.73 296.57 34.16 295.15C34.31 290.75 39.57 288.75 39.33 284.15C39.37 283.65 39.39 283.15 39.37 282.65C41.19 278.83 43.52 274.63 46.62 272.59C51.65 269.28 53.74 264.5 56.51 259.88C56.95 259.55 57.43 259.49 57.93 259.71L57.94 259.73Z" fill="#DBD3C8"/>
<path d="M84.9 263.05C88.21 265.94 87.17 270.51 89.13 273.92C89.4 274.29 89.69 274.65 90 274.99L89.98 275.01C90.92 277.08 94.05 277.11 94.38 279.74C94.35 282.14 92.31 282.82 90.82 284.03C88.69 285.77 86.25 287.51 88 290.89C84.28 294.11 79.99 296.73 77.24 300.98C77.38 297.7 76.34 294.82 74.48 292.14C71.45 287.8 71.23 283.37 73.75 278.58C76.24 273.84 78.94 269.33 82.97 265.74C83.84 264.97 84.87 264.37 84.91 263.04L84.9 263.05Z" fill="#DBD3C8"/>
<path d="M138.21 362.63C141.85 377.45 152.1 387.76 162.46 397.94C163.72 399.18 165.33 399.84 163.8 401.77C162.37 403.57 160.77 402.78 159.49 401.65C158.53 400.8 157.97 399.53 157.16 398.5C156.52 397.68 156.16 395.94 154.7 396.84C153.49 397.59 154.22 398.91 154.75 399.95C155.1 400.16 155.33 400.46 155.46 400.85C155.56 401.45 155.73 402.02 155.98 402.58C156.13 402.97 156.3 403.35 156.5 403.72C156.73 404.1 156.92 404.48 157.1 404.89C157.31 405.31 157.56 405.69 157.85 406.05C158.27 406.67 158.66 407.3 158.86 408.03C159.27 409.48 158.88 410.71 157.87 411.79C153.58 413.7 153.33 413.52 152.08 407.74C151.68 403.11 151.29 398.47 150.88 393.84C150.52 389.83 147.42 387.55 145.06 384.84C143.96 383.58 142.95 384.14 142.44 385.48C141.91 386.87 141.66 388.37 141.12 389.76C140.68 390.89 139.92 391.86 138.48 391.4C137.27 391.01 136.17 390.02 136.71 388.82C139.85 381.84 136.07 375.63 134.75 369.15C134.81 368.94 134.87 368.73 134.92 368.52C136.69 366.94 134.82 363.31 138.22 362.64L138.21 362.63Z" fill="#DBD3C8"/>
<path d="M57.08 259.98C56.23 264.72 54.1 268.59 50.27 271.74C46.27 275.03 43.37 279.33 41.08 284.01C37.81 281.34 39.33 278.66 41.05 275.97C41.05 275.65 41.06 275.32 41.06 275C42.76 274.18 43.08 272.34 44.04 270.97C44.04 270.64 44.06 270.32 44.06 269.99C45.15 268.9 46.15 267.76 47.96 267.86C50.01 267.98 51.08 266.49 52.04 264.97C52.47 263.2 53.57 261.94 55.04 260.96C55.53 260.24 55.87 259.23 57.07 259.98H57.08Z" fill="#DBD3C8"/>
<path d="M37.34 282.74C38.19 284.37 38.49 287.68 41.09 283.97C41.83 289.59 37.42 292.02 34.17 295.17C33.06 292.83 31.96 290.48 30.85 288.14C30.93 287.93 31 287.71 31.08 287.5C33.27 286.65 34.77 285.02 36.07 283.14C36.46 282.89 36.88 282.75 37.34 282.74Z" fill="#DBD3C8"/>
<path d="M34.08 278C35.87 279.09 36.95 280.68 37.34 282.74L37 283.01C34.72 284.17 33.74 286.9 31.25 287.8C31.12 287.91 30.99 288.02 30.85 288.13C30.25 287.07 29.66 286.01 29.07 284.96C29.7 284.44 29.46 283.49 30.07 282.96C30.4 282.63 30.73 282.3 31.05 281.97L34.08 278Z" fill="#DBD3C8"/>
<path d="M67.57 275.28C69.64 275.4 69.87 277.17 70.28 278.44C70.89 280.31 69.6 281.23 67.9 281.39C66.13 281.56 64.96 280.37 64.69 278.87C64.31 276.81 66.63 276.51 67.57 275.28Z" fill="#DBD3C8"/>
<path d="M79.05 234.99C79.51 233.83 80.47 232.88 81.59 233.12C83.24 233.48 82.36 234.95 82.23 235.95C81.92 238.34 81.5 240.71 81.12 243.09C80.25 240.43 82.09 237.09 79.06 234.98L79.05 234.99Z" fill="#DBD3C8"/>
<path d="M74.91 240.87C75.45 238.31 77.02 236.49 79.05 234.99C79.05 237.93 78.07 240.17 74.91 240.87Z" fill="#DBD3C8"/>
<path d="M133.1 367.9C133.1 365.92 133.1 363.94 133.1 361.96C137.19 363.23 136.76 365.86 135.16 368.84C135.02 368.94 134.88 369.03 134.73 369.13C134.18 368.72 133.64 368.31 133.09 367.9H133.1Z" fill="#DBD3C8"/>
<path d="M10.08 232.07C9.68999 231.98 9.30998 231.89 8.91998 231.8C9.41998 231.12 10.09 230.8 10.93 230.85C10.93 231.2 10.92 231.56 10.91 231.91C10.62 231.92 10.34 231.98 10.07 232.08L10.08 232.07Z" fill="#DBD3C8"/>
<path d="M74.28 242C74.5 241.61 74.71 241.22 74.93 240.84C74.71 241.23 74.5 241.62 74.28 242Z" fill="#DBD3C8"/>
<path d="M175.15 331C172.31 332.13 170.53 333.97 168.88 336.77C166.57 340.67 162.98 337.25 160.24 336.39C156.55 335.23 155.04 331 151.8 328.99C145.73 322.71 140.13 315.89 132.06 311.93C129.35 310.43 129.58 308.57 131.39 306.51C131.64 306.08 131.98 305.73 132.41 305.47C134.83 304.59 136.78 303.31 136.75 300.34C137.06 296.31 135.11 292.19 137.17 288.22C138.6 282.8 137.06 277.29 137.99 271.74C139.18 264.63 141.57 257.93 143.2 250.98C146.3 249.32 146.92 251.46 147.32 253.77C147.68 255.85 147.25 258.16 149.21 259.71C149.98 260.21 150.75 260.72 151.56 261.18C152.94 263.06 154.48 264.75 156.63 265.78C161.11 269.81 166.59 269.51 172.07 269.5C179.84 269.48 187.62 269.25 195.38 269.62C197.7 270.73 197.55 272.34 196.09 274C194.86 275.39 193.79 276.82 193.25 278.62C198.03 280.2 198.83 282.81 197.52 287.1C195.29 294.35 192.14 301.54 193.39 309.47C193.4 310.14 192.72 309.08 193.31 309.39C193.53 309.5 193.64 309.37 193.61 309C193.24 303.67 195.28 298.81 197.64 294.4C201.38 287.42 203.22 280.28 202.53 272.43C202.1 267.63 203.82 262.89 202.94 258.04C202.61 256.23 203.46 254.78 205.57 254.53C206.78 254.28 207.81 254.62 208.74 255.4C210.41 263.56 209.09 271.8 209.5 279.98C209.63 282.43 208.77 284.93 209.86 287.34C210.57 289.05 209.72 290.71 209.69 292.4C209.52 293.85 209.83 295.26 210.47 296.52C211.7 298.97 210.76 300.87 208.54 301.49C205.26 302.4 204.28 305.16 202.67 307.42C203.42 307.14 203.3 306.27 203.68 305.71C205.22 303.36 206.63 300.61 210.17 302.66C212.73 304.14 213.8 308.37 212.08 311.01C211.24 312.31 210.47 313.94 209.09 314.7C205.2 316.85 202.37 320.45 198.34 322.37C192.57 324.94 187.12 328.17 181.25 330.5C179.31 331.27 177.36 332.66 175.18 331.01L175.15 331Z" fill="#DC5959"/>
<path d="M184.11 211.02C184.53 212.85 182.32 216.02 185.4 216.26C187.8 216.45 188.71 213.48 188.76 210.96C188.79 209.3 188.94 207.65 189.04 206C193.65 207.13 197.95 212.32 198.16 216.97C193.87 226.18 195.97 235.98 195.49 245.55C195.48 252.03 195.45 258.51 195.49 264.98C195.51 268.55 193.97 270.04 190.37 270C180.74 269.9 171.11 269.96 161.48 269.97C157.01 270.83 155.64 268.44 155.57 264.48C155.42 255.56 155.54 246.63 155.5 237.71C155.48 231.98 156.06 226.15 152.81 220.93C152.67 219.94 152.63 218.94 152.64 217.95C152.7 211.67 153.5 210.66 159.78 210.6C166.25 210.53 172.64 209.07 179.13 209.55C180.88 209.68 182.87 209.12 184.1 211.03L184.11 211.02Z" fill="#DC5959"/>
<path d="M195.86 216.28C195.49 215.41 195.31 213.96 194.71 213.77C190.88 212.51 190 209.25 189.03 206C188.84 205.74 188.8 205.45 188.91 205.15C188.06 203.21 188.89 201.55 190.6 201.16C194.29 200.32 198.04 199.41 201.9 200.31C206.01 201.27 207.78 204.12 207.45 207.97C206.84 214.98 208.15 222.04 206.76 229.02C206.54 230.12 206.68 231.7 207.33 232.35C210.09 235.09 209.15 238.49 209.51 241.7C210.12 247.17 208.48 251.82 205 255.94C205.15 269.56 207.03 283.25 199.68 296.09C196.99 300.79 195.12 306.38 194.89 312.15C194.85 313.22 194.96 314.8 193.31 314.7C192.1 314.63 192.08 313.26 192.04 312.31C191.93 309.57 191.21 307.09 189.51 304.91C188.2 303.23 189.19 301.98 190.17 300.49C192.48 296.98 194.57 293.33 191.75 289.03C190.87 287.68 190.99 286.49 192.85 286.04C194.4 285.67 196 285.08 195.33 283.12C194.53 280.79 192.78 281.76 191.19 282.32C190.47 282.58 189.64 282.57 188.03 282.8C190.95 278.39 191.18 273.23 195.88 270.78C194.67 269.82 194.88 268.52 194.91 267.18C195.05 259.8 194.95 252.42 194.97 245.03C194.97 237.22 194.97 229.41 194.97 221.6C194.97 219.79 194.75 217.92 195.84 216.28H195.86Z" fill="#DC5959"/>
<path d="M184.11 211.02C177.14 212.41 170.04 212.57 162.98 212.9C155.06 213.27 155.01 213.08 155.03 221.04C155.49 221.53 155.88 222.11 155.88 222.78C155.88 236.94 156.45 251.1 155.6 265.26C155.37 265.48 155.13 265.7 154.9 265.92C152.69 265.89 151.31 264.49 150 262.98C149.6 263.36 149.12 263.6 148.62 263.82C148.44 263.84 148.26 263.86 148.08 263.88C147.72 263.9 147.36 263.93 147 263.98C144.69 262 145.05 259.3 145.02 256.71C144.99 254.74 144.98 252.79 144.06 250.97C141.68 248.68 142.06 245.51 142.22 242.85C142.44 239.24 142.28 235.62 142.5 232.03C142.63 226.37 141.15 220.79 141.56 215.1C141.86 210.85 143.08 207.25 147.1 205.13C149.01 203.72 150.93 202.31 152.84 200.89C161 198.33 169.36 199.97 177.62 199.84C180.32 199.8 182.6 201.46 183.96 204C185.07 206.32 185.03 208.66 184.11 211.03V211.02Z" fill="#DC5959"/>
<path d="M185.89 196.09C183.64 194.26 182.23 191.78 180.96 189.29C178.76 184.98 175.7 181.58 171.43 179.39C168.07 177.67 166.96 175.25 168.03 171.63C169.11 167.98 169 163.89 171.16 160.66C176.07 153.31 176.81 145.56 174.27 137.28C173.73 135.53 173.24 133.74 173.07 131.93C172.88 129.9 171.86 127.07 174.58 126.29C177.38 125.49 178.62 127.95 179.33 130.3C181.43 137.18 182.51 144.22 182.8 151.41C183.18 160.67 184.51 169.69 190.56 177.24C192.64 179.83 194.9 182.27 197.08 184.79C197.82 187.08 200.45 188.08 200.94 190.62C201.28 192.39 201.83 194.05 200.34 195.54C195.56 196.9 190.76 197.47 185.88 196.09H185.89Z" fill="#DBD3C8"/>
<path d="M138.13 302.15C137.5 304.87 135.97 306.67 133.07 307.04C132.3 306.2 131.07 305.41 131.57 304.13C133.89 298.2 130.84 293.17 129.09 288.15C128.32 294.73 127.47 301.56 133.1 307.02C131.96 308.49 131.02 310 132.04 311.93C126.83 309.79 124.72 305.46 124.17 300.26C123.87 297.47 123.93 294.62 124.1 291.81C124.53 284.93 123.42 278.63 121.6 271.76C118.34 259.5 117.59 246.17 123.97 233.92C130.95 235.46 133.91 240.86 132.25 249.12C131.86 251.04 130.91 252.91 131.93 254.9C131.62 259.42 136.23 258.02 138.05 259.99C138.81 260.43 138.96 261.12 138.83 261.92C137.49 264.95 134.16 262.03 132.54 264.08C132.48 265.62 132.23 267.67 133.45 268.32C138.12 270.8 136.84 275.16 137.45 279.03C138.67 286.72 139.01 294.41 138.14 302.15H138.13Z" fill="#DBD3C8"/>
<path d="M308.65 266.79C308.36 267.13 308.07 267.47 307.78 267.81L307.91 267.84C307.61 268.26 307.28 268.67 306.84 268.96L306.91 268.88C306.66 269.29 306.28 269.59 306.02 270L305.96 270.09C305.63 270.27 305.4 270.53 305.28 270.88C304.81 271.34 304.34 271.79 303.86 272.25C303.51 272.42 303.24 272.67 303.06 273.02L302.96 273.12C302.62 273.3 302.35 273.57 302.18 273.92C301.94 274.1 301.78 274.35 301.71 274.64C301.73 279.56 300.36 284.39 301.08 289.39C301.46 292.06 300.55 294.69 298.7 296.83C298.4 297.26 298.23 297.74 298.17 298.27C294.07 299.73 289.97 300.88 286.02 297.86C288.27 295.07 288.51 292.08 286.9 288.91C287.79 283.78 289.97 279.21 292.94 274.98L294.13 269.7C297.3 264 297.29 257.78 297.15 251.53C297.13 250.76 296.56 250.42 296 250.06C298.32 244.04 300.63 238.02 302.95 232C306.1 234.75 306.85 239.15 309.86 242C313.54 249.19 314.95 256.35 309.9 263.58C309.26 264.49 309.07 265.72 308.66 266.8L308.65 266.79Z" fill="#DBD3C8"/>
<path d="M241.96 307.97C239.6 307.26 238.36 305.88 238.83 303.22C239.32 300.49 241.31 299.94 243.55 299.75C250.83 299.13 257.84 297.29 264.86 295.37C274.77 292.67 275.4 292.12 275.98 281.95C277.68 285.15 276.61 288.7 277.3 292.03C277.86 294.74 278.38 297.48 280.16 299.74C280.05 300.21 279.84 300.63 279.54 301.01C273.59 304.14 269.41 308.64 268.16 315.48C268.04 316.15 267.37 316.49 266.85 316.87C266.28 318.63 265.7 320.39 265.13 322.15C261.91 322.15 258.46 324.54 255.55 321.24C254.53 317.97 255.68 315.89 258.97 314.97C259.31 314.32 259.65 313.66 259.99 313.01C260.98 311.79 259.97 310.16 260.83 308.91L260.88 308.84C261.6 308.43 261.32 307.37 262.07 306.98V307.02C262.29 304.84 261.02 305.47 259.87 305.86H259.91C254.15 308.46 248.36 310.89 241.95 307.97H241.96Z" fill="#DBD3C8"/>
<path d="M228.76 246.84C227.88 248.27 227 249.71 226.13 251.14C224.18 251.79 222.31 251.71 221.66 249.46C220.51 245.46 218.39 244 214.42 245.96C213.85 246.24 213.13 245.79 212.51 245.55C212.07 245.41 211.66 245.21 211.29 244.93C210.26 240.61 206.93 236.44 210.47 231.81C210.94 231.19 210.35 230.55 210.1 230.01C207.85 225.17 207 220.45 210.68 215.81C211.23 215.12 210.88 213.9 210.92 212.92C211.04 209.54 212.56 207.49 216.32 208.03C217.3 208.17 218.37 208.59 219.28 208.23C223.9 206.4 226.29 208.46 227.53 212.73C228.41 214.23 227.71 215.46 227.03 216.83C224.64 221.62 225.17 222.67 230.62 224.08C231.67 224.35 232.37 224.86 232.84 225.78C228.25 230.87 223.8 235.95 225.04 243.67C225.43 246.13 226.15 247.39 228.77 246.84H228.76Z" fill="#DBD3C8"/>
<path d="M273.92 210.04C272.54 212.56 274.04 214.86 274.51 217.22C274.83 218.84 275.53 220.38 275.95 221.98C276.24 223.08 270.66 246.07 269.96 247.14C267.86 247.77 266.54 246.83 266.76 244.81C266.97 242.84 265.87 240.89 266.82 238.97C267.65 236.44 268.52 233.92 269.28 231.37C269.66 230.11 269.96 228.81 270.08 227.51C270.27 225.37 269.71 223.21 267.53 222.59C265.11 221.9 264.07 224.08 263.21 225.85C258.37 235.82 258.02 246.27 260.01 256.95C258.09 255.66 258 253.67 257.96 251.65C257.77 242.06 258.36 232.44 257.04 222.88C258.89 216.42 261.78 210.47 265.84 205.11C269.19 205.67 272.07 207.01 273.93 210.03L273.92 210.04Z" fill="#DBD3C8"/>
<path d="M226.11 213.16C225.66 210.7 224.58 210.78 221.96 210.4C213.69 209.2 213.06 215.85 210.54 220.19C208.89 223.03 209.74 226.67 211.8 229.58C212.56 230.66 213.42 231.66 214.22 232.72C214.97 233.71 216.55 234.59 215.4 236.05C214.38 237.34 213.01 236.61 211.78 236.03C211.4 235.85 210.91 235.89 210.42 235.82C209.58 238.88 213.24 240.97 211.83 243.95C212.99 247.59 211.45 251.08 211.18 254.63C211.09 255.85 210.1 256.64 208.66 256.03C208.13 255.27 207.54 254.54 207.17 253.68C208.9 246.19 208.28 238.86 207.36 231.22C206.53 224.29 206.95 216.97 207.34 209.83C207.66 204.02 206.42 198.83 200.9 195.6C200.33 195.26 200.12 194.55 200.01 193.87C197.92 191.21 198.45 187.7 197.08 184.8C208.3 193.53 220.18 201.48 229.84 212.1C228.99 213.82 227.69 214.02 226.1 213.17L226.11 213.16Z" fill="#DBD3C8"/>
<path d="M200.03 193.86C201.69 193.92 203.35 193.91 205 194.06C207.75 194.31 209.06 195.75 209.04 198.65C208.92 217.08 208.88 235.51 208.82 253.94C208.31 254.52 208.78 255.52 207.97 255.97C206.99 255.96 206.01 255.94 205.02 255.93C204.84 250.61 209.24 246.26 208.04 240.6C207.49 238.02 207.76 235.3 205.77 233.17C204.97 232.31 204.08 231.1 204.58 230.04C207.08 224.72 204.62 219.17 205.5 213.79C206.11 210.01 206.9 206.01 202.94 203.39C200.05 201.48 192.19 202.57 188.93 205.14C187.77 202.17 187.87 198.79 185.91 196.08C190.37 193.72 195.28 194.23 200.04 193.85L200.03 193.86Z" fill="#DC5959"/>
<path d="M77.07 212C76.28 209.76 78.46 206.33 76.01 205.32C73.97 204.48 72.77 208.02 70.9 209.26C66.73 212.02 61.15 212.43 58.09 217.01C53.06 221.4 52.51 226.93 54.03 232.99C55.54 237.28 55.34 241.55 53.8 245.79C52.08 247.32 50.25 249.68 49.35 245.19C49.65 244.85 49.96 244.51 50.26 244.17C50.58 243.48 50.91 242.79 51.23 242.1C52.86 239.69 51.79 237.33 51.1 234.96C50.71 231.63 48.94 231.35 46.45 232.94C44.97 233.89 43.58 234.99 42.16 236.02C41.76 236.32 41.38 236.62 41.1 237.04L41.14 237.01C40.46 237.46 40.72 238.47 40.01 238.9H39.99C38.61 240.04 37.4 239.83 36.37 238.44C35.33 237.04 35.42 235.84 37.07 234.97C37.62 234.4 38.54 234.58 39.08 233.99C40.6 232.75 42.25 231.7 44.02 230.85L43.97 230.93C44.42 230.68 44.76 230.33 45.02 229.89L44.98 229.93C45.4 229.68 45.74 229.35 46.07 229C48.88 227.68 49.98 225.24 50.77 222.38C52.86 214.72 57.39 209.55 65.03 206.32C71.85 203.43 78.43 199.19 77.03 189.75C76.83 188.44 77.18 187.09 78.01 185.96C77.66 194.64 78.88 203.37 77.08 212H77.07Z" fill="#DBD3C8"/>
<path d="M290.92 178.06C283.33 176.46 275.77 174.76 270.01 168.95C269.63 168.67 269.29 168.34 268.91 168.05H268.9C268.63 167.65 268.29 167.33 267.87 167.11C266.76 166.67 265.88 165.98 265.35 164.89C262.82 160.33 262.93 155.02 261.17 150.24C260.81 149.27 260.92 148.22 262.06 147.71C262.99 147.29 263.55 147.93 264.16 148.54C265.82 150.19 267.6 152 268.27 154.1C270.48 161.03 274.98 165.36 281.46 167.1C281.1 166.74 279.34 166.85 279.95 165.09C280.26 163.1 280.57 161.12 280.89 159.13C285.05 163 290.5 164.77 295.13 167.87C295.18 171.87 292.5 174.73 290.92 178.05V178.06Z" fill="#DBD3C8"/>
<path d="M135.16 368.84C134.47 366.55 133.79 364.25 133.1 361.96C133.04 361.02 132.98 360.07 132.92 359.13C132.31 355.05 132.17 350.97 133 346.89C132.75 344.42 133.72 340.96 129.08 341.99C129.15 339.33 128.26 336.88 127.52 334.37C126.83 332.01 126.13 329.53 128.94 327.89C133.28 328.13 136.16 330.96 138.7 333.91C141.36 337 144.26 339.85 146.96 342.9C146.91 346.63 146.86 350.36 146.81 354.09C144.61 351.01 144.21 345.81 138.41 346.99C136.67 350.92 137.45 354.93 138 358.93C138.07 360.16 138.14 361.39 138.2 362.63C137.81 365.65 136.86 368.65 138.34 371.81C135.88 371.78 136.02 369.83 135.15 368.85L135.16 368.84Z" fill="#DBD3C8"/>
<path d="M116.95 170.9C119.27 164.67 123.59 159.92 128.3 155.45C131.88 152.05 135.65 148.81 138.29 144.38C138.81 150.28 136.61 155.37 132.81 159.38C127.74 164.73 125.73 171.24 123.97 178.01C122.99 179.22 124.02 180.85 123.11 182.07L123.13 182.02C121.81 183.07 123.18 184.89 122.01 185.98C117.96 185.42 118.7 181.39 117.43 179.03C116.23 176.81 115.84 173.68 116.95 170.9Z" fill="#DBD3C8"/>
<path d="M220.96 175.01L218.87 173.05C218.38 171.93 218.98 171.33 219.9 170.88C219.81 164.49 216.92 158.66 216.16 152.38C215.83 149.68 215.8 147.1 216.23 144.48C216.45 143.1 217.14 141.84 218.63 141.64C220.15 141.44 221.16 142.53 221.63 143.82C222.31 145.68 223.05 147.61 223.23 149.56C224.15 159.18 228.84 167.17 233.9 175.03C232.88 177.55 231.06 176.59 229.45 175.95C226.68 174.85 223.91 174.19 220.95 175L220.96 175.01Z" fill="#DBD3C8"/>
<path d="M196.22 110.77C193.84 102.9 194.5 94.76 194.13 86.72C193.92 82.13 196.24 78.15 198.03 74.09C198.91 72.65 199.81 71.18 201.87 71.81C203.77 72.39 204.15 74 204.29 75.72C205.14 85.96 205.2 96.18 202 106.06C201.26 108.34 201.28 112.11 197.09 111.8L197.13 111.86C196.59 111.69 196.26 111.34 196.21 110.76L196.22 110.77Z" fill="#DBD3C8"/>
<path d="M124.12 318.96C124.07 316.72 123.06 316.01 120.72 315.98C111.55 315.84 107.95 312.1 107.05 302.89C106.78 300.13 108.52 296.3 104.07 295.02C107 292.68 109.94 290.34 113.43 287.54C113.87 291.57 114.44 295.09 114.6 298.63C114.82 303.63 117.16 307.3 120.72 310.63C122.98 312.74 126.31 314.85 124.12 318.97V318.96Z" fill="#DBD3C8"/>
<path d="M232.77 230.92C240.04 242.3 238.61 254.19 234.81 266.22C234.41 267.48 234.15 268.83 233.49 269.93C232.3 271.89 230.27 272.69 228.4 271.35C226.68 270.12 227.81 268.58 228.83 267.08C232.51 261.64 232.35 255.17 233.01 249.02C233.24 246.9 231.77 244.68 228.84 246.8C227.62 240.88 228.85 235.57 232.77 230.93V230.92Z" fill="#DBD3C8"/>
<path d="M197.1 111.8C200.66 108.04 200.7 102.97 201.61 98.39C203.09 90.9 202.36 83.25 201.87 75.66C201.66 72.45 200.18 72.52 198.04 74.08C198.79 71.12 201.04 70.87 203.49 71.18C206.21 71.54 206.54 73.61 206.91 75.88C208.87 87.96 207.18 99.53 202.2 110.64C201.14 113 199.73 115.56 197.1 111.79V111.8Z" fill="#DBD3C8"/>
<path d="M227.97 44C229.04 56.84 227.57 69.64 225.4 82.14C223.45 93.36 227.46 100.58 236.77 107.41C234.52 103.87 234.84 100.91 235.01 97.97C235.98 97.62 236.96 97.26 237.93 96.91C238.79 100.34 241.06 102.58 244.11 104.14C244.39 104.76 244.67 105.39 244.95 106.01C245.47 106.87 246.92 106.8 247.03 108.08C247 108.41 246.97 108.75 246.94 109.08C246.86 109.29 246.78 109.51 246.7 109.72C246.23 110.28 245.58 110.45 244.89 110.53C239.77 111.65 242.56 115.23 242.62 117.95C241.81 120 241.72 121.74 244.36 122.52C246.8 123.24 247.54 126.26 250.1 126.86C251.07 128.48 250.87 130.29 250.92 132.05C247.66 129.78 244.41 127.49 241.14 125.24C239.47 124.1 238.93 122.36 238.62 120.54C237.35 113.13 233.98 106.87 228.35 101.88C224.13 98.14 222.89 93.66 223.49 88C224.92 74.61 225.8 61.16 226.88 47.73C226.99 46.4 226.91 45.05 227.97 44.01V44Z" fill="#DBD3C8"/>
<path d="M147.14 39.92C147.69 39.6 148.23 39.29 148.78 38.97C147.41 47.98 147.91 56.86 150.44 65.64C152.11 71.43 150.91 76.28 146.08 80.39C139.54 85.95 137.7 93.76 137.15 101.9C136.95 104.88 136.32 107.45 134 109.45C122.97 118.98 118.03 131.61 115.71 145.56C115.58 146.35 115.19 147.11 114.85 148.1C113.75 144.87 113.69 144.85 114.58 141.61C117.91 129.5 121.86 117.73 132.02 109.27C134.45 107.25 135.3 104.4 135.58 101.28C136.4 92.08 138.98 83.73 146.41 77.45C149.41 74.91 150.44 71.27 149.04 67.44C145.76 58.42 145.5 49.24 147.14 39.91V39.92Z" fill="#DBD3C8"/>
<path d="M183.96 203.99C176.72 200.88 169.01 203.01 161.57 202.04C158.66 201.66 155.64 202.15 152.84 200.88C154.24 199.26 155.65 197.65 157.05 196.03C157.34 195.67 157.7 195.35 157.88 194.9V194.88C164.76 190.94 171.83 192.25 178.93 194.07C179.34 194.32 179.61 194.68 179.75 195.14C181.44 197.95 183.97 200.37 183.96 203.99Z" fill="#DC5959"/>
<path d="M292.94 274.96C293.28 276.92 295.37 277.61 296.41 279.77C289.09 279.35 292.08 286.41 289.12 289.31C289.47 292.83 287.86 295.27 284.91 296.97C280.38 293.93 281.69 289.29 282.24 285.28C282.89 280.46 282.25 276.17 279.93 272.02L281.91 270.93C285.33 272.98 288.31 276.22 292.94 274.96Z" fill="#DBD3C8"/>
<path d="M267.99 318.81C268.02 318.55 268.03 318.28 268.03 318.02C268.23 309.89 272.28 304.43 279.65 301.26C280.07 301.02 280.52 300.84 280.97 300.67C283.88 303.17 288.34 302.11 291.04 305.08C289.53 306.98 287.32 307.71 285.18 308.55C280.76 310.29 277.05 312.84 275.04 317.37C273.85 320.05 271.92 321.06 269.08 319.9C268.63 319.62 268.27 319.25 267.98 318.8L267.99 318.81Z" fill="#DBD3C8"/>
<path d="M279.95 165.09C282.82 166.62 285.69 168.15 288.96 169.9C284.82 170.13 276.27 166.49 272.78 163.42C268.38 159.55 268.23 152.76 262.53 148.81C262.6 154.84 263.73 159.94 266.1 164.81C265.78 165.29 265.4 165.36 264.94 165.02C262.21 160.33 261.87 154.88 260.21 149.85C259.01 146.23 257.08 144.1 253.36 143.68C245.59 142.79 240.58 139.14 238.98 130.96C238.14 126.63 235.57 122.76 233.6 118.71C237.17 121.21 239.03 125.06 239.84 129.02C241.47 137.03 246.12 140.84 254.03 141.99C262.22 143.19 266.99 148.89 270.1 156.14C272.03 160.64 274.82 164.16 279.97 165.1L279.95 165.09Z" fill="#DBD3C8"/>
<path d="M102.05 216.98C100.53 211.87 100.83 206.79 102.35 201.74C102.97 199.69 103.19 197.15 105.55 196.45C108.37 195.62 109.49 198.31 111.05 199.93C111.63 200.54 112.84 200.82 112.15 202.08C109.41 208.67 106.66 215.27 103.92 221.86C100.76 221.21 103.66 218.23 102.05 216.98Z" fill="#DBD3C8"/>
<path d="M131.92 254.9C130.34 253.75 130.83 252.05 131.28 250.78C133.3 245.02 130.24 241.74 125.94 238.86C124.24 237.72 124.61 235.58 123.97 233.92C124.04 233.6 124.04 233.24 124.18 232.95C125.74 229.64 126.91 223.93 130.56 224.89C134.23 225.85 134.77 231.65 134.44 235.78C133.94 242.18 132.79 248.53 131.92 254.9Z" fill="#DBD3C8"/>
<path d="M147.1 205.12C144.44 207.51 143.65 210.47 143.79 214.02C144.03 219.98 143.88 225.95 143.9 231.92C142.85 238.27 142.63 244.67 142.4 251.08C142.35 252.58 143.15 255.2 139.95 254.96C139.35 248.11 140.81 241.35 140.9 234.52C140.96 230.1 140.31 225.92 138.73 221.83C135.78 214.19 138.94 207.92 147.1 205.12Z" fill="#DBD3C8"/>
<path d="M125.96 16.17C127.12 14.78 128.09 13.15 129.49 12.05C131.71 10.31 134.22 8.56998 136.86 11.46C137.86 12.55 138.89 12.28 140.02 11.96C141 12.36 141.97 12.75 142.95 13.15C143.26 21.35 145.21 20.83 135.45 20.96C132.95 21 130.37 19.38 127.92 21.11C126.93 19.59 126.18 17.98 125.97 16.16L125.96 16.17Z" fill="#DBD3C8"/>
<path d="M102.05 216.98C102.67 218.61 103.3 220.24 103.92 221.86C103.72 223.27 102.89 224.23 101.79 225.06C98.45 227.56 98.33 231.1 98.45 234.87C98.79 245.52 99.39 256.11 103.98 266C102.34 268.49 100.08 267.12 98.01 266.98C96.35 260.12 94.27 253.37 96.65 246.13C97.7 242.93 97.89 239.46 97.17 235.87C96.32 231.61 96.67 227.23 100.42 224C102.66 222.07 101.67 219.37 102.04 216.99L102.05 216.98Z" fill="#DBD3C8"/>
<path d="M106.09 72.03C108.86 65.69 109.11 58.81 109.81 52.03C110.23 52.05 110.65 52.06 111.07 52.08C111.07 54.39 111.11 56.7 111.06 59C110.98 62.18 111.39 64.94 113.47 67.79C116.11 71.41 115.54 76.12 114.41 80.21C113.66 82.9 111.24 84.18 108.79 81.18C109 77.8 107.59 74.9 106.09 72.02V72.03Z" fill="#DBD3C8"/>
<path d="M178.94 194.07C171.98 195.67 164.92 194.63 157.9 194.88C158.16 194.29 158.26 193.52 158.7 193.13C161.34 190.8 161.3 184.96 165.4 185.44C170.83 186.08 176.09 188.61 178.94 194.08V194.07Z" fill="#DBD3C8"/>
<path d="M85.19 190.11C83.36 184.21 84.92 178.53 88.24 173.91C92.9 167.41 93.88 160.65 92.55 153.13C91.13 145.11 91.39 137.23 94.95 129.69C95.51 128.5 95.86 127.18 97.15 126.44C98.24 127.09 97.48 127.87 97.19 128.45C93.07 136.55 92.81 145.07 94.54 153.74C96.03 161.19 94.65 167.97 90.22 174.08C86.73 178.89 86.31 184.52 85.18 190.11H85.19Z" fill="#DBD3C8"/>
<path d="M289.7 260.51C286.92 251.36 286.45 242.29 290.74 234.15C296.1 223.99 295.07 214.72 289.91 205.22C289.63 204.7 289.53 204.08 289.32 203.4C291.34 203.07 292.02 204.49 292.51 205.52C296.41 213.76 298.9 222.53 294.14 230.91C289.5 239.07 289.59 247.37 290.46 256.05C290.6 257.42 291.41 258.91 289.71 260.51H289.7Z" fill="#DBD3C8"/>
<path d="M197.11 146.86C196.76 141.34 196.09 135.82 196.14 130.3C196.19 124.67 194.96 119.87 190.53 116.06C181.45 108.27 182.58 92.41 187.23 81.72C187.67 85.93 186.36 89.34 185.75 92.78C184.26 101.19 185.79 108.68 192.09 114.75C196.33 118.84 198.03 123.75 197.92 129.53C197.81 135.29 197.9 141.05 197.9 146.81L197.12 146.85L197.11 146.86Z" fill="#DBD3C8"/>
<path d="M139.95 254.95C141.81 250.29 141.15 245.28 141.91 240.46C142.37 237.54 142.67 234.63 143.9 231.91C143.95 238.26 144.01 244.61 144.06 250.95C144.06 254.12 143.69 257.18 142.38 260.15C139.61 266.4 139.99 273.07 140.01 279.69C140.01 282.81 140.43 286 139.12 289.01C136.55 283.03 137.67 276.62 136.96 270.43C136.81 269.11 136.6 267.85 136.02 266.66C135.19 264.42 137.11 263.38 138.09 261.93C138.07 261.28 138.06 260.63 138.04 259.99C138.68 258.31 139.31 256.63 139.95 254.95Z" fill="#DBD3C8"/>
<path d="M96.93 71.12C97.33 70.37 97.74 69.62 98.14 68.87C100.63 65.88 97.49 62.61 98.63 59.46C99.23 57.81 98.94 55.85 99.05 54.03C100.11 56.64 101.48 59.03 102.97 61.43C104.88 64.53 104.42 69.1 104.97 73.04C104.74 73.69 103.39 73.77 104.04 74.87C103.2 76.71 103.13 79.01 100.91 80C100.65 79.7 100.39 79.41 100.11 79.12C99.78 78.86 99.42 78.72 99.03 78.59C97.5 78 94.57 79.68 95.02 75.99C96.36 75.73 98.11 76.43 98.8 74.65C99.49 72.87 97.74 72.19 96.91 71.11L96.93 71.12Z" fill="#DBD3C8"/>
<path d="M93.05 279.9C91.96 278.31 90.41 277.01 89.98 275.01C96.82 277.42 98.07 277.1 100.96 272.15C103.12 270.24 104.17 272.22 105.34 273.47C106.46 274.68 106.82 276.38 107.85 277.67C104.47 279.67 101.73 282.72 97.81 283.84C95.69 283.16 93.13 283.02 93.04 279.89L93.05 279.9Z" fill="#DBD3C8"/>
<path d="M121.03 54.66C120.58 57.25 120.24 59.88 119.64 62.44C119.33 63.76 118.47 64.98 116.82 64.56C115.51 64.23 114.92 63 115.33 61.82C116.13 59.55 114.8 58.07 113.8 56.38C112.82 54.7 112.61 52.9 114.02 51.32C115.14 50.06 116.64 49.96 118.13 50.5C120.03 51.19 121.07 52.57 121.03 54.66Z" fill="#DBD3C8"/>
<path d="M219.91 170.88C219.57 171.6 219.22 172.33 218.88 173.05C210.45 166.04 206.16 156.96 205.94 146.09C205.8 139.56 205.55 132.94 207.77 125.32C208.87 134.69 206.12 142.74 207.96 150.84C209.78 158.87 212.99 165.95 219.92 170.88H219.91Z" fill="#DBD3C8"/>
<path d="M264.83 286.72C264.05 287.92 263.51 289.78 261.78 289.42C258.69 288.78 260.54 285.41 259.07 283.78C255.58 282.01 256.77 279.49 257.97 276.96C257.94 275.26 258.19 273.42 255.88 272.88C255.82 272.56 255.8 272.25 255.81 271.92C258.55 270.68 261.32 270.72 264.11 271.78C264.1 272.01 264.08 272.25 264.07 272.48C263.78 276.12 265.7 279.31 266.17 282.81C266.38 284.4 267.19 286.06 264.83 286.72Z" fill="#DBD3C8"/>
<path d="M93.05 279.9C94.96 280.83 96.86 281.77 97.82 283.85C94.55 286.2 91.27 288.55 88 290.89C84.27 288.99 83.89 284.88 87.35 282.74C89.15 281.63 91.15 280.83 93.06 279.89L93.05 279.9Z" fill="#DBD3C8"/>
<path d="M170.49 94.26C167.69 83.75 170.37 73.39 171.12 62.98C172.76 73.46 170.06 83.82 170.49 94.26Z" fill="#DBD3C8"/>
<path d="M107.85 277.68C104.9 276.65 103.79 273.33 100.96 272.15C99.98 270.42 99 268.7 98.01 266.97C99.73 264.98 101.85 265.46 103.98 265.99C105.02 268.31 106.06 270.64 107.1 272.96C107.47 273.37 107.84 273.79 107.87 274.38C107.87 275.48 107.86 276.57 107.85 277.67V277.68Z" fill="#DBD3C8"/>
<path d="M232.94 187.07C236.27 185.22 234.02 181.32 235.93 178.95C236.23 181.71 236.1 184.75 240.04 185.05C240.39 188.34 240.73 191.63 241.08 194.92C237.94 192.74 235.29 190.06 232.94 187.07Z" fill="#DBD3C8"/>
<path d="M256.08 163.1C250.92 159.07 249.24 154.72 249.43 149.43C253.22 152.72 256.04 156.5 256.08 163.1Z" fill="#DBD3C8"/>
<path d="M281.81 270.88C281.53 268.57 281.25 266.26 280.98 263.95C284.69 260.56 283.37 256 283.73 251.85C283.88 250.1 282.62 248.37 283.48 246.52C287.19 250.65 286.4 261.93 281.81 270.88Z" fill="#DBD3C8"/>
<path d="M116.95 170.9C116.59 176.61 120.08 181.03 122.01 185.98C122.06 188.24 120.96 190.07 119.82 191.9C119.5 192.34 119.12 192.38 118.7 192.04C120.7 188.42 118.05 185.46 117.23 182.28C116.25 178.47 114.79 174.76 116.95 170.91V170.9Z" fill="#DBD3C8"/>
<path d="M106.29 231.13C105.78 233.16 106.21 235.94 103.28 236.12C101.43 236.23 100.37 234.42 100.49 232.64C100.63 230.49 101.14 227.99 103.72 227.66C105.9 227.38 106.12 229.44 106.29 231.12V231.13Z" fill="#DBD3C8"/>
<path d="M309.85 241.98C305.62 239.98 303.53 236.5 302.94 231.98C302.94 229.64 302.94 227.3 302.94 224.96C303.2 225.02 303.45 225.1 303.69 225.2C303.42 229.76 306.47 233.08 308.04 236.95C308.71 238.6 309.25 240.3 309.85 241.98Z" fill="#DBD3C8"/>
<path d="M80.17 180.04C79.47 179.71 78.77 179.37 78.06 179.04C81.55 175.67 82.39 170.9 84.51 166.8C85.77 164.36 86.66 161.68 89.6 160.19C86.46 166.81 83.31 173.42 80.17 180.04Z" fill="#DBD3C8"/>
<path d="M210.95 111C213.07 104.96 215.91 99.07 214.03 91.07C217.94 97.52 216.34 105.4 211.02 111.06L210.95 111Z" fill="#DBD3C8"/>
<path d="M104.05 74.88C102.81 75.02 101.41 75.98 100.51 74.31C100.3 73.92 100.2 73.15 100.43 72.91C101.95 71.28 103.43 73.41 104.98 73.05C105.35 72.71 105.72 72.37 106.1 72.03C109.73 74.28 110.09 77.49 108.8 81.19C108.27 80.91 107.75 80.63 107.22 80.35C107.24 77.91 107.76 75.17 104.06 74.88H104.05Z" fill="#DBD3C8"/>
<path d="M250.25 216.06C253.5 219.99 254.18 224.52 253.28 229.4C251.62 225.12 251.67 220.41 250.25 216.06Z" fill="#DBD3C8"/>
<path d="M132 198.99C130.41 199.81 129.62 201.75 126.52 202.3C131.11 198.06 132.72 193.11 134.93 188.41C135.55 192.43 133.34 195.62 131.97 199.04L132 198.99Z" fill="#DBD3C8"/>
<path d="M269.87 182.95C263.95 183.72 262.92 178.2 259.82 175.34C263.86 176.35 265.7 180.19 268.98 182.19C269.46 182.23 269.74 182.5 269.87 182.95Z" fill="#DBD3C8"/>
<path d="M284.91 296.97C285.31 293.86 288.05 292.04 289.12 289.31C291.21 293.46 290.33 295.89 286.02 297.84L284.91 296.97Z" fill="#DBD3C8"/>
<path d="M167.99 31.05C168.97 31.44 169.95 31.82 170.93 32.21C168.99 35.79 171.27 40.03 168.78 44.82C168.47 39.44 168.23 35.25 167.98 31.05H167.99Z" fill="#DBD3C8"/>
<path d="M246.04 168.79C249.28 172.07 252.32 175.14 255.26 178.11C251.43 176.89 247.69 173.22 246.04 168.79Z" fill="#DBD3C8"/>
<path d="M102.28 123.5C101.16 119.29 102.06 115.47 105.1 112.21C104.16 115.97 103.22 119.73 102.28 123.5Z" fill="#DBD3C8"/>
<path d="M118.7 192.03C119.07 191.98 119.45 191.94 119.82 191.89C117.83 195.71 116.23 199.83 112.16 202.08C111.79 201.36 111.42 200.65 111.06 199.93C115.17 198.8 115.95 194.46 118.7 192.02V192.03Z" fill="#DBD3C8"/>
<path d="M244.64 215.48C247.5 218.16 248.11 221.73 248.36 225.44C246 222.59 245.5 218.99 244.64 215.48Z" fill="#DBD3C8"/>
<path d="M108.36 250.32C106.67 247.81 106.52 245.18 107.84 241.51C109.33 244.97 109.08 247.61 108.36 250.32Z" fill="#DBD3C8"/>
<path d="M138.23 195.09C139.71 191.81 141.18 188.54 142.66 185.26C142.84 189.4 141.89 193.06 139.02 195.98C138.57 195.84 138.31 195.54 138.23 195.08V195.09Z" fill="#DBD3C8"/>
<path d="M116.01 12.03C116.55 11.3 117.31 11.16 118.14 11.22C118.41 14.78 119.68 18.28 118.79 22.32C116.26 19.07 117.86 15.06 116.01 12.03Z" fill="#DBD3C8"/>
<path d="M158.37 127.81C158.14 130.02 157.91 132.22 157.68 134.43C155.68 131.9 155.88 129.57 158.37 127.81Z" fill="#DBD3C8"/>
<path d="M153.49 132.52C152.6 128.63 153.04 126.31 155.27 123.12C155.21 126.73 155.3 129.14 153.49 132.52Z" fill="#DBD3C8"/>
<path d="M285.48 208.94C287.37 209.01 289.07 209.04 290.06 210.87C290.42 211.54 290.03 212.24 289.25 212.36C286.98 212.69 285.86 211.52 285.48 208.94Z" fill="#DBD3C8"/>
<path d="M111.72 246.29C113.58 248.75 113.82 250.53 113.39 253.81C111.6 251.15 111.11 249.4 111.72 246.29Z" fill="#DBD3C8"/>
<path d="M269.87 182.95C269.57 182.7 269.28 182.44 268.98 182.19C270.58 180.07 272.3 181.6 273.99 182.01L273.93 181.96C274.27 182.96 275.67 183.67 274.75 185.08C272.77 185.17 271.68 183.21 269.87 182.94V182.95Z" fill="#DBD3C8"/>
<path d="M223.22 133.14C224.17 135.25 225.12 137.35 226.06 139.46C223.8 138.04 222.43 136.14 223.22 133.14Z" fill="#DBD3C8"/>
<path d="M105.95 124.04C105.03 120.52 105.46 118.72 107.4 116.23C107.56 119.08 107.26 120.87 105.95 124.04Z" fill="#DBD3C8"/>
<path d="M114.01 12.07C114.68 12.06 115.34 12.05 116.01 12.04C116.06 13.66 116.38 15.32 115.29 17.2C113.51 15.61 114.08 13.75 114.01 12.08V12.07Z" fill="#DBD3C8"/>
<path d="M175.42 79.18C176.24 81.73 176.39 84.25 175.58 87.84C174.58 84.28 174.72 81.72 175.42 79.18Z" fill="#DBD3C8"/>
<path d="M138.23 195.09C138.49 195.39 138.75 195.69 139.02 195.99C137.24 198.3 135.68 201.12 132 198.99L131.97 199.04C134.83 198.96 136.49 196.95 138.23 195.1V195.09Z" fill="#DBD3C8"/>
<path d="M283.31 206.92C283.19 207.14 283 207.48 282.81 207.83C282.23 207.36 281.53 206.97 281.1 206.39C280.71 205.85 280.82 205.05 281.71 205.08C282.61 205.12 282.92 205.97 283.3 206.92H283.31Z" fill="#DBD3C8"/>
<path d="M304.81 297.08C304.83 297.71 304.85 298.35 304.87 298.98C302.72 297.98 300.46 297.98 298.18 298.25C298.04 298.06 297.9 297.88 297.76 297.69C299.8 293.47 302.39 295.63 304.92 297.06H304.82L304.81 297.08Z" fill="#DBD3C8"/>
<path d="M264.94 165C265.33 164.93 265.72 164.86 266.1 164.79C266.69 165.56 267.28 166.33 267.87 167.09C267.59 167.7 267.3 168.31 267.02 168.92C265.61 167.99 265.23 166.52 264.94 165Z" fill="#DBD3C8"/>
<path d="M277.89 214.05C276.56 212.71 275.23 211.37 273.9 210.02C276.19 210.41 277.44 211.83 277.89 214.05Z" fill="#DBD3C8"/>
<path d="M272.92 179.04C274.16 179.79 275.22 180.71 275.85 182.06C275.21 182.03 274.57 182 273.92 181.97L273.98 182.02C273.63 181.03 273.27 180.04 272.92 179.05V179.04Z" fill="#DBD3C8"/>
<path d="M122.01 185.98C121.98 184.55 122.26 183.2 123.13 182.02C123.31 183.5 123.03 184.84 122.01 185.98Z" fill="#DBD3C8"/>
<path d="M271.96 276.95C270.51 276.94 269.66 276.06 269 274.9C270.36 275.04 271.29 275.81 271.96 276.95Z" fill="#DBD3C8"/>
<path d="M123.11 182.06C122.94 180.61 123.13 179.24 123.97 178C123.98 179.42 123.89 180.81 123.11 182.06Z" fill="#DBD3C8"/>
<path d="M256.01 218.94C256.36 220.27 256.71 221.6 257.06 222.93C255.88 221.82 255.56 220.48 256.01 218.94Z" fill="#DBD3C8"/>
<path d="M268.99 274.9C268.31 274.9 267.63 274.9 266.95 274.9C266.21 274.82 265.77 274.39 265.55 273.71C265.54 273.23 265.75 272.89 266.19 272.69C267.36 273.13 268.44 273.69 269 274.9H268.99Z" fill="#DBD3C8"/>
<path d="M211.02 111.06C210.91 111.46 210.81 111.87 210.7 112.27C210.59 112.21 210.39 112.11 210.4 112.1C210.57 111.73 210.77 111.37 210.95 111.01L211.02 111.07V111.06Z" fill="#DBD3C8"/>
<path d="M104.08 295.01C103.06 295.31 102.03 295.61 101.01 295.91C101.82 294.87 102.9 294.78 104.08 295.01Z" fill="#DBD3C8"/>
<path d="M98.06 299.97C97.74 300.98 97.42 301.99 97.1 303C96.86 301.81 97.14 300.79 98.06 299.97Z" fill="#DBD3C8"/>
<path d="M254.98 215.96C255.89 216.76 256.25 217.76 256.01 218.96C255.27 218.09 254.89 217.11 254.98 215.96Z" fill="#DBD3C8"/>
<path d="M264.11 271.78C264.8 272.08 265.49 272.39 266.18 272.69C266.02 272.88 265.85 273.07 265.69 273.27C264.62 273.72 263.92 273.47 263.74 272.24C263.86 272.09 263.99 271.93 264.11 271.78Z" fill="#DBD3C8"/>
<path d="M241.12 183.09C240.76 183.75 240.4 184.4 240.04 185.06C239.98 184.18 240.34 183.52 241.12 183.09Z" fill="#DBD3C8"/>
<path d="M241.06 194.9C241.44 195.55 241.82 196.21 242.2 196.86C241.44 196.42 241.1 195.75 241.06 194.9Z" fill="#DBD3C8"/>
<path d="M123.01 336.95C122.29 336.46 121.93 335.81 122.05 334.92C122.8 335.39 123.08 336.09 123.01 336.95Z" fill="#DBD3C8"/>
<path d="M293.77 306.14C293.12 305.79 292.46 305.44 291.81 305.1C292.68 305.04 293.31 305.44 293.77 306.14Z" fill="#DBD3C8"/>
<path d="M157.89 194.9C157.61 195.28 157.33 195.65 157.06 196.03C157.34 195.65 157.62 195.28 157.89 194.9Z" fill="#DBD3C8"/>
<path d="M100.99 295.93C100.65 296.24 100.32 296.55 99.98 296.85C100.32 296.54 100.65 296.23 100.99 295.93Z" fill="#DBD3C8"/>
<path d="M280.16 299.74C280.43 300.05 280.7 300.36 280.97 300.67C280.88 300.88 280.8 301.1 280.73 301.33C280.05 301.27 279.71 300.9 279.72 300.21C279.87 300.05 280.01 299.9 280.16 299.74Z" fill="#DBD3C8"/>
<path d="M276.91 183.07C277.23 183.39 277.55 183.7 277.88 184.02C277.56 183.7 277.24 183.39 276.91 183.07Z" fill="#DBD3C8"/>
<path d="M123.87 338.09C123.58 337.71 123.3 337.33 123.01 336.94C123.3 337.32 123.58 337.7 123.87 338.09Z" fill="#DBD3C8"/>
<path d="M107.87 274.39C107.61 273.92 107.35 273.44 107.1 272.97C107.36 273.44 107.62 273.92 107.87 274.39Z" fill="#DBD3C8"/>
<path d="M275.9 182.1C276.22 182.41 276.55 182.72 276.87 183.04C276.55 182.73 276.22 182.42 275.9 182.1Z" fill="#DBD3C8"/>
<path d="M241.88 183.12L241.47 183.2L241.06 183.15C241.32 182.69 241.59 182.69 241.88 183.13V183.12Z" fill="#DBD3C8"/>
<path d="M111.91 10.21C112.27 10.5 112.64 10.79 113 11.07C112.64 10.78 112.27 10.49 111.91 10.21Z" fill="#DBD3C8"/>
<path d="M294.95 306.93C294.56 306.67 294.17 306.4 293.79 306.14C294.18 306.4 294.57 306.67 294.95 306.93Z" fill="#DBD3C8"/>
<path d="M290.92 178.06C287.65 175.48 286.1 173.14 291.43 171.04C292.86 170.48 293.91 168.96 295.13 167.88C300.52 170.42 306.14 172.02 312.15 172.18C315.64 172.28 319.02 172.89 321.76 175.34C321.8 176.88 321.84 178.41 321.88 179.95C319.93 185.43 315.52 182.92 311.91 183.04H311.9C310.11 182.43 308.12 181.51 308.98 184.95V184.97C309.51 185.54 309.32 186.46 309.95 186.98C310.51 187.66 310.51 188.34 309.95 189.02C309.59 189.35 309.24 189.68 308.81 189.92C308.52 189.96 308.24 190.06 307.98 190.19C306.63 190.47 305.25 191.03 304.04 189.82C300.61 184.85 296.59 180.53 290.92 178.06Z" fill="#DBD3C8"/>
<path d="M247.03 108.07C246.1 107.62 245.31 107.02 244.95 106C245.17 105.88 245.4 105.82 245.64 105.83C246.18 105.77 246.57 105.43 246.97 105.1C248.38 103.15 248.2 101.06 247.53 98.91C246.53 95.72 248.01 93.52 250.84 92.7C253.55 91.91 255.74 93.1 256.38 96.19C257 99.19 257.29 102.08 253.07 102.39C251.21 102.52 250.4 103.51 250.01 105.08C249.61 106.69 248.68 107.72 247.03 108.05V108.07Z" fill="#DBD3C8"/>
<path d="M244.11 104.14C242 105.77 239.73 106.94 237.47 104.62C234.92 102.01 236.54 99.41 237.93 96.91C240.42 96.3 242.34 97.25 243.89 99.15C244.88 100.77 244.54 102.45 244.11 104.14Z" fill="#DBD3C8"/>
<path d="M250.09 126.85C245.67 127.96 240.68 123.59 240.03 118.03C240.39 117.69 240.8 117.41 241.25 117.18C246.277 116.893 249.147 119.51 249.86 125.03C249.94 125.64 250.02 126.24 250.09 126.85Z" fill="#DBD3C8"/>
<path d="M249.86 125.03C249.6 124.27 249.17 123.52 249.1 122.75C248.85 119.93 248.22 117.89 244.66 119.46C243.1 120.15 241.87 119.2 240.84 118.04C238.66 113.91 242.01 112.12 244.28 109.86C244.97 109.57 245.69 109.51 246.43 109.54C248.99 111.01 251.29 112.79 253.15 115.1C249.86 117.68 249.68 121.3 249.85 125.03H249.86Z" fill="#DBD3C8"/>
<path d="M253.15 115.1C247.4 116.58 246.11 115.54 247.01 110.14C246.25 109.75 246.26 109.37 247.03 109.01L246.93 109.07C253.52 108.76 254.64 109.85 253.14 115.1H253.15Z" fill="#DBD3C8"/>
<path d="M269.85 101.67C269.46 103.25 268.34 103.84 266.9 103.64C265.25 103.42 264.17 102.39 264.24 100.65C264.29 99.19 265.02 98 266.72 98.35C268.45 98.7 269.6 99.83 269.86 101.67H269.85Z" fill="#DBD3C8"/>
<path d="M265.12 125.1C265.01 126.68 264.1 127.18 262.78 126.98C261.49 126.79 260.72 125.96 260.79 124.63C260.86 123.35 261.55 122.38 262.92 122.46C264.52 122.55 264.99 123.79 265.12 125.1Z" fill="#DBD3C8"/>
<path d="M244.86 87.02C244.74 87.83 244.08 88.11 243.46 88.07C242.61 88.01 241.91 87.56 242.03 86.52C242.12 85.72 242.8 85.43 243.43 85.47C244.27 85.53 244.96 85.97 244.86 87.02Z" fill="#DBD3C8"/>
<path d="M244.11 104.13C244.04 102.47 243.97 100.8 243.89 99.14C245.15 100.75 245.4 102.41 244.11 104.13Z" fill="#DBD3C8"/>
<path d="M246.97 105.11C246.53 105.35 246.09 105.59 245.64 105.84C246.08 105.6 246.52 105.36 246.97 105.11Z" fill="#DBD3C8"/>
<path d="M267.88 167.1C268.22 167.41 268.56 167.72 268.91 168.03C268.57 167.72 268.23 167.41 267.88 167.1Z" fill="#DBD3C8"/>
<path d="M148.96 18.08C149.06 18.67 149.15 19.27 149.25 19.86C148.46 21.24 147.19 22.63 145.95 20.94C144.47 18.93 143.19 16.39 145.93 14.12C146.64 15.08 147.34 16.04 148.05 17C148.36 17.36 148.63 17.74 148.96 18.09V18.08Z" fill="#DBD3C8"/>
<path d="M95.04 76C97.06 76.68 99.07 77.37 101.09 78.05C101.33 78.27 101.41 78.49 101.32 78.71C101.24 78.92 101.15 79.03 101.07 79.03C101.02 79.36 100.97 79.69 100.93 80.01C99.25 80.05 97.57 80.08 95.89 80.12C92.19 79.07 90.65 75.12 87.19 73.64C85.97 73.12 85.54 71.57 86.11 70.14C86.5 69.16 87.23 68.46 88.32 68.36C90.02 68.21 91.36 69.04 91.84 70.57C92.5 72.66 93.05 74.73 95.04 76Z" fill="#DBD3C8"/>
<path d="M75.16 59.2C76.96 59.5 78.42 60.11 77.7 62.37C77.59 62.73 76.92 63.25 76.65 63.17C74.35 62.54 75.08 60.73 75.19 59.16L75.16 59.19V59.2Z" fill="#DBD3C8"/>
<path d="M148.96 18.08C148.66 17.72 148.35 17.36 148.05 16.99C148.35 17.35 148.66 17.71 148.96 18.08Z" fill="#DBD3C8"/>
<path d="M305.71 286.77C301.55 287.79 302.58 284.51 302.66 282.66C302.73 281.13 303.23 278.48 305.87 280.99C306.28 282.93 306.34 284.86 305.71 286.77Z" fill="#DBD3C8"/>
<path d="M175.15 331C181.85 326.14 190.18 324.51 196.99 319.88C198.43 318.7 200.21 318.41 201.94 317.98C202.61 317.87 203.17 317.54 203.71 317.15C204.09 316.94 204.48 316.75 204.88 316.59C206.4 316.46 207.58 315.28 209.13 315.22C209.53 315.39 209.87 315.64 210.12 315.99C213.59 316.67 214.56 319.33 214.67 322.29C214.79 325.47 212.2 326.21 209.74 327.02C206.34 328.15 203 328.92 199.61 327.06C193.23 326.82 179.31 335.61 176.73 341.48C173.87 348 171.63 354.75 169.49 361.53C169.03 363 168.91 365.26 166.59 364.84C164.7 364.49 164.45 362.58 164.2 360.89C163.18 354.02 167.38 348.53 169.27 342.47C170.53 338.43 173.13 334.81 175.14 331H175.15Z" fill="#FEF2E2"/>
<path d="M138.01 358.93C136.71 354.9 136.05 350.89 138.42 346.99C137.04 350.93 138.23 354.95 138.01 358.93Z" fill="#DBD3C8"/>
<path d="M176.81 389.77C177.8 388.08 178.74 385.99 181.09 386.48C182.67 386.81 182.39 388.52 182.14 389.85C180.41 386.94 178.6 389.24 176.81 389.77Z" fill="#DBD3C8"/>
<path d="M182.12 389.83C183.1 391.77 183.02 393.85 182.94 395.94C181.78 394.02 181.68 391.97 182.12 389.83Z" fill="#DBD3C8"/>
<path d="M37.05 234.96C36.54 237.38 37.95 238.37 39.98 238.91C36.78 245.03 33.18 247.34 28.45 246.26C27.36 246.01 25.86 245.98 25.92 244.43C25.97 243.21 27.27 243.2 28.23 243.02C29.04 242.87 29.93 242.85 30.65 242.5C32.26 241.72 34.34 241.03 34.21 238.83C34.08 236.66 31.87 237.58 30.63 237.04C30.02 236.77 29.34 236.61 29.5 235.33C31.95 235.21 34.5 235.08 37.05 234.96Z" fill="#DBD3C8"/>
<path d="M45.73 197.04C47.33 197.92 48.8 199.39 48.67 200.75C48.46 202.87 46.51 204.63 44.49 204.88C43.06 205.06 42.39 202.82 42.4 201.45C42.41 199.35 44.13 198.18 45.74 197.05L45.73 197.04Z" fill="#DBD3C8"/>
<path d="M44 230.84C42.68 232.4 41.07 233.51 39.06 233.98C40.27 232.24 41.94 231.24 44 230.84Z" fill="#DBD3C8"/>
<path d="M210.12 315.99C209.79 315.99 209.47 316.04 209.15 316.13C207.63 316.43 206.22 316.98 204.93 317.84C204.67 317.97 204.4 318.04 204.12 318.07C203.73 318.32 203.32 318.53 202.89 318.73L196.99 319.88C200.11 317.01 204.34 316.09 207.75 313.75C211.93 310.89 212.63 307.55 209.63 305.36C208.3 304.39 206.25 303.78 205.95 305.65C205.4 309.12 201.5 309.6 200.68 312.62C200.42 313.57 199.55 314.51 198.41 313.84C197.31 313.19 197.73 312.02 198.28 311.19C200.49 307.87 202.25 303.99 205.19 301.5C208.27 298.88 208.82 296.28 208.09 292.82C213.17 290.69 216.19 292.31 216.07 297.1C214.4 303.5 214.1 310.32 210.12 315.99Z" fill="#DC5959"/>
<path d="M214.99 328.95C213.85 331.96 215.11 334.78 215.71 337.65C216.31 340.48 216.37 343.16 214.74 345.75C213.53 347.67 211.81 347.84 210.01 347.3C207.95 346.69 208.47 344.94 209 343.6C210.76 339.13 208.19 334.37 209.99 329.93C211.65 329.61 213.32 329.28 214.98 328.96L214.99 328.95Z" fill="#DBD3C8"/>
<path d="M193.26 438.67C192.84 438.41 192.42 438.14 192.01 437.88C191.67 437.56 191.32 437.23 190.98 436.91C190.71 436.54 190.45 436.17 190.18 435.81C190.16 435.25 190.13 434.68 190.11 434.12C191.07 432.39 192.04 430.65 193 428.92C191.54 432.82 194.28 434.34 196.97 435.88C196.93 438.39 195.43 438.97 193.27 438.67H193.26Z" fill="#DBD3C8"/>
<path d="M209.99 329.92C209.64 329.9 209.29 329.88 208.94 329.86C209.31 329.43 209.66 329.46 209.99 329.92Z" fill="#DBD3C8"/>
<path d="M92.44 316.56C91.25 316.59 90.33 316.46 90.46 315.41C90.56 314.54 91.48 314.23 92.3 314.15C93.12 314.06 94.14 314.19 93.91 315.26C93.78 315.84 92.83 316.25 92.45 316.57L92.44 316.56Z" fill="#DBD3C8"/>
<path d="M132.99 346.89C132.97 350.97 132.94 355.05 132.91 359.13C131.97 355.05 131.26 350.96 132.99 346.89Z" fill="#DBD3C8"/>
<path d="M31.25 287.8C31.25 283.91 33.13 282.26 37 283.01C36.76 288.66 35.54 289.67 31.25 287.8Z" fill="#DBD3C8"/>
<path d="M257.06 320.97C259.85 320.7 262.83 319.09 265.13 322.16C263.75 328 260.21 332.43 255.01 334.92C250.36 337.14 247.88 340.23 246.99 345.22C246.54 347.74 245.24 350.2 243.95 352.47C242.51 354.99 240.2 356.71 237.28 357.28C235.8 357.57 233.83 358.56 233.2 356.05C232.68 353.99 233.9 353.17 235.75 352.56C238.95 351.51 242.11 350.22 242.01 345.96V346C243.02 344.13 243.45 342 241.86 340.5C240.46 339.17 238.79 340.81 237.24 341.19C236.12 341.47 234.99 341.66 233.88 341.96C231.18 342.68 230.28 340.99 229.9 338.86C229.53 336.77 230.38 335.44 232.63 334.95C236.8 334.03 241.12 333.95 245.21 332.51C250.03 330.82 253.45 327.79 255.3 323.02C255.22 321.75 255.82 321.09 257.07 320.98L257.06 320.97Z" fill="#DBD3C8"/>
<path d="M279.73 300.21C280.07 300.58 280.4 300.96 280.74 301.33C274.81 305.6 270.1 310.81 268.03 318.02C267.64 317.64 267.25 317.26 266.86 316.88C267.33 308.1 271.58 302.59 279.73 300.21Z" fill="#DBD3C8"/>
<path d="M243.94 311.9C244.59 312.27 245.24 312.64 245.9 313.01V312.98C246.32 313.3 246.69 313.66 246.89 314.16C248.18 317.87 244.21 317.5 242.87 319.17C242.18 320.04 241.09 319.13 240.56 318.21C238.91 315.32 242.57 314.96 243.02 313.07C243.27 312.65 243.64 312.32 243.93 311.93L243.95 311.9H243.94Z" fill="#DBD3C8"/>
<path d="M195.84 245.06C195.86 253.63 195.87 262.2 195.89 270.76C183.98 270.93 172.07 270.91 160.17 271.36C155.82 271.52 154.52 269.8 154.9 265.91L155.07 266.07C156.92 267.38 157.53 271.11 161.06 269.13C170.52 268.97 179.98 268.66 189.44 268.73C193.04 268.76 194.13 267.23 194.11 264C194.06 257.7 194.13 251.4 194.15 245.1C194.69 244.36 195.25 244.36 195.83 245.07L195.84 245.06Z" fill="#FEF2E2"/>
<path d="M138.01 264.97C140.14 272.9 138.03 281.03 139.11 289.01C138.62 293.38 139.83 297.87 138.13 302.15C138.97 292.75 136.18 283.74 135.13 274.54C134.74 271.1 131.5 269.53 129.6 267.08C127.4 264.25 125.84 261.48 129.21 258.44C129.58 258.11 129.6 258.13 130.11 260.12C130.34 260.46 130.49 260.84 130.56 261.25C130.71 261.87 130.97 262.43 131.42 262.89C133.23 264.81 136.22 262.99 138.01 264.97Z" fill="#DBD3C8"/>
<path d="M155.08 320.13C155.08 314.04 155.01 307.95 155.12 301.87C155.16 299.56 156.61 298.15 158.96 298.13C167.55 298.07 176.14 298.11 185.45 298.11C183.67 300.2 181.82 299.82 180.22 299.84C174.25 299.91 168.27 299.99 162.3 299.84C158.45 299.74 156.91 301.32 157.05 305.17C157.23 310.19 157.1 315.22 157.1 320.25C156.43 320.21 155.77 320.18 155.1 320.14L155.08 320.13Z" fill="#FEF2E2"/>
<path d="M187.89 285.34H156.77C160.82 282.84 178.09 282.36 187.89 285.34Z" fill="#FEF2E2"/>
<path d="M153.09 289.06C151.78 290.35 150.61 293.07 148.63 291.78C146.02 290.08 145.83 286.83 146.19 283.79C147.22 282.11 148.12 279.89 150.61 280.79C152.93 281.63 153.6 283.72 153.25 286.12C153.11 287.09 153.01 288.07 153.09 289.05V289.06Z" fill="#FEF2E2"/>
<path d="M163.31 311.01C168.91 314.82 170.98 322.57 178.19 324.47C177.56 325.92 176.24 326.99 175.43 326.19C170.83 321.67 166.47 316.91 162.03 312.22C162.46 311.81 162.89 311.41 163.31 311V311.01Z" fill="#FEF2E2"/>
<path d="M153.09 289.06C152.07 288.25 151.96 287.08 151.84 285.91C151.37 281.43 149.22 281.45 146.19 283.79C146.19 283.2 146.19 282.61 146.19 282.02C146.38 281.59 146.76 281.25 146.75 280.73C148.32 278.07 150.4 278.05 152.43 279.97C155.32 282.71 155.95 285.8 153.1 289.05L153.09 289.06Z" fill="#FEF2E2"/>
<path d="M183.89 309.79H167.01C172.55 307.25 178.2 307.57 183.87 308.36C183.87 308.84 183.88 309.32 183.89 309.79Z" fill="#FEF2E2"/>
<path d="M147.01 263.97C147.11 263.79 147.12 263.61 147.05 263.42C147.21 262.78 147.62 262.34 148.16 261.99C148.78 262.32 149.39 262.64 150.01 262.97C149.9 263.88 150.12 265 149.02 265.42C147.75 265.9 147.49 264.73 147.01 263.97Z" fill="#FEF2E2"/>
<path d="M207.88 281.97C207.88 283.63 207.86 285.29 207.85 286.95C206 285.28 206 283.62 207.88 281.97Z" fill="#DC5959"/>
<path d="M161.07 269.13C157.66 270.87 156.22 268.77 155.08 266.07C155.06 251.06 155.05 236.04 155.03 221.03C158.95 220.24 156.91 223.36 156.92 224.42C157.05 237.35 156.98 250.28 156.92 263.21C156.9 266.22 157.05 269.01 161.07 269.13Z" fill="#FEF2E2"/>
<path d="M183.12 235.82C174.96 228.5 175.2 228.75 167.32 236.34C163.5 240.03 161.81 243.26 165.88 248.09C160.17 245.19 159.38 241.83 162.93 238.07C166.01 234.81 169.37 231.81 172.47 228.56C174.44 226.5 176.1 226.74 177.99 228.57C180.26 230.76 182.63 232.84 184.96 234.97C184.96 236.6 184.33 236.88 183.1 235.81L183.12 235.82Z" fill="#FEF2E2"/>
<path d="M195.84 245.06C195.28 245.07 194.72 245.08 194.16 245.09C194.08 237.2 193.98 229.31 193.92 221.42C193.9 219.47 193.6 217.37 195.86 216.27C195.86 225.87 195.85 235.46 195.84 245.06Z" fill="#FEF2E2"/>
<path d="M183.12 235.82C183.74 235.54 184.36 235.26 184.98 234.98C191.36 241.42 191.41 245.02 185.18 251.35C183.91 252.64 182.54 253.85 181.21 255.09C180.42 255 179.98 254.57 179.88 253.78C180.55 253.06 181.21 252.32 181.89 251.62C186.77 246.653 187.18 241.387 183.12 235.82Z" fill="#FEF2E2"/>
<path d="M179.87 253.78C180.31 254.22 180.76 254.65 181.2 255.09C175.97 261.23 174.41 261.12 169.48 253.35C173.43 255.37 176.88 258.48 179.87 253.77V253.78Z" fill="#FEF2E2"/>
<path d="M273.75 254.36C273.48 255.9 272.81 257.43 271.23 257.58C269.48 257.75 268.58 256.02 268.59 254.65C268.59 253.13 270.06 251.98 271.5 251.73C273.26 251.42 273.36 253.15 273.76 254.36H273.75Z" fill="#DBD3C8"/>
<path d="M266.81 238.96C267.98 241.64 266.32 245.4 269.95 247.13C266.55 248.53 265.17 247.18 265.6 243.76C265.8 242.13 266.39 240.55 266.8 238.95L266.81 238.96Z" fill="#DBD3C8"/>
<path d="M133.1 307.01C129.36 306.98 127.6 304.98 126.67 301.42C125 294.97 127.45 288.57 126.51 282.16C126.39 281.34 127.13 280.59 128.13 280.68C129.57 280.82 131.04 281.67 131.04 282.97C131.04 288.33 134.02 292.71 135.43 297.59C136.47 301.19 133.4 303.77 133.07 307.03L133.1 307.01Z" fill="#DBD3C8"/>
<path d="M138.01 264.97C136.93 266.45 136.35 268.58 133.68 267.73C130.9 266.84 129.29 265.16 129.18 262.18C129.29 261.7 129.62 261.35 129.88 260.96C129.95 260.68 130.03 260.4 130.11 260.12C132.82 260.52 135.64 260.4 138.08 261.94C139.05 262.98 138.33 263.97 138.01 264.98V264.97Z" fill="#DBD3C8"/>
<path d="M212.99 243.98C213.6 243.74 214.22 243.53 214.82 243.27C217.04 242.28 219.09 239.67 221.33 240.27C224.32 241.08 222.49 244.52 223.19 246.72C223.77 248.53 224.82 249.89 226.14 251.14C225.08 254.75 224.02 258.36 222.96 261.97C221.78 266.37 222.46 270.91 222.03 275.39C221.58 280.03 218.35 282.72 216.31 286.23C215.68 287.32 214.36 287.37 213.15 287.03C210.85 286.39 210.64 284 210.86 282.67C212.05 275.54 210.33 268.52 210.45 261.44C210.52 257.22 210.97 253.03 211.08 248.82C211.12 247.07 211.1 245.08 213.01 243.98H212.99Z" fill="#DBD3C8"/>
<path d="M212.99 243.98C210.49 252.13 211.67 260.49 212.71 268.55C213.39 273.86 213.64 279.1 213.13 285.06C220.03 280.55 220.47 273.94 221.68 267.74C222.06 265.81 221.78 263.74 222.95 261.98C222.78 265.47 222.89 268.89 223.51 272.39C224.69 279.09 220.88 284.12 217 288.98C216.36 289.49 216.6 290.38 216.14 290.97C216 291.25 215.92 291.55 215.91 291.86C215.03 293.12 214.15 294.33 212.31 293.39C210.19 292.3 209.13 290.59 209.12 288.22C209.11 282.27 209.08 276.32 209.1 270.38C209.11 265.59 209.18 260.8 209.23 256.01C210.8 252.14 209.37 247.62 211.86 243.96C212.24 243.97 212.62 243.99 213 244L212.99 243.98Z" fill="#DBD3C8"/>
<path d="M54.02 232.98C51.03 228.58 52.44 224.1 53.8 219.63C54.44 217.51 56.11 217 58.08 217C55.77 222.08 53.6 227.2 54.02 232.98Z" fill="#DBD3C8"/>
<path d="M245.05 109.89C245.76 113.69 240.3 114.32 240.85 118.04C240.58 118.04 240.31 118.04 240.04 118.04C238.69 111.62 240.34 108.62 244.99 109.03C245.72 109.27 245.75 109.55 245.05 109.89Z" fill="#DBD3C8"/>
<path d="M101.07 79.02C101.07 78.69 101.08 78.37 101.09 78.04C101.09 78.37 101.08 78.69 101.07 79.02Z" fill="#DBD3C8"/>
<path d="M204.93 317.84C206.02 316.49 207.46 316 209.15 316.13C208 317.33 206.49 317.64 204.93 317.84Z" fill="#DBD3C8"/>
<path d="M129.88 260.95C129.65 261.36 129.41 261.76 129.18 262.17C129.42 261.76 129.65 261.36 129.88 260.95Z" fill="#DBD3C8"/>
</svg>
