<svg width="324" height="432" viewBox="0 0 324 432" fill="none" xmlns="http://www.w3.org/2000/svg">
<path d="M211.666 281.996L220.974 288.218L211.666 289.996L209.974 284.662L211.666 281.996Z" fill="#DC5959"/>
<path d="M86.8738 256.046C83.0238 253.046 83.0238 248.696 82.9038 244.446C82.8238 241.666 83.0238 238.876 83.0938 236.096C83.9838 233.866 83.4038 231.546 83.4838 229.276C83.5438 227.456 82.6838 226.826 81.0338 227.986C79.9838 230.186 79.2038 232.566 76.8938 233.866L76.9138 233.836C76.6838 234.216 76.4638 234.606 76.2638 234.996C75.2438 236.666 74.2138 238.336 73.1938 239.996C71.8538 242.616 72.6138 245.426 72.5938 248.126C72.5738 251.246 72.3038 254.506 68.9938 255.356C65.7438 256.196 61.9038 257.696 59.0338 254.056C58.7438 252.996 58.3338 251.996 59.0538 250.866C61.1838 247.556 60.0638 244.036 59.5738 240.576C59.5538 240.046 59.5538 239.506 59.5638 238.986C62.4438 228.526 67.8938 219.246 73.0938 209.856C74.2938 207.686 75.8338 205.706 76.4338 203.236C77.0938 198.516 78.2538 193.886 77.1338 189.016C76.3938 185.816 76.5238 182.446 77.0338 179.146C77.6438 176.776 79.0638 174.866 80.5838 173.026C84.4238 169.296 84.8138 163.746 87.3338 160.106C84.6638 163.786 84.4838 169.626 80.3038 173.296C77.7438 176.636 74.1238 177.496 70.2138 177.296C67.4438 177.156 65.0038 177.656 62.6338 179.166C56.9038 182.826 50.1838 182.456 43.8238 183.376C34.2638 184.766 31.4838 190.396 37.2038 198.286C40.2838 202.546 41.7938 207.056 42.3038 212.086C42.5838 214.866 42.3238 217.786 39.2238 218.716C36.1438 219.646 33.7838 217.856 32.1838 215.266C29.5838 211.066 29.8038 211.226 26.3438 214.796C23.6038 217.626 21.1638 220.896 17.5038 222.776C15.3938 222.366 13.5138 221.766 11.1138 222.306C6.60383 223.336 3.81383 219.006 4.71383 213.056C5.86383 210.346 8.08383 208.656 10.5138 207.276C11.9938 206.436 13.1838 205.406 14.0338 203.956C15.9038 196.736 17.4938 189.466 18.5938 182.086C18.8038 180.656 19.2238 179.206 20.2538 178.056C26.1838 169.726 34.9438 165.626 44.0738 162.096C50.4538 157.206 58.3938 155.406 65.2438 151.316C70.4438 148.216 75.4038 144.996 79.5838 140.706C81.9138 138.316 84.0238 135.676 86.3638 133.266C88.4038 131.166 89.6538 128.836 89.5538 125.756C89.4038 121.276 91.7038 117.126 91.5638 112.606C91.5138 110.906 93.4638 110.396 93.9738 108.986C96.3838 105.006 96.5738 99.7856 100.794 96.8256C105.034 93.4156 107.164 88.4856 109.934 84.0356C111.144 82.0856 110.024 80.2556 108.894 78.5156C107.604 76.5156 106.344 74.4056 108.464 72.1156C109.414 71.5556 110.394 71.8756 111.364 72.0256C115.024 72.2456 114.294 69.6756 114.064 67.6056C113.414 61.7856 110.654 56.2056 111.934 51.8456C111.594 55.6256 113.364 61.4856 109.104 66.2856C108.434 66.8156 107.684 66.9856 106.864 66.7556C104.534 64.5056 103.414 61.6056 103.094 58.5156C102.874 56.4256 102.464 54.7756 100.594 53.5256C98.1138 51.8656 98.8638 49.0856 98.6038 46.6756C98.7538 43.5356 99.1838 40.6656 101.044 37.7856C103.344 34.2356 101.844 29.9356 100.714 26.3156C98.9738 20.7456 99.8638 15.1156 99.4238 9.54563C99.2338 7.14563 101.924 5.43563 104.034 4.03563C106.924 2.72563 109.604 0.485635 113.134 1.97563C113.374 2.31563 113.694 2.51563 114.084 2.59563C114.434 2.74563 114.794 2.89563 115.154 3.01563C115.474 3.14563 115.794 3.30563 116.074 3.49563C116.314 3.66563 116.584 3.83563 116.854 3.98563C116.854 3.97563 117.274 4.12563 117.284 4.11563C117.624 4.09563 117.944 4.12563 118.294 4.19563C118.684 4.32563 118.974 4.56564 119.214 4.90564C119.794 6.88564 120.164 8.88563 120.034 10.5356C120.964 8.53563 118.174 5.98563 120.274 3.60563C124.374 2.80563 127.534 4.23563 129.894 7.60563C131.424 9.27563 132.334 11.1956 132.294 13.5056C137.414 16.2556 136.294 21.0856 136.604 25.5856C136.814 28.6956 137.984 31.7256 137.374 34.9356C138.304 30.5956 136.114 26.5256 136.474 22.2056C136.684 19.6856 136.284 17.0156 139.924 16.7456C143.364 16.4956 146.744 16.4556 148.144 20.5056C148.794 22.3756 149.374 24.3356 149.024 26.3656C148.654 28.5256 149.184 30.5056 149.904 32.4956C148.684 41.2756 148.354 49.9756 151.484 58.5056C153.644 64.3756 152.004 69.0956 147.194 73.1056C141.314 77.9956 139.254 84.9456 138.644 92.1556C138.214 97.2256 136.924 101.396 132.874 104.736C124.354 111.766 121.304 121.836 118.134 131.796C121.364 121.566 124.604 111.316 133.434 104.166C136.934 101.336 138.254 97.7156 138.574 93.3556C139.184 85.0056 141.594 77.4656 148.514 71.8856C151.454 69.5156 153.444 65.9456 152.244 62.1456C149.054 52.0056 148.554 41.7256 149.584 31.2756C148.174 28.0156 149.514 25.0756 150.804 22.2256C153.084 17.2056 157.484 19.4256 160.974 19.8156C163.734 20.1356 165.894 22.0356 165.204 25.6356C164.934 27.0456 165.714 28.5656 165.514 29.9456C165.124 21.6256 165.634 20.8756 170.744 22.4556C171.994 24.4656 170.494 26.6156 171.024 28.4456C171.324 26.8856 170.134 24.4756 173.044 23.7456C175.754 23.8956 176.224 26.3556 177.394 28.0556C180.124 32.0256 181.444 32.2356 185.264 29.1856C187.784 27.1756 194.074 27.0456 196.454 29.0656C198.284 30.6156 197.234 32.8056 197.484 34.7056C197.544 35.1456 197.484 35.6056 197.484 36.0556C197.774 36.0256 197.464 35.7456 197.534 35.5756C198.304 33.4656 195.744 30.5956 198.984 29.0656C199.354 29.3456 199.724 29.6256 200.094 29.8956C203.754 33.1156 202.234 37.5956 202.714 41.5256C202.904 43.0656 202.494 44.7956 202.534 46.8056C202.524 47.1256 201.514 46.4056 202.164 46.5556C202.374 46.6056 202.494 46.5056 202.504 46.2356C202.624 42.2756 202.994 38.2956 202.334 34.3656C201.584 29.9256 203.834 30.0756 206.864 31.1456L209.144 33.8756C210.404 35.1356 211.294 36.6056 211.614 38.3756C213.374 41.3756 215.184 44.3856 218.174 46.3456C221.074 48.2456 219.854 51.0356 219.984 53.7256C219.954 54.2156 220.654 54.0656 219.984 54.0456C219.974 54.0456 219.984 53.8856 219.984 53.5556C220.144 48.6956 218.884 43.8356 220.214 38.9656C220.614 37.5056 220.674 36.0456 222.054 35.1056C223.034 34.7556 224.004 34.4156 224.984 34.0656C227.054 36.3256 225.384 39.0956 225.984 41.1656C225.984 40.2556 225.904 38.9356 226.004 37.6356C226.094 36.3956 225.384 34.7256 226.894 34.0856C228.704 33.3156 229.374 35.0856 230.254 36.2056C230.374 36.6956 230.434 37.1756 230.444 37.6756C231.164 49.1256 229.024 60.3656 228.074 71.6856C227.474 78.9656 227.224 86.5656 232.024 92.4356C235.534 96.7156 238.754 101.056 240.544 106.136C242.044 110.406 243.954 114.146 246.874 117.586C248.884 119.956 250.894 121.946 254.024 122.536C256.424 123.986 258.694 125.646 261.244 126.856C268.894 130.496 274.314 136.606 279.014 143.396C281.064 146.366 284.074 148.666 285.254 152.266C284.564 154.266 284.604 156.516 283.254 158.286C279.354 159.926 276.214 159.066 273.634 155.256C271.214 151.696 268.824 148.106 266.614 144.436C263.414 139.126 259.164 135.756 252.944 135.106C246.864 134.476 243.364 131.206 242.264 125.166C241.754 122.386 240.204 119.936 239.144 117.326C240.324 120.326 241.904 123.146 242.554 126.376C243.554 131.336 246.854 134.086 251.704 134.976C254.154 135.426 256.544 136.066 258.944 136.706C260.814 137.206 262.244 138.266 262.964 140.096C265.124 145.606 268.864 150.466 269.774 156.496C270.174 157.736 269.464 159.066 270.134 160.286C270.334 160.656 270.524 161.036 270.724 161.406C271.064 161.966 271.354 162.546 271.524 163.176C273.184 166.156 276.134 168.246 277.364 171.526C277.434 172.846 276.624 173.816 276.034 174.866C274.624 176.696 272.464 174.236 270.994 175.746C269.654 175.546 268.704 174.716 267.914 173.966C269.004 174.716 269.964 176.266 271.864 175.436C273.134 174.416 274.864 176.806 276.014 174.886C276.394 174.276 276.874 173.796 277.554 173.526C277.994 173.286 278.454 173.176 278.954 173.176C279.444 173.286 279.894 173.476 280.314 173.756C280.514 173.906 280.714 174.056 280.914 174.216C281.304 174.536 281.684 174.866 282.054 175.206C288.844 181.986 294.724 189.586 301.164 196.686C305.204 201.146 307.264 206.756 304.844 213.016C304.874 213.676 304.914 214.336 304.944 215.006C305.734 215.926 305.214 217.176 305.724 218.166C306.784 220.236 306.304 222.466 306.424 224.636C305.764 231.506 303.454 237.806 299.884 243.666C297.684 249.916 296.954 256.296 298.614 262.816C298.434 264.766 297.554 266.496 296.934 268.316C294.524 272.476 291.314 271.506 288.104 269.566C286.164 268.396 284.484 266.846 283.184 264.946C283.004 264.496 282.854 264.036 282.714 263.566C282.394 262.806 281.914 261.736 282.544 261.256C287.104 257.736 285.334 252.226 286.954 248.106C286.574 250.376 285.854 252.876 285.824 255.546C285.784 258.596 284.144 259.656 281.274 258.056C275.544 248.306 275.404 238.096 279.294 227.806C281.734 221.356 281.954 215.246 278.514 209.176C277.534 207.686 277.054 205.786 275.154 205.046C274.734 204.896 274.324 204.746 273.894 204.616C272.024 203.156 270.774 200.856 268.174 200.366C267.724 200.326 267.284 200.276 266.834 200.246C265.894 200.166 265.094 199.726 264.304 199.256C255.634 194.976 248.544 188.986 243.894 180.376C243.814 180.246 243.714 180.106 243.624 179.976C243.624 179.996 243.234 179.706 243.234 179.716C243.234 179.736 242.764 179.636 242.754 179.646C242.744 179.656 242.264 179.646 242.244 179.646C241.864 179.686 241.504 179.716 241.114 179.766C240.664 179.876 240.244 179.936 239.784 179.956C237.124 178.676 234.914 177.036 234.604 173.796C234.504 172.106 233.924 170.596 232.864 169.256C232.604 166.756 231.594 164.776 230.004 162.676C226.724 158.326 224.384 153.346 223.444 147.846C223.084 145.756 223.004 143.576 221.134 141.816C221.104 145.896 221.504 149.886 222.584 153.926C223.524 157.436 225.564 161.176 222.334 164.676C215.554 162.166 213.304 155.956 210.744 150.136C207.554 142.906 208.284 135.226 208.974 128.686C206.964 142.056 209.454 155.016 221.214 164.936C222.264 165.506 223.494 165.606 224.524 166.216C228.094 170.846 233.004 174.216 236.534 178.896C239.474 180.596 239.874 185.076 243.904 185.576C244.374 185.766 244.774 186.046 245.104 186.426C245.594 186.976 246.004 187.586 246.444 188.176C251.644 194.126 257.174 199.856 259.494 207.726C259.984 208.796 260.064 209.956 260.154 211.106C260.244 211.556 260.324 212.006 260.394 212.466C260.514 213.676 261.094 214.716 261.594 215.796C261.714 216.316 261.744 216.826 261.694 217.356C261.724 227.406 262.554 237.376 264.214 247.276C265.174 249.746 267.344 250.946 269.334 252.446C274.214 256.126 280.294 258.506 282.994 264.636C287.054 268.536 287.784 273.176 286.714 278.576C286.134 281.526 285.484 284.836 287.764 287.606C288.264 288.126 288.804 288.586 289.404 288.986C291.324 290.276 293.454 290.476 295.484 289.546C297.324 288.706 299.014 289.516 300.774 289.446C302.874 289.766 305.384 288.586 306.884 291.116C307.404 291.996 307.374 292.966 307.364 293.926C307.364 294.366 307.304 294.806 307.164 295.236C306.874 295.926 306.894 296.686 306.834 297.416C306.914 297.716 306.954 298.026 307.034 298.336C307.224 298.646 307.414 298.926 307.644 299.206C307.774 299.356 307.894 299.496 308.024 299.646C308.304 299.966 308.534 300.296 308.734 300.666C308.804 300.876 308.874 301.076 308.944 301.286C309.124 301.706 309.304 302.126 309.464 302.556C309.574 302.766 309.684 302.976 309.804 303.186C311.344 305.106 312.204 307.006 309.714 308.846H309.814C305.194 311.876 303.524 311.596 300.934 306.986C299.814 304.996 298.424 303.476 296.374 302.526C295.964 302.316 295.554 302.126 295.144 301.926C294.744 301.716 294.354 301.496 293.954 301.286C293.364 300.956 292.784 300.616 292.284 300.136C291.954 299.816 291.624 299.486 291.294 299.166C288.174 297.646 283.994 298.636 281.744 295.096C281.164 294.606 280.614 294.086 280.154 293.476C277.864 291.206 277.294 288.396 277.314 285.286C277.324 282.336 277.704 279.276 275.794 276.656C274.984 274.896 275.954 272.306 273.314 271.386C272.424 270.866 271.604 270.216 270.664 269.776C270.294 269.636 269.924 269.496 269.544 269.386C268.514 269.306 267.484 269.186 266.654 268.476C265.974 267.946 265.444 267.266 264.764 266.726C262.354 265.306 259.994 266.066 257.614 266.856C252.284 268.606 247.474 270.906 245.694 276.916C245.114 278.876 243.424 280.186 242.194 281.756C236.484 289.066 230.324 296.036 227.464 305.206C226.064 309.696 220.834 311.826 216.394 310.246C213.764 309.306 212.464 307.326 214.484 304.876C216.514 302.416 217.044 300.196 216.774 296.856C216.504 293.546 219.494 290.466 220.834 287.176C221.324 285.966 222.184 284.896 222.414 283.556C222.994 281.016 224.784 279.276 226.494 277.486C227.864 276.056 229.214 274.556 230.724 273.306C245.144 261.316 244.334 245.986 240.244 229.996C239.794 228.236 239.764 225.266 236.354 226.206C232.944 230.426 232.374 235.476 232.104 240.626C231.824 241.106 231.444 241.466 230.964 241.726C226.934 242.836 225.964 240.776 225.284 237.156C223.884 229.676 226.574 223.736 231.114 218.236C234.494 213.906 232.444 210.256 229.644 206.686C227.234 202.886 223.744 200.296 220.234 197.566C214.644 193.216 209.844 187.956 203.804 184.026C201.534 182.546 198.264 182.666 196.824 179.916C194.784 176.056 191.194 173.456 188.854 169.756C184.324 162.576 182.654 154.796 182.434 146.536C182.254 139.726 181.534 133.036 178.954 126.626C178.094 128.536 178.654 130.376 179.234 132.146C181.344 138.536 180.444 144.626 177.474 150.496C175.664 154.076 174.414 157.846 173.284 161.686C172.104 165.676 172.904 168.896 176.434 171.286C182.714 175.536 185.774 182.306 189.814 188.326C191.874 191.336 192.214 194.966 193.434 198.286C193.724 198.836 193.894 199.416 193.954 200.036C194.324 202.456 193.614 204.696 192.704 206.836C191.624 209.366 189.984 211.756 186.904 211.446C183.484 211.106 183.844 208.096 183.694 205.646C183.284 203.086 184.184 200.466 183.444 197.916C184.354 194.226 180.604 192.596 179.794 189.666C179.684 189.236 179.554 188.816 179.384 188.396C179.204 187.986 179.024 187.566 178.844 187.166C177.804 185.886 176.284 185.256 174.934 184.446C168.624 180.676 166.104 181.456 162.174 188.246C162.124 188.726 162.014 189.176 161.864 189.626C161.594 190.026 161.294 190.396 160.974 190.756C159.484 192.626 156.994 193.376 155.694 195.456C153.954 197.626 151.614 199.156 149.654 201.096C148.324 202.786 145.734 202.416 144.504 203.886C142.504 206.256 141.844 209.216 142.654 212.326C145.784 224.316 144.154 236.496 144.124 248.616C142.814 250.346 143.024 252.966 140.824 254.146C133.864 253.906 133.174 253.476 132.454 248.866C130.804 242.456 133.514 236.276 133.534 229.956C133.534 229.126 133.644 228.296 133.534 227.476C133.344 226.036 133.534 224.146 131.744 223.756C129.854 223.346 129.434 225.226 128.784 226.516C128.414 227.246 128.224 228.076 127.734 228.766C126.154 230.426 125.484 232.286 125.154 234.666C124.184 241.776 124.514 248.886 124.504 256.006C124.504 260.036 125.354 263.906 127.344 267.466C129.404 271.136 129.324 274.836 128.324 278.916C126.784 285.216 126.634 291.636 129.104 297.876C130.084 300.336 131.644 302.086 134.314 302.676C141.124 305.576 146.864 309.906 151.284 315.866C152.884 318.016 155.124 319.476 156.844 321.486C156.944 327.336 160.754 332.716 158.994 338.786C158.784 339.326 158.614 339.886 158.484 340.446C156.404 344.116 158.214 347.466 159.414 350.826C160.414 353.626 162.034 356.186 162.684 359.116C163.164 361.266 163.464 363.546 160.914 364.666C158.694 365.646 156.174 364.976 155.104 363.216C151.834 357.876 147.004 353.356 145.954 346.776C146.234 343.606 147.414 340.536 146.964 337.296C147.414 330.056 143.004 325.476 137.954 321.406C136.024 319.846 133.944 320.406 132.504 322.566C130.994 324.936 131.934 327.286 132.714 329.536C133.484 331.766 133.674 333.896 132.804 336.096C132.984 338.576 131.904 340.936 132.434 343.526C132.764 345.136 132.054 347.046 130.084 347.736C127.864 348.516 126.374 347.256 125.114 345.676C123.824 344.056 123.614 342.086 123.624 340.096C123.644 337.966 123.894 335.826 123.314 333.736C123.154 333.226 123.004 332.696 122.844 332.186C122.654 331.706 122.494 331.206 122.334 330.716C122.204 329.976 122.124 329.216 121.974 328.466C121.854 327.976 121.724 327.496 121.554 327.016C120.554 324.096 119.854 321.146 120.574 318.036C120.914 315.516 122.634 313.566 123.364 311.216C123.854 309.336 123.714 307.736 121.974 306.406C117.034 302.626 114.334 297.746 113.784 291.356C113.364 286.426 112.164 286.206 107.904 289.216C107.604 289.516 107.324 289.846 107.064 290.176C106.684 290.666 106.164 290.996 105.664 291.346C105.354 291.566 105.034 291.786 104.724 292.016C104.444 292.266 104.164 292.516 103.894 292.766C103.384 293.316 102.984 293.946 102.684 294.646C102.404 295.406 102.134 296.166 101.874 296.936C101.734 297.356 101.594 297.766 101.454 298.186C100.794 300.636 98.3138 302.056 98.6438 305.346C98.8838 307.756 95.2538 307.916 93.0238 308.256C91.0938 308.556 89.4838 308.006 88.6938 305.826C87.5438 302.636 87.4538 299.366 87.7938 295.726C84.3038 296.846 85.2638 300.586 83.0938 302.066C82.2738 303.576 80.7038 304.466 79.9038 305.996C79.8838 306.536 79.8738 307.076 79.8538 307.626C78.8738 311.026 80.1238 314.576 79.1338 317.976C77.9538 321.746 77.5238 325.756 75.4538 329.246C74.8238 330.316 74.1938 331.316 72.7938 330.756C71.5538 330.266 70.9238 329.166 71.5438 327.946C75.8938 319.356 73.1338 309.576 76.1338 300.756C76.9338 298.396 77.6438 296.046 79.1938 294.046C79.7438 288.136 84.1738 285.286 88.4538 282.316C91.4038 279.136 94.8938 276.746 98.9938 275.296C101.564 273.276 104.184 271.336 106.554 269.086C106.914 268.636 107.264 268.166 107.444 267.586C107.324 266.986 107.324 266.366 106.844 265.906C105.154 263.836 104.334 261.366 103.744 258.806C99.4138 250.726 98.3338 242.236 100.554 233.336C100.674 232.856 100.914 232.296 100.724 231.886C97.5438 225.116 100.364 219.866 104.964 215.076C106.094 207.716 107.144 200.316 112.704 194.636C117.534 193.126 118.584 188.226 121.414 184.926C121.964 183.266 123.304 181.756 122.404 179.816C122.314 179.386 122.354 178.956 122.474 178.536C122.764 177.516 123.054 176.496 123.174 175.436C123.214 175.016 123.254 174.586 123.294 174.166C123.494 172.866 122.764 171.596 123.154 170.286C125.254 159.866 131.954 151.926 137.774 143.526C132.574 150.956 123.724 155.686 121.584 165.346C120.834 170.406 119.864 175.426 122.494 180.336C123.354 181.936 121.854 183.476 121.364 185.026C118.534 188.046 117.834 192.946 113.144 194.306C107.444 193.806 106.664 194.546 105.694 200.496C105.124 203.976 106.294 207.396 105.774 210.856C105.304 213.986 104.544 216.746 101.794 218.986C99.0038 221.256 98.8238 225.096 99.7338 228.216C100.614 231.236 100.614 234.076 99.9438 236.886C98.1538 244.476 101.174 251.546 101.984 258.846C102.024 261.456 105.684 262.466 104.914 265.446C102.654 271.436 101.364 272.126 94.9938 270.856C94.0238 270.666 93.0138 270.686 92.0138 270.766C91.3938 270.706 90.8538 270.466 90.3638 270.096C89.7738 269.476 89.2838 268.766 88.9538 267.966C86.8538 264.266 87.1738 260.126 86.8738 256.096V256.046Z" fill="#FEF2E2"/>
<path d="M149.114 32.9156C146.944 31.7656 146.194 29.9356 146.314 27.5456C146.384 26.0656 146.284 24.5656 146.124 23.0956C145.724 19.3756 143.194 18.5856 140.044 18.9456C136.314 19.3656 136.574 22.3956 137.134 24.6456C138.554 30.3656 138.194 35.9856 137.154 41.6756C137.254 35.8856 136.484 30.1856 135.964 24.4556C135.644 20.9456 136.524 17.3456 131.554 16.4956C130.884 16.3756 130.434 14.9456 129.894 14.1256C129.084 12.0756 130.034 10.3356 131.944 10.9356C138.454 12.9956 142.154 10.0956 144.774 4.62556C146.134 4.02556 147.344 4.24557 148.424 5.24557C149.224 6.19557 149.234 7.20557 148.794 8.35557C147.714 11.2056 149.404 11.6756 151.674 11.5656C152.784 11.4556 153.494 12.1556 154.254 12.8056C157.794 15.8356 161.724 16.6256 166.074 14.7456C167.384 15.3856 168.684 16.4956 170.184 15.8856C173.044 14.7256 175.274 14.7956 177.404 17.5256C178.744 19.2456 180.614 16.2256 182.394 17.2056C184.694 20.0656 185.354 24.5756 190.154 24.9156C192.634 27.2656 196.104 27.5156 198.964 29.0756C197.044 33.1256 199.074 37.5956 197.304 42.9956C197.134 39.2156 197.084 36.6856 196.884 34.1656C196.734 32.2956 197.264 29.5956 194.494 29.5056C192.054 29.4156 189.244 28.3656 187.124 30.9156C181.954 37.1356 178.864 36.6356 175.054 29.1356C174.384 27.8156 173.634 26.5356 172.924 25.2356C172.094 24.4756 170.634 25.3056 169.984 24.0756C166.434 23.3456 166.324 26.0156 166.134 28.2356C165.914 30.6756 166.084 33.1456 165.824 35.6256C164.564 32.4956 165.674 29.1056 164.284 25.8756C162.564 21.8856 159.584 21.0856 155.924 21.2356C152.464 21.3756 152.704 24.4856 151.964 26.6756C151.394 28.3856 151.154 30.2156 150.774 31.9856C150.444 32.6756 150.294 33.6756 149.134 32.9356L149.114 32.9156Z" fill="#DBD3C8"/>
<path d="M238.894 39.0556C238.684 51.4956 235.324 63.5456 234.334 75.8956C233.944 80.7456 233.914 85.4556 235.984 89.9656C236.294 90.3356 236.584 90.7256 237.004 90.9856H236.994C239.904 92.9156 241.324 95.4756 240.344 99.0256C239.784 101.046 238.704 102.116 236.874 100.336C230.984 94.6056 224.564 89.6756 226.224 79.4256C228.094 67.8556 228.674 56.0356 229.704 44.3056C229.924 41.8456 228.504 39.3656 229.954 36.9956L229.914 37.0456C230.244 36.4456 230.614 36.4356 231.004 36.9856L230.984 36.9656C231.594 37.6656 232.264 37.5956 232.984 37.1456C235.634 35.6556 237.174 37.6456 238.904 39.0456L238.894 39.0556Z" fill="#DBD3C8"/>
<path d="M93.9638 109.016C92.9238 113.196 91.2238 117.336 90.9738 121.566C90.3838 131.606 84.9238 138.606 77.7838 144.696C67.9138 153.116 56.8238 159.246 44.0738 162.116C47.0138 158.776 48.8438 154.606 54.8438 154.746C58.1138 154.826 60.4138 149.776 64.4738 149.226C66.8838 148.896 68.6038 147.316 70.6238 146.186C77.1638 142.496 80.7638 135.726 86.6238 131.356C88.4838 129.966 88.9238 127.676 88.8538 125.486C88.7038 120.956 91.1538 116.816 90.6238 112.206C90.3938 110.186 92.4838 109.716 93.9638 109.016Z" fill="#DBD3C8"/>
<path d="M101.974 76.0656C101.264 74.1556 99.2538 74.0556 97.8538 73.1156C98.3838 71.1656 100.414 71.8556 101.564 71.0056C103.104 69.6856 103.874 67.6256 105.744 66.6256C111.174 67.5456 112.044 69.2456 109.184 73.3556C109.284 74.0056 109.204 74.7556 109.514 75.2956C114.244 83.6656 113.004 89.0856 105.084 94.5956C103.734 95.5356 102.564 96.7756 100.774 96.8656C102.314 92.7256 102.764 88.4056 103.004 84.0356C104.144 83.4956 106.914 84.0556 104.804 81.3256C103.564 79.7356 105.104 76.6356 101.964 76.0756L101.974 76.0656Z" fill="#DBD3C8"/>
<path d="M222.014 35.1056C222.584 43.9156 220.004 52.4156 220.194 61.5156C218.604 60.6456 218.724 59.7456 218.824 59.0356C219.594 53.6356 219.614 48.7956 213.544 45.9056C211.154 44.7656 210.654 41.5956 209.964 39.0156C208.734 35.4656 211.224 35.5256 213.424 35.6356C215.994 35.7556 218.584 36.6056 220.984 34.9656C221.324 35.0156 221.664 35.0556 222.004 35.1056H222.014Z" fill="#DBD3C8"/>
<path d="M6.06383 212.096C6.99383 220.096 7.24383 220.256 17.9738 219.946C19.5938 222.816 16.9838 222.886 15.4738 223.666C15.0438 223.796 14.6138 223.926 14.1838 224.006C13.7538 224.116 13.3338 224.246 12.9238 224.406C11.9438 224.406 11.4338 225.246 10.6838 225.646C9.56383 226.336 8.13383 226.176 7.04383 226.956C5.38383 227.286 3.69383 228.476 2.09383 226.796C0.483829 222.056 -2.10617 217.246 3.05383 212.976C4.01383 212.546 4.69383 211.146 6.06383 212.076V212.096Z" fill="#DBD3C8"/>
<path d="M165.944 16.0056C167.954 13.3856 168.504 7.72557 173.914 12.1656C174.934 13.1756 175.954 14.1856 176.964 15.1956C178.634 16.0856 180.624 14.9056 182.254 16.0356C182.694 16.8156 182.604 17.5156 181.914 18.1256C180.304 21.7556 178.454 23.8156 175.694 18.9856C175.004 17.7756 174.654 18.1656 173.544 18.7156C170.284 20.3456 167.584 19.3856 165.934 15.9956L165.944 16.0056Z" fill="#DBD3C8"/>
<path d="M136.984 0.0956283C138.654 1.71563 140.324 3.34563 141.994 4.96563C141.934 6.80563 140.574 8.08563 139.184 7.54563C135.414 6.10563 132.614 7.59563 129.754 9.63563C129.244 10.0056 128.514 9.46563 127.934 9.15563C125.994 6.45563 124.254 3.43563 120.114 4.20563C119.514 4.77563 118.614 4.54563 117.984 5.01563C117.334 5.65563 116.664 5.65563 115.984 5.05563C115.674 4.70563 115.344 4.36563 114.984 4.06563C114.684 3.70563 114.364 3.35563 113.894 3.19563C113.634 2.79563 113.384 2.38563 113.124 1.98563C118.924 3.27563 124.574 3.08563 130.124 0.695627C132.284 -0.234373 134.674 0.0156317 136.994 0.0756317L136.984 0.0956283Z" fill="#DBD3C8"/>
<path d="M101.974 76.0656C103.124 74.0756 104.554 73.6956 105.544 75.9756C106.584 78.3956 107.204 80.9256 109.014 83.0556C110.534 84.8256 110.214 87.1356 109.184 89.1756C108.714 90.1156 107.774 90.6856 106.704 90.4856C104.084 89.9956 104.264 87.7156 103.844 85.8156C103.704 85.1856 103.294 84.6156 103.014 84.0256L101.894 79.0456C101.924 78.0556 101.944 77.0656 101.974 76.0656Z" fill="#DBD3C8"/>
<path d="M91.0138 45.0556C95.2438 45.0356 96.8138 47.6156 95.8638 51.1956C94.7438 55.3856 96.6838 58.1356 99.0238 60.9756C99.3638 61.3456 99.6638 61.7456 100.134 61.9656V61.8556C100.824 63.2056 100.734 64.1256 98.9038 64.1056C94.4738 62.1956 94.2738 57.3956 92.0238 53.9956C90.7338 53.2656 89.7238 52.2756 89.0138 50.9756C88.9838 48.7656 89.1738 46.6256 91.0038 45.0356L91.0138 45.0556Z" fill="#DBD3C8"/>
<path d="M20.2538 178.076C18.7238 183.146 18.8238 188.436 18.1038 193.606C17.5838 197.326 16.8338 201.086 14.0338 203.956C11.6938 199.766 14.4438 195.916 15.3638 192.186C16.5438 187.406 17.1238 182.236 20.2538 178.066V178.076Z" fill="#DBD3C8"/>
<path d="M220.994 34.9656C221.154 39.3556 219.074 40.0356 215.454 38.3856C213.564 37.5256 211.494 36.1856 209.974 39.0156C209.074 37.4056 208.824 35.6856 209.104 33.8656C213.074 34.0956 217.084 33.9456 220.994 34.9556V34.9656Z" fill="#DBD3C8"/>
<path d="M265.774 79.8556C264.634 80.1256 263.474 80.4656 262.364 79.8656C259.934 78.5656 258.894 76.2756 260.234 74.0256C262.104 70.8956 264.524 73.0156 266.664 74.1656L266.694 74.0156C267.944 75.2656 267.494 76.6356 266.974 78.0156C266.824 78.1756 266.784 78.3556 266.864 78.5556C266.744 79.2156 266.314 79.6556 265.804 80.0456L265.774 79.8556Z" fill="#DBD3C8"/>
<path d="M181.924 18.1255C181.954 17.5555 181.974 16.9855 182.004 16.4155C182.074 15.6255 182.404 15.4856 183.014 15.9956C186.354 18.1956 187.364 22.2556 190.144 24.8956C184.664 25.8056 182.824 24.2856 181.924 18.1156V18.1255Z" fill="#DBD3C8"/>
<path d="M230.994 36.9957C230.634 37.0157 230.264 37.0357 229.904 37.0557C229.344 36.4957 228.804 35.4857 228.214 35.4557C226.724 35.3657 227.054 36.7657 227.024 37.6557C226.904 41.0857 227.154 44.5557 224.944 47.7657V34.0657C228.474 31.9157 229.884 34.1457 230.994 36.9957Z" fill="#DBD3C8"/>
<path d="M206.824 31.1456C203.684 30.9256 202.684 32.5856 203.064 35.4456C203.654 39.9156 203.514 44.3556 202.374 48.8456C201.634 42.5156 202.824 35.9156 200.054 29.8856C202.364 30.0256 204.854 29.1456 206.824 31.1356V31.1456Z" fill="#DBD3C8"/>
<path d="M6.06383 212.096C5.06383 212.396 4.05383 212.696 3.05383 212.996C5.50383 208.516 9.81383 206.306 14.0238 203.976C12.7238 208.006 8.74383 209.426 6.06383 212.096Z" fill="#DBD3C8"/>
<path d="M38.6038 124.776C36.6438 122.456 35.4038 120.486 37.9138 118.136C38.6438 117.456 39.4138 117.226 39.9938 118.046C41.8738 120.686 39.9938 122.516 38.5938 124.776H38.6038Z" fill="#DBD3C8"/>
<path d="M29.6038 106.716C27.9738 106.666 27.8238 105.306 27.4838 104.286C26.9038 102.566 27.9638 101.096 29.3038 100.676C30.7838 100.216 31.6638 101.856 31.8038 103.106C31.9838 104.676 30.8038 105.816 29.6038 106.706V106.716Z" fill="#DBD3C8"/>
<path d="M85.7938 78.1455C85.5238 79.5955 84.7738 80.7856 83.2338 80.6556C81.7038 80.5256 81.0638 79.2555 81.0438 77.7755C81.0238 76.3755 81.7238 75.5055 83.1538 75.6155C84.6238 75.7355 85.5638 76.6055 85.7938 78.1455Z" fill="#DBD3C8"/>
<path d="M274.924 84.0756C273.254 83.5256 271.894 82.6756 272.184 80.6356C272.304 79.7756 272.994 79.1356 273.904 79.2356C276.064 79.4756 277.024 80.7556 276.784 82.9256H276.934C276.564 83.3856 276.144 83.7856 275.554 83.9556L275.224 83.9356L274.924 84.0756Z" fill="#DBD3C8"/>
<path d="M68.9738 37.9456C68.8738 39.3156 68.1938 40.2056 66.7938 40.1556C65.0938 40.0956 63.9738 39.1556 63.8338 37.4056C63.7338 36.1856 64.5638 35.5256 65.6638 35.5256C67.2938 35.5256 68.5538 36.2156 68.9738 37.9456Z" fill="#DBD3C8"/>
<path d="M68.0038 53.0556C67.2638 52.0356 67.1238 51.0256 68.0038 50.0056C70.8138 49.1156 72.6338 49.5556 72.1538 53.0956L70.0738 53.9556C69.4738 53.4556 68.5738 53.6356 68.0038 53.0656V53.0556Z" fill="#DBD3C8"/>
<path d="M72.1538 53.0856C71.7238 50.7656 70.2138 49.9156 68.0038 49.9956C71.2538 48.5056 72.9038 49.1856 72.1538 53.0856Z" fill="#DBD3C8"/>
<path d="M183.014 16.0057C182.674 16.1457 182.344 16.2857 182.004 16.4257C180.274 16.2457 178.504 16.2257 176.964 15.2057C179.024 15.1357 181.084 15.0857 183.004 16.0057H183.014Z" fill="#DBD3C8"/>
<path d="M232.974 37.1556C232.234 37.8856 231.564 37.9256 230.974 36.9756C231.644 37.0356 232.304 37.0956 232.974 37.1556Z" fill="#DBD3C8"/>
<path d="M187.134 395.636C186.394 393.406 185.664 391.166 184.924 388.936C183.814 387.016 185.074 384.776 184.104 382.826V382.846C183.091 380.119 181.317 380.092 178.784 382.766L178.814 382.736C178.674 383.306 178.274 383.606 177.734 383.756C175.554 384.476 173.764 388.956 171.304 385.596C168.924 382.366 173.254 381.246 175.004 379.816C186.874 370.116 193.564 357.106 197.934 342.946C199.314 338.476 197.834 333.166 199.024 328.266C199.704 325.456 202.974 323.476 201.594 320.056C202.114 317.946 203.794 318.566 205.214 318.476C213.314 317.956 214.544 315.796 210.734 308.786C212.384 304.396 213.944 299.986 214.384 295.276C214.574 293.276 214.924 291.376 216.254 289.786C217.804 288.106 219.494 286.546 220.184 284.246C220.444 283.776 220.774 283.346 221.154 282.976C221.884 282.496 222.664 282.376 223.504 282.596C224.014 282.826 224.444 283.166 224.794 283.606C225.074 286.496 222.774 288.056 221.334 289.976C217.754 294.796 219.824 301.446 215.904 306.146C215.344 306.816 215.904 307.676 216.874 308.016C219.644 308.966 225.434 306.546 226.414 303.566C229.364 294.516 235.654 287.626 241.174 280.236C241.764 279.446 242.924 278.616 242.874 277.866C242.224 267.006 251.604 267.826 257.784 264.936C258.224 265.216 258.514 265.606 258.654 266.116C258.784 268.206 257.294 269.466 256.064 270.706C248.934 277.916 243.164 286.276 236.434 293.826C232.314 298.446 230.484 305.066 230.534 311.706C226.874 316.276 223.564 321.186 218.514 324.436C217.074 325.226 215.304 324.296 213.904 325.306C213.564 325.566 213.184 325.736 212.764 325.836C212.374 325.936 211.964 325.916 211.574 325.846C211.184 325.906 210.794 325.956 210.414 326.046C209.724 326.266 209.334 326.766 209.074 327.436C209.364 334.756 206.714 341.596 205.744 348.696C205.254 352.296 204.834 355.926 206.864 359.346C207.624 360.626 207.534 362.176 207.094 363.706C205.034 370.976 205.904 378.336 206.874 385.616C207.364 389.296 210.024 392.266 211.334 395.746C212.244 398.156 212.944 400.426 211.984 402.936C208.424 406.696 207.974 410.836 209.534 415.766C210.534 418.936 213.224 421.856 211.834 425.616C210.284 426.216 209.034 428.396 207.014 426.516L206.964 426.796L207.244 426.846C205.834 426.306 206.914 424.646 205.924 423.926C204.264 421.436 202.584 421.356 200.894 423.896V423.866C199.834 425.016 201.154 426.816 199.814 427.896L199.834 427.796C199.524 428.596 199.204 429.386 198.324 429.726C193.084 429.726 192.264 426.146 192.114 422.046C193.054 418.046 195.404 414.586 197.954 411.726C203.914 405.036 201.484 398.626 198.094 392.336C193.344 383.546 192.244 378.376 194.204 368.216C191.204 372.996 190.794 378.036 192.064 383.126C193.024 386.986 193.064 390.516 190.904 393.926L190.924 393.906C190.364 394.696 189.934 395.586 189.134 396.176C188.604 396.456 188.024 396.456 187.454 396.546C187.074 396.356 186.944 396.056 187.104 395.656L187.134 395.636Z" fill="#DBD3C8"/>
<path d="M81.0738 300.996C81.6838 296.156 85.0438 293.136 88.3438 290.106C89.3638 289.166 90.6738 288.506 91.9338 289.476C93.1838 290.426 92.1838 291.636 91.8038 292.646C90.5438 295.986 90.0838 299.396 90.5638 302.926C90.7638 304.396 90.8438 306.066 93.0138 305.986C94.9538 305.906 96.5138 305.536 96.9638 303.126C97.4138 300.706 98.3338 298.376 99.0538 296.006C100.664 296.176 101.084 297.416 101.544 298.686C104.854 307.846 110.024 315.026 120.584 316.396C121.664 316.536 122.314 317.276 123.004 317.966C123.344 321.276 123.674 324.586 124.014 327.896C123.574 331.166 121.424 331.796 119.014 330.446C112.234 326.626 103.894 326.306 97.8538 320.866C96.6238 319.766 95.8838 320.256 95.5138 321.856C94.3138 327.056 96.7738 331.986 101.734 333.926C104.974 335.196 108.234 336.316 111.774 336.616C118.084 337.136 122.534 340.446 125.594 345.966C126.404 347.436 126.594 348.566 125.844 349.956C125.504 354.006 127.014 357.836 127.294 361.806C127.424 363.586 128.924 366.256 125.914 366.766C122.784 367.296 123.464 364.306 123.154 362.556C122.364 358.146 121.664 353.726 119.034 349.916C116.894 348.196 114.434 347.166 111.744 346.656C109.354 344.286 107.024 346.566 104.674 346.746C104.214 346.686 103.784 346.526 103.404 346.266C102.284 345.526 101.344 344.496 100.004 344.096C99.5838 344.006 99.1538 343.916 98.7238 343.846C97.2738 343.476 96.0438 342.526 94.5638 342.206C94.1538 342.056 93.7538 341.896 93.3538 341.716C92.9738 341.476 92.6138 341.216 92.2838 340.916C92.1238 340.756 91.9538 340.596 91.7938 340.436C91.4538 340.106 91.1238 339.776 90.7938 339.426C90.6238 339.246 90.4538 339.076 90.2838 338.896C89.9438 338.516 89.6238 338.126 89.3138 337.716C85.9138 332.646 85.5438 326.906 85.4838 321.066C85.4538 318.256 85.9138 315.426 85.1438 312.646C85.1438 312.126 85.1338 311.606 85.1238 311.086C85.2738 307.116 83.9538 303.746 81.0738 301.006V300.996Z" fill="#DBD3C8"/>
<path d="M59.9138 252.726C62.5438 254.106 65.4438 253.436 68.1938 253.576C71.2438 253.726 71.6638 251.116 71.8938 248.686C72.1638 245.766 71.3138 242.676 73.1838 239.996C75.2138 251.566 69.3238 259.216 60.5938 265.476C55.2338 269.326 52.0738 274.496 50.6438 281.006C49.2138 287.496 43.4738 290.826 38.9738 294.876C37.0338 296.616 35.1638 294.576 34.9338 292.376C34.7938 291.026 35.7038 289.566 36.1338 288.146C36.2838 283.746 41.5438 281.746 41.3038 277.146C41.3438 276.646 41.3638 276.146 41.3438 275.646C43.1638 271.826 45.4938 267.626 48.5938 265.586C53.6238 262.276 55.7138 257.496 58.4838 252.876C58.9238 252.546 59.4038 252.486 59.9038 252.706L59.9138 252.726Z" fill="#DBD3C8"/>
<path d="M86.8738 256.046C90.1838 258.936 89.1438 263.506 91.1038 266.916C91.3738 267.286 91.6638 267.646 91.9738 267.986L91.9538 268.006C92.8938 270.076 96.0238 270.106 96.3538 272.736C96.3238 275.136 94.2838 275.816 92.7938 277.026C90.6638 278.766 88.2238 280.506 89.9738 283.886C86.2538 287.106 81.9638 289.726 79.2138 293.976C79.3538 290.696 78.3138 287.816 76.4538 285.136C73.4238 280.796 73.2038 276.366 75.7238 271.576C78.2138 266.836 80.9138 262.326 84.9438 258.736C85.8138 257.966 86.8438 257.366 86.8838 256.036L86.8738 256.046Z" fill="#DBD3C8"/>
<path d="M140.184 355.626C143.824 370.446 154.074 380.756 164.434 390.936C165.694 392.176 167.304 392.836 165.774 394.766C164.344 396.566 162.744 395.776 161.464 394.646C160.504 393.796 159.944 392.526 159.134 391.496C158.494 390.676 158.134 388.936 156.674 389.836C155.464 390.586 156.194 391.906 156.724 392.946C157.074 393.156 157.304 393.456 157.434 393.846C157.534 394.446 157.704 395.016 157.954 395.576C158.104 395.966 158.274 396.346 158.474 396.716C158.704 397.096 158.894 397.476 159.074 397.886C159.284 398.306 159.534 398.686 159.824 399.046C160.244 399.666 160.634 400.296 160.834 401.026C161.244 402.476 160.854 403.706 159.844 404.786C155.554 406.696 155.304 406.516 154.054 400.736C153.654 396.106 153.264 391.466 152.854 386.836C152.494 382.826 149.394 380.546 147.034 377.836C145.934 376.576 144.924 377.136 144.414 378.476C143.884 379.866 143.634 381.366 143.094 382.756C142.654 383.886 141.894 384.856 140.454 384.396C139.244 384.006 138.144 383.016 138.684 381.816C141.824 374.836 138.044 368.626 136.724 362.146C136.784 361.936 136.844 361.726 136.894 361.516C138.664 359.936 136.794 356.306 140.194 355.636L140.184 355.626Z" fill="#DBD3C8"/>
<path d="M59.0538 252.976C58.2038 257.716 56.0738 261.586 52.2438 264.736C48.2438 268.026 45.3438 272.326 43.0538 277.006C39.7838 274.336 41.3038 271.656 43.0238 268.966C43.0238 268.646 43.0338 268.316 43.0338 267.996C44.7338 267.176 45.0538 265.336 46.0138 263.966C46.0138 263.636 46.0338 263.316 46.0338 262.986C47.1238 261.896 48.1238 260.756 49.9338 260.856C51.9838 260.976 53.0538 259.486 54.0138 257.966C54.4438 256.196 55.5438 254.936 57.0138 253.956C57.5038 253.236 57.8438 252.226 59.0438 252.976H59.0538Z" fill="#DBD3C8"/>
<path d="M39.3138 275.736C40.1638 277.366 40.4638 280.676 43.0638 276.966C43.8038 282.586 39.3938 285.016 36.1438 288.166C35.0338 285.826 33.9338 283.476 32.8238 281.136C32.9038 280.926 32.9738 280.706 33.0538 280.496C35.2438 279.646 36.7438 278.016 38.0438 276.136C38.4338 275.886 38.8538 275.746 39.3138 275.736Z" fill="#DBD3C8"/>
<path d="M36.0538 270.996C37.8438 272.086 38.9238 273.676 39.3138 275.736L38.9738 276.006C36.6938 277.166 35.7138 279.896 33.2238 280.796C33.0938 280.906 32.9638 281.016 32.8238 281.126C32.2238 280.066 31.6338 279.006 31.0438 277.956C31.6738 277.436 31.4338 276.486 32.0438 275.956C32.3738 275.626 32.7038 275.296 33.0238 274.966L36.0538 270.996Z" fill="#DBD3C8"/>
<path d="M69.5438 268.276C71.6138 268.396 71.8438 270.166 72.2538 271.436C72.8638 273.306 71.5738 274.226 69.8738 274.386C68.1038 274.556 66.9338 273.366 66.6638 271.866C66.2838 269.806 68.6038 269.506 69.5438 268.276Z" fill="#DBD3C8"/>
<path d="M81.0238 227.986C81.4838 226.826 82.4438 225.876 83.5638 226.116C85.2138 226.476 84.3338 227.946 84.2038 228.946C83.8938 231.336 83.4738 233.706 83.0938 236.086C82.2238 233.426 84.0638 230.086 81.0338 227.976L81.0238 227.986Z" fill="#DBD3C8"/>
<path d="M76.8838 233.866C77.4238 231.306 78.9938 229.486 81.0238 227.986C81.0238 230.926 80.0438 233.166 76.8838 233.866Z" fill="#DBD3C8"/>
<path d="M135.074 360.896C135.074 358.916 135.074 356.936 135.074 354.956C139.164 356.226 138.734 358.856 137.134 361.836C136.994 361.936 136.854 362.026 136.704 362.126C136.154 361.716 135.614 361.306 135.064 360.896H135.074Z" fill="#DBD3C8"/>
<path d="M12.0538 225.066C11.6638 224.976 11.2838 224.886 10.8938 224.796C11.3938 224.116 12.0638 223.796 12.9038 223.846C12.9038 224.196 12.8938 224.556 12.8838 224.906C12.5938 224.916 12.3138 224.976 12.0438 225.076L12.0538 225.066Z" fill="#DBD3C8"/>
<path d="M76.2538 234.996C76.4738 234.606 76.6838 234.216 76.9038 233.836C76.6838 234.226 76.4738 234.616 76.2538 234.996Z" fill="#DBD3C8"/>
<path d="M177.124 323.996C174.284 325.126 172.504 326.966 170.854 329.766C168.544 333.666 164.954 330.246 162.214 329.386C158.524 328.226 157.014 323.996 153.774 321.986C147.704 315.706 142.104 308.886 134.034 304.926C131.324 303.426 131.554 301.566 133.364 299.506C133.614 299.076 133.954 298.726 134.384 298.466C136.804 297.586 138.754 296.306 138.724 293.336C139.034 289.306 137.084 285.186 139.144 281.216C140.574 275.796 139.034 270.286 139.964 264.736C141.154 257.626 143.544 250.926 145.174 243.976C148.274 242.316 148.894 244.456 149.294 246.766C149.654 248.846 149.224 251.156 151.184 252.706C151.954 253.206 152.724 253.716 153.534 254.176C154.914 256.056 156.454 257.746 158.604 258.776C163.084 262.806 168.564 262.506 174.044 262.496C181.814 262.476 189.594 262.246 197.354 262.616C199.674 263.726 199.524 265.336 198.064 266.996C196.834 268.386 195.764 269.816 195.224 271.616C200.004 273.196 200.804 275.806 199.494 280.096C197.264 287.346 194.114 294.536 195.364 302.466C195.374 303.136 194.694 302.076 195.284 302.386C195.504 302.496 195.614 302.366 195.584 301.996C195.214 296.666 197.254 291.806 199.614 287.396C203.354 280.416 205.194 273.276 204.504 265.426C204.074 260.626 205.794 255.886 204.914 251.036C204.584 249.226 205.434 247.776 207.544 247.526C208.754 247.276 209.784 247.616 210.714 248.396C212.384 256.556 211.064 264.796 211.474 272.976C211.604 275.426 210.744 277.926 211.834 280.336C212.544 282.046 211.694 283.706 211.664 285.396C211.494 286.846 211.804 288.256 212.444 289.516C213.674 291.966 212.734 293.866 210.514 294.486C207.234 295.396 206.254 298.156 204.644 300.416C205.394 300.136 205.274 299.266 205.654 298.706C207.194 296.356 208.604 293.606 212.144 295.656C214.704 297.136 215.774 301.366 214.054 304.006C213.214 305.306 212.444 306.936 211.064 307.696C207.174 309.846 204.344 313.446 200.314 315.366C194.544 317.936 189.094 321.166 183.224 323.496C181.284 324.266 179.334 325.656 177.154 324.006L177.124 323.996Z" fill="#DC5959"/>
<path d="M186.084 204.016C186.504 205.846 184.294 209.016 187.374 209.256C189.774 209.446 190.684 206.476 190.734 203.956C190.764 202.296 190.914 200.646 191.014 198.996C195.624 200.126 199.924 205.316 200.134 209.966C195.844 219.176 197.944 228.976 197.464 238.546C197.454 245.026 197.424 251.506 197.464 257.976C197.484 261.546 195.944 263.036 192.344 262.996C182.714 262.896 173.084 262.956 163.454 262.966C158.984 263.826 157.614 261.436 157.544 257.476C157.394 248.556 157.514 239.626 157.474 230.706C157.454 224.976 158.034 219.146 154.784 213.926C154.644 212.936 154.604 211.936 154.614 210.946C154.674 204.666 155.474 203.656 161.754 203.596C168.224 203.526 174.614 202.066 181.104 202.546C182.854 202.676 184.844 202.116 186.074 204.026L186.084 204.016Z" fill="#DC5959"/>
<path d="M197.834 209.276C197.464 208.406 197.284 206.956 196.684 206.766C192.854 205.506 191.974 202.246 191.004 198.996C190.814 198.736 190.774 198.446 190.884 198.146C190.034 196.206 190.864 194.546 192.574 194.156C196.264 193.316 200.014 192.406 203.874 193.306C207.984 194.266 209.754 197.116 209.424 200.966C208.814 207.976 210.124 215.036 208.734 222.016C208.514 223.116 208.654 224.696 209.304 225.346C212.064 228.086 211.124 231.486 211.484 234.696C212.094 240.166 210.454 244.816 206.974 248.936C207.124 262.556 209.004 276.246 201.654 289.086C198.964 293.786 197.094 299.376 196.864 305.146C196.824 306.216 196.934 307.796 195.284 307.696C194.074 307.626 194.054 306.256 194.014 305.306C193.904 302.566 193.184 300.086 191.484 297.906C190.174 296.226 191.164 294.976 192.144 293.486C194.454 289.976 196.544 286.326 193.724 282.026C192.844 280.676 192.964 279.486 194.824 279.036C196.374 278.666 197.974 278.076 197.304 276.116C196.504 273.786 194.754 274.756 193.164 275.316C192.444 275.576 191.614 275.566 190.004 275.796C192.924 271.386 193.154 266.226 197.854 263.776C196.644 262.816 196.854 261.516 196.884 260.176C197.024 252.796 196.924 245.416 196.944 238.026C196.944 230.216 196.944 222.406 196.944 214.596C196.944 212.786 196.724 210.916 197.814 209.276H197.834Z" fill="#DC5959"/>
<path d="M186.084 204.016C179.114 205.406 172.014 205.566 164.954 205.896C157.034 206.266 156.984 206.076 157.004 214.036C157.464 214.526 157.854 215.106 157.854 215.776C157.854 229.936 158.424 244.096 157.574 258.256C157.344 258.476 157.104 258.696 156.874 258.916C154.664 258.886 153.284 257.486 151.974 255.976C151.574 256.356 151.094 256.596 150.594 256.816C150.414 256.836 150.234 256.856 150.054 256.876C149.694 256.896 149.334 256.926 148.974 256.976C146.664 254.996 147.024 252.296 146.994 249.706C146.964 247.736 146.954 245.786 146.034 243.966C143.654 241.676 144.034 238.506 144.194 235.846C144.414 232.236 144.254 228.616 144.474 225.026C144.604 219.366 143.124 213.786 143.534 208.096C143.834 203.846 145.054 200.246 149.074 198.126C150.984 196.716 152.904 195.306 154.814 193.886C162.974 191.326 171.334 192.966 179.594 192.836C182.294 192.796 184.574 194.456 185.934 196.996C187.044 199.316 187.004 201.656 186.084 204.026V204.016Z" fill="#DC5959"/>
<path d="M187.864 189.086C185.614 187.256 184.204 184.776 182.934 182.286C180.734 177.976 177.674 174.576 173.404 172.386C170.044 170.666 168.934 168.246 170.004 164.626C171.084 160.976 170.974 156.886 173.134 153.656C178.044 146.306 178.784 138.556 176.244 130.276C175.704 128.526 175.214 126.736 175.044 124.926C174.854 122.896 173.834 120.066 176.554 119.286C179.354 118.486 180.594 120.946 181.304 123.296C183.404 130.176 184.484 137.216 184.774 144.406C185.154 153.666 186.484 162.686 192.534 170.236C194.614 172.826 196.874 175.266 199.054 177.786C199.794 180.076 202.424 181.076 202.914 183.616C203.254 185.386 203.804 187.046 202.314 188.536C197.534 189.896 192.734 190.466 187.854 189.086H187.864Z" fill="#DBD3C8"/>
<path d="M140.104 295.146C139.474 297.866 137.944 299.666 135.044 300.036C134.274 299.196 133.044 298.406 133.544 297.126C135.864 291.196 132.814 286.166 131.064 281.146C130.294 287.726 129.444 294.556 135.074 300.016C133.934 301.486 132.994 302.996 134.014 304.926C128.804 302.786 126.694 298.456 126.144 293.256C125.844 290.466 125.904 287.616 126.074 284.806C126.504 277.926 125.394 271.626 123.574 264.756C120.314 252.496 119.564 239.166 125.944 226.916C132.924 228.456 135.884 233.856 134.224 242.116C133.834 244.036 132.884 245.906 133.904 247.896C133.594 252.416 138.204 251.016 140.024 252.986C140.784 253.426 140.934 254.116 140.804 254.916C139.464 257.946 136.134 255.026 134.514 257.076C134.454 258.616 134.204 260.666 135.424 261.316C140.094 263.796 138.814 268.156 139.424 272.026C140.644 279.716 140.984 287.406 140.114 295.146H140.104Z" fill="#DBD3C8"/>
<path d="M310.624 259.786C310.334 260.126 310.044 260.466 309.754 260.806L309.884 260.836C309.584 261.256 309.254 261.666 308.814 261.956L308.884 261.876C308.634 262.286 308.254 262.586 307.994 262.996L307.934 263.086C307.604 263.266 307.374 263.526 307.254 263.876C306.784 264.336 306.314 264.786 305.834 265.246C305.484 265.416 305.214 265.666 305.034 266.016L304.934 266.116C304.594 266.296 304.324 266.566 304.154 266.916C303.914 267.096 303.754 267.346 303.684 267.636C303.704 272.556 302.334 277.386 303.054 282.386C303.434 285.056 302.524 287.686 300.674 289.826C300.374 290.256 300.204 290.736 300.144 291.266C296.044 292.726 291.944 293.876 287.994 290.856C290.244 288.066 290.484 285.076 288.874 281.906C289.764 276.776 291.944 272.206 294.914 267.976L296.104 262.696C299.274 256.996 299.264 250.776 299.124 244.526C299.104 243.756 298.534 243.416 297.974 243.056C300.294 237.036 302.604 231.016 304.924 224.996C308.074 227.746 308.824 232.146 311.834 234.996C315.514 242.186 316.924 249.346 311.874 256.576C311.234 257.486 311.044 258.716 310.634 259.796L310.624 259.786Z" fill="#DBD3C8"/>
<path d="M243.934 300.966C241.574 300.256 240.334 298.876 240.804 296.216C241.294 293.486 243.284 292.936 245.524 292.746C252.804 292.126 259.814 290.286 266.834 288.366C276.744 285.666 277.374 285.116 277.954 274.946C279.654 278.146 278.584 281.696 279.274 285.026C279.834 287.736 280.354 290.476 282.134 292.736C282.024 293.206 281.814 293.626 281.514 294.006C275.564 297.136 271.384 301.636 270.134 308.476C270.014 309.146 269.344 309.486 268.824 309.866C268.254 311.626 267.674 313.386 267.104 315.146C263.884 315.146 260.434 317.536 257.524 314.236C256.504 310.966 257.654 308.886 260.944 307.966C261.284 307.316 261.624 306.656 261.964 306.006C262.954 304.786 261.944 303.156 262.804 301.906L262.854 301.836C263.574 301.426 263.294 300.366 264.044 299.976V300.016C264.264 297.836 262.994 298.466 261.844 298.856H261.884C256.124 301.456 250.334 303.886 243.924 300.966H243.934Z" fill="#DBD3C8"/>
<path d="M230.734 239.836C229.854 241.266 228.974 242.706 228.104 244.136C226.154 244.786 224.284 244.706 223.634 242.456C222.484 238.456 220.364 236.996 216.394 238.956C215.824 239.236 215.104 238.786 214.484 238.546C214.044 238.406 213.634 238.206 213.264 237.926C212.234 233.606 208.904 229.436 212.444 224.806C212.914 224.186 212.324 223.546 212.074 223.006C209.824 218.166 208.974 213.446 212.654 208.806C213.204 208.116 212.854 206.896 212.894 205.916C213.014 202.536 214.534 200.486 218.294 201.026C219.274 201.166 220.344 201.586 221.254 201.226C225.874 199.396 228.264 201.456 229.504 205.726C230.384 207.226 229.684 208.456 229.004 209.826C226.614 214.616 227.144 215.666 232.594 217.076C233.644 217.346 234.344 217.856 234.814 218.776C230.224 223.866 225.774 228.946 227.014 236.666C227.404 239.126 228.124 240.386 230.744 239.836H230.734Z" fill="#DBD3C8"/>
<path d="M275.894 203.036C274.514 205.556 276.014 207.856 276.484 210.216C276.804 211.836 277.504 213.376 277.924 214.976C278.214 216.076 272.634 239.066 271.934 240.136C269.834 240.766 268.514 239.826 268.734 237.806C268.944 235.836 267.844 233.886 268.794 231.966C269.624 229.436 270.494 226.916 271.254 224.366C271.634 223.106 271.934 221.806 272.054 220.506C272.244 218.366 271.684 216.206 269.504 215.586C267.084 214.896 266.044 217.076 265.184 218.846C260.344 228.816 259.994 239.266 261.984 249.946C260.064 248.656 259.974 246.666 259.934 244.646C259.744 235.056 260.334 225.436 259.014 215.876C260.864 209.416 263.754 203.466 267.814 198.106C271.164 198.666 274.044 200.006 275.904 203.026L275.894 203.036Z" fill="#DBD3C8"/>
<path d="M228.084 206.156C227.634 203.696 226.554 203.776 223.934 203.396C215.664 202.196 215.034 208.846 212.514 213.186C210.864 216.026 211.714 219.666 213.774 222.576C214.534 223.656 215.394 224.656 216.194 225.716C216.944 226.706 218.524 227.586 217.374 229.046C216.354 230.336 214.984 229.606 213.754 229.026C213.374 228.846 212.884 228.886 212.394 228.816C211.554 231.876 215.214 233.966 213.804 236.946C214.964 240.586 213.424 244.076 213.154 247.626C213.064 248.846 212.074 249.636 210.634 249.026C210.104 248.266 209.514 247.536 209.144 246.676C210.874 239.186 210.254 231.856 209.334 224.216C208.504 217.286 208.924 209.966 209.314 202.826C209.634 197.016 208.394 191.826 202.874 188.596C202.304 188.256 202.094 187.546 201.984 186.866C199.894 184.206 200.424 180.696 199.054 177.796C210.274 186.526 222.154 194.476 231.814 205.096C230.964 206.816 229.664 207.016 228.074 206.166L228.084 206.156Z" fill="#DBD3C8"/>
<path d="M202.004 186.856C203.664 186.916 205.324 186.906 206.974 187.056C209.724 187.306 211.034 188.746 211.014 191.646C210.894 210.076 210.854 228.506 210.794 246.936C210.284 247.516 210.754 248.516 209.944 248.966C208.964 248.956 207.984 248.936 206.994 248.926C206.814 243.606 211.214 239.256 210.014 233.596C209.464 231.016 209.734 228.296 207.744 226.166C206.944 225.306 206.054 224.096 206.554 223.036C209.054 217.716 206.594 212.166 207.474 206.786C208.084 203.006 208.874 199.006 204.914 196.386C202.024 194.476 194.164 195.566 190.904 198.136C189.744 195.166 189.844 191.786 187.884 189.076C192.344 186.716 197.254 187.226 202.014 186.846L202.004 186.856Z" fill="#DC5959"/>
<path d="M79.0438 204.996C78.2538 202.756 80.4338 199.326 77.9838 198.316C75.9438 197.476 74.7438 201.016 72.8738 202.256C68.7038 205.016 63.1238 205.426 60.0638 210.006C55.0338 214.396 54.4838 219.926 56.0038 225.986C57.5138 230.276 57.3138 234.546 55.7738 238.786C54.0538 240.316 52.2238 242.676 51.3238 238.186C51.6238 237.846 51.9338 237.506 52.2338 237.166C52.5538 236.476 52.8838 235.786 53.2038 235.096C54.8338 232.686 53.7638 230.326 53.0738 227.956C52.6838 224.626 50.9138 224.346 48.4238 225.936C46.9438 226.886 45.5538 227.986 44.1338 229.016C43.7338 229.316 43.3538 229.616 43.0738 230.036L43.1138 230.006C42.4338 230.456 42.6938 231.466 41.9838 231.896H41.9638C40.5838 233.036 39.3738 232.826 38.3438 231.436C37.3038 230.036 37.3938 228.836 39.0438 227.966C39.5938 227.396 40.5138 227.576 41.0538 226.986C42.5738 225.746 44.2238 224.696 45.9938 223.846L45.9438 223.926C46.3938 223.676 46.7338 223.326 46.9938 222.886L46.9538 222.926C47.3738 222.676 47.7138 222.346 48.0438 221.996C50.8538 220.676 51.9538 218.236 52.7438 215.376C54.8338 207.716 59.3638 202.546 67.0038 199.316C73.8238 196.426 80.4038 192.186 79.0038 182.746C78.8038 181.436 79.1538 180.086 79.9838 178.956C79.6338 187.636 80.8538 196.366 79.0538 204.996H79.0438Z" fill="#DBD3C8"/>
<path d="M292.894 171.056C285.304 169.456 277.744 167.756 271.984 161.946C271.604 161.666 271.264 161.336 270.884 161.046H270.874C270.604 160.646 270.264 160.326 269.844 160.106C268.734 159.666 267.854 158.976 267.324 157.886C264.794 153.326 264.904 148.016 263.144 143.236C262.784 142.266 262.894 141.216 264.034 140.706C264.964 140.286 265.524 140.926 266.134 141.536C267.794 143.186 269.574 144.996 270.244 147.096C272.454 154.026 276.954 158.356 283.434 160.096C283.074 159.736 281.314 159.846 281.924 158.086C282.234 156.096 282.544 154.116 282.864 152.126C287.024 155.996 292.474 157.766 297.104 160.866C297.154 164.866 294.474 167.726 292.894 171.046V171.056Z" fill="#DBD3C8"/>
<path d="M137.134 361.836C136.444 359.546 135.764 357.246 135.074 354.956C135.014 354.016 134.954 353.066 134.894 352.126C134.284 348.046 134.144 343.966 134.974 339.886C134.724 337.416 135.694 333.956 131.054 334.986C131.124 332.326 130.234 329.876 129.494 327.366C128.804 325.006 128.104 322.526 130.914 320.886C135.254 321.126 138.134 323.956 140.674 326.906C143.334 329.996 146.234 332.846 148.934 335.896C148.884 339.626 148.834 343.356 148.784 347.086C146.584 344.006 146.184 338.806 140.384 339.986C138.644 343.916 139.424 347.926 139.974 351.926C140.044 353.156 140.114 354.386 140.174 355.626C139.784 358.646 138.834 361.646 140.314 364.806C137.854 364.776 137.994 362.826 137.124 361.846L137.134 361.836Z" fill="#DBD3C8"/>
<path d="M118.924 163.896C121.244 157.666 125.564 152.916 130.274 148.446C133.854 145.046 137.624 141.806 140.264 137.376C140.784 143.276 138.584 148.366 134.784 152.376C129.714 157.726 127.704 164.236 125.944 171.006C124.964 172.216 125.994 173.846 125.084 175.066L125.104 175.016C123.784 176.066 125.154 177.886 123.984 178.976C119.934 178.416 120.674 174.386 119.404 172.026C118.204 169.806 117.814 166.676 118.924 163.896Z" fill="#DBD3C8"/>
<path d="M222.934 168.006L220.844 166.046C220.354 164.926 220.954 164.326 221.874 163.876C221.784 157.486 218.894 151.656 218.134 145.376C217.804 142.676 217.774 140.096 218.204 137.476C218.424 136.096 219.114 134.836 220.604 134.636C222.124 134.436 223.134 135.526 223.604 136.816C224.284 138.676 225.024 140.606 225.204 142.556C226.124 152.176 230.814 160.166 235.874 168.026C234.854 170.546 233.034 169.586 231.424 168.946C228.654 167.846 225.884 167.186 222.924 167.996L222.934 168.006Z" fill="#DBD3C8"/>
<path d="M198.194 103.766C195.814 95.8956 196.474 87.7556 196.104 79.7156C195.894 75.1256 198.214 71.1456 200.004 67.0856C200.884 65.6456 201.784 64.1756 203.844 64.8056C205.744 65.3856 206.124 66.9956 206.264 68.7156C207.114 78.9556 207.174 89.1755 203.974 99.0555C203.234 101.336 203.254 105.106 199.064 104.796L199.104 104.856C198.564 104.686 198.234 104.336 198.184 103.756L198.194 103.766Z" fill="#DBD3C8"/>
<path d="M126.094 311.956C126.044 309.716 125.034 309.006 122.694 308.976C113.524 308.836 109.924 305.096 109.024 295.886C108.754 293.126 110.494 289.296 106.044 288.016C108.974 285.676 111.914 283.336 115.404 280.536C115.844 284.566 116.414 288.086 116.574 291.626C116.794 296.626 119.134 300.296 122.694 303.626C124.954 305.736 128.284 307.846 126.094 311.966V311.956Z" fill="#DBD3C8"/>
<path d="M234.744 223.916C242.014 235.296 240.584 247.186 236.784 259.216C236.384 260.476 236.124 261.826 235.464 262.926C234.274 264.886 232.244 265.686 230.374 264.346C228.654 263.116 229.784 261.576 230.804 260.076C234.484 254.636 234.324 248.166 234.984 242.016C235.214 239.896 233.744 237.676 230.814 239.796C229.594 233.876 230.824 228.566 234.744 223.926V223.916Z" fill="#DBD3C8"/>
<path d="M199.074 104.796C202.634 101.036 202.674 95.9656 203.584 91.3856C205.064 83.8956 204.334 76.2456 203.844 68.6556C203.634 65.4456 202.154 65.5156 200.014 67.0756C200.764 64.1156 203.014 63.8656 205.464 64.1756C208.184 64.5356 208.514 66.6056 208.884 68.8756C210.844 80.9556 209.154 92.5256 204.174 103.636C203.114 105.996 201.704 108.556 199.074 104.786V104.796Z" fill="#DBD3C8"/>
<path d="M229.944 36.9956C231.014 49.8356 229.544 62.6356 227.374 75.1356C225.424 86.3556 229.434 93.5756 238.744 100.406C236.494 96.8656 236.814 93.9056 236.984 90.9656C237.954 90.6156 238.934 90.2556 239.904 89.9056C240.764 93.3356 243.034 95.5756 246.084 97.1356C246.364 97.7556 246.644 98.3856 246.924 99.0056C247.444 99.8656 248.894 99.7956 249.004 101.076C248.974 101.406 248.944 101.746 248.914 102.076C248.834 102.286 248.754 102.506 248.674 102.716C248.204 103.276 247.554 103.446 246.864 103.526C241.744 104.646 244.534 108.226 244.594 110.946C243.784 112.996 243.694 114.736 246.334 115.516C248.774 116.236 249.514 119.256 252.074 119.856C253.044 121.476 252.844 123.286 252.894 125.046C249.634 122.776 246.384 120.486 243.114 118.236C241.444 117.096 240.904 115.356 240.594 113.536C239.324 106.126 235.954 99.8656 230.324 94.8756C226.104 91.1356 224.864 86.6556 225.464 80.9956C226.894 67.6056 227.774 54.1556 228.854 40.7256C228.964 39.3956 228.884 38.0456 229.944 37.0056V36.9956Z" fill="#DBD3C8"/>
<path d="M149.114 32.9156C149.664 32.5956 150.204 32.2856 150.754 31.9656C149.384 40.9756 149.884 49.8556 152.414 58.6356C154.084 64.4256 152.884 69.2756 148.054 73.3856C141.514 78.9456 139.674 86.7556 139.124 94.8956C138.924 97.8756 138.294 100.446 135.974 102.446C124.944 111.976 120.004 124.606 117.684 138.556C117.554 139.346 117.164 140.106 116.824 141.096C115.724 137.866 115.664 137.846 116.554 134.606C119.884 122.496 123.834 110.726 133.994 102.266C136.424 100.246 137.274 97.3956 137.554 94.2756C138.374 85.0756 140.954 76.7256 148.384 70.4456C151.384 67.9056 152.414 64.2656 151.014 60.4356C147.734 51.4156 147.474 42.2356 149.114 32.9056V32.9156Z" fill="#DBD3C8"/>
<path d="M185.934 196.986C178.694 193.876 170.984 196.006 163.544 195.036C160.634 194.656 157.614 195.146 154.814 193.876C156.214 192.256 157.624 190.646 159.024 189.026C159.314 188.666 159.674 188.346 159.854 187.896V187.876C166.734 183.936 173.804 185.246 180.904 187.066C181.314 187.316 181.584 187.676 181.724 188.136C183.414 190.946 185.944 193.366 185.934 196.986Z" fill="#DC5959"/>
<path d="M294.914 267.956C295.254 269.916 297.344 270.606 298.384 272.766C291.064 272.346 294.054 279.406 291.094 282.306C291.444 285.826 289.834 288.266 286.884 289.966C282.354 286.926 283.664 282.286 284.214 278.276C284.864 273.456 284.224 269.166 281.904 265.016L283.884 263.926C287.304 265.976 290.284 269.216 294.914 267.956Z" fill="#DBD3C8"/>
<path d="M269.964 311.806C269.994 311.546 270.004 311.276 270.004 311.016C270.204 302.886 274.254 297.426 281.624 294.256C282.044 294.016 282.494 293.836 282.944 293.666C285.854 296.166 290.314 295.106 293.014 298.076C291.504 299.976 289.294 300.706 287.154 301.546C282.734 303.286 279.024 305.836 277.014 310.366C275.824 313.046 273.894 314.056 271.054 312.896C270.604 312.616 270.244 312.246 269.954 311.796L269.964 311.806Z" fill="#DBD3C8"/>
<path d="M281.924 158.086C284.794 159.616 287.664 161.146 290.934 162.896C286.794 163.126 278.244 159.486 274.754 156.416C270.354 152.546 270.204 145.756 264.504 141.806C264.574 147.836 265.704 152.936 268.074 157.806C267.754 158.286 267.374 158.356 266.914 158.016C264.184 153.326 263.844 147.876 262.184 142.846C260.984 139.226 259.054 137.096 255.334 136.676C247.564 135.786 242.554 132.136 240.954 123.956C240.114 119.626 237.544 115.756 235.574 111.706C239.144 114.206 241.004 118.056 241.814 122.016C243.444 130.026 248.094 133.836 256.004 134.986C264.194 136.186 268.964 141.886 272.074 149.136C274.004 153.636 276.794 157.156 281.944 158.096L281.924 158.086Z" fill="#DBD3C8"/>
<path d="M104.024 209.976C102.504 204.866 102.804 199.786 104.324 194.736C104.944 192.686 105.164 190.146 107.524 189.446C110.344 188.616 111.464 191.306 113.024 192.926C113.604 193.536 114.814 193.816 114.124 195.076C111.384 201.666 108.634 208.266 105.894 214.856C102.734 214.206 105.634 211.226 104.024 209.976Z" fill="#DBD3C8"/>
<path d="M133.894 247.896C132.314 246.746 132.804 245.046 133.254 243.776C135.274 238.016 132.214 234.736 127.914 231.856C126.214 230.716 126.584 228.576 125.944 226.916C126.014 226.596 126.014 226.236 126.154 225.946C127.714 222.636 128.884 216.926 132.534 217.886C136.204 218.846 136.744 224.646 136.414 228.776C135.914 235.176 134.764 241.526 133.894 247.896Z" fill="#DBD3C8"/>
<path d="M149.074 198.116C146.414 200.506 145.624 203.466 145.764 207.016C146.004 212.976 145.854 218.946 145.874 224.916C144.824 231.266 144.604 237.666 144.374 244.076C144.324 245.576 145.124 248.196 141.924 247.956C141.324 241.106 142.784 234.346 142.874 227.516C142.934 223.096 142.284 218.916 140.704 214.826C137.754 207.186 140.914 200.916 149.074 198.116Z" fill="#DBD3C8"/>
<path d="M127.934 9.16559C129.094 7.77559 130.064 6.14559 131.464 5.04559C133.684 3.30559 136.194 1.56559 138.834 4.45559C139.834 5.54559 140.864 5.27559 141.994 4.95559C142.974 5.35559 143.944 5.74559 144.924 6.14559C145.234 14.3456 147.184 13.8256 137.424 13.9556C134.924 13.9956 132.344 12.3756 129.894 14.1056C128.904 12.5856 128.154 10.9756 127.944 9.15559L127.934 9.16559Z" fill="#DBD3C8"/>
<path d="M104.024 209.976C104.644 211.606 105.274 213.236 105.894 214.856C105.694 216.266 104.864 217.226 103.764 218.056C100.424 220.556 100.304 224.096 100.424 227.866C100.764 238.516 101.364 249.106 105.954 258.996C104.314 261.486 102.054 260.116 99.9838 259.976C98.3238 253.116 96.2438 246.366 98.6238 239.126C99.6738 235.926 99.8638 232.456 99.1438 228.866C98.2938 224.606 98.6438 220.226 102.394 216.996C104.634 215.066 103.644 212.366 104.014 209.986L104.024 209.976Z" fill="#DBD3C8"/>
<path d="M108.064 65.0256C110.834 58.6856 111.084 51.8056 111.784 45.0256C112.204 45.0456 112.624 45.0556 113.044 45.0756C113.044 47.3856 113.084 49.6956 113.034 51.9956C112.954 55.1756 113.364 57.9356 115.444 60.7856C118.084 64.4056 117.514 69.1156 116.384 73.2056C115.634 75.8956 113.214 77.1756 110.764 74.1756C110.974 70.7956 109.564 67.8956 108.064 65.0156V65.0256Z" fill="#DBD3C8"/>
<path d="M180.914 187.066C173.954 188.666 166.894 187.626 159.874 187.876C160.134 187.286 160.234 186.516 160.674 186.126C163.314 183.796 163.274 177.956 167.374 178.436C172.804 179.076 178.064 181.606 180.914 187.076V187.066Z" fill="#DBD3C8"/>
<path d="M87.1638 183.106C85.3338 177.206 86.8938 171.526 90.2138 166.906C94.8738 160.406 95.8538 153.646 94.5238 146.126C93.1038 138.106 93.3638 130.226 96.9238 122.686C97.4838 121.496 97.8338 120.176 99.1238 119.436C100.214 120.086 99.4538 120.866 99.1638 121.446C95.0438 129.546 94.7838 138.066 96.5138 146.736C98.0038 154.186 96.6238 160.966 92.1938 167.076C88.7038 171.886 88.2838 177.516 87.1538 183.106H87.1638Z" fill="#DBD3C8"/>
<path d="M291.674 253.506C288.894 244.356 288.424 235.286 292.714 227.146C298.074 216.986 297.044 207.716 291.884 198.216C291.604 197.696 291.504 197.076 291.294 196.396C293.314 196.066 293.994 197.486 294.484 198.516C298.384 206.756 300.874 215.526 296.114 223.906C291.474 232.066 291.564 240.366 292.434 249.046C292.574 250.416 293.384 251.906 291.684 253.506H291.674Z" fill="#DBD3C8"/>
<path d="M199.084 139.856C198.734 134.336 198.064 128.816 198.114 123.296C198.164 117.666 196.934 112.866 192.504 109.056C183.424 101.266 184.554 85.4056 189.204 74.7156C189.644 78.9256 188.334 82.3356 187.724 85.7756C186.234 94.1856 187.764 101.676 194.064 107.746C198.304 111.836 200.004 116.746 199.894 122.526C199.784 128.286 199.874 134.046 199.874 139.806L199.094 139.846L199.084 139.856Z" fill="#DBD3C8"/>
<path d="M141.924 247.946C143.784 243.286 143.124 238.276 143.884 233.456C144.344 230.536 144.644 227.626 145.874 224.906C145.924 231.256 145.984 237.606 146.034 243.946C146.034 247.116 145.664 250.176 144.354 253.146C141.584 259.396 141.964 266.066 141.984 272.686C141.984 275.806 142.404 278.996 141.094 282.006C138.524 276.026 139.644 269.616 138.934 263.426C138.784 262.106 138.574 260.846 137.994 259.656C137.164 257.416 139.084 256.376 140.064 254.926C140.044 254.276 140.034 253.626 140.014 252.986C140.654 251.306 141.284 249.626 141.924 247.946Z" fill="#DBD3C8"/>
<path d="M98.9038 64.1156C99.3038 63.3656 99.7138 62.6156 100.114 61.8656C102.604 58.8756 99.4638 55.6056 100.604 52.4556C101.204 50.8056 100.914 48.8456 101.024 47.0256C102.084 49.6356 103.454 52.0256 104.944 54.4256C106.854 57.5256 106.394 62.0956 106.944 66.0356C106.714 66.6856 105.364 66.7656 106.014 67.8656C105.174 69.7056 105.104 72.0056 102.884 72.9956C102.624 72.6956 102.364 72.4056 102.084 72.1156C101.754 71.8556 101.394 71.7156 101.004 71.5856C99.4738 70.9956 96.5438 72.6756 96.9938 68.9856C98.3338 68.7256 100.084 69.4256 100.774 67.6456C101.464 65.8656 99.7138 65.1856 98.8838 64.1056L98.9038 64.1156Z" fill="#DBD3C8"/>
<path d="M95.0238 272.896C93.9338 271.306 92.3838 270.006 91.9538 268.006C98.7938 270.416 100.044 270.096 102.934 265.146C105.094 263.236 106.144 265.216 107.314 266.466C108.434 267.676 108.794 269.376 109.824 270.666C106.444 272.666 103.704 275.716 99.7838 276.836C97.6638 276.156 95.1038 276.016 95.0138 272.886L95.0238 272.896Z" fill="#DBD3C8"/>
<path d="M123.004 47.6557C122.554 50.2457 122.214 52.8757 121.614 55.4357C121.304 56.7557 120.444 57.9757 118.794 57.5557C117.484 57.2257 116.894 55.9957 117.304 54.8157C118.104 52.5457 116.774 51.0657 115.774 49.3757C114.794 47.6957 114.584 45.8957 115.994 44.3157C117.114 43.0557 118.614 42.9557 120.104 43.4957C122.004 44.1857 123.044 45.5657 123.004 47.6557Z" fill="#DBD3C8"/>
<path d="M221.884 163.876C221.544 164.596 221.194 165.326 220.854 166.046C212.424 159.036 208.134 149.956 207.914 139.086C207.774 132.556 207.524 125.936 209.744 118.316C210.844 127.686 208.094 135.736 209.934 143.836C211.754 151.866 214.964 158.946 221.894 163.876H221.884Z" fill="#DBD3C8"/>
<path d="M266.804 279.716C266.024 280.916 265.484 282.776 263.754 282.416C260.664 281.776 262.514 278.406 261.044 276.776C257.554 275.006 258.744 272.486 259.944 269.956C259.914 268.256 260.164 266.416 257.854 265.876C257.794 265.556 257.774 265.246 257.784 264.916C260.524 263.676 263.294 263.716 266.084 264.776C266.074 265.006 266.054 265.246 266.044 265.476C265.754 269.116 267.674 272.306 268.144 275.806C268.354 277.396 269.164 279.056 266.804 279.716Z" fill="#DBD3C8"/>
<path d="M95.0238 272.896C96.9338 273.826 98.8338 274.766 99.7938 276.846C96.5238 279.196 93.2438 281.546 89.9738 283.886C86.2438 281.986 85.8638 277.876 89.3238 275.736C91.1238 274.626 93.1238 273.826 95.0338 272.886L95.0238 272.896Z" fill="#DBD3C8"/>
<path d="M172.464 87.2556C169.664 76.7456 172.344 66.3856 173.094 55.9756C174.734 66.4556 172.034 76.8156 172.464 87.2556Z" fill="#DBD3C8"/>
<path d="M109.824 270.676C106.874 269.646 105.764 266.326 102.934 265.146C101.954 263.416 100.974 261.696 99.9838 259.966C101.704 257.976 103.824 258.456 105.954 258.986C106.994 261.306 108.034 263.636 109.074 265.956C109.444 266.366 109.814 266.786 109.844 267.376C109.844 268.476 109.834 269.566 109.824 270.666V270.676Z" fill="#DBD3C8"/>
<path d="M234.914 180.066C238.244 178.216 235.994 174.316 237.904 171.946C238.204 174.706 238.074 177.746 242.014 178.046C242.364 181.336 242.704 184.626 243.054 187.916C239.914 185.736 237.264 183.056 234.914 180.066Z" fill="#DBD3C8"/>
<path d="M258.054 156.096C252.894 152.066 251.214 147.716 251.404 142.426C255.194 145.716 258.014 149.496 258.054 156.096Z" fill="#DBD3C8"/>
<path d="M283.784 263.876C283.504 261.566 283.224 259.256 282.954 256.946C286.664 253.556 285.344 248.996 285.704 244.846C285.854 243.096 284.594 241.366 285.454 239.516C289.164 243.646 288.374 254.926 283.784 263.876Z" fill="#DBD3C8"/>
<path d="M118.924 163.896C118.564 169.606 122.054 174.026 123.984 178.976C124.034 181.236 122.934 183.066 121.794 184.896C121.474 185.336 121.094 185.376 120.674 185.036C122.674 181.416 120.024 178.456 119.204 175.276C118.224 171.466 116.764 167.756 118.924 163.906V163.896Z" fill="#DBD3C8"/>
<path d="M108.264 224.126C107.754 226.156 108.184 228.936 105.254 229.116C103.404 229.226 102.344 227.416 102.464 225.636C102.604 223.486 103.114 220.986 105.694 220.656C107.874 220.376 108.094 222.436 108.264 224.116V224.126Z" fill="#DBD3C8"/>
<path d="M311.824 234.976C307.594 232.976 305.504 229.496 304.914 224.976C304.914 222.636 304.914 220.296 304.914 217.956C305.174 218.016 305.424 218.096 305.664 218.196C305.394 222.756 308.444 226.076 310.014 229.946C310.684 231.596 311.224 233.296 311.824 234.976Z" fill="#DBD3C8"/>
<path d="M82.1438 173.036C81.4438 172.706 80.7438 172.366 80.0338 172.036C83.5238 168.666 84.3638 163.896 86.4838 159.796C87.7438 157.356 88.6338 154.676 91.5738 153.186C88.4338 159.806 85.2838 166.416 82.1438 173.036Z" fill="#DBD3C8"/>
<path d="M212.924 103.996C215.044 97.9557 217.884 92.0657 216.004 84.0657C219.914 90.5157 218.314 98.3957 212.994 104.056L212.924 103.996Z" fill="#DBD3C8"/>
<path d="M106.024 67.8756C104.784 68.0156 103.384 68.9756 102.484 67.3056C102.274 66.9156 102.174 66.1456 102.404 65.9056C103.924 64.2756 105.404 66.4056 106.954 66.0456C107.324 65.7056 107.694 65.3656 108.074 65.0256C111.704 67.2756 112.064 70.4856 110.774 74.1856C110.244 73.9056 109.724 73.6256 109.194 73.3456C109.214 70.9056 109.734 68.1656 106.034 67.8756H106.024Z" fill="#DBD3C8"/>
<path d="M252.224 209.056C255.474 212.986 256.154 217.516 255.254 222.396C253.594 218.116 253.644 213.406 252.224 209.056Z" fill="#DBD3C8"/>
<path d="M133.974 191.986C132.384 192.806 131.594 194.746 128.494 195.296C133.084 191.056 134.694 186.106 136.904 181.406C137.524 185.426 135.314 188.616 133.944 192.036L133.974 191.986Z" fill="#DBD3C8"/>
<path d="M271.844 175.946C265.924 176.716 264.894 171.196 261.794 168.336C265.834 169.346 267.674 173.186 270.954 175.186C271.434 175.226 271.714 175.496 271.844 175.946Z" fill="#DBD3C8"/>
<path d="M286.884 289.966C287.284 286.856 290.024 285.036 291.094 282.306C293.184 286.456 292.304 288.886 287.994 290.836L286.884 289.966Z" fill="#DBD3C8"/>
<path d="M169.964 24.0457C170.944 24.4357 171.924 24.8157 172.904 25.2057C170.964 28.7857 173.244 33.0257 170.754 37.8157C170.444 32.4357 170.204 28.2457 169.954 24.0457H169.964Z" fill="#DBD3C8"/>
<path d="M248.014 161.786C251.254 165.066 254.294 168.136 257.234 171.106C253.404 169.886 249.664 166.216 248.014 161.786Z" fill="#DBD3C8"/>
<path d="M104.254 116.496C103.134 112.286 104.034 108.466 107.074 105.206C106.134 108.966 105.194 112.726 104.254 116.496Z" fill="#DBD3C8"/>
<path d="M120.674 185.026C121.044 184.976 121.424 184.936 121.794 184.886C119.804 188.706 118.204 192.826 114.134 195.076C113.764 194.356 113.394 193.646 113.034 192.926C117.144 191.796 117.924 187.456 120.674 185.016V185.026Z" fill="#DBD3C8"/>
<path d="M246.614 208.476C249.474 211.156 250.084 214.726 250.334 218.436C247.974 215.586 247.474 211.986 246.614 208.476Z" fill="#DBD3C8"/>
<path d="M110.334 243.316C108.644 240.806 108.494 238.176 109.814 234.506C111.304 237.966 111.054 240.606 110.334 243.316Z" fill="#DBD3C8"/>
<path d="M140.204 188.086C141.684 184.806 143.154 181.536 144.634 178.256C144.814 182.396 143.864 186.056 140.994 188.976C140.544 188.836 140.284 188.536 140.204 188.076V188.086Z" fill="#DBD3C8"/>
<path d="M117.984 5.02565C118.524 4.29565 119.284 4.15566 120.114 4.21566C120.384 7.77566 121.654 11.2757 120.764 15.3157C118.234 12.0657 119.834 8.05565 117.984 5.02565Z" fill="#DBD3C8"/>
<path d="M160.344 120.806C160.114 123.016 159.884 125.216 159.654 127.426C157.654 124.896 157.854 122.566 160.344 120.806Z" fill="#DBD3C8"/>
<path d="M155.464 125.516C154.574 121.626 155.014 119.306 157.244 116.116C157.184 119.726 157.274 122.136 155.464 125.516Z" fill="#DBD3C8"/>
<path d="M287.454 201.936C289.344 202.006 291.044 202.036 292.034 203.866C292.394 204.536 292.004 205.236 291.224 205.356C288.954 205.686 287.834 204.516 287.454 201.936Z" fill="#DBD3C8"/>
<path d="M113.694 239.286C115.554 241.746 115.794 243.526 115.364 246.806C113.574 244.146 113.084 242.396 113.694 239.286Z" fill="#DBD3C8"/>
<path d="M271.844 175.946C271.544 175.696 271.254 175.436 270.954 175.186C272.554 173.066 274.274 174.596 275.964 175.006L275.904 174.956C276.244 175.956 277.644 176.666 276.724 178.076C274.744 178.166 273.654 176.206 271.844 175.936V175.946Z" fill="#DBD3C8"/>
<path d="M225.194 126.136C226.144 128.246 227.094 130.346 228.034 132.456C225.774 131.036 224.404 129.136 225.194 126.136Z" fill="#DBD3C8"/>
<path d="M107.924 117.036C107.004 113.516 107.434 111.716 109.374 109.226C109.534 112.076 109.234 113.866 107.924 117.036Z" fill="#DBD3C8"/>
<path d="M115.984 5.06564C116.654 5.05564 117.314 5.04564 117.984 5.03564C118.034 6.65564 118.354 8.31564 117.264 10.1956C115.484 8.60564 116.054 6.74565 115.984 5.07565V5.06564Z" fill="#DBD3C8"/>
<path d="M177.394 72.1755C178.214 74.7255 178.364 77.2455 177.554 80.8355C176.554 77.2755 176.694 74.7155 177.394 72.1755Z" fill="#DBD3C8"/>
<path d="M140.204 188.086C140.464 188.386 140.724 188.686 140.994 188.986C139.214 191.296 137.654 194.116 133.974 191.986L133.944 192.036C136.804 191.956 138.464 189.946 140.204 188.096V188.086Z" fill="#DBD3C8"/>
<path d="M285.284 199.916C285.164 200.136 284.974 200.476 284.784 200.826C284.204 200.356 283.504 199.966 283.074 199.386C282.684 198.846 282.794 198.046 283.684 198.076C284.584 198.116 284.894 198.966 285.274 199.916H285.284Z" fill="#DBD3C8"/>
<path d="M306.784 290.076C306.804 290.706 306.824 291.346 306.844 291.976C304.694 290.976 302.434 290.976 300.154 291.246C300.014 291.056 299.874 290.876 299.734 290.686C301.774 286.466 304.364 288.626 306.894 290.056H306.794L306.784 290.076Z" fill="#DBD3C8"/>
<path d="M266.914 157.996C267.304 157.926 267.694 157.856 268.074 157.786C268.664 158.556 269.254 159.326 269.844 160.086C269.564 160.696 269.274 161.306 268.994 161.916C267.584 160.986 267.204 159.516 266.914 157.996Z" fill="#DBD3C8"/>
<path d="M279.864 207.046C278.534 205.706 277.204 204.366 275.874 203.016C278.164 203.406 279.414 204.826 279.864 207.046Z" fill="#DBD3C8"/>
<path d="M274.894 172.036C276.134 172.786 277.194 173.706 277.824 175.056C277.184 175.026 276.544 174.996 275.894 174.966L275.954 175.016C275.604 174.026 275.244 173.036 274.894 172.046V172.036Z" fill="#DBD3C8"/>
<path d="M123.984 178.976C123.954 177.546 124.234 176.196 125.104 175.016C125.284 176.496 125.004 177.836 123.984 178.976Z" fill="#DBD3C8"/>
<path d="M273.934 269.946C272.484 269.936 271.634 269.056 270.974 267.896C272.334 268.036 273.264 268.806 273.934 269.946Z" fill="#DBD3C8"/>
<path d="M125.084 175.056C124.914 173.606 125.104 172.236 125.944 170.996C125.954 172.416 125.864 173.806 125.084 175.056Z" fill="#DBD3C8"/>
<path d="M257.984 211.936C258.334 213.266 258.684 214.596 259.034 215.926C257.854 214.816 257.534 213.476 257.984 211.936Z" fill="#DBD3C8"/>
<path d="M270.964 267.896C270.284 267.896 269.604 267.896 268.924 267.896C268.184 267.816 267.744 267.386 267.524 266.706C267.514 266.226 267.724 265.886 268.164 265.686C269.334 266.126 270.414 266.686 270.974 267.896H270.964Z" fill="#DBD3C8"/>
<path d="M212.994 104.056C212.884 104.456 212.784 104.866 212.674 105.266C212.564 105.206 212.364 105.106 212.374 105.096C212.544 104.726 212.744 104.366 212.924 104.006L212.994 104.066V104.056Z" fill="#DBD3C8"/>
<path d="M106.054 288.006C105.034 288.306 104.004 288.606 102.984 288.906C103.794 287.866 104.874 287.776 106.054 288.006Z" fill="#DBD3C8"/>
<path d="M100.034 292.966C99.7138 293.976 99.3938 294.986 99.0738 295.996C98.8338 294.806 99.1138 293.786 100.034 292.966Z" fill="#DBD3C8"/>
<path d="M256.954 208.956C257.864 209.756 258.224 210.756 257.984 211.956C257.244 211.086 256.864 210.106 256.954 208.956Z" fill="#DBD3C8"/>
<path d="M266.084 264.776C266.774 265.076 267.464 265.386 268.154 265.686C267.994 265.876 267.824 266.066 267.664 266.266C266.594 266.716 265.894 266.466 265.714 265.236C265.834 265.086 265.964 264.926 266.084 264.776Z" fill="#DBD3C8"/>
<path d="M243.094 176.086C242.734 176.746 242.374 177.396 242.014 178.056C241.954 177.176 242.314 176.516 243.094 176.086Z" fill="#DBD3C8"/>
<path d="M243.034 187.896C243.414 188.546 243.794 189.206 244.174 189.856C243.414 189.416 243.074 188.746 243.034 187.896Z" fill="#DBD3C8"/>
<path d="M124.984 329.946C124.264 329.456 123.904 328.806 124.024 327.916C124.774 328.386 125.054 329.086 124.984 329.946Z" fill="#DBD3C8"/>
<path d="M295.744 299.136C295.094 298.786 294.434 298.436 293.784 298.096C294.654 298.036 295.284 298.436 295.744 299.136Z" fill="#DBD3C8"/>
<path d="M159.864 187.896C159.584 188.276 159.304 188.646 159.034 189.026C159.314 188.646 159.594 188.276 159.864 187.896Z" fill="#DBD3C8"/>
<path d="M102.964 288.926C102.624 289.236 102.294 289.546 101.954 289.846C102.294 289.536 102.624 289.226 102.964 288.926Z" fill="#DBD3C8"/>
<path d="M282.134 292.736C282.404 293.046 282.674 293.356 282.944 293.666C282.854 293.876 282.774 294.096 282.704 294.326C282.024 294.266 281.684 293.896 281.694 293.206C281.844 293.046 281.984 292.896 282.134 292.736Z" fill="#DBD3C8"/>
<path d="M278.884 176.066C279.204 176.386 279.524 176.696 279.854 177.016C279.534 176.696 279.214 176.386 278.884 176.066Z" fill="#DBD3C8"/>
<path d="M125.844 331.086C125.554 330.706 125.274 330.326 124.984 329.936C125.274 330.316 125.554 330.696 125.844 331.086Z" fill="#DBD3C8"/>
<path d="M109.844 267.386C109.584 266.916 109.324 266.436 109.074 265.966C109.334 266.436 109.594 266.916 109.844 267.386Z" fill="#DBD3C8"/>
<path d="M277.874 175.096C278.194 175.406 278.524 175.716 278.844 176.036C278.524 175.726 278.194 175.416 277.874 175.096Z" fill="#DBD3C8"/>
<path d="M243.854 176.116L243.444 176.196L243.034 176.146C243.294 175.686 243.564 175.686 243.854 176.126V176.116Z" fill="#DBD3C8"/>
<path d="M113.884 3.20557C114.244 3.49557 114.614 3.78557 114.974 4.06557C114.614 3.77557 114.244 3.48557 113.884 3.20557Z" fill="#DBD3C8"/>
<path d="M296.924 299.926C296.534 299.666 296.144 299.396 295.764 299.136C296.154 299.396 296.544 299.666 296.924 299.926Z" fill="#DBD3C8"/>
<path d="M292.894 171.056C289.624 168.476 288.074 166.136 293.404 164.036C294.834 163.476 295.884 161.956 297.104 160.876C302.494 163.416 308.114 165.016 314.124 165.176C317.614 165.276 320.994 165.886 323.734 168.336C323.774 169.876 323.814 171.406 323.854 172.946C321.904 178.426 317.494 175.916 313.884 176.036H313.874C312.084 175.426 310.094 174.506 310.954 177.946V177.966C311.484 178.536 311.294 179.456 311.924 179.976C312.484 180.656 312.484 181.336 311.924 182.016C311.564 182.346 311.214 182.676 310.784 182.916C310.494 182.956 310.214 183.056 309.954 183.186C308.604 183.466 307.224 184.026 306.014 182.816C302.584 177.846 298.564 173.526 292.894 171.056Z" fill="#DBD3C8"/>
<path d="M249.004 101.066C248.074 100.616 247.284 100.016 246.924 98.9955C247.144 98.8755 247.374 98.8155 247.614 98.8255C248.154 98.7655 248.544 98.4255 248.944 98.0955C250.354 96.1455 250.174 94.0555 249.504 91.9055C248.504 88.7155 249.984 86.5155 252.814 85.6955C255.524 84.9055 257.714 86.0955 258.354 89.1855C258.974 92.1855 259.264 95.0755 255.044 95.3855C253.184 95.5155 252.374 96.5055 251.984 98.0755C251.584 99.6855 250.654 100.716 249.004 101.046V101.066Z" fill="#DBD3C8"/>
<path d="M246.084 97.1357C243.974 98.7657 241.704 99.9357 239.444 97.6157C236.894 95.0057 238.514 92.4057 239.904 89.9057C242.394 89.2957 244.314 90.2457 245.864 92.1457C246.854 93.7657 246.514 95.4457 246.084 97.1357Z" fill="#DBD3C8"/>
<path d="M252.064 119.846C247.644 120.956 242.654 116.586 242.004 111.026C242.364 110.686 242.774 110.406 243.224 110.176C248.25 109.889 251.12 112.506 251.834 118.026C251.914 118.636 251.994 119.236 252.064 119.846Z" fill="#DBD3C8"/>
<path d="M251.834 118.026C251.574 117.266 251.144 116.516 251.074 115.746C250.824 112.926 250.194 110.886 246.634 112.456C245.074 113.146 243.844 112.196 242.814 111.036C240.634 106.906 243.984 105.116 246.254 102.856C246.944 102.566 247.664 102.506 248.404 102.536C250.964 104.006 253.264 105.786 255.124 108.096C251.834 110.676 251.654 114.296 251.824 118.026H251.834Z" fill="#DBD3C8"/>
<path d="M255.124 108.096C249.374 109.576 248.084 108.536 248.984 103.136C248.224 102.746 248.234 102.366 249.004 102.006L248.904 102.066C255.494 101.756 256.614 102.846 255.114 108.096H255.124Z" fill="#DBD3C8"/>
<path d="M271.824 94.6656C271.434 96.2456 270.314 96.8356 268.874 96.6356C267.224 96.4156 266.144 95.3856 266.214 93.6456C266.264 92.1856 266.994 90.9956 268.694 91.3456C270.424 91.6956 271.574 92.8256 271.834 94.6656H271.824Z" fill="#DBD3C8"/>
<path d="M267.094 118.096C266.984 119.676 266.074 120.176 264.754 119.976C263.464 119.786 262.694 118.956 262.764 117.626C262.834 116.346 263.524 115.376 264.894 115.456C266.494 115.546 266.964 116.786 267.094 118.096Z" fill="#DBD3C8"/>
<path d="M246.834 80.0156C246.714 80.8256 246.054 81.1056 245.434 81.0656C244.584 81.0056 243.884 80.5556 244.004 79.5156C244.094 78.7156 244.774 78.4256 245.404 78.4656C246.244 78.5256 246.934 78.9656 246.834 80.0156Z" fill="#DBD3C8"/>
<path d="M246.084 97.1256C246.014 95.4656 245.944 93.7956 245.864 92.1356C247.124 93.7456 247.374 95.4056 246.084 97.1256Z" fill="#DBD3C8"/>
<path d="M248.944 98.1056C248.504 98.3456 248.064 98.5856 247.614 98.8356C248.054 98.5956 248.494 98.3556 248.944 98.1056Z" fill="#DBD3C8"/>
<path d="M269.854 160.096C270.194 160.406 270.534 160.716 270.884 161.026C270.544 160.716 270.204 160.406 269.854 160.096Z" fill="#DBD3C8"/>
<path d="M150.934 11.0756C151.034 11.6656 151.124 12.2656 151.224 12.8556C150.434 14.2356 149.164 15.6256 147.924 13.9356C146.444 11.9256 145.164 9.3856 147.904 7.1156C148.614 8.0756 149.314 9.0356 150.024 9.9956C150.334 10.3556 150.604 10.7356 150.934 11.0856V11.0756Z" fill="#DBD3C8"/>
<path d="M97.0138 68.9956C99.0338 69.6756 101.044 70.3656 103.064 71.0456C103.304 71.2656 103.384 71.4856 103.294 71.7056C103.214 71.9156 103.124 72.0256 103.044 72.0256C102.994 72.3556 102.944 72.6856 102.904 73.0056C101.224 73.0456 99.5438 73.0756 97.8638 73.1156C94.1638 72.0656 92.6238 68.1156 89.1638 66.6356C87.9438 66.1156 87.5138 64.5656 88.0838 63.1356C88.4738 62.1556 89.2038 61.4556 90.2938 61.3556C91.9938 61.2056 93.3338 62.0356 93.8138 63.5656C94.4738 65.6556 95.0238 67.7256 97.0138 68.9956Z" fill="#DBD3C8"/>
<path d="M77.1338 52.1956C78.9338 52.4956 80.3938 53.1056 79.6738 55.3656C79.5638 55.7256 78.8938 56.2456 78.6238 56.1656C76.3238 55.5356 77.0538 53.7256 77.1638 52.1556L77.1338 52.1856V52.1956Z" fill="#DBD3C8"/>
<path d="M150.934 11.0756C150.634 10.7156 150.324 10.3556 150.024 9.9856C150.324 10.3456 150.634 10.7056 150.934 11.0756Z" fill="#DBD3C8"/>
<path d="M307.684 279.766C303.524 280.786 304.554 277.506 304.634 275.656C304.704 274.126 305.204 271.476 307.844 273.986C308.254 275.926 308.314 277.856 307.684 279.766Z" fill="#DBD3C8"/>
<path d="M177.124 323.996C183.824 319.136 192.154 317.506 198.964 312.876C200.404 311.696 202.184 311.406 203.914 310.976C204.584 310.866 205.144 310.536 205.684 310.146C206.064 309.936 206.454 309.746 206.854 309.586C208.374 309.456 209.554 308.276 211.104 308.216C211.504 308.386 211.844 308.636 212.094 308.986C215.564 309.666 216.534 312.326 216.644 315.286C216.764 318.466 214.174 319.206 211.714 320.016C208.314 321.146 204.974 321.916 201.584 320.056C195.204 319.816 181.284 328.606 178.704 334.476C175.844 340.996 173.604 347.746 171.464 354.526C171.004 355.996 170.884 358.256 168.564 357.836C166.674 357.486 166.424 355.576 166.174 353.886C165.154 347.016 169.354 341.526 171.244 335.466C172.504 331.426 175.104 327.806 177.114 323.996H177.124Z" fill="#FEF2E2"/>
<path d="M139.984 351.926C138.684 347.896 138.024 343.886 140.394 339.986C139.014 343.926 140.204 347.946 139.984 351.926Z" fill="#DBD3C8"/>
<path d="M178.784 382.766C179.774 381.076 180.714 378.986 183.064 379.476C184.644 379.806 184.364 381.516 184.114 382.846C182.384 379.936 180.574 382.236 178.784 382.766Z" fill="#DBD3C8"/>
<path d="M184.094 382.826C185.074 384.766 184.994 386.846 184.914 388.936C183.754 387.016 183.654 384.966 184.094 382.826Z" fill="#DBD3C8"/>
<path d="M39.0238 227.956C38.5138 230.376 39.9238 231.366 41.9538 231.906C38.7538 238.026 35.1538 240.336 30.4238 239.256C29.3338 239.006 27.8338 238.976 27.8938 237.426C27.9438 236.206 29.2438 236.196 30.2038 236.016C31.0138 235.866 31.9038 235.846 32.6238 235.496C34.2338 234.716 36.3138 234.026 36.1838 231.826C36.0538 229.656 33.8438 230.576 32.6038 230.036C31.9938 229.766 31.3138 229.606 31.4738 228.326C33.9238 228.206 36.4738 228.076 39.0238 227.956Z" fill="#DBD3C8"/>
<path d="M47.7038 190.036C49.3038 190.916 50.7738 192.386 50.6438 193.746C50.4338 195.866 48.4838 197.626 46.4638 197.876C45.0338 198.056 44.3638 195.816 44.3738 194.446C44.3838 192.346 46.1038 191.176 47.7138 190.046L47.7038 190.036Z" fill="#DBD3C8"/>
<path d="M45.9738 223.836C44.6538 225.396 43.0438 226.506 41.0338 226.976C42.2438 225.236 43.9138 224.236 45.9738 223.836Z" fill="#DBD3C8"/>
<path d="M212.094 308.986C211.764 308.986 211.444 309.036 211.124 309.126C209.604 309.426 208.194 309.976 206.904 310.836C206.644 310.966 206.374 311.036 206.094 311.066C205.704 311.316 205.294 311.526 204.864 311.726L198.964 312.876C202.084 310.006 206.314 309.086 209.724 306.746C213.904 303.886 214.604 300.546 211.604 298.356C210.274 297.386 208.224 296.776 207.924 298.646C207.374 302.116 203.474 302.596 202.654 305.616C202.394 306.566 201.524 307.506 200.384 306.836C199.284 306.186 199.704 305.016 200.254 304.186C202.464 300.866 204.224 296.986 207.164 294.496C210.244 291.876 210.794 289.276 210.064 285.816C215.144 283.686 218.164 285.306 218.044 290.096C216.374 296.496 216.074 303.316 212.094 308.986Z" fill="#DC5959"/>
<path d="M216.964 321.946C215.824 324.956 217.084 327.776 217.684 330.646C218.284 333.476 218.344 336.156 216.714 338.746C215.504 340.666 213.784 340.836 211.984 340.296C209.924 339.686 210.444 337.936 210.974 336.596C212.734 332.126 210.164 327.366 211.964 322.926C213.624 322.606 215.294 322.276 216.954 321.956L216.964 321.946Z" fill="#DBD3C8"/>
<path d="M195.234 431.666C194.814 431.406 194.394 431.136 193.984 430.876C193.644 430.556 193.294 430.226 192.954 429.906C192.684 429.536 192.424 429.166 192.154 428.806C192.134 428.246 192.104 427.676 192.084 427.116C193.044 425.386 194.014 423.646 194.974 421.916C193.514 425.816 196.254 427.336 198.944 428.876C198.904 431.386 197.404 431.966 195.244 431.666H195.234Z" fill="#DBD3C8"/>
<path d="M211.964 322.916C211.614 322.896 211.264 322.876 210.914 322.856C211.284 322.426 211.634 322.456 211.964 322.916Z" fill="#DBD3C8"/>
<path d="M94.4138 309.556C93.2238 309.586 92.3038 309.456 92.4338 308.406C92.5338 307.536 93.4538 307.226 94.2738 307.146C95.0938 307.056 96.1138 307.186 95.8838 308.256C95.7538 308.836 94.8038 309.246 94.4238 309.566L94.4138 309.556Z" fill="#DBD3C8"/>
<path d="M134.964 339.886C134.944 343.966 134.914 348.046 134.884 352.126C133.944 348.046 133.234 343.956 134.964 339.886Z" fill="#DBD3C8"/>
<path d="M33.2238 280.796C33.2238 276.906 35.1038 275.256 38.9738 276.006C38.7338 281.656 37.5138 282.666 33.2238 280.796Z" fill="#DBD3C8"/>
<path d="M259.034 313.966C261.824 313.696 264.804 312.086 267.104 315.156C265.724 320.996 262.184 325.426 256.984 327.916C252.334 330.136 249.854 333.226 248.964 338.216C248.514 340.736 247.214 343.196 245.924 345.466C244.484 347.986 242.174 349.706 239.254 350.276C237.774 350.566 235.804 351.556 235.174 349.046C234.654 346.986 235.874 346.166 237.724 345.556C240.924 344.506 244.084 343.216 243.984 338.956V338.996C244.994 337.126 245.424 334.996 243.834 333.496C242.434 332.166 240.764 333.806 239.214 334.186C238.094 334.466 236.964 334.656 235.854 334.956C233.154 335.676 232.254 333.986 231.874 331.856C231.504 329.766 232.354 328.436 234.604 327.946C238.774 327.026 243.094 326.946 247.184 325.506C252.004 323.816 255.424 320.786 257.274 316.016C257.194 314.746 257.794 314.086 259.044 313.976L259.034 313.966Z" fill="#DBD3C8"/>
<path d="M281.704 293.206C282.044 293.576 282.374 293.956 282.714 294.326C276.784 298.596 272.074 303.806 270.004 311.016C269.614 310.636 269.224 310.256 268.834 309.876C269.304 301.096 273.554 295.586 281.704 293.206Z" fill="#DBD3C8"/>
<path d="M245.914 304.896C246.564 305.266 247.214 305.636 247.874 306.006V305.976C248.294 306.296 248.664 306.656 248.864 307.156C250.154 310.866 246.184 310.496 244.844 312.166C244.154 313.036 243.064 312.126 242.534 311.206C240.884 308.316 244.544 307.956 244.994 306.066C245.244 305.646 245.614 305.316 245.904 304.926L245.924 304.896H245.914Z" fill="#DBD3C8"/>
<path d="M197.814 238.056C197.834 246.626 197.844 255.196 197.864 263.756C185.954 263.926 174.044 263.906 162.144 264.356C157.794 264.516 156.494 262.796 156.874 258.906L157.044 259.066C158.894 260.376 159.504 264.106 163.034 262.126C172.494 261.966 181.954 261.656 191.414 261.726C195.014 261.756 196.104 260.226 196.084 256.996C196.034 250.696 196.104 244.396 196.124 238.096C196.664 237.356 197.224 237.356 197.804 238.066L197.814 238.056Z" fill="#FEF2E2"/>
<path d="M139.984 257.966C142.114 265.896 140.004 274.026 141.084 282.006C140.594 286.376 141.804 290.866 140.104 295.146C140.944 285.746 138.154 276.736 137.104 267.536C136.714 264.096 133.474 262.526 131.574 260.076C129.374 257.246 127.814 254.476 131.184 251.436C131.554 251.106 131.574 251.126 132.084 253.116C132.314 253.456 132.464 253.836 132.534 254.246C132.684 254.866 132.944 255.426 133.394 255.886C135.204 257.806 138.194 255.986 139.984 257.966Z" fill="#DBD3C8"/>
<path d="M157.054 313.126C157.054 307.036 156.984 300.946 157.094 294.866C157.134 292.556 158.584 291.146 160.934 291.126C169.524 291.066 178.114 291.106 187.424 291.106C185.644 293.196 183.794 292.816 182.194 292.836C176.224 292.906 170.244 292.986 164.274 292.836C160.424 292.736 158.884 294.316 159.024 298.166C159.204 303.186 159.074 308.216 159.074 313.246C158.404 313.206 157.744 313.176 157.074 313.136L157.054 313.126Z" fill="#FEF2E2"/>
<path d="M189.864 278.336H158.744C162.794 275.836 180.064 275.356 189.864 278.336Z" fill="#FEF2E2"/>
<path d="M155.064 282.056C153.754 283.346 152.584 286.066 150.604 284.776C147.994 283.076 147.804 279.826 148.164 276.786C149.194 275.106 150.094 272.886 152.584 273.786C154.904 274.626 155.574 276.716 155.224 279.116C155.084 280.086 154.984 281.066 155.064 282.046V282.056Z" fill="#FEF2E2"/>
<path d="M165.284 304.006C170.884 307.816 172.954 315.566 180.164 317.466C179.534 318.916 178.214 319.986 177.404 319.186C172.804 314.666 168.444 309.906 164.004 305.216C164.434 304.806 164.864 304.406 165.284 303.996V304.006Z" fill="#FEF2E2"/>
<path d="M155.064 282.056C154.044 281.246 153.934 280.076 153.814 278.906C153.344 274.426 151.194 274.446 148.164 276.786C148.164 276.196 148.164 275.606 148.164 275.016C148.354 274.586 148.734 274.246 148.724 273.726C150.294 271.066 152.374 271.046 154.404 272.966C157.294 275.706 157.924 278.796 155.074 282.046L155.064 282.056Z" fill="#FEF2E2"/>
<path d="M185.864 302.786H168.984C174.524 300.246 180.174 300.566 185.844 301.356C185.844 301.836 185.854 302.316 185.864 302.786Z" fill="#FEF2E2"/>
<path d="M148.984 256.966C149.084 256.786 149.094 256.606 149.024 256.416C149.184 255.776 149.594 255.336 150.134 254.986C150.754 255.316 151.364 255.636 151.984 255.966C151.874 256.876 152.094 257.996 150.994 258.416C149.724 258.896 149.464 257.726 148.984 256.966Z" fill="#FEF2E2"/>
<path d="M209.854 274.966C209.854 276.626 209.834 278.286 209.824 279.946C207.974 278.276 207.974 276.616 209.854 274.966Z" fill="#DC5959"/>
<path d="M163.044 262.126C159.634 263.866 158.194 261.766 157.054 259.066C157.034 244.056 157.024 229.036 157.004 214.026C160.924 213.236 158.884 216.356 158.894 217.416C159.024 230.346 158.954 243.276 158.894 256.206C158.874 259.216 159.024 262.006 163.044 262.126Z" fill="#FEF2E2"/>
<path d="M185.094 228.816C176.934 221.496 177.174 221.746 169.294 229.336C165.474 233.026 163.784 236.256 167.854 241.086C162.144 238.186 161.354 234.826 164.904 231.066C167.984 227.806 171.344 224.806 174.444 221.556C176.414 219.496 178.074 219.736 179.964 221.566C182.234 223.756 184.604 225.836 186.934 227.966C186.934 229.596 186.304 229.876 185.074 228.806L185.094 228.816Z" fill="#FEF2E2"/>
<path d="M197.814 238.056C197.254 238.066 196.694 238.076 196.134 238.086C196.054 230.196 195.954 222.306 195.894 214.416C195.874 212.466 195.574 210.366 197.834 209.266C197.834 218.866 197.824 228.456 197.814 238.056Z" fill="#FEF2E2"/>
<path d="M185.094 228.816C185.714 228.536 186.334 228.256 186.954 227.976C193.334 234.416 193.384 238.016 187.154 244.346C185.884 245.636 184.514 246.846 183.184 248.086C182.394 247.996 181.954 247.566 181.854 246.776C182.524 246.056 183.184 245.316 183.864 244.616C188.744 239.649 189.154 234.382 185.094 228.816Z" fill="#FEF2E2"/>
<path d="M181.844 246.776C182.284 247.216 182.734 247.646 183.174 248.086C177.944 254.226 176.384 254.116 171.454 246.346C175.404 248.366 178.854 251.476 181.844 246.766V246.776Z" fill="#FEF2E2"/>
<path d="M275.724 247.356C275.454 248.896 274.784 250.426 273.204 250.576C271.454 250.746 270.554 249.016 270.564 247.646C270.564 246.126 272.034 244.976 273.474 244.726C275.234 244.416 275.334 246.146 275.734 247.356H275.724Z" fill="#DBD3C8"/>
<path d="M268.784 231.956C269.954 234.636 268.294 238.396 271.924 240.126C268.524 241.526 267.144 240.176 267.574 236.756C267.774 235.126 268.364 233.546 268.774 231.946L268.784 231.956Z" fill="#DBD3C8"/>
<path d="M135.074 300.006C131.334 299.976 129.574 297.976 128.644 294.416C126.974 287.966 129.424 281.566 128.484 275.156C128.364 274.336 129.104 273.586 130.104 273.676C131.544 273.816 133.014 274.666 133.014 275.966C133.014 281.326 135.994 285.706 137.404 290.586C138.444 294.186 135.374 296.766 135.044 300.026L135.074 300.006Z" fill="#DBD3C8"/>
<path d="M139.984 257.966C138.904 259.446 138.324 261.576 135.654 260.726C132.874 259.836 131.264 258.156 131.154 255.176C131.264 254.696 131.594 254.346 131.854 253.956C131.924 253.676 132.004 253.396 132.084 253.116C134.794 253.516 137.614 253.396 140.054 254.936C141.024 255.976 140.304 256.966 139.984 257.976V257.966Z" fill="#DBD3C8"/>
<path d="M214.964 236.976C215.574 236.736 216.194 236.526 216.794 236.266C219.014 235.276 221.064 232.666 223.304 233.266C226.294 234.076 224.464 237.516 225.164 239.716C225.744 241.526 226.794 242.886 228.114 244.136C227.054 247.746 225.994 251.356 224.934 254.966C223.754 259.366 224.434 263.906 224.004 268.386C223.554 273.026 220.324 275.716 218.284 279.226C217.654 280.316 216.334 280.366 215.124 280.026C212.824 279.386 212.614 276.996 212.834 275.666C214.024 268.536 212.304 261.516 212.424 254.436C212.494 250.216 212.944 246.026 213.054 241.816C213.094 240.066 213.074 238.076 214.984 236.976H214.964Z" fill="#DBD3C8"/>
<path d="M214.964 236.976C212.464 245.126 213.644 253.486 214.684 261.546C215.364 266.856 215.614 272.096 215.104 278.056C222.004 273.546 222.444 266.936 223.654 260.736C224.034 258.806 223.754 256.736 224.924 254.976C224.754 258.466 224.864 261.886 225.484 265.386C226.664 272.086 222.854 277.116 218.974 281.976C218.334 282.486 218.574 283.376 218.114 283.966C217.974 284.246 217.894 284.546 217.884 284.856C217.004 286.116 216.124 287.326 214.284 286.386C212.164 285.296 211.104 283.586 211.094 281.216C211.084 275.266 211.054 269.316 211.074 263.376C211.084 258.586 211.154 253.796 211.204 249.006C212.774 245.136 211.344 240.616 213.834 236.956C214.214 236.966 214.594 236.986 214.974 236.996L214.964 236.976Z" fill="#DBD3C8"/>
<path d="M55.9938 225.976C53.0038 221.576 54.4138 217.096 55.7738 212.626C56.4138 210.506 58.0838 209.996 60.0538 209.996C57.7438 215.076 55.5738 220.196 55.9938 225.976Z" fill="#DBD3C8"/>
<path d="M247.024 102.886C247.734 106.686 242.274 107.316 242.824 111.036C242.554 111.036 242.284 111.036 242.014 111.036C240.664 104.616 242.314 101.616 246.964 102.026C247.694 102.266 247.724 102.546 247.024 102.886Z" fill="#DBD3C8"/>
<path d="M103.044 72.0157C103.044 71.6857 103.054 71.3656 103.064 71.0356C103.064 71.3656 103.054 71.6857 103.044 72.0157Z" fill="#DBD3C8"/>
<path d="M206.904 310.836C207.994 309.486 209.434 308.996 211.124 309.126C209.974 310.326 208.464 310.636 206.904 310.836Z" fill="#DBD3C8"/>
<path d="M131.854 253.946C131.624 254.356 131.384 254.756 131.154 255.166C131.394 254.756 131.624 254.356 131.854 253.946Z" fill="#DBD3C8"/>
</svg>
