<svg width="320" height="320" viewBox="0 0 320 320" fill="none" xmlns="http://www.w3.org/2000/svg">
<circle cx="160" cy="160" r="160" fill="#2D2D2D"/>
<path d="M113.55 112.872V206.504C113.55 207.4 113.812 208.221 114.334 208.968C114.857 209.715 115.566 210.2 116.462 210.424L121.614 211.32C122.361 211.469 122.734 211.768 122.734 212.216C122.734 212.739 122.324 213 121.502 213H71.8863C71.5129 213 71.2143 212.925 70.9903 212.776C70.8409 212.552 70.7663 212.365 70.7663 212.216C70.7663 211.992 70.8783 211.805 71.1022 211.656C71.4009 211.432 71.7369 211.283 72.1103 211.208L77.2623 210.2C78.3076 209.976 79.0169 209.603 79.3903 209.08C79.7636 208.483 79.9503 207.773 79.9503 206.952V125.976C79.9503 125.379 79.8383 124.893 79.6143 124.52C79.3903 124.147 78.9796 123.96 78.3823 123.96H72.1103C71.8116 123.96 71.5503 123.885 71.3263 123.736C71.1769 123.587 71.1022 123.4 71.1022 123.176C71.1022 122.952 71.1769 122.765 71.3263 122.616C71.5503 122.392 71.8863 122.243 72.3343 122.168L109.63 111.752C110.228 111.528 110.713 111.416 111.086 111.416C111.46 111.341 111.833 111.304 112.206 111.304C112.729 111.304 113.065 111.491 113.214 111.864C113.438 112.163 113.55 112.499 113.55 112.872ZM110.862 136.616L109.518 135.496L113.662 131.576C121.502 124.184 128.745 118.995 135.39 116.008C142.036 112.947 148.009 111.416 153.31 111.416C160.404 111.416 166.19 113.619 170.67 118.024C175.15 122.355 177.39 129.299 177.39 138.856V207.288C177.39 208.259 177.577 209.005 177.95 209.528C178.398 209.976 179.033 210.312 179.854 210.536L183.438 211.208C184.26 211.432 184.67 211.768 184.67 212.216C184.67 212.739 184.148 213 183.102 213H136.398C135.801 213 135.502 212.739 135.502 212.216C135.502 211.768 135.876 211.469 136.622 211.32L140.878 210.536C142.222 210.237 143.118 209.64 143.566 208.744C144.014 207.773 144.238 206.616 144.238 205.272V142.44C144.238 137.363 142.969 133.405 140.43 130.568C137.892 127.656 134.644 126.2 130.686 126.2C127.625 126.2 124.825 126.76 122.286 127.88C119.748 128.925 117.246 130.605 114.782 132.92L110.862 136.616ZM174.478 136.616L173.134 135.496L176.718 131.016C182.094 124.445 187.582 119.555 193.182 116.344C198.782 113.059 204.569 111.416 210.542 111.416C217.337 111.416 223.049 113.619 227.678 118.024C232.382 122.355 235.257 129.336 236.302 138.968L244.366 206.952C244.516 208.072 244.814 208.931 245.262 209.528C245.71 210.051 246.345 210.424 247.166 210.648L250.638 211.432C250.937 211.432 251.161 211.507 251.31 211.656C251.534 211.805 251.646 211.992 251.646 212.216C251.646 212.44 251.534 212.627 251.31 212.776C251.161 212.925 250.937 213 250.638 213H201.806C201.209 213 200.91 212.739 200.91 212.216C200.91 211.768 201.284 211.469 202.03 211.32L206.174 210.536C207.593 210.237 208.564 209.603 209.086 208.632C209.609 207.587 209.796 206.355 209.646 204.936L203.262 142.44C202.665 137.363 201.246 133.405 199.006 130.568C196.841 127.656 193.78 126.2 189.822 126.2C187.582 126.2 185.492 126.76 183.55 127.88C181.609 128.925 179.705 130.419 177.838 132.36L174.478 136.616Z" fill="#FEF2E2"/>
</svg>
