<svg width="475" height="292" viewBox="0 0 475 292" fill="none" xmlns="http://www.w3.org/2000/svg">
<rect width="475" height="292" fill="#FEF8F0"/>
<rect x="44" y="22" width="12" height="247" stroke="#322E2C" stroke-width="2"/>
<mask id="path-3-inside-1_206_642" fill="white">
<path d="M55 37.0645L55 21L128 21L128 37.0645L55 37.0645Z"/>
</mask>
<path d="M55 37.0645L55 21L128 21L128 37.0645L55 37.0645Z" fill="#FEF8F0"/>
<path d="M128 21L130 21L130 19L128 19L128 21ZM128 37.0645L128 39.0645L130 39.0645L130 37.0645L128 37.0645ZM55 23L128 23L128 19L55 19L55 23ZM126 21L126 37.0645L130 37.0645L130 21L126 21ZM128 35.0645L55 35.0645L55 39.0645L128 39.0645L128 35.0645Z" fill="#322E2C" mask="url(#path-3-inside-1_206_642)"/>
<mask id="path-5-inside-2_206_642" fill="white">
<path d="M123 101.065L123 85L190 85L190 101.065L123 101.065Z"/>
</mask>
<path d="M123 101.065L123 85L190 85L190 101.065L123 101.065Z" fill="#FEF8F0"/>
<path d="M123 101.065L121 101.065L121 103.065L123 103.065L123 101.065ZM123 85L123 83L121 83L121 85L123 85ZM190 85L192 85L192 83L190 83L190 85ZM190 101.065L190 103.065L192 103.065L192 101.065L190 101.065ZM125 101.065L125 85L121 85L121 101.065L125 101.065ZM123 87L190 87L190 83L123 83L123 87ZM188 85L188 101.065L192 101.065L192 85L188 85ZM190 99.0645L123 99.0645L123 103.065L190 103.065L190 99.0645Z" fill="#322E2C" mask="url(#path-5-inside-2_206_642)"/>
<mask id="path-7-inside-3_206_642" fill="white">
<path d="M132 190H146V234H132V190Z"/>
</mask>
<path d="M132 190H146V234H132V190Z" fill="#FEF8F0"/>
<path d="M132 190V188H130V190H132ZM146 190H148V188H146V190ZM146 234V236H148V234H146ZM132 234H130V236H132V234ZM132 192H146V188H132V192ZM144 190V234H148V190H144ZM146 232H132V236H146V232ZM134 234V190H130V234H134Z" fill="#322E2C" mask="url(#path-7-inside-3_206_642)"/>
<mask id="path-9-inside-4_206_642" fill="white">
<path d="M172 190H186V234H172V190Z"/>
</mask>
<path d="M172 190H186V234H172V190Z" fill="#FEF8F0"/>
<path d="M172 190V188H170V190H172ZM186 190H188V188H186V190ZM186 234V236H188V234H186ZM172 234H170V236H172V234ZM172 192H186V188H172V192ZM184 190V234H188V190H184ZM186 232H172V236H186V232ZM174 234V190H170V234H174Z" fill="#322E2C" mask="url(#path-9-inside-4_206_642)"/>
<mask id="path-11-inside-5_206_642" fill="white">
<path d="M55 169.023L55 152.959L128 152.959L128 169.023L55 169.023Z"/>
</mask>
<path d="M55 169.023L55 152.959L128 152.959L128 169.023L55 169.023Z" fill="#FEF8F0"/>
<path d="M128 152.959L130 152.959L130 150.959L128 150.959L128 152.959ZM128 169.023L128 171.023L130 171.023L130 169.023L128 169.023ZM55 154.959L128 154.959L128 150.959L55 150.959L55 154.959ZM126 152.959L126 169.023L130 169.023L130 152.959L126 152.959ZM128 167.023L55 167.023L55 171.023L128 171.023L128 167.023Z" fill="#322E2C" mask="url(#path-11-inside-5_206_642)"/>
<mask id="path-13-inside-6_206_642" fill="white">
<path d="M55 270L55 253.935L128 253.935L128 270L55 270Z"/>
</mask>
<path d="M55 270L55 253.935L128 253.935L128 270L55 270Z" fill="#FEF8F0"/>
<path d="M128 253.935L130 253.935L130 251.935L128 251.935L128 253.935ZM128 270L128 272L130 272L130 270L128 270ZM55 255.935L128 255.935L128 251.935L55 251.935L55 255.935ZM126 253.935L126 270L130 270L130 253.935L126 253.935ZM128 268L55 268L55 272L128 272L128 268Z" fill="#322E2C" mask="url(#path-13-inside-6_206_642)"/>
<rect x="-1" y="1" width="12" height="247" transform="matrix(-1 0 0 1 269 21)" stroke="#322E2C" stroke-width="2"/>
<mask id="path-16-inside-7_206_642" fill="white">
<path d="M259 37.0645L259 21L186 21L186 37.0645L259 37.0645Z"/>
</mask>
<path d="M259 37.0645L259 21L186 21L186 37.0645L259 37.0645Z" fill="#FEF8F0"/>
<path d="M186 21L184 21L184 19L186 19L186 21ZM186 37.0645L186 39.0645L184 39.0645L184 37.0645L186 37.0645ZM259 23L186 23L186 19L259 19L259 23ZM188 21L188 37.0645L184 37.0645L184 21L188 21ZM186 35.0645L259 35.0645L259 39.0645L186 39.0645L186 35.0645Z" fill="#322E2C" mask="url(#path-16-inside-7_206_642)"/>
<mask id="path-18-inside-8_206_642" fill="white">
<path d="M259 169.023L259 152.959L186 152.959L186 169.023L259 169.023Z"/>
</mask>
<path d="M259 169.023L259 152.959L186 152.959L186 169.023L259 169.023Z" fill="#FEF8F0"/>
<path d="M186 152.959L184 152.959L184 150.959L186 150.959L186 152.959ZM186 169.023L186 171.023L184 171.023L184 169.023L186 169.023ZM259 154.959L186 154.959L186 150.959L259 150.959L259 154.959ZM188 152.959L188 169.023L184 169.023L184 152.959L188 152.959ZM186 167.023L259 167.023L259 171.023L186 171.023L186 167.023Z" fill="#322E2C" mask="url(#path-18-inside-8_206_642)"/>
<mask id="path-20-inside-9_206_642" fill="white">
<path d="M259 270L259 253.935L186 253.935L186 270L259 270Z"/>
</mask>
<path d="M259 270L259 253.935L186 253.935L186 270L259 270Z" fill="#FEF8F0"/>
<path d="M186 253.935L184 253.935L184 251.935L186 251.935L186 253.935ZM186 270L186 272L184 272L184 270L186 270ZM259 255.935L186 255.935L186 251.935L259 251.935L259 255.935ZM188 253.935L188 270L184 270L184 253.935L188 253.935ZM186 268L259 268L259 272L186 272L186 268Z" fill="#322E2C" mask="url(#path-20-inside-9_206_642)"/>
<path d="M322.018 80.2275L321.59 80.3175C321.47 80.3525 321.378 80.405 321.313 80.475C321.248 80.545 321.215 80.635 321.215 80.745V88.7175C321.215 88.9075 321.27 89.045 321.38 89.13C321.49 89.21 321.655 89.25 321.875 89.25H323.128C323.408 89.25 323.648 89.2125 323.848 89.1375C324.048 89.0625 324.228 88.9275 324.388 88.7325C324.553 88.5375 324.715 88.2575 324.875 87.8925L325.333 86.8575C325.393 86.7325 325.465 86.65 325.55 86.61C325.635 86.565 325.735 86.5575 325.85 86.5875C325.975 86.6175 326.06 86.675 326.105 86.76C326.155 86.84 326.16 86.9475 326.12 87.0825L325.445 89.73C325.395 89.92 325.328 90.0575 325.243 90.1425C325.158 90.2325 325.038 90.2775 324.882 90.2775C324.773 90.2775 324.668 90.255 324.568 90.21C324.468 90.165 324.355 90.1175 324.23 90.0675C324.11 90.0225 323.958 90 323.773 90H318.223C318.073 90 317.96 89.97 317.885 89.91C317.81 89.845 317.773 89.76 317.773 89.655C317.773 89.47 317.878 89.3425 318.088 89.2725L318.515 89.1825C318.64 89.1475 318.733 89.095 318.793 89.025C318.858 88.955 318.89 88.865 318.89 88.755V80.745C318.89 80.635 318.858 80.545 318.793 80.475C318.733 80.405 318.64 80.3525 318.515 80.3175L318.088 80.2275C317.878 80.1575 317.773 80.03 317.773 79.845C317.773 79.735 317.81 79.65 317.885 79.59C317.96 79.53 318.073 79.5 318.223 79.5H321.883C322.038 79.5 322.15 79.53 322.22 79.59C322.295 79.65 322.333 79.735 322.333 79.845C322.333 80.03 322.228 80.1575 322.018 80.2275ZM333.483 85.5675C333.483 85.8325 333.405 86.0375 333.25 86.1825C333.1 86.3225 332.883 86.3925 332.598 86.3925H327.918V85.8225H330.985C331.235 85.8225 331.36 85.7075 331.36 85.4775C331.36 84.8175 331.24 84.3175 331 83.9775C330.76 83.6325 330.44 83.46 330.04 83.46C329.725 83.46 329.448 83.555 329.208 83.745C328.973 83.935 328.785 84.2075 328.645 84.5625C328.51 84.9125 328.443 85.3375 328.443 85.8375C328.443 86.8075 328.67 87.535 329.125 88.02C329.58 88.5 330.183 88.74 330.933 88.74C331.378 88.74 331.765 88.6525 332.095 88.4775C332.43 88.3025 332.69 88.0525 332.875 87.7275C332.96 87.6275 333.028 87.56 333.078 87.525C333.133 87.49 333.19 87.4725 333.25 87.4725C333.325 87.4725 333.38 87.51 333.415 87.585C333.455 87.655 333.473 87.74 333.468 87.84C333.448 88.26 333.298 88.65 333.018 89.01C332.743 89.365 332.365 89.65 331.885 89.865C331.41 90.08 330.865 90.1875 330.25 90.1875C329.53 90.1875 328.89 90.04 328.33 89.745C327.77 89.445 327.33 89.0275 327.01 88.4925C326.695 87.9525 326.538 87.325 326.538 86.61C326.538 85.85 326.688 85.18 326.988 84.6C327.293 84.015 327.728 83.5575 328.293 83.2275C328.858 82.8925 329.533 82.725 330.318 82.725C330.983 82.725 331.55 82.8475 332.02 83.0925C332.495 83.3325 332.858 83.6675 333.108 84.0975C333.358 84.5225 333.483 85.0125 333.483 85.5675ZM346.623 87.4725C346.623 88.2175 346.301 88.825 345.656 89.295C345.016 89.765 344.053 90 342.768 90H337.578C337.423 90 337.308 89.97 337.233 89.91C337.163 89.845 337.128 89.76 337.128 89.655C337.128 89.47 337.233 89.3425 337.443 89.2725L337.871 89.1825C337.996 89.1475 338.088 89.095 338.148 89.025C338.213 88.955 338.246 88.8625 338.246 88.7475V80.745C338.246 80.635 338.213 80.545 338.148 80.475C338.088 80.405 337.996 80.3525 337.871 80.3175L337.443 80.2275C337.233 80.1575 337.128 80.03 337.128 79.845C337.128 79.735 337.163 79.65 337.233 79.59C337.308 79.53 337.423 79.5 337.578 79.5H341.621C342.551 79.5 343.343 79.6275 343.998 79.8825C344.658 80.1375 345.161 80.4925 345.506 80.9475C345.851 81.3975 346.023 81.925 346.023 82.53C346.023 83.03 345.881 83.4775 345.596 83.8725C345.316 84.2675 344.898 84.58 344.343 84.81C343.793 85.04 343.111 85.155 342.296 85.155L342.708 84.9225C343.503 84.9225 344.193 85.0325 344.778 85.2525C345.363 85.4675 345.816 85.7675 346.136 86.1525C346.461 86.5325 346.623 86.9725 346.623 87.4725ZM341.921 85.4325H339.918V84.825H341.733C342.178 84.825 342.556 84.7425 342.866 84.5775C343.176 84.4075 343.411 84.16 343.571 83.835C343.731 83.51 343.811 83.115 343.811 82.65C343.811 82.155 343.711 81.7225 343.511 81.3525C343.316 80.9825 343.028 80.6975 342.648 80.4975C342.268 80.2925 341.803 80.19 341.253 80.19H340.563V88.5825C340.563 88.8325 340.638 89.0175 340.788 89.1375C340.943 89.2525 341.168 89.31 341.463 89.31H342.266C342.711 89.31 343.083 89.2325 343.383 89.0775C343.683 88.9225 343.911 88.7025 344.066 88.4175C344.221 88.1275 344.298 87.7925 344.298 87.4125C344.298 86.8125 344.096 86.3325 343.691 85.9725C343.286 85.6125 342.696 85.4325 341.921 85.4325ZM351.671 89.0475V88.89L351.528 88.86V84.3825C351.528 84.0325 351.438 83.7625 351.258 83.5725C351.078 83.3775 350.828 83.28 350.508 83.28C350.208 83.28 349.978 83.3425 349.818 83.4675C349.663 83.5925 349.586 83.7475 349.586 83.9325V84.5925C349.586 84.8925 349.483 85.125 349.278 85.29C349.078 85.45 348.798 85.53 348.438 85.53C348.128 85.53 347.893 85.4575 347.733 85.3125C347.573 85.1625 347.493 84.96 347.493 84.705C347.493 84.39 347.623 84.0825 347.883 83.7825C348.143 83.4775 348.523 83.2275 349.023 83.0325C349.528 82.8325 350.151 82.7325 350.891 82.7325C351.811 82.7325 352.493 82.92 352.938 83.295C353.388 83.665 353.613 84.1675 353.613 84.8025V88.7025C353.613 88.8425 353.641 88.9475 353.696 89.0175C353.756 89.0875 353.838 89.1225 353.943 89.1225C354.053 89.1225 354.136 89.0975 354.191 89.0475C354.246 88.9925 354.293 88.9375 354.333 88.8825C354.358 88.8525 354.386 88.825 354.416 88.8C354.446 88.775 354.483 88.7625 354.528 88.7625C354.588 88.7625 354.633 88.785 354.663 88.83C354.693 88.875 354.708 88.935 354.708 89.01C354.708 89.18 354.648 89.355 354.528 89.535C354.408 89.715 354.233 89.87 354.003 90C353.773 90.125 353.486 90.1875 353.141 90.1875C352.691 90.1875 352.333 90.0875 352.068 89.8875C351.803 89.6825 351.671 89.4025 351.671 89.0475ZM347.178 88.4325C347.178 87.8075 347.456 87.305 348.011 86.925C348.571 86.54 349.351 86.3475 350.351 86.3475C350.676 86.3475 350.968 86.375 351.228 86.43C351.488 86.485 351.713 86.5575 351.903 86.6475L351.746 87.1275C351.571 87.0475 351.396 86.985 351.221 86.94C351.046 86.895 350.853 86.8725 350.643 86.8725C350.233 86.8725 349.911 86.98 349.676 87.195C349.441 87.405 349.323 87.6975 349.323 88.0725C349.323 88.4525 349.423 88.7425 349.623 88.9425C349.823 89.1375 350.081 89.235 350.396 89.235C350.661 89.235 350.918 89.175 351.168 89.055C351.418 88.93 351.628 88.76 351.798 88.545L351.956 88.965C351.681 89.355 351.311 89.6575 350.846 89.8725C350.386 90.0825 349.896 90.1875 349.376 90.1875C348.726 90.1875 348.196 90.025 347.786 89.7C347.381 89.375 347.178 88.9525 347.178 88.4325ZM357.739 86.0325C357.739 85.3025 357.842 84.6925 358.047 84.2025C358.257 83.7125 358.527 83.345 358.857 83.1C359.192 82.85 359.552 82.725 359.937 82.725C360.412 82.725 360.779 82.86 361.039 83.13C361.299 83.4 361.429 83.79 361.429 84.3C361.429 84.745 361.337 85.0775 361.152 85.2975C360.967 85.5175 360.727 85.6275 360.432 85.6275C360.137 85.6275 359.909 85.5475 359.749 85.3875C359.594 85.2275 359.517 85.005 359.517 84.72V84.45C359.512 84.295 359.474 84.18 359.404 84.105C359.334 84.025 359.222 83.985 359.067 83.985C358.887 83.985 358.717 84.0575 358.557 84.2025C358.397 84.3425 358.264 84.56 358.159 84.855C358.059 85.15 358.009 85.5275 358.009 85.9875L357.739 86.0325ZM357.889 83.2425L358.009 84.945V88.8C358.009 88.94 358.037 89.045 358.092 89.115C358.147 89.18 358.249 89.225 358.399 89.25L359.044 89.355C359.159 89.37 359.244 89.405 359.299 89.46C359.359 89.515 359.389 89.59 359.389 89.685C359.389 89.785 359.354 89.8625 359.284 89.9175C359.214 89.9725 359.109 90 358.969 90H355.474C355.334 90 355.232 89.9725 355.167 89.9175C355.102 89.8625 355.069 89.7875 355.069 89.6925C355.069 89.6175 355.089 89.555 355.129 89.505C355.174 89.45 355.244 89.405 355.339 89.37L355.632 89.295C355.727 89.265 355.794 89.215 355.834 89.145C355.879 89.075 355.902 88.9625 355.902 88.8075V84.5175C355.902 84.3875 355.882 84.295 355.842 84.24C355.802 84.185 355.739 84.15 355.654 84.135L355.257 84.105C355.167 84.085 355.102 84.0525 355.062 84.0075C355.027 83.9625 355.009 83.905 355.009 83.835C355.009 83.755 355.034 83.69 355.084 83.64C355.134 83.585 355.224 83.535 355.354 83.49L356.719 82.9875C356.964 82.8975 357.144 82.8375 357.259 82.8075C357.374 82.7775 357.464 82.7625 357.529 82.7625C357.634 82.7625 357.714 82.8 357.769 82.875C357.829 82.945 357.869 83.0675 357.889 83.2425ZM365.69 82.725C366.46 82.725 367.137 82.885 367.722 83.205C368.307 83.52 368.762 83.96 369.087 84.525C369.417 85.085 369.582 85.735 369.582 86.475C369.582 87.18 369.412 87.8125 369.072 88.3725C368.737 88.9325 368.272 89.375 367.677 89.7C367.082 90.025 366.395 90.1875 365.615 90.1875C364.845 90.1875 364.167 90.0275 363.582 89.7075C362.997 89.3875 362.54 88.9475 362.21 88.3875C361.885 87.8225 361.722 87.1725 361.722 86.4375C361.722 85.7225 361.89 85.0875 362.225 84.5325C362.565 83.9725 363.03 83.5325 363.62 83.2125C364.215 82.8875 364.905 82.725 365.69 82.725ZM366.222 89.4075C366.562 89.3525 366.835 89.195 367.04 88.935C367.25 88.675 367.382 88.315 367.437 87.855C367.492 87.395 367.46 86.84 367.34 86.19C367.225 85.55 367.057 85.02 366.837 84.6C366.617 84.18 366.357 83.8775 366.057 83.6925C365.762 83.5075 365.437 83.445 365.082 83.505C364.742 83.56 364.467 83.72 364.257 83.985C364.052 84.245 363.922 84.605 363.867 85.065C363.812 85.52 363.845 86.0725 363.965 86.7225C364.08 87.3625 364.247 87.8925 364.467 88.3125C364.687 88.7325 364.945 89.035 365.24 89.22C365.54 89.4 365.867 89.4625 366.222 89.4075ZM375.061 93.495C374.921 93.495 374.816 93.4675 374.746 93.4125C374.681 93.3575 374.648 93.2825 374.648 93.1875C374.648 93.1125 374.671 93.0475 374.716 92.9925C374.761 92.9375 374.833 92.895 374.933 92.865L375.331 92.79C375.421 92.765 375.488 92.715 375.533 92.64C375.578 92.565 375.601 92.45 375.601 92.295V83.715L376.471 82.98C376.696 82.89 376.868 82.8275 376.988 82.7925C377.108 82.7525 377.211 82.7325 377.296 82.7325C377.421 82.7325 377.521 82.7675 377.596 82.8375C377.671 82.9025 377.708 83 377.708 83.13V92.3025C377.708 92.4575 377.728 92.57 377.768 92.64C377.813 92.71 377.881 92.76 377.971 92.79L378.263 92.865C378.358 92.9 378.428 92.9425 378.473 92.9925C378.518 93.0475 378.541 93.1125 378.541 93.1875C378.541 93.2825 378.508 93.3575 378.443 93.4125C378.378 93.4675 378.276 93.495 378.136 93.495H375.061ZM376.358 88.2225C375.968 88.8375 375.513 89.32 374.993 89.67C374.478 90.015 373.908 90.1875 373.283 90.1875C372.688 90.1875 372.158 90.0375 371.693 89.7375C371.228 89.4325 370.863 89.015 370.598 88.485C370.333 87.95 370.201 87.3375 370.201 86.6475C370.201 85.8525 370.358 85.1625 370.673 84.5775C370.993 83.9875 371.423 83.5325 371.963 83.2125C372.508 82.8875 373.118 82.725 373.793 82.725C374.393 82.725 374.921 82.865 375.376 83.145C375.831 83.42 376.208 83.8225 376.508 84.3525L375.998 84.78C375.753 84.375 375.476 84.0725 375.166 83.8725C374.861 83.6725 374.531 83.5725 374.176 83.5725C373.836 83.5725 373.531 83.675 373.261 83.88C372.991 84.08 372.778 84.39 372.623 84.81C372.468 85.225 372.391 85.76 372.391 86.415C372.391 87.025 372.466 87.5325 372.616 87.9375C372.771 88.3375 372.978 88.635 373.238 88.83C373.503 89.025 373.803 89.1225 374.138 89.1225C374.498 89.1225 374.836 89.015 375.151 88.8C375.471 88.58 375.763 88.2475 376.028 87.8025L376.358 88.2225ZM384.396 88.9275V88.5525L384.328 88.5225V84.5025C384.328 84.3725 384.308 84.28 384.268 84.225C384.228 84.17 384.166 84.135 384.081 84.12L383.683 84.09C383.593 84.07 383.528 84.0375 383.488 83.9925C383.448 83.9475 383.428 83.89 383.428 83.82C383.428 83.74 383.453 83.675 383.503 83.625C383.553 83.575 383.643 83.525 383.773 83.475L385.176 82.965C385.366 82.895 385.518 82.845 385.633 82.815C385.748 82.785 385.856 82.77 385.956 82.77C386.116 82.77 386.236 82.8125 386.316 82.8975C386.396 82.9825 386.436 83.0975 386.436 83.2425V88.8C386.436 88.955 386.456 89.07 386.496 89.145C386.541 89.215 386.608 89.265 386.698 89.295L386.983 89.37C387.078 89.4 387.148 89.4425 387.193 89.4975C387.238 89.5525 387.261 89.6175 387.261 89.6925C387.261 89.7875 387.228 89.8625 387.163 89.9175C387.098 89.9725 386.993 90 386.848 90H385.341C385.071 90 384.846 89.9 384.666 89.7C384.486 89.5 384.396 89.2425 384.396 88.9275ZM379.596 87.915V84.5025C379.596 84.3725 379.576 84.28 379.536 84.225C379.501 84.17 379.441 84.135 379.356 84.12L378.958 84.09C378.868 84.07 378.803 84.0375 378.763 83.9925C378.723 83.9475 378.703 83.89 378.703 83.82C378.703 83.74 378.728 83.675 378.778 83.625C378.828 83.575 378.918 83.525 379.048 83.475L380.451 82.965C380.646 82.89 380.801 82.84 380.916 82.815C381.031 82.785 381.131 82.77 381.216 82.77C381.381 82.77 381.503 82.8125 381.583 82.8975C381.668 82.9825 381.711 83.0975 381.711 83.2425V87.6075C381.711 88.0475 381.816 88.3775 382.026 88.5975C382.236 88.8175 382.518 88.9275 382.873 88.9275C383.093 88.9275 383.328 88.875 383.578 88.77C383.828 88.66 384.086 88.49 384.351 88.26L384.658 88.005L384.996 88.35L384.703 88.6125C384.073 89.1925 383.523 89.6 383.053 89.835C382.583 90.07 382.141 90.1875 381.726 90.1875C381.091 90.1875 380.576 89.9825 380.181 89.5725C379.791 89.1575 379.596 88.605 379.596 87.915ZM394.805 85.5675C394.805 85.8325 394.727 86.0375 394.572 86.1825C394.422 86.3225 394.205 86.3925 393.92 86.3925H389.24V85.8225H392.307C392.557 85.8225 392.682 85.7075 392.682 85.4775C392.682 84.8175 392.562 84.3175 392.322 83.9775C392.082 83.6325 391.762 83.46 391.362 83.46C391.047 83.46 390.77 83.555 390.53 83.745C390.295 83.935 390.107 84.2075 389.967 84.5625C389.832 84.9125 389.765 85.3375 389.765 85.8375C389.765 86.8075 389.992 87.535 390.447 88.02C390.902 88.5 391.505 88.74 392.255 88.74C392.7 88.74 393.087 88.6525 393.417 88.4775C393.752 88.3025 394.012 88.0525 394.197 87.7275C394.282 87.6275 394.35 87.56 394.4 87.525C394.455 87.49 394.512 87.4725 394.572 87.4725C394.647 87.4725 394.702 87.51 394.737 87.585C394.777 87.655 394.795 87.74 394.79 87.84C394.77 88.26 394.62 88.65 394.34 89.01C394.065 89.365 393.687 89.65 393.207 89.865C392.732 90.08 392.187 90.1875 391.572 90.1875C390.852 90.1875 390.212 90.04 389.652 89.745C389.092 89.445 388.652 89.0275 388.332 88.4925C388.017 87.9525 387.86 87.325 387.86 86.61C387.86 85.85 388.01 85.18 388.31 84.6C388.615 84.015 389.05 83.5575 389.615 83.2275C390.18 82.8925 390.855 82.725 391.64 82.725C392.305 82.725 392.872 82.8475 393.342 83.0925C393.817 83.3325 394.18 83.6675 394.43 84.0975C394.68 84.5225 394.805 85.0125 394.805 85.5675ZM320.533 101.242V106.8C320.533 106.955 320.553 107.07 320.593 107.145C320.638 107.215 320.705 107.265 320.795 107.295L321.08 107.37C321.18 107.4 321.253 107.442 321.298 107.497C321.343 107.552 321.365 107.617 321.365 107.692C321.365 107.787 321.33 107.862 321.26 107.917C321.195 107.972 321.093 108 320.953 108H317.998C317.858 108 317.755 107.972 317.69 107.917C317.625 107.862 317.593 107.787 317.593 107.692C317.593 107.617 317.613 107.555 317.653 107.505C317.698 107.45 317.768 107.405 317.863 107.37L318.163 107.295C318.253 107.265 318.318 107.215 318.358 107.145C318.403 107.075 318.425 106.962 318.425 106.807V102.495C318.425 102.37 318.405 102.28 318.365 102.225C318.325 102.17 318.263 102.135 318.178 102.12L317.788 102.09C317.693 102.07 317.625 102.037 317.585 101.992C317.55 101.947 317.533 101.89 317.533 101.82C317.533 101.735 317.555 101.667 317.6 101.617C317.65 101.567 317.743 101.517 317.878 101.467L319.273 100.965C319.468 100.89 319.623 100.837 319.738 100.807C319.853 100.777 319.953 100.762 320.038 100.762C320.203 100.762 320.325 100.807 320.405 100.897C320.49 100.982 320.533 101.097 320.533 101.242ZM319.318 99.615C318.913 99.615 318.59 99.5125 318.35 99.3075C318.11 99.1025 317.99 98.8325 317.99 98.4975C317.99 98.1575 318.11 97.8875 318.35 97.6875C318.59 97.4825 318.913 97.38 319.318 97.38C319.718 97.38 320.038 97.4825 320.278 97.6875C320.523 97.8925 320.645 98.1625 320.645 98.4975C320.645 98.8325 320.523 99.1025 320.278 99.3075C320.038 99.5125 319.718 99.615 319.318 99.615ZM324.829 101.242V106.8C324.829 106.955 324.849 107.07 324.889 107.145C324.934 107.215 325.001 107.265 325.091 107.295L325.369 107.37C325.524 107.435 325.601 107.535 325.601 107.67C325.601 107.89 325.464 108 325.189 108H322.294C322.154 108 322.051 107.972 321.986 107.917C321.921 107.862 321.889 107.787 321.889 107.692C321.889 107.617 321.909 107.555 321.949 107.505C321.994 107.45 322.064 107.405 322.159 107.37L322.451 107.295C322.541 107.265 322.609 107.215 322.654 107.145C322.699 107.075 322.721 106.962 322.721 106.807V102.495C322.721 102.37 322.701 102.28 322.661 102.225C322.621 102.17 322.559 102.135 322.474 102.12L322.076 102.09C321.986 102.07 321.921 102.037 321.881 101.992C321.846 101.947 321.829 101.89 321.829 101.82C321.829 101.735 321.851 101.667 321.896 101.617C321.946 101.567 322.036 101.517 322.166 101.467L323.569 100.965C323.759 100.89 323.911 100.837 324.026 100.807C324.141 100.777 324.249 100.762 324.349 100.762C324.509 100.762 324.629 100.807 324.709 100.897C324.789 100.982 324.829 101.097 324.829 101.242ZM324.596 102.907L324.259 102.555L324.551 102.292C325.181 101.712 325.731 101.307 326.201 101.077C326.676 100.842 327.121 100.725 327.536 100.725C328.181 100.725 328.699 100.93 329.089 101.34C329.484 101.75 329.681 102.3 329.681 102.99V106.785C329.681 106.945 329.704 107.062 329.749 107.137C329.799 107.212 329.871 107.265 329.966 107.295L330.236 107.37C330.326 107.405 330.394 107.45 330.439 107.505C330.484 107.555 330.506 107.617 330.506 107.692C330.506 107.787 330.474 107.862 330.409 107.917C330.344 107.972 330.241 108 330.101 108H327.199C326.919 108 326.779 107.89 326.779 107.67C326.779 107.535 326.856 107.435 327.011 107.37L327.304 107.295C327.399 107.265 327.466 107.212 327.506 107.137C327.551 107.062 327.574 106.945 327.574 106.785V103.297C327.574 102.857 327.466 102.53 327.251 102.315C327.036 102.095 326.749 101.985 326.389 101.985C326.169 101.985 325.931 102.037 325.676 102.142C325.421 102.247 325.161 102.415 324.896 102.645L324.596 102.907ZM331.4 101.632L331.048 101.527C330.928 101.487 330.843 101.442 330.793 101.392C330.748 101.337 330.725 101.275 330.725 101.205C330.725 101.105 330.758 101.03 330.823 100.98C330.893 100.925 330.983 100.897 331.093 100.897H331.558C331.673 100.897 331.77 100.877 331.85 100.837C331.935 100.792 332.018 100.71 332.098 100.59L332.923 99.4425C333.028 99.3175 333.128 99.225 333.223 99.165C333.318 99.1 333.413 99.0675 333.508 99.0675C333.613 99.0675 333.693 99.1025 333.748 99.1725C333.808 99.2375 333.838 99.3325 333.838 99.4575V105.862C333.838 106.217 333.905 106.487 334.04 106.672C334.18 106.852 334.375 106.942 334.625 106.942C334.805 106.942 334.945 106.907 335.045 106.837C335.15 106.767 335.233 106.685 335.293 106.59C335.353 106.495 335.41 106.41 335.465 106.335C335.525 106.26 335.6 106.22 335.69 106.215C335.765 106.215 335.823 106.24 335.863 106.29C335.908 106.34 335.93 106.422 335.93 106.537C335.925 106.822 335.83 107.087 335.645 107.332C335.465 107.577 335.213 107.777 334.888 107.932C334.568 108.083 334.2 108.158 333.785 108.158C333.145 108.158 332.643 107.998 332.278 107.677C331.913 107.352 331.73 106.865 331.73 106.215V102.075C331.73 101.945 331.705 101.85 331.655 101.79C331.605 101.725 331.52 101.672 331.4 101.632ZM333.005 101.64L333.013 100.897H335.488C335.608 100.897 335.7 100.922 335.765 100.972C335.83 101.017 335.863 101.085 335.863 101.175C335.863 101.31 335.798 101.422 335.668 101.512C335.538 101.597 335.33 101.64 335.045 101.64H333.005ZM343.306 103.567C343.306 103.832 343.228 104.037 343.073 104.182C342.923 104.322 342.706 104.392 342.421 104.392H337.741V103.822H340.808C341.058 103.822 341.183 103.707 341.183 103.477C341.183 102.817 341.063 102.317 340.823 101.977C340.583 101.632 340.263 101.46 339.863 101.46C339.548 101.46 339.271 101.555 339.031 101.745C338.796 101.935 338.608 102.207 338.468 102.562C338.333 102.912 338.266 103.337 338.266 103.837C338.266 104.807 338.493 105.535 338.948 106.02C339.403 106.5 340.006 106.74 340.756 106.74C341.201 106.74 341.588 106.652 341.918 106.477C342.253 106.302 342.513 106.052 342.698 105.727C342.783 105.627 342.851 105.56 342.901 105.525C342.956 105.49 343.013 105.472 343.073 105.472C343.148 105.472 343.203 105.51 343.238 105.585C343.278 105.655 343.296 105.74 343.291 105.84C343.271 106.26 343.121 106.65 342.841 107.01C342.566 107.365 342.188 107.65 341.708 107.865C341.233 108.08 340.688 108.188 340.073 108.188C339.353 108.188 338.713 108.04 338.153 107.745C337.593 107.445 337.153 107.027 336.833 106.492C336.518 105.952 336.361 105.325 336.361 104.61C336.361 103.85 336.511 103.18 336.811 102.6C337.116 102.015 337.551 101.557 338.116 101.227C338.681 100.892 339.356 100.725 340.141 100.725C340.806 100.725 341.373 100.847 341.843 101.092C342.318 101.332 342.681 101.667 342.931 102.097C343.181 102.522 343.306 103.012 343.306 103.567ZM346.631 104.032C346.631 103.302 346.734 102.692 346.939 102.202C347.149 101.712 347.419 101.345 347.749 101.1C348.084 100.85 348.444 100.725 348.829 100.725C349.304 100.725 349.671 100.86 349.931 101.13C350.191 101.4 350.321 101.79 350.321 102.3C350.321 102.745 350.229 103.077 350.044 103.297C349.859 103.517 349.619 103.627 349.324 103.627C349.029 103.627 348.801 103.547 348.641 103.387C348.486 103.227 348.409 103.005 348.409 102.72V102.45C348.404 102.295 348.366 102.18 348.296 102.105C348.226 102.025 348.114 101.985 347.959 101.985C347.779 101.985 347.609 102.057 347.449 102.202C347.289 102.342 347.156 102.56 347.051 102.855C346.951 103.15 346.901 103.527 346.901 103.987L346.631 104.032ZM346.781 101.242L346.901 102.945V106.8C346.901 106.94 346.929 107.045 346.984 107.115C347.039 107.18 347.141 107.225 347.291 107.25L347.936 107.355C348.051 107.37 348.136 107.405 348.191 107.46C348.251 107.515 348.281 107.59 348.281 107.685C348.281 107.785 348.246 107.862 348.176 107.917C348.106 107.972 348.001 108 347.861 108H344.366C344.226 108 344.124 107.972 344.059 107.917C343.994 107.862 343.961 107.787 343.961 107.692C343.961 107.617 343.981 107.555 344.021 107.505C344.066 107.45 344.136 107.405 344.231 107.37L344.524 107.295C344.619 107.265 344.686 107.215 344.726 107.145C344.771 107.075 344.794 106.962 344.794 106.807V102.517C344.794 102.387 344.774 102.295 344.734 102.24C344.694 102.185 344.631 102.15 344.546 102.135L344.149 102.105C344.059 102.085 343.994 102.052 343.954 102.007C343.919 101.962 343.901 101.905 343.901 101.835C343.901 101.755 343.926 101.69 343.976 101.64C344.026 101.585 344.116 101.535 344.246 101.49L345.611 100.987C345.856 100.897 346.036 100.837 346.151 100.807C346.266 100.777 346.356 100.762 346.421 100.762C346.526 100.762 346.606 100.8 346.661 100.875C346.721 100.945 346.761 101.067 346.781 101.242ZM353.615 101.242V106.8C353.615 106.955 353.635 107.07 353.675 107.145C353.72 107.215 353.787 107.265 353.877 107.295L354.155 107.37C354.31 107.435 354.387 107.535 354.387 107.67C354.387 107.89 354.25 108 353.975 108H351.08C350.94 108 350.837 107.972 350.772 107.917C350.707 107.862 350.675 107.787 350.675 107.692C350.675 107.617 350.695 107.555 350.735 107.505C350.78 107.45 350.85 107.405 350.945 107.37L351.237 107.295C351.327 107.265 351.395 107.215 351.44 107.145C351.485 107.075 351.507 106.962 351.507 106.807V102.495C351.507 102.37 351.487 102.28 351.447 102.225C351.407 102.17 351.345 102.135 351.26 102.12L350.862 102.09C350.772 102.07 350.707 102.037 350.667 101.992C350.632 101.947 350.615 101.89 350.615 101.82C350.615 101.735 350.637 101.667 350.682 101.617C350.732 101.567 350.822 101.517 350.952 101.467L352.355 100.965C352.545 100.89 352.697 100.837 352.812 100.807C352.927 100.777 353.035 100.762 353.135 100.762C353.295 100.762 353.415 100.807 353.495 100.897C353.575 100.982 353.615 101.097 353.615 101.242ZM353.382 102.907L353.045 102.555L353.337 102.292C353.967 101.712 354.517 101.307 354.987 101.077C355.462 100.842 355.907 100.725 356.322 100.725C356.967 100.725 357.485 100.93 357.875 101.34C358.27 101.75 358.467 102.3 358.467 102.99V106.785C358.467 106.945 358.49 107.062 358.535 107.137C358.585 107.212 358.657 107.265 358.752 107.295L359.022 107.37C359.112 107.405 359.18 107.45 359.225 107.505C359.27 107.555 359.292 107.617 359.292 107.692C359.292 107.787 359.26 107.862 359.195 107.917C359.13 107.972 359.027 108 358.887 108H355.985C355.705 108 355.565 107.89 355.565 107.67C355.565 107.535 355.642 107.435 355.797 107.37L356.09 107.295C356.185 107.265 356.252 107.212 356.292 107.137C356.337 107.062 356.36 106.945 356.36 106.785V103.297C356.36 102.857 356.252 102.53 356.037 102.315C355.822 102.095 355.535 101.985 355.175 101.985C354.955 101.985 354.717 102.037 354.462 102.142C354.207 102.247 353.947 102.415 353.682 102.645L353.382 102.907ZM364.379 107.047V106.89L364.236 106.86V102.382C364.236 102.032 364.146 101.762 363.966 101.572C363.786 101.377 363.536 101.28 363.216 101.28C362.916 101.28 362.686 101.342 362.526 101.467C362.371 101.592 362.294 101.747 362.294 101.932V102.592C362.294 102.892 362.191 103.125 361.986 103.29C361.786 103.45 361.506 103.53 361.146 103.53C360.836 103.53 360.601 103.457 360.441 103.312C360.281 103.162 360.201 102.96 360.201 102.705C360.201 102.39 360.331 102.082 360.591 101.782C360.851 101.477 361.231 101.227 361.731 101.032C362.236 100.832 362.859 100.732 363.599 100.732C364.519 100.732 365.201 100.92 365.646 101.295C366.096 101.665 366.321 102.167 366.321 102.802V106.702C366.321 106.842 366.349 106.947 366.404 107.017C366.464 107.087 366.546 107.122 366.651 107.122C366.761 107.122 366.844 107.097 366.899 107.047C366.954 106.992 367.001 106.937 367.041 106.882C367.066 106.852 367.094 106.825 367.124 106.8C367.154 106.775 367.191 106.762 367.236 106.762C367.296 106.762 367.341 106.785 367.371 106.83C367.401 106.875 367.416 106.935 367.416 107.01C367.416 107.18 367.356 107.355 367.236 107.535C367.116 107.715 366.941 107.87 366.711 108C366.481 108.125 366.194 108.188 365.849 108.188C365.399 108.188 365.041 108.088 364.776 107.887C364.511 107.682 364.379 107.402 364.379 107.047ZM359.886 106.432C359.886 105.807 360.164 105.305 360.719 104.925C361.279 104.54 362.059 104.347 363.059 104.347C363.384 104.347 363.676 104.375 363.936 104.43C364.196 104.485 364.421 104.557 364.611 104.647L364.454 105.127C364.279 105.047 364.104 104.985 363.929 104.94C363.754 104.895 363.561 104.872 363.351 104.872C362.941 104.872 362.619 104.98 362.384 105.195C362.149 105.405 362.031 105.697 362.031 106.073C362.031 106.452 362.131 106.742 362.331 106.942C362.531 107.137 362.789 107.235 363.104 107.235C363.369 107.235 363.626 107.175 363.876 107.055C364.126 106.93 364.336 106.76 364.506 106.545L364.664 106.965C364.389 107.355 364.019 107.657 363.554 107.872C363.094 108.082 362.604 108.188 362.084 108.188C361.434 108.188 360.904 108.025 360.494 107.7C360.089 107.375 359.886 106.952 359.886 106.432ZM368.13 101.632L367.777 101.527C367.657 101.487 367.572 101.442 367.522 101.392C367.477 101.337 367.455 101.275 367.455 101.205C367.455 101.105 367.487 101.03 367.552 100.98C367.622 100.925 367.712 100.897 367.822 100.897H368.287C368.402 100.897 368.5 100.877 368.58 100.837C368.665 100.792 368.747 100.71 368.827 100.59L369.652 99.4425C369.757 99.3175 369.857 99.225 369.952 99.165C370.047 99.1 370.142 99.0675 370.237 99.0675C370.342 99.0675 370.422 99.1025 370.477 99.1725C370.537 99.2375 370.567 99.3325 370.567 99.4575V105.862C370.567 106.217 370.635 106.487 370.77 106.672C370.91 106.852 371.105 106.942 371.355 106.942C371.535 106.942 371.675 106.907 371.775 106.837C371.88 106.767 371.962 106.685 372.022 106.59C372.082 106.495 372.14 106.41 372.195 106.335C372.255 106.26 372.33 106.22 372.42 106.215C372.495 106.215 372.552 106.24 372.592 106.29C372.637 106.34 372.66 106.422 372.66 106.537C372.655 106.822 372.56 107.087 372.375 107.332C372.195 107.577 371.942 107.777 371.617 107.932C371.297 108.083 370.93 108.158 370.515 108.158C369.875 108.158 369.372 107.998 369.007 107.677C368.642 107.352 368.46 106.865 368.46 106.215V102.075C368.46 101.945 368.435 101.85 368.385 101.79C368.335 101.725 368.25 101.672 368.13 101.632ZM369.735 101.64L369.742 100.897H372.217C372.337 100.897 372.43 100.922 372.495 100.972C372.56 101.017 372.592 101.085 372.592 101.175C372.592 101.31 372.527 101.422 372.397 101.512C372.267 101.597 372.06 101.64 371.775 101.64H369.735ZM376.098 101.242V106.8C376.098 106.955 376.118 107.07 376.158 107.145C376.203 107.215 376.27 107.265 376.36 107.295L376.645 107.37C376.745 107.4 376.818 107.442 376.863 107.497C376.908 107.552 376.93 107.617 376.93 107.692C376.93 107.787 376.895 107.862 376.825 107.917C376.76 107.972 376.658 108 376.518 108H373.563C373.423 108 373.32 107.972 373.255 107.917C373.19 107.862 373.158 107.787 373.158 107.692C373.158 107.617 373.178 107.555 373.218 107.505C373.263 107.45 373.333 107.405 373.428 107.37L373.728 107.295C373.818 107.265 373.883 107.215 373.923 107.145C373.968 107.075 373.99 106.962 373.99 106.807V102.495C373.99 102.37 373.97 102.28 373.93 102.225C373.89 102.17 373.828 102.135 373.743 102.12L373.353 102.09C373.258 102.07 373.19 102.037 373.15 101.992C373.115 101.947 373.098 101.89 373.098 101.82C373.098 101.735 373.12 101.667 373.165 101.617C373.215 101.567 373.308 101.517 373.443 101.467L374.838 100.965C375.033 100.89 375.188 100.837 375.303 100.807C375.418 100.777 375.518 100.762 375.603 100.762C375.768 100.762 375.89 100.807 375.97 100.897C376.055 100.982 376.098 101.097 376.098 101.242ZM374.883 99.615C374.478 99.615 374.155 99.5125 373.915 99.3075C373.675 99.1025 373.555 98.8325 373.555 98.4975C373.555 98.1575 373.675 97.8875 373.915 97.6875C374.155 97.4825 374.478 97.38 374.883 97.38C375.283 97.38 375.603 97.4825 375.843 97.6875C376.088 97.8925 376.21 98.1625 376.21 98.4975C376.21 98.8325 376.088 99.1025 375.843 99.3075C375.603 99.5125 375.283 99.615 374.883 99.615ZM381.361 100.725C382.131 100.725 382.809 100.885 383.394 101.205C383.979 101.52 384.434 101.96 384.759 102.525C385.089 103.085 385.254 103.735 385.254 104.475C385.254 105.18 385.084 105.812 384.744 106.372C384.409 106.932 383.944 107.375 383.349 107.7C382.754 108.025 382.066 108.188 381.286 108.188C380.516 108.188 379.839 108.027 379.254 107.707C378.669 107.387 378.211 106.947 377.881 106.387C377.556 105.822 377.394 105.172 377.394 104.437C377.394 103.722 377.561 103.087 377.896 102.532C378.236 101.972 378.701 101.532 379.291 101.212C379.886 100.887 380.576 100.725 381.361 100.725ZM381.894 107.407C382.234 107.352 382.506 107.195 382.711 106.935C382.921 106.675 383.054 106.315 383.109 105.855C383.164 105.395 383.131 104.84 383.011 104.19C382.896 103.55 382.729 103.02 382.509 102.6C382.289 102.18 382.029 101.877 381.729 101.692C381.434 101.507 381.109 101.445 380.754 101.505C380.414 101.56 380.139 101.72 379.929 101.985C379.724 102.245 379.594 102.605 379.539 103.065C379.484 103.52 379.516 104.072 379.636 104.722C379.751 105.362 379.919 105.892 380.139 106.312C380.359 106.732 380.616 107.035 380.911 107.22C381.211 107.4 381.539 107.462 381.894 107.407ZM388.865 101.242V106.8C388.865 106.955 388.885 107.07 388.925 107.145C388.97 107.215 389.037 107.265 389.127 107.295L389.405 107.37C389.56 107.435 389.637 107.535 389.637 107.67C389.637 107.89 389.5 108 389.225 108H386.33C386.19 108 386.087 107.972 386.022 107.917C385.957 107.862 385.925 107.787 385.925 107.692C385.925 107.617 385.945 107.555 385.985 107.505C386.03 107.45 386.1 107.405 386.195 107.37L386.487 107.295C386.577 107.265 386.645 107.215 386.69 107.145C386.735 107.075 386.757 106.962 386.757 106.807V102.495C386.757 102.37 386.737 102.28 386.697 102.225C386.657 102.17 386.595 102.135 386.51 102.12L386.112 102.09C386.022 102.07 385.957 102.037 385.917 101.992C385.882 101.947 385.865 101.89 385.865 101.82C385.865 101.735 385.887 101.667 385.932 101.617C385.982 101.567 386.072 101.517 386.202 101.467L387.605 100.965C387.795 100.89 387.947 100.837 388.062 100.807C388.177 100.777 388.285 100.762 388.385 100.762C388.545 100.762 388.665 100.807 388.745 100.897C388.825 100.982 388.865 101.097 388.865 101.242ZM388.632 102.907L388.295 102.555L388.587 102.292C389.217 101.712 389.767 101.307 390.237 101.077C390.712 100.842 391.157 100.725 391.572 100.725C392.217 100.725 392.735 100.93 393.125 101.34C393.52 101.75 393.717 102.3 393.717 102.99V106.785C393.717 106.945 393.74 107.062 393.785 107.137C393.835 107.212 393.907 107.265 394.002 107.295L394.272 107.37C394.362 107.405 394.43 107.45 394.475 107.505C394.52 107.555 394.542 107.617 394.542 107.692C394.542 107.787 394.51 107.862 394.445 107.917C394.38 107.972 394.277 108 394.137 108H391.235C390.955 108 390.815 107.89 390.815 107.67C390.815 107.535 390.892 107.435 391.047 107.37L391.34 107.295C391.435 107.265 391.502 107.212 391.542 107.137C391.587 107.062 391.61 106.945 391.61 106.785V103.297C391.61 102.857 391.502 102.53 391.287 102.315C391.072 102.095 390.785 101.985 390.425 101.985C390.205 101.985 389.967 102.037 389.712 102.142C389.457 102.247 389.197 102.415 388.932 102.645L388.632 102.907ZM399.629 107.047V106.89L399.486 106.86V102.382C399.486 102.032 399.396 101.762 399.216 101.572C399.036 101.377 398.786 101.28 398.466 101.28C398.166 101.28 397.936 101.342 397.776 101.467C397.621 101.592 397.544 101.747 397.544 101.932V102.592C397.544 102.892 397.441 103.125 397.236 103.29C397.036 103.45 396.756 103.53 396.396 103.53C396.086 103.53 395.851 103.457 395.691 103.312C395.531 103.162 395.451 102.96 395.451 102.705C395.451 102.39 395.581 102.082 395.841 101.782C396.101 101.477 396.481 101.227 396.981 101.032C397.486 100.832 398.109 100.732 398.849 100.732C399.769 100.732 400.451 100.92 400.896 101.295C401.346 101.665 401.571 102.167 401.571 102.802V106.702C401.571 106.842 401.599 106.947 401.654 107.017C401.714 107.087 401.796 107.122 401.901 107.122C402.011 107.122 402.094 107.097 402.149 107.047C402.204 106.992 402.251 106.937 402.291 106.882C402.316 106.852 402.344 106.825 402.374 106.8C402.404 106.775 402.441 106.762 402.486 106.762C402.546 106.762 402.591 106.785 402.621 106.83C402.651 106.875 402.666 106.935 402.666 107.01C402.666 107.18 402.606 107.355 402.486 107.535C402.366 107.715 402.191 107.87 401.961 108C401.731 108.125 401.444 108.188 401.099 108.188C400.649 108.188 400.291 108.088 400.026 107.887C399.761 107.682 399.629 107.402 399.629 107.047ZM395.136 106.432C395.136 105.807 395.414 105.305 395.969 104.925C396.529 104.54 397.309 104.347 398.309 104.347C398.634 104.347 398.926 104.375 399.186 104.43C399.446 104.485 399.671 104.557 399.861 104.647L399.704 105.127C399.529 105.047 399.354 104.985 399.179 104.94C399.004 104.895 398.811 104.872 398.601 104.872C398.191 104.872 397.869 104.98 397.634 105.195C397.399 105.405 397.281 105.697 397.281 106.073C397.281 106.452 397.381 106.742 397.581 106.942C397.781 107.137 398.039 107.235 398.354 107.235C398.619 107.235 398.876 107.175 399.126 107.055C399.376 106.93 399.586 106.76 399.756 106.545L399.914 106.965C399.639 107.355 399.269 107.657 398.804 107.872C398.344 108.082 397.854 108.188 397.334 108.188C396.684 108.188 396.154 108.025 395.744 107.7C395.339 107.375 395.136 106.952 395.136 106.432ZM405.967 97.3275V106.8C405.967 106.955 405.99 107.07 406.035 107.145C406.08 107.215 406.147 107.265 406.237 107.295L406.515 107.37C406.615 107.4 406.687 107.442 406.732 107.497C406.777 107.552 406.8 107.617 406.8 107.692C406.8 107.787 406.765 107.862 406.695 107.917C406.63 107.972 406.527 108 406.387 108H403.432C403.292 108 403.19 107.972 403.125 107.917C403.06 107.862 403.027 107.787 403.027 107.692C403.027 107.617 403.047 107.555 403.087 107.505C403.132 107.45 403.202 107.405 403.297 107.37L403.597 107.295C403.687 107.265 403.752 107.215 403.792 107.145C403.837 107.075 403.86 106.962 403.86 106.807V98.5875C403.86 98.4575 403.84 98.365 403.8 98.31C403.765 98.255 403.705 98.22 403.62 98.205L403.222 98.175C403.132 98.155 403.067 98.1225 403.027 98.0775C402.987 98.0325 402.967 97.975 402.967 97.905C402.967 97.825 402.99 97.76 403.035 97.71C403.085 97.655 403.177 97.605 403.312 97.56L404.715 97.05C404.91 96.975 405.065 96.9225 405.18 96.8925C405.295 96.8625 405.392 96.8475 405.472 96.8475C405.637 96.8475 405.76 96.8925 405.84 96.9825C405.925 97.0675 405.967 97.1825 405.967 97.3275Z" fill="black"/>
<path d="M322.018 199.227L321.59 199.317C321.47 199.352 321.378 199.405 321.313 199.475C321.248 199.545 321.215 199.635 321.215 199.745V207.717C321.215 207.907 321.27 208.045 321.38 208.13C321.49 208.21 321.655 208.25 321.875 208.25H323.128C323.408 208.25 323.648 208.212 323.848 208.137C324.048 208.062 324.228 207.927 324.388 207.732C324.553 207.537 324.715 207.257 324.875 206.892L325.333 205.857C325.393 205.732 325.465 205.65 325.55 205.61C325.635 205.565 325.735 205.557 325.85 205.587C325.975 205.617 326.06 205.675 326.105 205.76C326.155 205.84 326.16 205.947 326.12 206.082L325.445 208.73C325.395 208.92 325.328 209.058 325.243 209.143C325.158 209.233 325.038 209.278 324.882 209.278C324.773 209.278 324.668 209.255 324.568 209.21C324.468 209.165 324.355 209.118 324.23 209.068C324.11 209.023 323.958 209 323.773 209H318.223C318.073 209 317.96 208.97 317.885 208.91C317.81 208.845 317.773 208.76 317.773 208.655C317.773 208.47 317.878 208.342 318.088 208.272L318.515 208.182C318.64 208.147 318.733 208.095 318.793 208.025C318.858 207.955 318.89 207.865 318.89 207.755V199.745C318.89 199.635 318.858 199.545 318.793 199.475C318.733 199.405 318.64 199.352 318.515 199.317L318.088 199.227C317.878 199.157 317.773 199.03 317.773 198.845C317.773 198.735 317.81 198.65 317.885 198.59C317.96 198.53 318.073 198.5 318.223 198.5H321.883C322.038 198.5 322.15 198.53 322.22 198.59C322.295 198.65 322.333 198.735 322.333 198.845C322.333 199.03 322.228 199.157 322.018 199.227ZM333.483 204.567C333.483 204.832 333.405 205.037 333.25 205.182C333.1 205.322 332.883 205.392 332.598 205.392H327.918V204.822H330.985C331.235 204.822 331.36 204.707 331.36 204.477C331.36 203.817 331.24 203.317 331 202.977C330.76 202.632 330.44 202.46 330.04 202.46C329.725 202.46 329.448 202.555 329.208 202.745C328.973 202.935 328.785 203.207 328.645 203.562C328.51 203.912 328.443 204.337 328.443 204.837C328.443 205.807 328.67 206.535 329.125 207.02C329.58 207.5 330.183 207.74 330.933 207.74C331.378 207.74 331.765 207.652 332.095 207.477C332.43 207.302 332.69 207.052 332.875 206.727C332.96 206.627 333.028 206.56 333.078 206.525C333.133 206.49 333.19 206.472 333.25 206.472C333.325 206.472 333.38 206.51 333.415 206.585C333.455 206.655 333.473 206.74 333.468 206.84C333.448 207.26 333.298 207.65 333.018 208.01C332.743 208.365 332.365 208.65 331.885 208.865C331.41 209.08 330.865 209.188 330.25 209.188C329.53 209.188 328.89 209.04 328.33 208.745C327.77 208.445 327.33 208.027 327.01 207.492C326.695 206.952 326.538 206.325 326.538 205.61C326.538 204.85 326.688 204.18 326.988 203.6C327.293 203.015 327.728 202.557 328.293 202.227C328.858 201.892 329.533 201.725 330.318 201.725C330.983 201.725 331.55 201.847 332.02 202.092C332.495 202.332 332.858 202.667 333.108 203.097C333.358 203.522 333.483 204.012 333.483 204.567ZM341.298 209.233C340.888 209.233 340.536 209.183 340.241 209.083C339.951 208.988 339.711 208.892 339.521 208.797C339.336 208.702 339.196 208.655 339.101 208.655C339.006 208.655 338.926 208.685 338.861 208.745C338.796 208.805 338.733 208.875 338.673 208.955C338.618 209.03 338.558 209.098 338.493 209.158C338.428 209.218 338.348 209.247 338.253 209.247C338.148 209.247 338.061 209.215 337.991 209.15C337.926 209.09 337.878 208.987 337.848 208.842L337.338 206.39C337.318 206.28 337.331 206.187 337.376 206.112C337.426 206.032 337.506 205.975 337.616 205.94C337.736 205.895 337.838 205.897 337.923 205.947C338.013 205.992 338.091 206.08 338.156 206.21C338.441 206.77 338.743 207.215 339.063 207.545C339.388 207.875 339.726 208.112 340.076 208.257C340.431 208.397 340.791 208.467 341.156 208.467C341.666 208.467 342.068 208.335 342.363 208.07C342.658 207.8 342.806 207.442 342.806 206.997C342.811 206.712 342.746 206.452 342.611 206.217C342.476 205.982 342.218 205.755 341.838 205.535C341.463 205.315 340.911 205.085 340.181 204.845C339.421 204.595 338.811 204.31 338.351 203.99C337.896 203.67 337.563 203.295 337.353 202.865C337.148 202.435 337.046 201.935 337.046 201.365C337.046 200.76 337.191 200.227 337.481 199.767C337.771 199.307 338.176 198.95 338.696 198.695C339.221 198.435 339.833 198.305 340.533 198.305C340.983 198.305 341.356 198.352 341.651 198.447C341.946 198.537 342.186 198.63 342.371 198.725C342.561 198.82 342.718 198.867 342.843 198.867C342.958 198.867 343.046 198.82 343.106 198.725C343.166 198.625 343.231 198.527 343.301 198.432C343.371 198.332 343.476 198.282 343.616 198.282C343.721 198.282 343.808 198.317 343.878 198.387C343.953 198.457 344.018 198.585 344.073 198.77L344.786 201.237C344.821 201.367 344.816 201.485 344.771 201.59C344.726 201.69 344.646 201.757 344.531 201.792C344.416 201.832 344.311 201.83 344.216 201.785C344.126 201.735 344.051 201.652 343.991 201.537C343.681 200.917 343.348 200.427 342.993 200.067C342.643 199.707 342.281 199.452 341.906 199.302C341.531 199.147 341.151 199.07 340.766 199.07C340.251 199.07 339.843 199.215 339.543 199.505C339.243 199.795 339.093 200.177 339.093 200.652C339.093 200.937 339.158 201.202 339.288 201.447C339.423 201.692 339.673 201.932 340.038 202.167C340.408 202.397 340.946 202.642 341.651 202.902C342.426 203.177 343.041 203.475 343.496 203.795C343.951 204.115 344.278 204.477 344.478 204.882C344.678 205.282 344.778 205.742 344.778 206.262C344.773 206.807 344.633 207.305 344.358 207.755C344.088 208.205 343.696 208.565 343.181 208.835C342.666 209.1 342.038 209.233 341.298 209.233ZM348.557 202.242V207.8C348.557 207.955 348.577 208.07 348.617 208.145C348.662 208.215 348.729 208.265 348.819 208.295L349.104 208.37C349.204 208.4 349.277 208.442 349.322 208.497C349.367 208.552 349.389 208.617 349.389 208.692C349.389 208.787 349.354 208.862 349.284 208.917C349.219 208.972 349.117 209 348.977 209H346.022C345.882 209 345.779 208.972 345.714 208.917C345.649 208.862 345.617 208.787 345.617 208.692C345.617 208.617 345.637 208.555 345.677 208.505C345.722 208.45 345.792 208.405 345.887 208.37L346.187 208.295C346.277 208.265 346.342 208.215 346.382 208.145C346.427 208.075 346.449 207.962 346.449 207.807V203.495C346.449 203.37 346.429 203.28 346.389 203.225C346.349 203.17 346.287 203.135 346.202 203.12L345.812 203.09C345.717 203.07 345.649 203.037 345.609 202.992C345.574 202.947 345.557 202.89 345.557 202.82C345.557 202.735 345.579 202.667 345.624 202.617C345.674 202.567 345.767 202.517 345.902 202.467L347.297 201.965C347.492 201.89 347.647 201.837 347.762 201.807C347.877 201.777 347.977 201.762 348.062 201.762C348.227 201.762 348.349 201.807 348.429 201.897C348.514 201.982 348.557 202.097 348.557 202.242ZM347.342 200.615C346.937 200.615 346.614 200.512 346.374 200.307C346.134 200.102 346.014 199.832 346.014 199.497C346.014 199.157 346.134 198.887 346.374 198.687C346.614 198.482 346.937 198.38 347.342 198.38C347.742 198.38 348.062 198.482 348.302 198.687C348.547 198.892 348.669 199.162 348.669 199.497C348.669 199.832 348.547 200.102 348.302 200.307C348.062 200.512 347.742 200.615 347.342 200.615ZM356.79 204.567C356.79 204.832 356.713 205.037 356.558 205.182C356.408 205.322 356.19 205.392 355.905 205.392H351.225V204.822H354.293C354.543 204.822 354.668 204.707 354.668 204.477C354.668 203.817 354.548 203.317 354.308 202.977C354.068 202.632 353.748 202.46 353.348 202.46C353.033 202.46 352.755 202.555 352.515 202.745C352.28 202.935 352.093 203.207 351.953 203.562C351.818 203.912 351.75 204.337 351.75 204.837C351.75 205.807 351.978 206.535 352.433 207.02C352.888 207.5 353.49 207.74 354.24 207.74C354.685 207.74 355.073 207.652 355.403 207.477C355.738 207.302 355.998 207.052 356.183 206.727C356.268 206.627 356.335 206.56 356.385 206.525C356.44 206.49 356.498 206.472 356.558 206.472C356.633 206.472 356.688 206.51 356.723 206.585C356.763 206.655 356.78 206.74 356.775 206.84C356.755 207.26 356.605 207.65 356.325 208.01C356.05 208.365 355.673 208.65 355.193 208.865C354.718 209.08 354.173 209.188 353.558 209.188C352.838 209.188 352.198 209.04 351.638 208.745C351.078 208.445 350.638 208.027 350.318 207.492C350.003 206.952 349.845 206.325 349.845 205.61C349.845 204.85 349.995 204.18 350.295 203.6C350.6 203.015 351.035 202.557 351.6 202.227C352.165 201.892 352.84 201.725 353.625 201.725C354.29 201.725 354.858 201.847 355.328 202.092C355.803 202.332 356.165 202.667 356.415 203.097C356.665 203.522 356.79 204.012 356.79 204.567ZM353.513 199.28L354.225 200.735C354.265 200.805 354.29 200.872 354.3 200.937C354.315 201.002 354.293 201.062 354.233 201.118C354.183 201.162 354.118 201.185 354.038 201.185C353.958 201.185 353.883 201.17 353.813 201.14L352.478 200.21C352.213 200.055 352.005 199.897 351.855 199.737C351.71 199.577 351.623 199.387 351.593 199.167C351.568 198.972 351.618 198.785 351.743 198.605C351.868 198.425 352.055 198.322 352.305 198.297C352.59 198.257 352.825 198.33 353.01 198.515C353.195 198.7 353.363 198.955 353.513 199.28ZM364.189 203.795C364.189 204.075 364.089 204.312 363.889 204.507C363.694 204.702 363.431 204.8 363.101 204.8C362.781 204.8 362.536 204.712 362.366 204.537C362.196 204.357 362.111 204.122 362.111 203.832V203.592C362.111 203.252 362.006 202.98 361.796 202.775C361.591 202.565 361.309 202.46 360.949 202.46C360.634 202.46 360.351 202.555 360.101 202.745C359.856 202.935 359.661 203.207 359.516 203.562C359.371 203.917 359.299 204.342 359.299 204.837C359.299 205.462 359.404 205.992 359.614 206.427C359.829 206.857 360.121 207.185 360.491 207.41C360.866 207.63 361.294 207.74 361.774 207.74C362.199 207.74 362.569 207.652 362.884 207.477C363.204 207.302 363.456 207.057 363.641 206.742C363.731 206.647 363.801 206.582 363.851 206.547C363.906 206.512 363.961 206.495 364.016 206.495C364.096 206.495 364.154 206.53 364.189 206.6C364.224 206.67 364.239 206.752 364.234 206.847C364.214 207.272 364.066 207.662 363.791 208.017C363.516 208.372 363.146 208.657 362.681 208.872C362.221 209.082 361.691 209.188 361.091 209.188C360.371 209.188 359.731 209.04 359.171 208.745C358.616 208.445 358.179 208.027 357.859 207.492C357.544 206.957 357.386 206.33 357.386 205.61C357.386 204.875 357.544 204.215 357.859 203.63C358.179 203.04 358.626 202.575 359.201 202.235C359.776 201.895 360.451 201.725 361.226 201.725C361.836 201.725 362.364 201.82 362.809 202.01C363.254 202.195 363.594 202.445 363.829 202.76C364.069 203.075 364.189 203.42 364.189 203.795ZM367.773 198.327V207.8C367.773 207.955 367.796 208.07 367.841 208.145C367.886 208.215 367.953 208.265 368.043 208.295L368.321 208.37C368.421 208.4 368.493 208.442 368.538 208.497C368.583 208.552 368.606 208.617 368.606 208.692C368.606 208.787 368.571 208.862 368.501 208.917C368.436 208.972 368.333 209 368.193 209H365.238C365.098 209 364.996 208.972 364.931 208.917C364.866 208.862 364.833 208.787 364.833 208.692C364.833 208.617 364.853 208.555 364.893 208.505C364.938 208.45 365.008 208.405 365.103 208.37L365.403 208.295C365.493 208.265 365.558 208.215 365.598 208.145C365.643 208.075 365.666 207.962 365.666 207.807V199.587C365.666 199.457 365.646 199.365 365.606 199.31C365.571 199.255 365.511 199.22 365.426 199.205L365.028 199.175C364.938 199.155 364.873 199.122 364.833 199.077C364.793 199.032 364.773 198.975 364.773 198.905C364.773 198.825 364.796 198.76 364.841 198.71C364.891 198.655 364.983 198.605 365.118 198.56L366.521 198.05C366.716 197.975 366.871 197.922 366.986 197.892C367.101 197.862 367.198 197.847 367.278 197.847C367.443 197.847 367.566 197.892 367.646 197.982C367.731 198.067 367.773 198.182 367.773 198.327ZM376.051 204.567C376.051 204.832 375.973 205.037 375.818 205.182C375.668 205.322 375.451 205.392 375.166 205.392H370.486V204.822H373.553C373.803 204.822 373.928 204.707 373.928 204.477C373.928 203.817 373.808 203.317 373.568 202.977C373.328 202.632 373.008 202.46 372.608 202.46C372.293 202.46 372.016 202.555 371.776 202.745C371.541 202.935 371.353 203.207 371.213 203.562C371.078 203.912 371.011 204.337 371.011 204.837C371.011 205.807 371.238 206.535 371.693 207.02C372.148 207.5 372.751 207.74 373.501 207.74C373.946 207.74 374.333 207.652 374.663 207.477C374.998 207.302 375.258 207.052 375.443 206.727C375.528 206.627 375.596 206.56 375.646 206.525C375.701 206.49 375.758 206.472 375.818 206.472C375.893 206.472 375.948 206.51 375.983 206.585C376.023 206.655 376.041 206.74 376.036 206.84C376.016 207.26 375.866 207.65 375.586 208.01C375.311 208.365 374.933 208.65 374.453 208.865C373.978 209.08 373.433 209.188 372.818 209.188C372.098 209.188 371.458 209.04 370.898 208.745C370.338 208.445 369.898 208.027 369.578 207.492C369.263 206.952 369.106 206.325 369.106 205.61C369.106 204.85 369.256 204.18 369.556 203.6C369.861 203.015 370.296 202.557 370.861 202.227C371.426 201.892 372.101 201.725 372.886 201.725C373.551 201.725 374.118 201.847 374.588 202.092C375.063 202.332 375.426 202.667 375.676 203.097C375.926 203.522 376.051 204.012 376.051 204.567ZM384.909 207.747L384.849 207.71V199.587C384.849 199.457 384.829 199.365 384.789 199.31C384.749 199.255 384.686 199.22 384.601 199.205L384.204 199.175C384.114 199.155 384.049 199.122 384.009 199.077C383.969 199.032 383.949 198.975 383.949 198.905C383.949 198.825 383.974 198.76 384.024 198.71C384.074 198.655 384.164 198.605 384.294 198.56L385.696 198.05C385.881 197.98 386.031 197.93 386.146 197.9C386.266 197.865 386.376 197.847 386.476 197.847C386.631 197.847 386.749 197.892 386.829 197.982C386.914 198.067 386.956 198.182 386.956 198.327V207.8C386.956 207.955 386.976 208.07 387.016 208.145C387.061 208.215 387.129 208.265 387.219 208.295L387.504 208.37C387.599 208.4 387.669 208.442 387.714 208.497C387.759 208.552 387.781 208.617 387.781 208.692C387.781 208.787 387.749 208.862 387.684 208.917C387.619 208.972 387.514 209 387.369 209H385.816C385.556 209 385.339 208.918 385.164 208.753C384.994 208.588 384.909 208.37 384.909 208.1V207.747ZM379.449 205.647C379.449 204.847 379.606 204.155 379.921 203.57C380.241 202.98 380.674 202.525 381.219 202.205C381.764 201.885 382.371 201.725 383.041 201.725C383.641 201.725 384.169 201.865 384.624 202.145C385.084 202.42 385.461 202.825 385.756 203.36L385.246 203.787C385.001 203.377 384.724 203.072 384.414 202.872C384.109 202.672 383.779 202.572 383.424 202.572C383.084 202.572 382.779 202.675 382.509 202.88C382.239 203.08 382.026 203.39 381.871 203.81C381.716 204.225 381.639 204.76 381.639 205.415C381.639 206.03 381.714 206.537 381.864 206.937C382.019 207.337 382.226 207.635 382.486 207.83C382.751 208.025 383.049 208.122 383.379 208.122C383.744 208.122 384.084 208.015 384.399 207.8C384.714 207.58 385.004 207.247 385.269 206.802L385.606 207.222C385.211 207.837 384.756 208.32 384.241 208.67C383.726 209.015 383.156 209.188 382.531 209.188C381.936 209.188 381.406 209.038 380.941 208.737C380.481 208.432 380.116 208.015 379.846 207.485C379.581 206.95 379.449 206.337 379.449 205.647ZM389.117 199.835C388.707 199.835 388.395 199.737 388.18 199.542C387.97 199.347 387.865 199.09 387.865 198.77C387.865 198.415 387.995 198.127 388.255 197.907C388.515 197.682 388.825 197.57 389.185 197.57C389.615 197.57 389.967 197.715 390.242 198.005C390.517 198.295 390.655 198.737 390.655 199.332C390.655 199.872 390.552 200.347 390.347 200.757C390.147 201.162 389.882 201.492 389.552 201.747C389.227 202.002 388.875 202.175 388.495 202.265C388.34 202.3 388.22 202.3 388.135 202.265C388.05 202.23 387.995 202.17 387.97 202.085C387.95 202 387.967 201.922 388.022 201.852C388.082 201.777 388.195 201.707 388.36 201.642C388.65 201.532 388.892 201.395 389.087 201.23C389.287 201.06 389.437 200.88 389.537 200.69C389.637 200.5 389.687 200.32 389.687 200.15C389.687 200.055 389.66 199.98 389.605 199.925C389.55 199.865 389.452 199.835 389.312 199.835H389.117ZM395.363 201.725C396.133 201.725 396.81 201.885 397.395 202.205C397.98 202.52 398.435 202.96 398.76 203.525C399.09 204.085 399.255 204.735 399.255 205.475C399.255 206.18 399.085 206.812 398.745 207.372C398.41 207.932 397.945 208.375 397.35 208.7C396.755 209.025 396.068 209.188 395.288 209.188C394.518 209.188 393.84 209.027 393.255 208.707C392.67 208.387 392.213 207.947 391.883 207.387C391.558 206.822 391.395 206.172 391.395 205.437C391.395 204.722 391.563 204.087 391.898 203.532C392.238 202.972 392.703 202.532 393.293 202.212C393.888 201.887 394.578 201.725 395.363 201.725ZM395.895 208.407C396.235 208.352 396.508 208.195 396.713 207.935C396.923 207.675 397.055 207.315 397.11 206.855C397.165 206.395 397.133 205.84 397.013 205.19C396.898 204.55 396.73 204.02 396.51 203.6C396.29 203.18 396.03 202.877 395.73 202.692C395.435 202.507 395.11 202.445 394.755 202.505C394.415 202.56 394.14 202.72 393.93 202.985C393.725 203.245 393.595 203.605 393.54 204.065C393.485 204.52 393.518 205.072 393.638 205.722C393.753 206.362 393.92 206.892 394.14 207.312C394.36 207.732 394.618 208.035 394.913 208.22C395.213 208.4 395.54 208.462 395.895 208.407ZM402.596 205.032C402.596 204.302 402.699 203.692 402.904 203.202C403.114 202.712 403.384 202.345 403.714 202.1C404.049 201.85 404.409 201.725 404.794 201.725C405.269 201.725 405.636 201.86 405.896 202.13C406.156 202.4 406.286 202.79 406.286 203.3C406.286 203.745 406.194 204.077 406.009 204.297C405.824 204.517 405.584 204.627 405.289 204.627C404.994 204.627 404.766 204.547 404.606 204.387C404.451 204.227 404.374 204.005 404.374 203.72V203.45C404.369 203.295 404.331 203.18 404.261 203.105C404.191 203.025 404.079 202.985 403.924 202.985C403.744 202.985 403.574 203.057 403.414 203.202C403.254 203.342 403.121 203.56 403.016 203.855C402.916 204.15 402.866 204.527 402.866 204.987L402.596 205.032ZM402.746 202.242L402.866 203.945V207.8C402.866 207.94 402.894 208.045 402.949 208.115C403.004 208.18 403.106 208.225 403.256 208.25L403.901 208.355C404.016 208.37 404.101 208.405 404.156 208.46C404.216 208.515 404.246 208.59 404.246 208.685C404.246 208.785 404.211 208.862 404.141 208.917C404.071 208.972 403.966 209 403.826 209H400.331C400.191 209 400.089 208.972 400.024 208.917C399.959 208.862 399.926 208.787 399.926 208.692C399.926 208.617 399.946 208.555 399.986 208.505C400.031 208.45 400.101 208.405 400.196 208.37L400.489 208.295C400.584 208.265 400.651 208.215 400.691 208.145C400.736 208.075 400.759 207.962 400.759 207.807V203.517C400.759 203.387 400.739 203.295 400.699 203.24C400.659 203.185 400.596 203.15 400.511 203.135L400.114 203.105C400.024 203.085 399.959 203.052 399.919 203.007C399.884 202.962 399.866 202.905 399.866 202.835C399.866 202.755 399.891 202.69 399.941 202.64C399.991 202.585 400.081 202.535 400.211 202.49L401.576 201.987C401.821 201.897 402.001 201.837 402.116 201.807C402.231 201.777 402.321 201.762 402.386 201.762C402.491 201.762 402.571 201.8 402.626 201.875C402.686 201.945 402.726 202.067 402.746 202.242ZM320.3 221.907L319.963 221.555L320.255 221.292C320.885 220.712 321.435 220.307 321.905 220.077C322.38 219.842 322.825 219.725 323.24 219.725C323.885 219.725 324.403 219.93 324.793 220.34C325.188 220.75 325.385 221.3 325.385 221.99V225.785C325.385 225.945 325.408 226.062 325.453 226.137C325.503 226.212 325.575 226.265 325.67 226.295L325.94 226.37C326.03 226.405 326.098 226.45 326.143 226.505C326.188 226.555 326.21 226.617 326.21 226.692C326.21 226.787 326.178 226.862 326.113 226.917C326.048 226.972 325.945 227 325.805 227H322.903C322.623 227 322.483 226.89 322.483 226.67C322.483 226.535 322.56 226.435 322.715 226.37L323.008 226.295C323.103 226.265 323.17 226.212 323.21 226.137C323.255 226.062 323.278 225.945 323.278 225.785V222.297C323.278 221.857 323.17 221.53 322.955 221.315C322.74 221.095 322.453 220.985 322.093 220.985C321.873 220.985 321.635 221.037 321.38 221.142C321.13 221.247 320.87 221.415 320.6 221.645L320.3 221.907ZM320.533 216.327V225.8C320.533 225.955 320.553 226.07 320.593 226.145C320.638 226.215 320.705 226.265 320.795 226.295L321.073 226.37C321.228 226.435 321.305 226.535 321.305 226.67C321.305 226.89 321.168 227 320.893 227H317.998C317.858 227 317.755 226.972 317.69 226.917C317.625 226.862 317.593 226.787 317.593 226.692C317.593 226.617 317.613 226.555 317.653 226.505C317.698 226.45 317.768 226.405 317.863 226.37L318.155 226.295C318.245 226.265 318.313 226.215 318.358 226.145C318.403 226.075 318.425 225.962 318.425 225.807V217.587C318.425 217.457 318.405 217.365 318.365 217.31C318.325 217.255 318.263 217.22 318.178 217.205L317.78 217.175C317.69 217.155 317.625 217.122 317.585 217.077C317.55 217.032 317.533 216.975 317.533 216.905C317.533 216.825 317.555 216.76 317.6 216.71C317.65 216.655 317.74 216.605 317.87 216.56L319.273 216.05C319.463 215.98 319.615 215.93 319.73 215.9C319.845 215.865 319.953 215.847 320.053 215.847C320.213 215.847 320.333 215.892 320.413 215.982C320.493 216.067 320.533 216.182 320.533 216.327ZM330.659 219.725C331.429 219.725 332.107 219.885 332.692 220.205C333.277 220.52 333.732 220.96 334.057 221.525C334.387 222.085 334.552 222.735 334.552 223.475C334.552 224.18 334.382 224.812 334.042 225.372C333.707 225.932 333.242 226.375 332.647 226.7C332.052 227.025 331.364 227.188 330.584 227.188C329.814 227.188 329.137 227.027 328.552 226.707C327.967 226.387 327.509 225.947 327.179 225.387C326.854 224.822 326.692 224.172 326.692 223.437C326.692 222.722 326.859 222.087 327.194 221.532C327.534 220.972 327.999 220.532 328.589 220.212C329.184 219.887 329.874 219.725 330.659 219.725ZM331.192 226.407C331.532 226.352 331.804 226.195 332.009 225.935C332.219 225.675 332.352 225.315 332.407 224.855C332.462 224.395 332.429 223.84 332.309 223.19C332.194 222.55 332.027 222.02 331.807 221.6C331.587 221.18 331.327 220.877 331.027 220.692C330.732 220.507 330.407 220.445 330.052 220.505C329.712 220.56 329.437 220.72 329.227 220.985C329.022 221.245 328.892 221.605 328.837 222.065C328.782 222.52 328.814 223.072 328.934 223.722C329.049 224.362 329.217 224.892 329.437 225.312C329.657 225.732 329.914 226.035 330.209 226.22C330.509 226.4 330.837 226.462 331.192 226.407ZM338.163 216.327V225.8C338.163 225.955 338.185 226.07 338.23 226.145C338.275 226.215 338.343 226.265 338.433 226.295L338.71 226.37C338.81 226.4 338.883 226.442 338.928 226.497C338.973 226.552 338.995 226.617 338.995 226.692C338.995 226.787 338.96 226.862 338.89 226.917C338.825 226.972 338.723 227 338.583 227H335.628C335.488 227 335.385 226.972 335.32 226.917C335.255 226.862 335.223 226.787 335.223 226.692C335.223 226.617 335.243 226.555 335.283 226.505C335.328 226.45 335.398 226.405 335.493 226.37L335.793 226.295C335.883 226.265 335.948 226.215 335.988 226.145C336.033 226.075 336.055 225.962 336.055 225.807V217.587C336.055 217.457 336.035 217.365 335.995 217.31C335.96 217.255 335.9 217.22 335.815 217.205L335.418 217.175C335.328 217.155 335.263 217.122 335.223 217.077C335.183 217.032 335.163 216.975 335.163 216.905C335.163 216.825 335.185 216.76 335.23 216.71C335.28 216.655 335.373 216.605 335.508 216.56L336.91 216.05C337.105 215.975 337.26 215.922 337.375 215.892C337.49 215.862 337.588 215.847 337.668 215.847C337.833 215.847 337.955 215.892 338.035 215.982C338.12 216.067 338.163 216.182 338.163 216.327ZM342.664 216.327V225.8C342.664 225.955 342.686 226.07 342.731 226.145C342.776 226.215 342.844 226.265 342.934 226.295L343.211 226.37C343.311 226.4 343.384 226.442 343.429 226.497C343.474 226.552 343.496 226.617 343.496 226.692C343.496 226.787 343.461 226.862 343.391 226.917C343.326 226.972 343.224 227 343.084 227H340.129C339.989 227 339.886 226.972 339.821 226.917C339.756 226.862 339.724 226.787 339.724 226.692C339.724 226.617 339.744 226.555 339.784 226.505C339.829 226.45 339.899 226.405 339.994 226.37L340.294 226.295C340.384 226.265 340.449 226.215 340.489 226.145C340.534 226.075 340.556 225.962 340.556 225.807V217.587C340.556 217.457 340.536 217.365 340.496 217.31C340.461 217.255 340.401 217.22 340.316 217.205L339.919 217.175C339.829 217.155 339.764 217.122 339.724 217.077C339.684 217.032 339.664 216.975 339.664 216.905C339.664 216.825 339.686 216.76 339.731 216.71C339.781 216.655 339.874 216.605 340.009 216.56L341.411 216.05C341.606 215.975 341.761 215.922 341.876 215.892C341.991 215.862 342.089 215.847 342.169 215.847C342.334 215.847 342.456 215.892 342.536 215.982C342.621 216.067 342.664 216.182 342.664 216.327ZM348.609 226.047V225.89L348.466 225.86V221.382C348.466 221.032 348.376 220.762 348.196 220.572C348.016 220.377 347.766 220.28 347.446 220.28C347.146 220.28 346.916 220.342 346.756 220.467C346.601 220.592 346.524 220.747 346.524 220.932V221.592C346.524 221.892 346.421 222.125 346.216 222.29C346.016 222.45 345.736 222.53 345.376 222.53C345.066 222.53 344.831 222.457 344.671 222.312C344.511 222.162 344.431 221.96 344.431 221.705C344.431 221.39 344.561 221.082 344.821 220.782C345.081 220.477 345.461 220.227 345.961 220.032C346.466 219.832 347.089 219.732 347.829 219.732C348.749 219.732 349.431 219.92 349.876 220.295C350.326 220.665 350.551 221.167 350.551 221.802V225.702C350.551 225.842 350.579 225.947 350.634 226.017C350.694 226.087 350.776 226.122 350.881 226.122C350.991 226.122 351.074 226.097 351.129 226.047C351.184 225.992 351.231 225.937 351.271 225.882C351.296 225.852 351.324 225.825 351.354 225.8C351.384 225.775 351.421 225.762 351.466 225.762C351.526 225.762 351.571 225.785 351.601 225.83C351.631 225.875 351.646 225.935 351.646 226.01C351.646 226.18 351.586 226.355 351.466 226.535C351.346 226.715 351.171 226.87 350.941 227C350.711 227.125 350.424 227.188 350.079 227.188C349.629 227.188 349.271 227.088 349.006 226.887C348.741 226.682 348.609 226.402 348.609 226.047ZM344.116 225.432C344.116 224.807 344.394 224.305 344.949 223.925C345.509 223.54 346.289 223.347 347.289 223.347C347.614 223.347 347.906 223.375 348.166 223.43C348.426 223.485 348.651 223.557 348.841 223.647L348.684 224.127C348.509 224.047 348.334 223.985 348.159 223.94C347.984 223.895 347.791 223.872 347.581 223.872C347.171 223.872 346.849 223.98 346.614 224.195C346.379 224.405 346.261 224.697 346.261 225.073C346.261 225.452 346.361 225.742 346.561 225.942C346.761 226.137 347.019 226.235 347.334 226.235C347.599 226.235 347.856 226.175 348.106 226.055C348.356 225.93 348.566 225.76 348.736 225.545L348.894 225.965C348.619 226.355 348.249 226.657 347.784 226.872C347.324 227.082 346.834 227.188 346.314 227.188C345.664 227.188 345.134 227.025 344.724 226.7C344.319 226.375 344.116 225.952 344.116 225.432ZM354.948 220.242V225.8C354.948 225.955 354.968 226.07 355.008 226.145C355.053 226.215 355.12 226.265 355.21 226.295L355.488 226.37C355.643 226.435 355.72 226.535 355.72 226.67C355.72 226.89 355.583 227 355.308 227H352.413C352.273 227 352.17 226.972 352.105 226.917C352.04 226.862 352.008 226.787 352.008 226.692C352.008 226.617 352.028 226.555 352.068 226.505C352.113 226.45 352.183 226.405 352.278 226.37L352.57 226.295C352.66 226.265 352.728 226.215 352.773 226.145C352.818 226.075 352.84 225.962 352.84 225.807V221.495C352.84 221.37 352.82 221.28 352.78 221.225C352.74 221.17 352.678 221.135 352.593 221.12L352.195 221.09C352.105 221.07 352.04 221.037 352 220.992C351.965 220.947 351.948 220.89 351.948 220.82C351.948 220.735 351.97 220.667 352.015 220.617C352.065 220.567 352.155 220.517 352.285 220.467L353.688 219.965C353.878 219.89 354.03 219.837 354.145 219.807C354.26 219.777 354.368 219.762 354.468 219.762C354.628 219.762 354.748 219.807 354.828 219.897C354.908 219.982 354.948 220.097 354.948 220.242ZM354.715 221.907L354.378 221.555L354.67 221.292C355.3 220.712 355.85 220.307 356.32 220.077C356.795 219.842 357.24 219.725 357.655 219.725C358.3 219.725 358.818 219.93 359.208 220.34C359.603 220.75 359.8 221.3 359.8 221.99V225.785C359.8 225.945 359.823 226.062 359.868 226.137C359.918 226.212 359.99 226.265 360.085 226.295L360.355 226.37C360.445 226.405 360.513 226.45 360.558 226.505C360.603 226.555 360.625 226.617 360.625 226.692C360.625 226.787 360.593 226.862 360.528 226.917C360.463 226.972 360.36 227 360.22 227H357.318C357.038 227 356.898 226.89 356.898 226.67C356.898 226.535 356.975 226.435 357.13 226.37L357.423 226.295C357.518 226.265 357.585 226.212 357.625 226.137C357.67 226.062 357.693 225.945 357.693 225.785V222.297C357.693 221.857 357.585 221.53 357.37 221.315C357.155 221.095 356.868 220.985 356.508 220.985C356.288 220.985 356.05 221.037 355.795 221.142C355.54 221.247 355.28 221.415 355.015 221.645L354.715 221.907ZM366.567 225.747L366.507 225.71V217.587C366.507 217.457 366.487 217.365 366.447 217.31C366.407 217.255 366.344 217.22 366.259 217.205L365.862 217.175C365.772 217.155 365.707 217.122 365.667 217.077C365.627 217.032 365.607 216.975 365.607 216.905C365.607 216.825 365.632 216.76 365.682 216.71C365.732 216.655 365.822 216.605 365.952 216.56L367.354 216.05C367.539 215.98 367.689 215.93 367.804 215.9C367.924 215.865 368.034 215.847 368.134 215.847C368.289 215.847 368.407 215.892 368.487 215.982C368.572 216.067 368.614 216.182 368.614 216.327V225.8C368.614 225.955 368.634 226.07 368.674 226.145C368.719 226.215 368.787 226.265 368.877 226.295L369.162 226.37C369.257 226.4 369.327 226.442 369.372 226.497C369.417 226.552 369.439 226.617 369.439 226.692C369.439 226.787 369.407 226.862 369.342 226.917C369.277 226.972 369.172 227 369.027 227H367.474C367.214 227 366.997 226.918 366.822 226.753C366.652 226.588 366.567 226.37 366.567 226.1V225.747ZM361.107 223.647C361.107 222.847 361.264 222.155 361.579 221.57C361.899 220.98 362.332 220.525 362.877 220.205C363.422 219.885 364.029 219.725 364.699 219.725C365.299 219.725 365.827 219.865 366.282 220.145C366.742 220.42 367.119 220.825 367.414 221.36L366.904 221.787C366.659 221.377 366.382 221.072 366.072 220.872C365.767 220.672 365.437 220.572 365.082 220.572C364.742 220.572 364.437 220.675 364.167 220.88C363.897 221.08 363.684 221.39 363.529 221.81C363.374 222.225 363.297 222.76 363.297 223.415C363.297 224.03 363.372 224.537 363.522 224.937C363.677 225.337 363.884 225.635 364.144 225.83C364.409 226.025 364.707 226.122 365.037 226.122C365.402 226.122 365.742 226.015 366.057 225.8C366.372 225.58 366.662 225.247 366.927 224.802L367.264 225.222C366.869 225.837 366.414 226.32 365.899 226.67C365.384 227.015 364.814 227.188 364.189 227.188C363.594 227.188 363.064 227.038 362.599 226.737C362.139 226.432 361.774 226.015 361.504 225.485C361.239 224.95 361.107 224.337 361.107 223.647ZM374.578 226.047V225.89L374.436 225.86V221.382C374.436 221.032 374.346 220.762 374.166 220.572C373.986 220.377 373.736 220.28 373.416 220.28C373.116 220.28 372.886 220.342 372.726 220.467C372.571 220.592 372.493 220.747 372.493 220.932V221.592C372.493 221.892 372.391 222.125 372.186 222.29C371.986 222.45 371.706 222.53 371.346 222.53C371.036 222.53 370.801 222.457 370.641 222.312C370.481 222.162 370.401 221.96 370.401 221.705C370.401 221.39 370.531 221.082 370.791 220.782C371.051 220.477 371.431 220.227 371.931 220.032C372.436 219.832 373.058 219.732 373.798 219.732C374.718 219.732 375.401 219.92 375.846 220.295C376.296 220.665 376.521 221.167 376.521 221.802V225.702C376.521 225.842 376.548 225.947 376.603 226.017C376.663 226.087 376.746 226.122 376.851 226.122C376.961 226.122 377.043 226.097 377.098 226.047C377.153 225.992 377.201 225.937 377.241 225.882C377.266 225.852 377.293 225.825 377.323 225.8C377.353 225.775 377.391 225.762 377.436 225.762C377.496 225.762 377.541 225.785 377.571 225.83C377.601 225.875 377.616 225.935 377.616 226.01C377.616 226.18 377.556 226.355 377.436 226.535C377.316 226.715 377.141 226.87 376.911 227C376.681 227.125 376.393 227.188 376.048 227.188C375.598 227.188 375.241 227.088 374.976 226.887C374.711 226.682 374.578 226.402 374.578 226.047ZM370.086 225.432C370.086 224.807 370.363 224.305 370.918 223.925C371.478 223.54 372.258 223.347 373.258 223.347C373.583 223.347 373.876 223.375 374.136 223.43C374.396 223.485 374.621 223.557 374.811 223.647L374.653 224.127C374.478 224.047 374.303 223.985 374.128 223.94C373.953 223.895 373.761 223.872 373.551 223.872C373.141 223.872 372.818 223.98 372.583 224.195C372.348 224.405 372.231 224.697 372.231 225.073C372.231 225.452 372.331 225.742 372.531 225.942C372.731 226.137 372.988 226.235 373.303 226.235C373.568 226.235 373.826 226.175 374.076 226.055C374.326 225.93 374.536 225.76 374.706 225.545L374.863 225.965C374.588 226.355 374.218 226.657 373.753 226.872C373.293 227.082 372.803 227.188 372.283 227.188C371.633 227.188 371.103 227.025 370.693 226.7C370.288 226.375 370.086 225.952 370.086 225.432ZM380.917 220.242V225.8C380.917 225.955 380.937 226.07 380.977 226.145C381.022 226.215 381.089 226.265 381.179 226.295L381.464 226.37C381.564 226.4 381.637 226.442 381.682 226.497C381.727 226.552 381.749 226.617 381.749 226.692C381.749 226.787 381.714 226.862 381.644 226.917C381.579 226.972 381.477 227 381.337 227H378.382C378.242 227 378.139 226.972 378.074 226.917C378.009 226.862 377.977 226.787 377.977 226.692C377.977 226.617 377.997 226.555 378.037 226.505C378.082 226.45 378.152 226.405 378.247 226.37L378.547 226.295C378.637 226.265 378.702 226.215 378.742 226.145C378.787 226.075 378.809 225.962 378.809 225.807V221.495C378.809 221.37 378.789 221.28 378.749 221.225C378.709 221.17 378.647 221.135 378.562 221.12L378.172 221.09C378.077 221.07 378.009 221.037 377.969 220.992C377.934 220.947 377.917 220.89 377.917 220.82C377.917 220.735 377.939 220.667 377.984 220.617C378.034 220.567 378.127 220.517 378.262 220.467L379.657 219.965C379.852 219.89 380.007 219.837 380.122 219.807C380.237 219.777 380.337 219.762 380.422 219.762C380.587 219.762 380.709 219.807 380.789 219.897C380.874 219.982 380.917 220.097 380.917 220.242ZM379.702 218.615C379.297 218.615 378.974 218.512 378.734 218.307C378.494 218.102 378.374 217.832 378.374 217.497C378.374 217.157 378.494 216.887 378.734 216.687C378.974 216.482 379.297 216.38 379.702 216.38C380.102 216.38 380.422 216.482 380.662 216.687C380.907 216.892 381.029 217.162 381.029 217.497C381.029 217.832 380.907 218.102 380.662 218.307C380.422 218.512 380.102 218.615 379.702 218.615ZM385.205 220.4C384.855 220.4 384.583 220.487 384.388 220.662C384.198 220.832 384.103 221.05 384.103 221.315C384.103 221.48 384.14 221.63 384.215 221.765C384.29 221.9 384.43 222.022 384.635 222.132C384.84 222.242 385.14 222.342 385.535 222.432C386.3 222.592 386.893 222.792 387.313 223.032C387.738 223.272 388.03 223.55 388.19 223.865C388.355 224.175 388.438 224.525 388.438 224.915C388.438 225.605 388.193 226.157 387.703 226.572C387.213 226.982 386.503 227.188 385.573 227.188C385.238 227.188 384.965 227.158 384.755 227.098C384.545 227.043 384.373 226.987 384.238 226.932C384.103 226.872 383.985 226.842 383.885 226.842C383.775 226.842 383.688 226.872 383.623 226.932C383.558 226.987 383.493 227.043 383.428 227.098C383.368 227.158 383.288 227.188 383.188 227.188C383.103 227.188 383.038 227.163 382.993 227.113C382.948 227.063 382.903 226.972 382.858 226.842L382.363 225.327C382.313 225.152 382.298 225.01 382.318 224.9C382.343 224.79 382.41 224.712 382.52 224.667C382.63 224.627 382.728 224.63 382.813 224.675C382.903 224.715 382.983 224.792 383.053 224.907C383.278 225.297 383.518 225.61 383.773 225.845C384.028 226.08 384.295 226.25 384.575 226.355C384.86 226.455 385.153 226.505 385.453 226.505C385.878 226.505 386.198 226.417 386.413 226.242C386.628 226.067 386.735 225.835 386.735 225.545C386.735 225.37 386.69 225.212 386.6 225.073C386.51 224.932 386.34 224.802 386.09 224.682C385.845 224.562 385.49 224.45 385.025 224.345C384.38 224.205 383.868 224.025 383.488 223.805C383.108 223.58 382.833 223.31 382.663 222.995C382.498 222.68 382.415 222.315 382.415 221.9C382.415 221.465 382.528 221.085 382.753 220.76C382.978 220.435 383.288 220.182 383.683 220.002C384.083 219.817 384.545 219.725 385.07 219.725C385.41 219.725 385.683 219.755 385.888 219.815C386.093 219.875 386.26 219.937 386.39 220.002C386.525 220.062 386.65 220.092 386.765 220.092C386.88 220.092 386.973 220.062 387.043 220.002C387.118 219.937 387.188 219.875 387.253 219.815C387.318 219.755 387.398 219.725 387.493 219.725C387.563 219.725 387.623 219.752 387.673 219.807C387.728 219.857 387.768 219.947 387.793 220.077L388.16 221.517C388.195 221.697 388.203 221.84 388.183 221.945C388.168 222.05 388.103 222.125 387.988 222.17C387.878 222.215 387.78 222.21 387.695 222.155C387.615 222.1 387.53 222.005 387.44 221.87C387.13 221.335 386.78 220.957 386.39 220.737C386 220.512 385.605 220.4 385.205 220.4Z" fill="black"/>
<line x1="311" y1="91" x2="271" y2="91" stroke="#322E2C" stroke-width="2"/>
<line x1="311" y1="213" x2="271" y2="213" stroke="#322E2C" stroke-width="2"/>
<path d="M156.5 283.5C156.5 283.5 161.795 262.868 153.5 252.5C143.5 240 107.5 246.5 96.5 237.5C85.9408 228.86 82 207 91.5004 188" stroke="#DC5959" stroke-width="2"/>
<g filter="url(#filter0_d_206_642)">
<rect x="76" y="175" width="30" height="30" rx="15" fill="#DC5959" shape-rendering="crispEdges"/>
<path d="M87.6 185.25C87.38 185.25 87.2167 185.203 87.11 185.11C87.01 185.017 86.96 184.89 86.96 184.73C86.96 184.57 87.0167 184.443 87.13 184.35C87.25 184.25 87.4167 184.2 87.63 184.2H88.92C89.4133 184.2 89.8267 184.14 90.16 184.02C90.5 183.893 90.85 183.69 91.21 183.41C91.3233 183.31 91.4333 183.24 91.54 183.2C91.6467 183.16 91.76 183.14 91.88 183.14C92.2467 183.14 92.43 183.333 92.43 183.72V195.6C92.43 195.833 92.4767 196.01 92.57 196.13C92.67 196.25 92.8267 196.33 93.04 196.37L94.22 196.57C94.5133 196.63 94.66 196.79 94.66 197.05C94.66 197.19 94.6133 197.3 94.52 197.38C94.4333 197.46 94.2967 197.5 94.11 197.5H87.49C87.29 197.5 87.1367 197.46 87.03 197.38C86.93 197.293 86.88 197.18 86.88 197.04C86.88 196.787 87.05 196.627 87.39 196.56L88.69 196.37C88.8967 196.33 89.0533 196.25 89.16 196.13C89.2733 196.01 89.33 195.833 89.33 195.6V185.99C89.33 185.703 89.2833 185.51 89.19 185.41C89.0967 185.303 88.94 185.25 88.72 185.25H87.6Z" fill="white"/>
</g>
<defs>
<filter id="filter0_d_206_642" x="74" y="173" width="38" height="38" filterUnits="userSpaceOnUse" color-interpolation-filters="sRGB">
<feFlood flood-opacity="0" result="BackgroundImageFix"/>
<feColorMatrix in="SourceAlpha" type="matrix" values="0 0 0 0 0 0 0 0 0 0 0 0 0 0 0 0 0 0 127 0" result="hardAlpha"/>
<feOffset dx="2" dy="2"/>
<feGaussianBlur stdDeviation="2"/>
<feComposite in2="hardAlpha" operator="out"/>
<feColorMatrix type="matrix" values="0 0 0 0 0.196078 0 0 0 0 0.180392 0 0 0 0 0.172549 0 0 0 0.4 0"/>
<feBlend mode="normal" in2="BackgroundImageFix" result="effect1_dropShadow_206_642"/>
<feBlend mode="normal" in="SourceGraphic" in2="effect1_dropShadow_206_642" result="shape"/>
</filter>
</defs>
</svg>
