<svg width="475" height="292" viewBox="0 0 475 292" fill="none" xmlns="http://www.w3.org/2000/svg">
<rect width="475" height="292" fill="#FEF8F0"/>
<rect x="44" y="22" width="12" height="247" stroke="#322E2C" stroke-width="2"/>
<mask id="path-3-inside-1_206_698" fill="white">
<path d="M55 37.0645L55 21L128 21L128 37.0645L55 37.0645Z"/>
</mask>
<path d="M55 37.0645L55 21L128 21L128 37.0645L55 37.0645Z" fill="#FEF8F0"/>
<path d="M128 21L130 21L130 19L128 19L128 21ZM128 37.0645L128 39.0645L130 39.0645L130 37.0645L128 37.0645ZM55 23L128 23L128 19L55 19L55 23ZM126 21L126 37.0645L130 37.0645L130 21L126 21ZM128 35.0645L55 35.0645L55 39.0645L128 39.0645L128 35.0645Z" fill="#322E2C" mask="url(#path-3-inside-1_206_698)"/>
<mask id="path-5-inside-2_206_698" fill="white">
<path d="M123 101.065L123 85L190 85L190 101.065L123 101.065Z"/>
</mask>
<path d="M123 101.065L123 85L190 85L190 101.065L123 101.065Z" fill="#FEF8F0"/>
<path d="M123 101.065L121 101.065L121 103.065L123 103.065L123 101.065ZM123 85L123 83L121 83L121 85L123 85ZM190 85L192 85L192 83L190 83L190 85ZM190 101.065L190 103.065L192 103.065L192 101.065L190 101.065ZM125 101.065L125 85L121 85L121 101.065L125 101.065ZM123 87L190 87L190 83L123 83L123 87ZM188 85L188 101.065L192 101.065L192 85L188 85ZM190 99.0645L123 99.0645L123 103.065L190 103.065L190 99.0645Z" fill="#322E2C" mask="url(#path-5-inside-2_206_698)"/>
<mask id="path-7-inside-3_206_698" fill="white">
<path d="M132 190H146V234H132V190Z"/>
</mask>
<path d="M132 190H146V234H132V190Z" fill="#FEF8F0"/>
<path d="M132 190V188H130V190H132ZM146 190H148V188H146V190ZM146 234V236H148V234H146ZM132 234H130V236H132V234ZM132 192H146V188H132V192ZM144 190V234H148V190H144ZM146 232H132V236H146V232ZM134 234V190H130V234H134Z" fill="#322E2C" mask="url(#path-7-inside-3_206_698)"/>
<mask id="path-9-inside-4_206_698" fill="white">
<path d="M172 190H186V234H172V190Z"/>
</mask>
<path d="M172 190H186V234H172V190Z" fill="#FEF8F0"/>
<path d="M172 190V188H170V190H172ZM186 190H188V188H186V190ZM186 234V236H188V234H186ZM172 234H170V236H172V234ZM172 192H186V188H172V192ZM184 190V234H188V190H184ZM186 232H172V236H186V232ZM174 234V190H170V234H174Z" fill="#322E2C" mask="url(#path-9-inside-4_206_698)"/>
<mask id="path-11-inside-5_206_698" fill="white">
<path d="M55 169.023L55 152.959L128 152.959L128 169.023L55 169.023Z"/>
</mask>
<path d="M55 169.023L55 152.959L128 152.959L128 169.023L55 169.023Z" fill="#FEF8F0"/>
<path d="M128 152.959L130 152.959L130 150.959L128 150.959L128 152.959ZM128 169.023L128 171.023L130 171.023L130 169.023L128 169.023ZM55 154.959L128 154.959L128 150.959L55 150.959L55 154.959ZM126 152.959L126 169.023L130 169.023L130 152.959L126 152.959ZM128 167.023L55 167.023L55 171.023L128 171.023L128 167.023Z" fill="#322E2C" mask="url(#path-11-inside-5_206_698)"/>
<mask id="path-13-inside-6_206_698" fill="white">
<path d="M55 270L55 253.935L128 253.935L128 270L55 270Z"/>
</mask>
<path d="M55 270L55 253.935L128 253.935L128 270L55 270Z" fill="#FEF8F0"/>
<path d="M128 253.935L130 253.935L130 251.935L128 251.935L128 253.935ZM128 270L128 272L130 272L130 270L128 270ZM55 255.935L128 255.935L128 251.935L55 251.935L55 255.935ZM126 253.935L126 270L130 270L130 253.935L126 253.935ZM128 268L55 268L55 272L128 272L128 268Z" fill="#322E2C" mask="url(#path-13-inside-6_206_698)"/>
<rect x="-1" y="1" width="12" height="247" transform="matrix(-1 0 0 1 269 21)" stroke="#322E2C" stroke-width="2"/>
<mask id="path-16-inside-7_206_698" fill="white">
<path d="M259 37.0645L259 21L186 21L186 37.0645L259 37.0645Z"/>
</mask>
<path d="M259 37.0645L259 21L186 21L186 37.0645L259 37.0645Z" fill="#FEF8F0"/>
<path d="M186 21L184 21L184 19L186 19L186 21ZM186 37.0645L186 39.0645L184 39.0645L184 37.0645L186 37.0645ZM259 23L186 23L186 19L259 19L259 23ZM188 21L188 37.0645L184 37.0645L184 21L188 21ZM186 35.0645L259 35.0645L259 39.0645L186 39.0645L186 35.0645Z" fill="#322E2C" mask="url(#path-16-inside-7_206_698)"/>
<mask id="path-18-inside-8_206_698" fill="white">
<path d="M259 169.023L259 152.959L186 152.959L186 169.023L259 169.023Z"/>
</mask>
<path d="M259 169.023L259 152.959L186 152.959L186 169.023L259 169.023Z" fill="#FEF8F0"/>
<path d="M186 152.959L184 152.959L184 150.959L186 150.959L186 152.959ZM186 169.023L186 171.023L184 171.023L184 169.023L186 169.023ZM259 154.959L186 154.959L186 150.959L259 150.959L259 154.959ZM188 152.959L188 169.023L184 169.023L184 152.959L188 152.959ZM186 167.023L259 167.023L259 171.023L186 171.023L186 167.023Z" fill="#322E2C" mask="url(#path-18-inside-8_206_698)"/>
<mask id="path-20-inside-9_206_698" fill="white">
<path d="M259 270L259 253.935L186 253.935L186 270L259 270Z"/>
</mask>
<path d="M259 270L259 253.935L186 253.935L186 270L259 270Z" fill="#FEF8F0"/>
<path d="M186 253.935L184 253.935L184 251.935L186 251.935L186 253.935ZM186 270L186 272L184 272L184 270L186 270ZM259 255.935L186 255.935L186 251.935L259 251.935L259 255.935ZM188 253.935L188 270L184 270L184 253.935L188 253.935ZM186 268L259 268L259 272L186 272L186 268Z" fill="#322E2C" mask="url(#path-20-inside-9_206_698)"/>
<path d="M322.344 81.568L321.888 81.672C321.76 81.7093 321.661 81.7653 321.592 81.84C321.523 81.9147 321.488 82.0107 321.488 82.128V90.64C321.488 90.8427 321.547 90.9867 321.664 91.072C321.781 91.1573 321.96 91.2 322.2 91.2H323.528C323.827 91.2 324.083 91.16 324.296 91.08C324.515 91 324.709 90.856 324.88 90.648C325.056 90.44 325.229 90.1413 325.4 89.752L325.888 88.648C325.952 88.5147 326.029 88.4267 326.12 88.384C326.211 88.336 326.317 88.328 326.44 88.36C326.568 88.392 326.656 88.4507 326.704 88.536C326.757 88.6213 326.765 88.7387 326.728 88.888L326.008 91.712C325.949 91.9147 325.875 92.0613 325.784 92.152C325.699 92.248 325.573 92.296 325.408 92.296C325.291 92.296 325.179 92.272 325.072 92.224C324.965 92.176 324.845 92.1253 324.712 92.072C324.579 92.024 324.416 92 324.224 92H318.304C318.139 92 318.016 91.968 317.936 91.904C317.861 91.8347 317.824 91.744 317.824 91.632C317.824 91.4347 317.936 91.3013 318.16 91.232L318.616 91.128C318.749 91.0907 318.848 91.0347 318.912 90.96C318.981 90.8853 319.016 90.7893 319.016 90.672V82.128C319.016 82.0107 318.981 81.9147 318.912 81.84C318.848 81.7653 318.749 81.7093 318.616 81.672L318.16 81.568C317.936 81.4987 317.824 81.3653 317.824 81.168C317.824 81.0507 317.861 80.96 317.936 80.896C318.016 80.832 318.139 80.8 318.304 80.8H322.2C322.365 80.8 322.485 80.832 322.56 80.896C322.64 80.96 322.68 81.0507 322.68 81.168C322.68 81.3653 322.568 81.4987 322.344 81.568ZM334.574 87.28C334.574 87.5573 334.494 87.7733 334.334 87.928C334.174 88.0773 333.939 88.152 333.63 88.152H328.638V87.544H331.91C332.182 87.544 332.318 87.424 332.318 87.184C332.318 86.4747 332.187 85.9387 331.926 85.576C331.67 85.208 331.328 85.024 330.902 85.024C330.571 85.024 330.278 85.1253 330.022 85.328C329.766 85.5253 329.566 85.816 329.422 86.2C329.278 86.5787 329.206 87.032 329.206 87.56C329.206 88.5947 329.448 89.3707 329.934 89.888C330.419 90.4053 331.062 90.664 331.862 90.664C332.331 90.664 332.744 90.5707 333.102 90.384C333.459 90.192 333.734 89.9227 333.926 89.576C334.022 89.4693 334.096 89.3973 334.15 89.36C334.208 89.3227 334.267 89.304 334.326 89.304C334.406 89.304 334.464 89.3413 334.502 89.416C334.544 89.4907 334.563 89.5813 334.558 89.688C334.536 90.1413 334.376 90.56 334.078 90.944C333.784 91.3227 333.384 91.6267 332.878 91.856C332.371 92.0853 331.787 92.2 331.126 92.2C330.358 92.2 329.675 92.0427 329.078 91.728C328.486 91.408 328.019 90.9627 327.678 90.392C327.342 89.8213 327.174 89.152 327.174 88.384C327.174 87.5733 327.334 86.8587 327.654 86.24C327.979 85.616 328.443 85.128 329.046 84.776C329.648 84.4187 330.366 84.24 331.198 84.24C331.907 84.24 332.512 84.3707 333.014 84.632C333.52 84.8933 333.907 85.2507 334.174 85.704C334.44 86.1573 334.574 86.6827 334.574 87.28ZM348.598 89.304C348.598 90.0987 348.254 90.7467 347.566 91.248C346.878 91.7493 345.851 92 344.486 92H338.942C338.782 92 338.662 91.968 338.582 91.904C338.507 91.8347 338.47 91.744 338.47 91.632C338.47 91.4347 338.579 91.3013 338.798 91.232L339.262 91.128C339.39 91.0907 339.486 91.0347 339.55 90.96C339.619 90.8853 339.654 90.7893 339.654 90.672V82.128C339.654 82.0107 339.619 81.9147 339.55 81.84C339.486 81.7653 339.39 81.7093 339.262 81.672L338.798 81.568C338.579 81.4987 338.47 81.3653 338.47 81.168C338.47 81.0507 338.507 80.96 338.582 80.896C338.662 80.832 338.782 80.8 338.942 80.8H343.262C344.254 80.8 345.099 80.936 345.798 81.208C346.497 81.48 347.03 81.8587 347.398 82.344C347.771 82.824 347.958 83.3867 347.958 84.032C347.958 84.5653 347.806 85.0427 347.502 85.464C347.198 85.8853 346.75 86.2187 346.158 86.464C345.571 86.7093 344.843 86.832 343.974 86.832L344.422 86.584C345.265 86.584 345.998 86.7013 346.622 86.936C347.246 87.1653 347.731 87.4853 348.078 87.896C348.425 88.3013 348.598 88.7707 348.598 89.304ZM343.574 87.128H341.446V86.48H343.374C343.854 86.48 344.257 86.392 344.582 86.216C344.913 86.0347 345.163 85.7707 345.334 85.424C345.505 85.0773 345.59 84.656 345.59 84.16C345.59 83.6267 345.483 83.1653 345.27 82.776C345.062 82.3813 344.755 82.0747 344.35 81.856C343.945 81.6373 343.449 81.528 342.862 81.528H342.134V90.496C342.134 90.7573 342.214 90.952 342.374 91.08C342.534 91.208 342.774 91.272 343.094 91.272H343.942C344.417 91.272 344.814 91.1893 345.134 91.024C345.459 90.8533 345.705 90.616 345.87 90.312C346.035 90.0027 346.118 89.6453 346.118 89.24C346.118 88.5947 345.899 88.0827 345.462 87.704C345.03 87.32 344.401 87.128 343.574 87.128ZM353.958 90.984V90.824L353.806 90.784V86.008C353.806 85.6347 353.71 85.3467 353.518 85.144C353.332 84.936 353.065 84.832 352.718 84.832C352.404 84.832 352.161 84.9013 351.99 85.04C351.82 85.1733 351.734 85.336 351.734 85.528V86.232C351.734 86.552 351.628 86.8 351.414 86.976C351.201 87.1467 350.9 87.232 350.51 87.232C350.18 87.232 349.929 87.1547 349.758 87C349.593 86.8453 349.51 86.6293 349.51 86.352C349.51 86.016 349.646 85.688 349.918 85.368C350.196 85.048 350.604 84.7813 351.142 84.568C351.681 84.3547 352.342 84.248 353.126 84.248C354.108 84.248 354.836 84.448 355.31 84.848C355.79 85.2427 356.03 85.7787 356.03 86.456V90.616C356.03 90.7653 356.06 90.88 356.118 90.96C356.182 91.0347 356.27 91.072 356.382 91.072C356.5 91.072 356.588 91.0427 356.646 90.984C356.705 90.9253 356.756 90.8693 356.798 90.816C356.83 90.7787 356.86 90.7493 356.886 90.728C356.918 90.7013 356.958 90.688 357.006 90.688C357.07 90.688 357.118 90.712 357.15 90.76C357.182 90.808 357.198 90.8693 357.198 90.944C357.198 91.1253 357.134 91.312 357.006 91.504C356.878 91.696 356.692 91.8613 356.446 92C356.201 92.1333 355.894 92.2 355.526 92.2C355.046 92.2 354.665 92.0933 354.382 91.88C354.1 91.6613 353.958 91.3627 353.958 90.984ZM349.166 90.328C349.166 89.6613 349.462 89.1253 350.054 88.72C350.652 88.3093 351.484 88.104 352.55 88.104C352.897 88.104 353.209 88.1333 353.486 88.192C353.764 88.2507 354.006 88.328 354.214 88.424L354.038 88.936C353.857 88.8507 353.67 88.784 353.478 88.736C353.292 88.688 353.086 88.664 352.862 88.664C352.425 88.664 352.081 88.7787 351.83 89.008C351.585 89.232 351.462 89.5467 351.462 89.952C351.462 90.352 351.566 90.6587 351.774 90.872C351.988 91.0853 352.262 91.192 352.598 91.192C352.886 91.192 353.161 91.1253 353.422 90.992C353.689 90.8587 353.913 90.6773 354.094 90.448L354.262 90.896C353.969 91.312 353.577 91.6347 353.086 91.864C352.596 92.088 352.073 92.2 351.518 92.2C350.82 92.2 350.252 92.0267 349.814 91.68C349.382 91.3333 349.166 90.8827 349.166 90.328ZM360.439 87.768C360.439 86.9893 360.549 86.3387 360.767 85.816C360.986 85.2933 361.274 84.9013 361.631 84.64C361.989 84.3733 362.37 84.24 362.775 84.24C363.287 84.24 363.679 84.3867 363.951 84.68C364.229 84.968 364.367 85.3813 364.367 85.92C364.367 86.3947 364.269 86.7493 364.071 86.984C363.874 87.2187 363.618 87.336 363.303 87.336C362.989 87.336 362.746 87.2507 362.575 87.08C362.41 86.9093 362.327 86.6747 362.327 86.376V86.08C362.327 85.9147 362.29 85.792 362.215 85.712C362.141 85.6267 362.018 85.584 361.847 85.584C361.661 85.584 361.479 85.6613 361.303 85.816C361.133 85.9653 360.991 86.1973 360.879 86.512C360.773 86.8267 360.719 87.232 360.719 87.728L360.439 87.768ZM360.591 84.792L360.719 86.616V90.728C360.719 90.8773 360.749 90.9893 360.807 91.064C360.866 91.1333 360.975 91.1787 361.135 91.2L361.823 91.312C361.951 91.3333 362.045 91.3733 362.103 91.432C362.162 91.4853 362.191 91.5627 362.191 91.664C362.191 91.7707 362.154 91.8533 362.079 91.912C362.005 91.9707 361.895 92 361.751 92H358.015C357.866 92 357.757 91.9707 357.687 91.912C357.618 91.8533 357.583 91.7733 357.583 91.672C357.583 91.592 357.607 91.5253 357.655 91.472C357.703 91.4133 357.778 91.368 357.879 91.336L358.191 91.248C358.287 91.2213 358.359 91.1707 358.407 91.096C358.455 91.016 358.479 90.8933 358.479 90.728V86.144C358.479 86.0107 358.458 85.9147 358.415 85.856C358.373 85.7973 358.306 85.76 358.215 85.744L357.791 85.712C357.695 85.6907 357.626 85.656 357.583 85.608C357.541 85.56 357.519 85.4987 357.519 85.424C357.519 85.3387 357.546 85.2693 357.599 85.216C357.653 85.1573 357.749 85.104 357.887 85.056L359.359 84.52C359.615 84.424 359.805 84.3627 359.927 84.336C360.05 84.304 360.146 84.288 360.215 84.288C360.327 84.288 360.413 84.328 360.471 84.408C360.53 84.4827 360.57 84.6107 360.591 84.792ZM368.912 84.248C369.733 84.248 370.456 84.416 371.08 84.752C371.704 85.088 372.189 85.5573 372.536 86.16C372.888 86.7573 373.064 87.4507 373.064 88.24C373.064 88.992 372.883 89.6667 372.52 90.264C372.163 90.8613 371.667 91.3333 371.032 91.68C370.403 92.0267 369.669 92.2 368.832 92.2C368.011 92.2 367.288 92.0293 366.664 91.688C366.045 91.3467 365.56 90.8773 365.208 90.28C364.861 89.6773 364.688 88.9867 364.688 88.208C364.688 87.4453 364.867 86.7653 365.224 86.168C365.581 85.5707 366.077 85.1013 366.712 84.76C367.347 84.4187 368.08 84.248 368.912 84.248ZM369.48 91.368C369.843 91.3147 370.133 91.1493 370.352 90.872C370.576 90.5893 370.717 90.2027 370.776 89.712C370.835 89.2213 370.803 88.6293 370.68 87.936C370.557 87.2533 370.379 86.688 370.144 86.24C369.909 85.792 369.632 85.4693 369.312 85.272C368.992 85.0747 368.645 85.008 368.272 85.072C367.909 85.1307 367.616 85.2987 367.392 85.576C367.168 85.8533 367.027 86.2373 366.968 86.728C366.915 87.2187 366.949 87.8107 367.072 88.504C367.195 89.1867 367.373 89.752 367.608 90.2C367.843 90.648 368.12 90.9707 368.44 91.168C368.76 91.3653 369.107 91.432 369.48 91.368ZM378.908 95.728C378.758 95.728 378.649 95.6987 378.58 95.64C378.51 95.5813 378.476 95.5013 378.476 95.4C378.476 95.32 378.5 95.2507 378.548 95.192C378.596 95.1387 378.67 95.0933 378.772 95.056L379.196 94.976C379.292 94.9493 379.364 94.896 379.412 94.816C379.46 94.7413 379.484 94.6213 379.484 94.456V85.296L380.42 84.512C380.66 84.416 380.841 84.3493 380.964 84.312C381.092 84.2747 381.201 84.256 381.292 84.256C381.43 84.256 381.537 84.2907 381.612 84.36C381.692 84.4293 381.732 84.5333 381.732 84.672V94.456C381.732 94.6213 381.753 94.7413 381.796 94.816C381.844 94.896 381.916 94.9493 382.012 94.976L382.324 95.064C382.425 95.096 382.5 95.1387 382.548 95.192C382.596 95.2507 382.62 95.32 382.62 95.4C382.62 95.5013 382.585 95.5813 382.516 95.64C382.446 95.6987 382.337 95.728 382.188 95.728H378.908ZM380.292 90.112C379.876 90.7627 379.39 91.2747 378.836 91.648C378.286 92.016 377.678 92.2 377.012 92.2C376.382 92.2 375.82 92.04 375.324 91.72C374.828 91.3947 374.436 90.9493 374.148 90.384C373.865 89.8133 373.724 89.16 373.724 88.424C373.724 87.576 373.894 86.84 374.236 86.216C374.577 85.5867 375.036 85.1013 375.612 84.76C376.193 84.4133 376.844 84.24 377.564 84.24C378.198 84.24 378.758 84.3893 379.244 84.688C379.729 84.9813 380.132 85.4107 380.452 85.976L379.908 86.432C379.646 86 379.353 85.6773 379.028 85.464C378.702 85.2507 378.35 85.144 377.972 85.144C377.609 85.144 377.284 85.2533 376.996 85.472C376.708 85.6853 376.481 86.016 376.316 86.464C376.15 86.9067 376.068 87.4773 376.068 88.176C376.068 88.832 376.148 89.3733 376.308 89.8C376.468 90.2267 376.686 90.5467 376.964 90.76C377.246 90.968 377.566 91.072 377.924 91.072C378.313 91.072 378.676 90.9573 379.012 90.728C379.348 90.4933 379.657 90.136 379.94 89.656L380.292 90.112ZM388.85 90.856V90.456L388.778 90.432V86.136C388.778 85.9973 388.756 85.8987 388.714 85.84C388.676 85.7813 388.612 85.744 388.522 85.728L388.098 85.696C388.002 85.6747 387.932 85.64 387.89 85.592C387.847 85.544 387.826 85.4827 387.826 85.408C387.826 85.3227 387.85 85.2533 387.898 85.2C387.951 85.1467 388.05 85.0933 388.194 85.04L389.69 84.496C389.887 84.4213 390.047 84.368 390.17 84.336C390.298 84.304 390.415 84.288 390.522 84.288C390.687 84.288 390.812 84.336 390.898 84.432C390.983 84.5227 391.026 84.6427 391.026 84.792V90.728C391.026 90.8933 391.047 91.016 391.09 91.096C391.138 91.1707 391.21 91.2213 391.306 91.248L391.61 91.328C391.716 91.3653 391.791 91.4133 391.834 91.472C391.882 91.5253 391.906 91.592 391.906 91.672C391.906 91.7733 391.871 91.8533 391.802 91.912C391.732 91.9707 391.623 92 391.474 92H389.858C389.57 92 389.33 91.8933 389.138 91.68C388.946 91.4667 388.85 91.192 388.85 90.856ZM383.738 89.776V86.136C383.738 85.9973 383.716 85.8987 383.674 85.84C383.636 85.7813 383.572 85.744 383.482 85.728L383.058 85.696C382.962 85.6747 382.892 85.64 382.85 85.592C382.807 85.544 382.786 85.4827 382.786 85.408C382.786 85.3227 382.81 85.2533 382.858 85.2C382.911 85.1467 383.01 85.0933 383.154 85.04L384.65 84.496C384.858 84.4213 385.023 84.368 385.146 84.336C385.268 84.304 385.375 84.288 385.466 84.288C385.636 84.288 385.764 84.336 385.85 84.432C385.94 84.5227 385.986 84.6427 385.986 84.792V89.448C385.986 89.9227 386.098 90.2773 386.322 90.512C386.546 90.7413 386.85 90.856 387.234 90.856C387.468 90.856 387.719 90.8 387.986 90.688C388.252 90.5707 388.524 90.392 388.802 90.152L389.13 89.872L389.49 90.248L389.178 90.52C388.506 91.1387 387.919 91.5733 387.418 91.824C386.922 92.0747 386.452 92.2 386.01 92.2C385.332 92.2 384.783 91.9813 384.362 91.544C383.946 91.1013 383.738 90.512 383.738 89.776ZM399.937 87.28C399.937 87.5573 399.857 87.7733 399.697 87.928C399.537 88.0773 399.302 88.152 398.993 88.152H394.001V87.544H397.273C397.545 87.544 397.681 87.424 397.681 87.184C397.681 86.4747 397.55 85.9387 397.289 85.576C397.033 85.208 396.692 85.024 396.265 85.024C395.934 85.024 395.641 85.1253 395.385 85.328C395.129 85.5253 394.929 85.816 394.785 86.2C394.641 86.5787 394.569 87.032 394.569 87.56C394.569 88.5947 394.812 89.3707 395.297 89.888C395.782 90.4053 396.425 90.664 397.225 90.664C397.694 90.664 398.108 90.5707 398.465 90.384C398.822 90.192 399.097 89.9227 399.289 89.576C399.385 89.4693 399.46 89.3973 399.513 89.36C399.572 89.3227 399.63 89.304 399.689 89.304C399.769 89.304 399.828 89.3413 399.865 89.416C399.908 89.4907 399.926 89.5813 399.921 89.688C399.9 90.1413 399.74 90.56 399.441 90.944C399.148 91.3227 398.748 91.6267 398.241 91.856C397.734 92.0853 397.15 92.2 396.489 92.2C395.721 92.2 395.038 92.0427 394.441 91.728C393.849 91.408 393.382 90.9627 393.041 90.392C392.705 89.8213 392.537 89.152 392.537 88.384C392.537 87.5733 392.697 86.8587 393.017 86.24C393.342 85.616 393.806 85.128 394.409 84.776C395.012 84.4187 395.729 84.24 396.561 84.24C397.27 84.24 397.876 84.3707 398.377 84.632C398.884 84.8933 399.27 85.2507 399.537 85.704C399.804 86.1573 399.937 86.6827 399.937 87.28ZM320.76 104.792V110.728C320.76 110.893 320.784 111.016 320.832 111.096C320.88 111.171 320.952 111.221 321.048 111.248L321.352 111.328C321.453 111.365 321.528 111.413 321.576 111.472C321.624 111.525 321.648 111.592 321.648 111.672C321.648 111.773 321.611 111.853 321.536 111.912C321.467 111.971 321.357 112 321.208 112H318.056C317.907 112 317.797 111.971 317.728 111.912C317.659 111.853 317.624 111.773 317.624 111.672C317.624 111.592 317.648 111.525 317.696 111.472C317.744 111.413 317.819 111.368 317.92 111.336L318.232 111.248C318.328 111.216 318.4 111.163 318.448 111.088C318.496 111.013 318.52 110.893 318.52 110.728V106.128C318.52 105.995 318.499 105.899 318.456 105.84C318.413 105.781 318.347 105.744 318.256 105.728L317.832 105.696C317.736 105.675 317.667 105.64 317.624 105.592C317.581 105.544 317.56 105.483 317.56 105.408C317.56 105.323 317.587 105.253 317.64 105.2C317.693 105.141 317.789 105.088 317.928 105.04L319.432 104.496C319.635 104.416 319.797 104.36 319.92 104.328C320.043 104.296 320.149 104.28 320.24 104.28C320.416 104.28 320.547 104.328 320.632 104.424C320.717 104.515 320.76 104.637 320.76 104.792ZM319.464 103.064C319.037 103.064 318.696 102.955 318.44 102.736C318.184 102.512 318.056 102.221 318.056 101.864C318.056 101.507 318.184 101.221 318.44 101.008C318.696 100.789 319.037 100.68 319.464 100.68C319.896 100.68 320.24 100.789 320.496 101.008C320.757 101.221 320.888 101.507 320.888 101.864C320.888 102.221 320.757 102.512 320.496 102.736C320.24 102.955 319.896 103.064 319.464 103.064ZM325.343 104.792V110.728C325.343 110.893 325.367 111.013 325.415 111.088C325.463 111.163 325.535 111.216 325.631 111.248L325.919 111.336C326.089 111.405 326.174 111.512 326.174 111.656C326.174 111.885 326.028 112 325.735 112H322.638C322.489 112 322.38 111.971 322.311 111.912C322.241 111.853 322.206 111.773 322.206 111.672C322.206 111.592 322.231 111.525 322.279 111.472C322.326 111.413 322.401 111.368 322.502 111.336L322.815 111.248C322.911 111.216 322.98 111.163 323.023 111.088C323.071 111.013 323.095 110.893 323.095 110.728V106.128C323.095 105.995 323.073 105.899 323.031 105.84C322.993 105.781 322.929 105.744 322.839 105.728L322.414 105.696C322.319 105.675 322.249 105.64 322.206 105.592C322.164 105.544 322.142 105.483 322.142 105.408C322.142 105.323 322.169 105.253 322.223 105.2C322.276 105.141 322.372 105.088 322.511 105.04L324.007 104.496C324.209 104.421 324.372 104.368 324.495 104.336C324.617 104.299 324.732 104.28 324.839 104.28C325.004 104.28 325.129 104.328 325.215 104.424C325.3 104.515 325.343 104.637 325.343 104.792ZM325.095 106.568L324.735 106.192L325.047 105.92C325.724 105.296 326.313 104.861 326.815 104.616C327.316 104.365 327.791 104.24 328.239 104.24C328.921 104.24 329.471 104.459 329.887 104.896C330.308 105.333 330.519 105.92 330.519 106.656V110.704C330.519 110.875 330.543 111.003 330.591 111.088C330.644 111.168 330.721 111.224 330.823 111.256L331.111 111.336C331.207 111.368 331.279 111.413 331.327 111.472C331.375 111.525 331.399 111.592 331.399 111.672C331.399 111.773 331.364 111.853 331.295 111.912C331.225 111.971 331.116 112 330.967 112H327.871C327.577 112 327.431 111.885 327.431 111.656C327.431 111.512 327.513 111.405 327.679 111.336L327.983 111.248C328.084 111.216 328.156 111.16 328.199 111.08C328.247 111 328.271 110.875 328.271 110.704V106.984C328.271 106.515 328.156 106.165 327.927 105.936C327.703 105.701 327.399 105.584 327.015 105.584C326.775 105.584 326.519 105.643 326.247 105.76C325.98 105.872 325.705 106.048 325.423 106.288L325.095 106.568ZM332.36 105.208L331.984 105.096C331.856 105.053 331.766 105.005 331.712 104.952C331.664 104.893 331.64 104.827 331.64 104.752C331.64 104.651 331.675 104.573 331.744 104.52C331.819 104.461 331.915 104.432 332.032 104.432H332.528C332.651 104.432 332.755 104.408 332.84 104.36C332.926 104.312 333.014 104.227 333.105 104.104L333.985 102.88C334.097 102.741 334.201 102.64 334.297 102.576C334.398 102.512 334.502 102.48 334.609 102.48C334.715 102.48 334.801 102.515 334.865 102.584C334.929 102.653 334.961 102.755 334.961 102.888V109.72C334.961 110.099 335.033 110.387 335.177 110.584C335.326 110.781 335.531 110.88 335.793 110.88C335.99 110.88 336.142 110.843 336.249 110.768C336.355 110.688 336.441 110.597 336.505 110.496C336.569 110.395 336.633 110.307 336.697 110.232C336.761 110.152 336.841 110.109 336.937 110.104C337.011 110.104 337.07 110.131 337.113 110.184C337.161 110.232 337.185 110.317 337.185 110.44C337.185 110.744 337.086 111.029 336.889 111.296C336.691 111.557 336.419 111.768 336.073 111.928C335.731 112.088 335.339 112.168 334.897 112.168C334.219 112.168 333.686 111.997 333.297 111.656C332.907 111.309 332.712 110.789 332.712 110.096V105.68C332.712 105.541 332.686 105.44 332.633 105.376C332.579 105.307 332.488 105.251 332.36 105.208ZM334.072 105.216V104.432H336.72C336.843 104.432 336.939 104.459 337.009 104.512C337.078 104.56 337.113 104.632 337.113 104.728C337.113 104.867 337.043 104.984 336.905 105.08C336.771 105.171 336.55 105.216 336.24 105.216H334.072ZM345.036 107.28C345.036 107.557 344.956 107.773 344.796 107.928C344.636 108.077 344.401 108.152 344.092 108.152H339.1V107.544H342.372C342.644 107.544 342.78 107.424 342.78 107.184C342.78 106.475 342.649 105.939 342.388 105.576C342.132 105.208 341.79 105.024 341.364 105.024C341.033 105.024 340.74 105.125 340.484 105.328C340.228 105.525 340.028 105.816 339.884 106.2C339.74 106.579 339.668 107.032 339.668 107.56C339.668 108.595 339.91 109.371 340.396 109.888C340.881 110.405 341.524 110.664 342.324 110.664C342.793 110.664 343.206 110.571 343.564 110.384C343.921 110.192 344.196 109.923 344.388 109.576C344.484 109.469 344.558 109.397 344.612 109.36C344.67 109.323 344.729 109.304 344.788 109.304C344.868 109.304 344.926 109.341 344.964 109.416C345.006 109.491 345.025 109.581 345.02 109.688C344.998 110.141 344.838 110.56 344.54 110.944C344.246 111.323 343.846 111.627 343.34 111.856C342.833 112.085 342.249 112.2 341.588 112.2C340.82 112.2 340.137 112.043 339.54 111.728C338.948 111.408 338.481 110.963 338.14 110.392C337.804 109.821 337.636 109.152 337.636 108.384C337.636 107.573 337.796 106.859 338.116 106.24C338.441 105.616 338.905 105.128 339.508 104.776C340.11 104.419 340.828 104.24 341.66 104.24C342.369 104.24 342.974 104.371 343.476 104.632C343.982 104.893 344.369 105.251 344.636 105.704C344.902 106.157 345.036 106.683 345.036 107.28ZM348.591 107.768C348.591 106.989 348.701 106.339 348.919 105.816C349.138 105.293 349.426 104.901 349.783 104.64C350.141 104.373 350.522 104.24 350.927 104.24C351.439 104.24 351.831 104.387 352.103 104.68C352.381 104.968 352.519 105.381 352.519 105.92C352.519 106.395 352.421 106.749 352.223 106.984C352.026 107.219 351.77 107.336 351.455 107.336C351.141 107.336 350.898 107.251 350.727 107.08C350.562 106.909 350.479 106.675 350.479 106.376V106.08C350.479 105.915 350.442 105.792 350.367 105.712C350.293 105.627 350.17 105.584 349.999 105.584C349.813 105.584 349.631 105.661 349.455 105.816C349.285 105.965 349.143 106.197 349.031 106.512C348.925 106.827 348.871 107.232 348.871 107.728L348.591 107.768ZM348.743 104.792L348.871 106.616V110.728C348.871 110.877 348.901 110.989 348.959 111.064C349.018 111.133 349.127 111.179 349.287 111.2L349.975 111.312C350.103 111.333 350.197 111.373 350.255 111.432C350.314 111.485 350.343 111.563 350.343 111.664C350.343 111.771 350.306 111.853 350.231 111.912C350.157 111.971 350.047 112 349.903 112H346.167C346.018 112 345.909 111.971 345.839 111.912C345.77 111.853 345.735 111.773 345.735 111.672C345.735 111.592 345.759 111.525 345.807 111.472C345.855 111.413 345.93 111.368 346.031 111.336L346.343 111.248C346.439 111.221 346.511 111.171 346.559 111.096C346.607 111.016 346.631 110.893 346.631 110.728V106.144C346.631 106.011 346.61 105.915 346.567 105.856C346.525 105.797 346.458 105.76 346.367 105.744L345.943 105.712C345.847 105.691 345.778 105.656 345.735 105.608C345.693 105.56 345.671 105.499 345.671 105.424C345.671 105.339 345.698 105.269 345.751 105.216C345.805 105.157 345.901 105.104 346.039 105.056L347.511 104.52C347.767 104.424 347.957 104.363 348.079 104.336C348.202 104.304 348.298 104.288 348.367 104.288C348.479 104.288 348.565 104.328 348.623 104.408C348.682 104.483 348.722 104.611 348.743 104.792ZM356.032 104.792V110.728C356.032 110.893 356.056 111.013 356.104 111.088C356.152 111.163 356.224 111.216 356.32 111.248L356.608 111.336C356.779 111.405 356.864 111.512 356.864 111.656C356.864 111.885 356.717 112 356.424 112H353.328C353.179 112 353.069 111.971 353 111.912C352.931 111.853 352.896 111.773 352.896 111.672C352.896 111.592 352.92 111.525 352.968 111.472C353.016 111.413 353.091 111.368 353.192 111.336L353.504 111.248C353.6 111.216 353.669 111.163 353.712 111.088C353.76 111.013 353.784 110.893 353.784 110.728V106.128C353.784 105.995 353.763 105.899 353.72 105.84C353.683 105.781 353.619 105.744 353.528 105.728L353.104 105.696C353.008 105.675 352.939 105.64 352.896 105.592C352.853 105.544 352.832 105.483 352.832 105.408C352.832 105.323 352.859 105.253 352.912 105.2C352.965 105.141 353.061 105.088 353.2 105.04L354.696 104.496C354.899 104.421 355.061 104.368 355.184 104.336C355.307 104.299 355.421 104.28 355.528 104.28C355.693 104.28 355.819 104.328 355.904 104.424C355.989 104.515 356.032 104.637 356.032 104.792ZM355.784 106.568L355.424 106.192L355.736 105.92C356.413 105.296 357.003 104.861 357.504 104.616C358.005 104.365 358.48 104.24 358.928 104.24C359.611 104.24 360.16 104.459 360.576 104.896C360.997 105.333 361.208 105.92 361.208 106.656V110.704C361.208 110.875 361.232 111.003 361.28 111.088C361.333 111.168 361.411 111.224 361.512 111.256L361.8 111.336C361.896 111.368 361.968 111.413 362.016 111.472C362.064 111.525 362.088 111.592 362.088 111.672C362.088 111.773 362.053 111.853 361.984 111.912C361.915 111.971 361.805 112 361.656 112H358.56C358.267 112 358.12 111.885 358.12 111.656C358.12 111.512 358.203 111.405 358.368 111.336L358.672 111.248C358.773 111.216 358.845 111.16 358.888 111.08C358.936 111 358.96 110.875 358.96 110.704V106.984C358.96 106.515 358.845 106.165 358.616 105.936C358.392 105.701 358.088 105.584 357.704 105.584C357.464 105.584 357.208 105.643 356.936 105.76C356.669 105.872 356.395 106.048 356.112 106.288L355.784 106.568ZM367.514 110.984V110.824L367.362 110.784V106.008C367.362 105.635 367.266 105.347 367.074 105.144C366.887 104.936 366.621 104.832 366.274 104.832C365.959 104.832 365.717 104.901 365.546 105.04C365.375 105.173 365.29 105.336 365.29 105.528V106.232C365.29 106.552 365.183 106.8 364.97 106.976C364.757 107.147 364.455 107.232 364.066 107.232C363.735 107.232 363.485 107.155 363.314 107C363.149 106.845 363.066 106.629 363.066 106.352C363.066 106.016 363.202 105.688 363.474 105.368C363.751 105.048 364.159 104.781 364.698 104.568C365.237 104.355 365.898 104.248 366.682 104.248C367.663 104.248 368.391 104.448 368.866 104.848C369.346 105.243 369.586 105.779 369.586 106.456V110.616C369.586 110.765 369.615 110.88 369.674 110.96C369.738 111.035 369.826 111.072 369.938 111.072C370.055 111.072 370.143 111.043 370.202 110.984C370.261 110.925 370.311 110.869 370.354 110.816C370.386 110.779 370.415 110.749 370.442 110.728C370.474 110.701 370.514 110.688 370.562 110.688C370.626 110.688 370.674 110.712 370.706 110.76C370.738 110.808 370.754 110.869 370.754 110.944C370.754 111.125 370.69 111.312 370.562 111.504C370.434 111.696 370.247 111.861 370.002 112C369.757 112.133 369.45 112.2 369.082 112.2C368.602 112.2 368.221 112.093 367.938 111.88C367.655 111.661 367.514 111.363 367.514 110.984ZM362.722 110.328C362.722 109.661 363.018 109.125 363.61 108.72C364.207 108.309 365.039 108.104 366.106 108.104C366.453 108.104 366.765 108.133 367.042 108.192C367.319 108.251 367.562 108.328 367.77 108.424L367.594 108.936C367.413 108.851 367.226 108.784 367.034 108.736C366.847 108.688 366.642 108.664 366.418 108.664C365.981 108.664 365.637 108.779 365.386 109.008C365.141 109.232 365.018 109.547 365.018 109.952C365.018 110.352 365.122 110.659 365.33 110.872C365.543 111.085 365.818 111.192 366.154 111.192C366.442 111.192 366.717 111.125 366.978 110.992C367.245 110.859 367.469 110.677 367.65 110.448L367.818 110.896C367.525 111.312 367.133 111.635 366.642 111.864C366.151 112.088 365.629 112.2 365.074 112.2C364.375 112.2 363.807 112.027 363.37 111.68C362.938 111.333 362.722 110.883 362.722 110.328ZM371.523 105.208L371.147 105.096C371.019 105.053 370.928 105.005 370.875 104.952C370.827 104.893 370.803 104.827 370.803 104.752C370.803 104.651 370.838 104.573 370.907 104.52C370.982 104.461 371.078 104.432 371.195 104.432H371.691C371.814 104.432 371.918 104.408 372.003 104.36C372.088 104.312 372.176 104.227 372.267 104.104L373.147 102.88C373.259 102.741 373.363 102.64 373.459 102.576C373.56 102.512 373.664 102.48 373.771 102.48C373.878 102.48 373.963 102.515 374.027 102.584C374.091 102.653 374.123 102.755 374.123 102.888V109.72C374.123 110.099 374.195 110.387 374.339 110.584C374.488 110.781 374.694 110.88 374.955 110.88C375.152 110.88 375.304 110.843 375.411 110.768C375.518 110.688 375.603 110.597 375.667 110.496C375.731 110.395 375.795 110.307 375.859 110.232C375.923 110.152 376.003 110.109 376.099 110.104C376.174 110.104 376.232 110.131 376.275 110.184C376.323 110.232 376.347 110.317 376.347 110.44C376.347 110.744 376.248 111.029 376.051 111.296C375.854 111.557 375.582 111.768 375.235 111.928C374.894 112.088 374.502 112.168 374.059 112.168C373.382 112.168 372.848 111.997 372.459 111.656C372.07 111.309 371.875 110.789 371.875 110.096V105.68C371.875 105.541 371.848 105.44 371.795 105.376C371.742 105.307 371.651 105.251 371.523 105.208ZM373.235 105.216V104.432H375.883C376.006 104.432 376.102 104.459 376.171 104.512C376.24 104.56 376.275 104.632 376.275 104.728C376.275 104.867 376.206 104.984 376.067 105.08C375.934 105.171 375.712 105.216 375.403 105.216H373.235ZM379.998 104.792V110.728C379.998 110.893 380.022 111.016 380.07 111.096C380.118 111.171 380.19 111.221 380.286 111.248L380.59 111.328C380.691 111.365 380.766 111.413 380.814 111.472C380.862 111.525 380.886 111.592 380.886 111.672C380.886 111.773 380.849 111.853 380.774 111.912C380.705 111.971 380.595 112 380.446 112H377.294C377.145 112 377.035 111.971 376.966 111.912C376.897 111.853 376.862 111.773 376.862 111.672C376.862 111.592 376.886 111.525 376.934 111.472C376.982 111.413 377.057 111.368 377.158 111.336L377.47 111.248C377.566 111.216 377.638 111.163 377.686 111.088C377.734 111.013 377.758 110.893 377.758 110.728V106.128C377.758 105.995 377.737 105.899 377.694 105.84C377.651 105.781 377.585 105.744 377.494 105.728L377.07 105.696C376.974 105.675 376.905 105.64 376.862 105.592C376.819 105.544 376.798 105.483 376.798 105.408C376.798 105.323 376.825 105.253 376.878 105.2C376.931 105.141 377.027 105.088 377.166 105.04L378.67 104.496C378.873 104.416 379.035 104.36 379.158 104.328C379.281 104.296 379.387 104.28 379.478 104.28C379.654 104.28 379.785 104.328 379.87 104.424C379.955 104.515 379.998 104.637 379.998 104.792ZM378.702 103.064C378.275 103.064 377.934 102.955 377.678 102.736C377.422 102.512 377.294 102.221 377.294 101.864C377.294 101.507 377.422 101.221 377.678 101.008C377.934 100.789 378.275 100.68 378.702 100.68C379.134 100.68 379.478 100.789 379.734 101.008C379.995 101.221 380.126 101.507 380.126 101.864C380.126 102.221 379.995 102.512 379.734 102.736C379.478 102.955 379.134 103.064 378.702 103.064ZM385.613 104.248C386.434 104.248 387.157 104.416 387.781 104.752C388.405 105.088 388.89 105.557 389.237 106.16C389.589 106.757 389.765 107.451 389.765 108.24C389.765 108.992 389.583 109.667 389.221 110.264C388.863 110.861 388.367 111.333 387.733 111.68C387.103 112.027 386.37 112.2 385.533 112.2C384.711 112.2 383.989 112.029 383.365 111.688C382.746 111.347 382.261 110.877 381.909 110.28C381.562 109.677 381.389 108.987 381.389 108.208C381.389 107.445 381.567 106.765 381.925 106.168C382.282 105.571 382.778 105.101 383.413 104.76C384.047 104.419 384.781 104.248 385.613 104.248ZM386.181 111.368C386.543 111.315 386.834 111.149 387.053 110.872C387.277 110.589 387.418 110.203 387.477 109.712C387.535 109.221 387.503 108.629 387.381 107.936C387.258 107.253 387.079 106.688 386.845 106.24C386.61 105.792 386.333 105.469 386.013 105.272C385.693 105.075 385.346 105.008 384.973 105.072C384.61 105.131 384.317 105.299 384.093 105.576C383.869 105.853 383.727 106.237 383.669 106.728C383.615 107.219 383.65 107.811 383.773 108.504C383.895 109.187 384.074 109.752 384.309 110.2C384.543 110.648 384.821 110.971 385.141 111.168C385.461 111.365 385.807 111.432 386.181 111.368ZM393.616 104.792V110.728C393.616 110.893 393.64 111.013 393.688 111.088C393.736 111.163 393.808 111.216 393.904 111.248L394.192 111.336C394.363 111.405 394.448 111.512 394.448 111.656C394.448 111.885 394.302 112 394.008 112H390.912C390.763 112 390.654 111.971 390.584 111.912C390.515 111.853 390.48 111.773 390.48 111.672C390.48 111.592 390.504 111.525 390.552 111.472C390.6 111.413 390.675 111.368 390.776 111.336L391.088 111.248C391.184 111.216 391.254 111.163 391.296 111.088C391.344 111.013 391.368 110.893 391.368 110.728V106.128C391.368 105.995 391.347 105.899 391.304 105.84C391.267 105.781 391.203 105.744 391.112 105.728L390.688 105.696C390.592 105.675 390.523 105.64 390.48 105.592C390.438 105.544 390.416 105.483 390.416 105.408C390.416 105.323 390.443 105.253 390.496 105.2C390.55 105.141 390.646 105.088 390.784 105.04L392.28 104.496C392.483 104.421 392.646 104.368 392.768 104.336C392.891 104.299 393.006 104.28 393.112 104.28C393.278 104.28 393.403 104.328 393.488 104.424C393.574 104.515 393.616 104.637 393.616 104.792ZM393.368 106.568L393.008 106.192L393.32 105.92C393.998 105.296 394.587 104.861 395.088 104.616C395.59 104.365 396.064 104.24 396.512 104.24C397.195 104.24 397.744 104.459 398.16 104.896C398.582 105.333 398.792 105.92 398.792 106.656V110.704C398.792 110.875 398.816 111.003 398.864 111.088C398.918 111.168 398.995 111.224 399.096 111.256L399.384 111.336C399.48 111.368 399.552 111.413 399.6 111.472C399.648 111.525 399.672 111.592 399.672 111.672C399.672 111.773 399.638 111.853 399.568 111.912C399.499 111.971 399.39 112 399.24 112H396.144C395.851 112 395.704 111.885 395.704 111.656C395.704 111.512 395.787 111.405 395.952 111.336L396.256 111.248C396.358 111.216 396.43 111.16 396.472 111.08C396.52 111 396.544 110.875 396.544 110.704V106.984C396.544 106.515 396.43 106.165 396.2 105.936C395.976 105.701 395.672 105.584 395.288 105.584C395.048 105.584 394.792 105.643 394.52 105.76C394.254 105.872 393.979 106.048 393.696 106.288L393.368 106.568ZM405.098 110.984V110.824L404.946 110.784V106.008C404.946 105.635 404.85 105.347 404.658 105.144C404.472 104.936 404.205 104.832 403.858 104.832C403.544 104.832 403.301 104.901 403.13 105.04C402.96 105.173 402.874 105.336 402.874 105.528V106.232C402.874 106.552 402.768 106.8 402.554 106.976C402.341 107.147 402.04 107.232 401.65 107.232C401.32 107.232 401.069 107.155 400.898 107C400.733 106.845 400.65 106.629 400.65 106.352C400.65 106.016 400.786 105.688 401.058 105.368C401.336 105.048 401.744 104.781 402.282 104.568C402.821 104.355 403.482 104.248 404.266 104.248C405.248 104.248 405.976 104.448 406.45 104.848C406.93 105.243 407.17 105.779 407.17 106.456V110.616C407.17 110.765 407.2 110.88 407.258 110.96C407.322 111.035 407.41 111.072 407.522 111.072C407.64 111.072 407.728 111.043 407.786 110.984C407.845 110.925 407.896 110.869 407.938 110.816C407.97 110.779 408 110.749 408.026 110.728C408.058 110.701 408.098 110.688 408.146 110.688C408.21 110.688 408.258 110.712 408.29 110.76C408.322 110.808 408.338 110.869 408.338 110.944C408.338 111.125 408.274 111.312 408.146 111.504C408.018 111.696 407.832 111.861 407.586 112C407.341 112.133 407.034 112.2 406.666 112.2C406.186 112.2 405.805 112.093 405.522 111.88C405.24 111.661 405.098 111.363 405.098 110.984ZM400.306 110.328C400.306 109.661 400.602 109.125 401.194 108.72C401.792 108.309 402.624 108.104 403.69 108.104C404.037 108.104 404.349 108.133 404.626 108.192C404.904 108.251 405.146 108.328 405.354 108.424L405.178 108.936C404.997 108.851 404.81 108.784 404.618 108.736C404.432 108.688 404.226 108.664 404.002 108.664C403.565 108.664 403.221 108.779 402.97 109.008C402.725 109.232 402.602 109.547 402.602 109.952C402.602 110.352 402.706 110.659 402.914 110.872C403.128 111.085 403.402 111.192 403.738 111.192C404.026 111.192 404.301 111.125 404.562 110.992C404.829 110.859 405.053 110.677 405.234 110.448L405.402 110.896C405.109 111.312 404.717 111.635 404.226 111.864C403.736 112.088 403.213 112.2 402.658 112.2C401.96 112.2 401.392 112.027 400.954 111.68C400.522 111.333 400.306 110.883 400.306 110.328ZM411.867 100.616V110.728C411.867 110.893 411.889 111.016 411.931 111.096C411.979 111.171 412.051 111.221 412.147 111.248L412.451 111.328C412.553 111.365 412.627 111.413 412.675 111.472C412.723 111.525 412.747 111.592 412.747 111.672C412.747 111.773 412.713 111.853 412.643 111.912C412.574 111.971 412.462 112 412.307 112H409.155C409.011 112 408.905 111.971 408.835 111.912C408.766 111.853 408.731 111.773 408.731 111.672C408.731 111.592 408.753 111.525 408.795 111.472C408.843 111.413 408.918 111.368 409.019 111.336L409.339 111.248C409.435 111.216 409.505 111.163 409.547 111.088C409.595 111.013 409.619 110.893 409.619 110.728V101.952C409.619 101.819 409.598 101.723 409.555 101.664C409.513 101.605 409.446 101.568 409.355 101.552L408.939 101.52C408.838 101.499 408.766 101.464 408.723 101.416C408.686 101.368 408.667 101.307 408.667 101.232C408.667 101.141 408.691 101.069 408.739 101.016C408.793 100.963 408.889 100.912 409.027 100.864L410.531 100.32C410.739 100.24 410.902 100.184 411.019 100.152C411.142 100.12 411.249 100.104 411.339 100.104C411.515 100.104 411.646 100.152 411.731 100.248C411.822 100.339 411.867 100.461 411.867 100.616Z" fill="black"/>
<path d="M322.344 200.568L321.888 200.672C321.76 200.709 321.661 200.765 321.592 200.84C321.523 200.915 321.488 201.011 321.488 201.128V209.64C321.488 209.843 321.547 209.987 321.664 210.072C321.781 210.157 321.96 210.2 322.2 210.2H323.528C323.827 210.2 324.083 210.16 324.296 210.08C324.515 210 324.709 209.856 324.88 209.648C325.056 209.44 325.229 209.141 325.4 208.752L325.888 207.648C325.952 207.515 326.029 207.427 326.12 207.384C326.211 207.336 326.317 207.328 326.44 207.36C326.568 207.392 326.656 207.451 326.704 207.536C326.757 207.621 326.765 207.739 326.728 207.888L326.008 210.712C325.949 210.915 325.875 211.061 325.784 211.152C325.699 211.248 325.573 211.296 325.408 211.296C325.291 211.296 325.179 211.272 325.072 211.224C324.965 211.176 324.845 211.125 324.712 211.072C324.579 211.024 324.416 211 324.224 211H318.304C318.139 211 318.016 210.968 317.936 210.904C317.861 210.835 317.824 210.744 317.824 210.632C317.824 210.435 317.936 210.301 318.16 210.232L318.616 210.128C318.749 210.091 318.848 210.035 318.912 209.96C318.981 209.885 319.016 209.789 319.016 209.672V201.128C319.016 201.011 318.981 200.915 318.912 200.84C318.848 200.765 318.749 200.709 318.616 200.672L318.16 200.568C317.936 200.499 317.824 200.365 317.824 200.168C317.824 200.051 317.861 199.96 317.936 199.896C318.016 199.832 318.139 199.8 318.304 199.8H322.2C322.365 199.8 322.485 199.832 322.56 199.896C322.64 199.96 322.68 200.051 322.68 200.168C322.68 200.365 322.568 200.499 322.344 200.568ZM334.574 206.28C334.574 206.557 334.494 206.773 334.334 206.928C334.174 207.077 333.939 207.152 333.63 207.152H328.638V206.544H331.91C332.182 206.544 332.318 206.424 332.318 206.184C332.318 205.475 332.187 204.939 331.926 204.576C331.67 204.208 331.328 204.024 330.902 204.024C330.571 204.024 330.278 204.125 330.022 204.328C329.766 204.525 329.566 204.816 329.422 205.2C329.278 205.579 329.206 206.032 329.206 206.56C329.206 207.595 329.448 208.371 329.934 208.888C330.419 209.405 331.062 209.664 331.862 209.664C332.331 209.664 332.744 209.571 333.102 209.384C333.459 209.192 333.734 208.923 333.926 208.576C334.022 208.469 334.096 208.397 334.15 208.36C334.208 208.323 334.267 208.304 334.326 208.304C334.406 208.304 334.464 208.341 334.502 208.416C334.544 208.491 334.563 208.581 334.558 208.688C334.536 209.141 334.376 209.56 334.078 209.944C333.784 210.323 333.384 210.627 332.878 210.856C332.371 211.085 331.787 211.2 331.126 211.2C330.358 211.2 329.675 211.043 329.078 210.728C328.486 210.408 328.019 209.963 327.678 209.392C327.342 208.821 327.174 208.152 327.174 207.384C327.174 206.573 327.334 205.859 327.654 205.24C327.979 204.616 328.443 204.128 329.046 203.776C329.648 203.419 330.366 203.24 331.198 203.24C331.907 203.24 332.512 203.371 333.014 203.632C333.52 203.893 333.907 204.251 334.174 204.704C334.44 205.157 334.574 205.683 334.574 206.28ZM342.918 211.248C342.481 211.248 342.105 211.195 341.79 211.088C341.475 210.987 341.217 210.885 341.014 210.784C340.817 210.677 340.67 210.624 340.574 210.624C340.473 210.624 340.387 210.656 340.318 210.72C340.249 210.784 340.182 210.859 340.118 210.944C340.059 211.029 339.993 211.104 339.918 211.168C339.849 211.232 339.763 211.264 339.662 211.264C339.555 211.264 339.465 211.229 339.39 211.16C339.321 211.096 339.27 210.987 339.238 210.832L338.694 208.216C338.673 208.099 338.686 208 338.734 207.92C338.787 207.835 338.873 207.773 338.99 207.736C339.113 207.688 339.222 207.688 339.318 207.736C339.414 207.784 339.497 207.877 339.566 208.016C339.87 208.619 340.193 209.096 340.534 209.448C340.881 209.8 341.241 210.053 341.614 210.208C341.993 210.357 342.377 210.432 342.766 210.432C343.31 210.432 343.739 210.291 344.054 210.008C344.369 209.725 344.526 209.344 344.526 208.864C344.526 208.56 344.454 208.283 344.31 208.032C344.171 207.781 343.899 207.539 343.494 207.304C343.094 207.064 342.505 206.819 341.726 206.568C340.915 206.301 340.265 205.997 339.774 205.656C339.289 205.315 338.934 204.915 338.71 204.456C338.491 203.997 338.382 203.464 338.382 202.856C338.382 202.211 338.537 201.643 338.846 201.152C339.155 200.661 339.587 200.28 340.142 200.008C340.702 199.731 341.355 199.592 342.102 199.592C342.582 199.592 342.979 199.643 343.294 199.744C343.609 199.84 343.865 199.939 344.062 200.04C344.265 200.141 344.433 200.192 344.566 200.192C344.689 200.192 344.782 200.141 344.846 200.04C344.91 199.933 344.979 199.829 345.054 199.728C345.129 199.621 345.238 199.568 345.382 199.568C345.499 199.568 345.595 199.605 345.67 199.68C345.75 199.755 345.819 199.891 345.878 200.088L346.63 202.72C346.673 202.859 346.67 202.984 346.622 203.096C346.574 203.203 346.489 203.275 346.366 203.312C346.238 203.355 346.126 203.352 346.03 203.304C345.939 203.251 345.859 203.163 345.79 203.04C345.459 202.379 345.105 201.856 344.726 201.472C344.353 201.088 343.966 200.813 343.566 200.648C343.166 200.483 342.761 200.4 342.35 200.4C341.801 200.4 341.366 200.557 341.046 200.872C340.726 201.181 340.566 201.589 340.566 202.096C340.566 202.4 340.635 202.683 340.774 202.944C340.918 203.205 341.185 203.461 341.574 203.712C341.969 203.957 342.539 204.219 343.286 204.496C344.113 204.789 344.769 205.109 345.254 205.456C345.745 205.797 346.097 206.181 346.31 206.608C346.523 207.035 346.627 207.525 346.622 208.08C346.622 208.661 346.475 209.192 346.182 209.672C345.889 210.152 345.467 210.536 344.918 210.824C344.369 211.107 343.702 211.248 342.918 211.248ZM350.653 203.792V209.728C350.653 209.893 350.677 210.016 350.725 210.096C350.773 210.171 350.845 210.221 350.941 210.248L351.245 210.328C351.346 210.365 351.421 210.413 351.469 210.472C351.517 210.525 351.541 210.592 351.541 210.672C351.541 210.773 351.503 210.853 351.429 210.912C351.359 210.971 351.25 211 351.101 211H347.948C347.799 211 347.69 210.971 347.62 210.912C347.551 210.853 347.516 210.773 347.516 210.672C347.516 210.592 347.54 210.525 347.588 210.472C347.636 210.413 347.711 210.368 347.812 210.336L348.125 210.248C348.22 210.216 348.292 210.163 348.34 210.088C348.389 210.013 348.413 209.893 348.413 209.728V205.128C348.413 204.995 348.391 204.899 348.349 204.84C348.306 204.781 348.239 204.744 348.148 204.728L347.724 204.696C347.628 204.675 347.559 204.64 347.516 204.592C347.474 204.544 347.452 204.483 347.452 204.408C347.452 204.323 347.479 204.253 347.532 204.2C347.586 204.141 347.682 204.088 347.82 204.04L349.325 203.496C349.527 203.416 349.69 203.36 349.812 203.328C349.935 203.296 350.042 203.28 350.133 203.28C350.309 203.28 350.439 203.328 350.525 203.424C350.61 203.515 350.653 203.637 350.653 203.792ZM349.357 202.064C348.93 202.064 348.589 201.955 348.332 201.736C348.076 201.512 347.948 201.221 347.948 200.864C347.948 200.507 348.076 200.221 348.332 200.008C348.589 199.789 348.93 199.68 349.357 199.68C349.789 199.68 350.133 199.789 350.388 200.008C350.65 200.221 350.781 200.507 350.781 200.864C350.781 201.221 350.65 201.512 350.388 201.736C350.133 201.955 349.789 202.064 349.357 202.064ZM359.435 206.28C359.435 206.557 359.355 206.773 359.195 206.928C359.035 207.077 358.8 207.152 358.491 207.152H353.499V206.544H356.771C357.043 206.544 357.179 206.424 357.179 206.184C357.179 205.475 357.048 204.939 356.787 204.576C356.531 204.208 356.19 204.024 355.763 204.024C355.432 204.024 355.139 204.125 354.883 204.328C354.627 204.525 354.427 204.816 354.283 205.2C354.139 205.579 354.067 206.032 354.067 206.56C354.067 207.595 354.31 208.371 354.795 208.888C355.28 209.405 355.923 209.664 356.723 209.664C357.192 209.664 357.606 209.571 357.963 209.384C358.32 209.192 358.595 208.923 358.787 208.576C358.883 208.469 358.958 208.397 359.011 208.36C359.07 208.323 359.128 208.304 359.187 208.304C359.267 208.304 359.326 208.341 359.363 208.416C359.406 208.491 359.424 208.581 359.419 208.688C359.398 209.141 359.238 209.56 358.939 209.944C358.646 210.323 358.246 210.627 357.739 210.856C357.232 211.085 356.648 211.2 355.987 211.2C355.219 211.2 354.536 211.043 353.939 210.728C353.347 210.408 352.88 209.963 352.539 209.392C352.203 208.821 352.035 208.152 352.035 207.384C352.035 206.573 352.195 205.859 352.515 205.24C352.84 204.616 353.304 204.128 353.907 203.776C354.51 203.419 355.227 203.24 356.059 203.24C356.768 203.24 357.374 203.371 357.875 203.632C358.382 203.893 358.768 204.251 359.035 204.704C359.302 205.157 359.435 205.683 359.435 206.28ZM355.939 200.632L356.691 202.192C356.734 202.267 356.76 202.339 356.771 202.408C356.787 202.477 356.766 202.541 356.707 202.6C356.654 202.648 356.584 202.672 356.499 202.672C356.414 202.672 356.334 202.653 356.259 202.616L354.835 201.624C354.552 201.464 354.331 201.299 354.171 201.128C354.016 200.952 353.923 200.747 353.891 200.512C353.864 200.304 353.918 200.107 354.051 199.92C354.184 199.728 354.384 199.619 354.651 199.592C354.955 199.549 355.206 199.627 355.403 199.824C355.6 200.016 355.779 200.285 355.939 200.632ZM367.327 205.448C367.327 205.747 367.22 206 367.007 206.208C366.799 206.416 366.519 206.52 366.167 206.52C365.825 206.52 365.564 206.427 365.383 206.24C365.201 206.048 365.111 205.8 365.111 205.496V205.232C365.111 204.869 364.999 204.579 364.775 204.36C364.556 204.136 364.257 204.024 363.879 204.024C363.543 204.024 363.241 204.125 362.975 204.328C362.708 204.531 362.497 204.821 362.343 205.2C362.188 205.579 362.111 206.032 362.111 206.56C362.111 207.232 362.225 207.797 362.455 208.256C362.684 208.715 362.996 209.064 363.391 209.304C363.791 209.539 364.244 209.656 364.751 209.656C365.204 209.656 365.601 209.565 365.943 209.384C366.284 209.197 366.551 208.933 366.743 208.592C366.839 208.491 366.913 208.421 366.967 208.384C367.025 208.347 367.087 208.328 367.151 208.328C367.231 208.328 367.289 208.365 367.327 208.44C367.364 208.515 367.38 208.603 367.375 208.704C367.348 209.157 367.188 209.573 366.895 209.952C366.607 210.331 366.215 210.635 365.719 210.864C365.228 211.088 364.663 211.2 364.023 211.2C363.255 211.2 362.575 211.043 361.983 210.728C361.391 210.408 360.924 209.963 360.583 209.392C360.247 208.821 360.079 208.152 360.079 207.384C360.079 206.6 360.247 205.896 360.583 205.272C360.919 204.648 361.393 204.155 362.007 203.792C362.62 203.424 363.343 203.24 364.175 203.24C364.825 203.24 365.385 203.341 365.855 203.544C366.329 203.747 366.692 204.016 366.943 204.352C367.199 204.683 367.327 205.048 367.327 205.448ZM371.158 199.616V209.728C371.158 209.893 371.179 210.016 371.222 210.096C371.27 210.171 371.342 210.221 371.438 210.248L371.742 210.328C371.843 210.365 371.918 210.413 371.966 210.472C372.014 210.525 372.038 210.592 372.038 210.672C372.038 210.773 372.003 210.853 371.934 210.912C371.865 210.971 371.753 211 371.598 211H368.446C368.302 211 368.195 210.971 368.126 210.912C368.057 210.853 368.022 210.773 368.022 210.672C368.022 210.592 368.043 210.525 368.086 210.472C368.134 210.413 368.209 210.368 368.31 210.336L368.63 210.248C368.726 210.216 368.795 210.163 368.838 210.088C368.886 210.013 368.91 209.893 368.91 209.728V200.952C368.91 200.819 368.889 200.723 368.846 200.664C368.803 200.605 368.737 200.568 368.646 200.552L368.23 200.52C368.129 200.499 368.057 200.464 368.014 200.416C367.977 200.368 367.958 200.307 367.958 200.232C367.958 200.141 367.982 200.069 368.03 200.016C368.083 199.963 368.179 199.912 368.318 199.864L369.822 199.32C370.03 199.24 370.193 199.184 370.31 199.152C370.433 199.12 370.539 199.104 370.63 199.104C370.806 199.104 370.937 199.152 371.022 199.248C371.113 199.339 371.158 199.461 371.158 199.616ZM379.964 206.28C379.964 206.557 379.884 206.773 379.724 206.928C379.564 207.077 379.329 207.152 379.02 207.152H374.028V206.544H377.3C377.572 206.544 377.708 206.424 377.708 206.184C377.708 205.475 377.577 204.939 377.316 204.576C377.06 204.208 376.718 204.024 376.292 204.024C375.961 204.024 375.668 204.125 375.412 204.328C375.156 204.525 374.956 204.816 374.812 205.2C374.668 205.579 374.596 206.032 374.596 206.56C374.596 207.595 374.838 208.371 375.324 208.888C375.809 209.405 376.452 209.664 377.252 209.664C377.721 209.664 378.134 209.571 378.492 209.384C378.849 209.192 379.124 208.923 379.316 208.576C379.412 208.469 379.486 208.397 379.54 208.36C379.598 208.323 379.657 208.304 379.716 208.304C379.796 208.304 379.854 208.341 379.892 208.416C379.934 208.491 379.953 208.581 379.948 208.688C379.926 209.141 379.766 209.56 379.468 209.944C379.174 210.323 378.774 210.627 378.268 210.856C377.761 211.085 377.177 211.2 376.516 211.2C375.748 211.2 375.065 211.043 374.468 210.728C373.876 210.408 373.409 209.963 373.068 209.392C372.732 208.821 372.564 208.152 372.564 207.384C372.564 206.573 372.724 205.859 373.044 205.24C373.369 204.616 373.833 204.128 374.436 203.776C375.038 203.419 375.756 203.24 376.588 203.24C377.297 203.24 377.902 203.371 378.404 203.632C378.91 203.893 379.297 204.251 379.564 204.704C379.83 205.157 379.964 205.683 379.964 206.28ZM389.42 209.664L389.348 209.624V200.952C389.348 200.819 389.327 200.723 389.284 200.664C389.247 200.605 389.18 200.568 389.084 200.552L388.668 200.52C388.572 200.499 388.503 200.464 388.46 200.416C388.417 200.368 388.396 200.307 388.396 200.232C388.396 200.141 388.42 200.069 388.468 200.016C388.521 199.963 388.62 199.912 388.764 199.864L390.26 199.32C390.457 199.245 390.617 199.192 390.74 199.16C390.863 199.123 390.98 199.104 391.092 199.104C391.257 199.104 391.383 199.152 391.468 199.248C391.553 199.339 391.596 199.461 391.596 199.616V209.728C391.596 209.893 391.617 210.016 391.66 210.096C391.708 210.171 391.78 210.221 391.876 210.248L392.18 210.328C392.281 210.365 392.356 210.413 392.404 210.472C392.452 210.525 392.476 210.592 392.476 210.672C392.476 210.773 392.441 210.853 392.372 210.912C392.303 210.971 392.193 211 392.044 211H390.38C390.108 211 389.879 210.912 389.692 210.736C389.511 210.56 389.42 210.328 389.42 210.04V209.664ZM383.588 207.424C383.588 206.571 383.759 205.832 384.1 205.208C384.441 204.584 384.9 204.101 385.476 203.76C386.057 203.413 386.708 203.24 387.428 203.24C388.063 203.24 388.623 203.389 389.108 203.688C389.599 203.987 390.001 204.419 390.316 204.984L389.78 205.44C389.519 205.003 389.223 204.677 388.892 204.464C388.567 204.251 388.215 204.144 387.836 204.144C387.473 204.144 387.148 204.253 386.86 204.472C386.572 204.685 386.345 205.016 386.18 205.464C386.015 205.907 385.932 206.48 385.932 207.184C385.932 207.835 386.012 208.373 386.172 208.8C386.332 209.227 386.551 209.547 386.828 209.76C387.111 209.968 387.431 210.072 387.788 210.072C388.172 210.072 388.532 209.957 388.868 209.728C389.204 209.493 389.516 209.136 389.804 208.656L390.156 209.112C389.735 209.768 389.249 210.28 388.7 210.648C388.151 211.016 387.543 211.2 386.876 211.2C386.247 211.2 385.684 211.04 385.188 210.72C384.692 210.395 384.3 209.949 384.012 209.384C383.729 208.813 383.588 208.16 383.588 207.424ZM393.91 201.224C393.472 201.224 393.142 201.12 392.918 200.912C392.694 200.699 392.582 200.424 392.582 200.088C392.582 199.709 392.718 199.403 392.99 199.168C393.267 198.928 393.598 198.808 393.982 198.808C394.44 198.808 394.814 198.963 395.102 199.272C395.395 199.581 395.542 200.053 395.542 200.688C395.542 201.264 395.435 201.771 395.222 202.208C395.008 202.64 394.726 202.992 394.374 203.264C394.027 203.536 393.651 203.717 393.246 203.808C393.08 203.845 392.952 203.848 392.862 203.816C392.771 203.779 392.715 203.712 392.694 203.616C392.672 203.531 392.691 203.448 392.75 203.368C392.808 203.288 392.926 203.216 393.102 203.152C393.411 203.035 393.67 202.888 393.878 202.712C394.091 202.531 394.251 202.339 394.358 202.136C394.464 201.933 394.518 201.741 394.518 201.56C394.518 201.453 394.488 201.371 394.43 201.312C394.376 201.253 394.272 201.224 394.118 201.224H393.91ZM400.548 203.248C401.369 203.248 402.092 203.416 402.716 203.752C403.34 204.088 403.825 204.557 404.172 205.16C404.524 205.757 404.7 206.451 404.7 207.24C404.7 207.992 404.518 208.667 404.156 209.264C403.798 209.861 403.302 210.333 402.668 210.68C402.038 211.027 401.305 211.2 400.468 211.2C399.646 211.2 398.924 211.029 398.3 210.688C397.681 210.347 397.196 209.877 396.844 209.28C396.497 208.677 396.324 207.987 396.324 207.208C396.324 206.445 396.502 205.765 396.86 205.168C397.217 204.571 397.713 204.101 398.348 203.76C398.982 203.419 399.716 203.248 400.548 203.248ZM401.116 210.368C401.478 210.315 401.769 210.149 401.988 209.872C402.212 209.589 402.353 209.203 402.412 208.712C402.47 208.221 402.438 207.629 402.316 206.936C402.193 206.253 402.014 205.688 401.78 205.24C401.545 204.792 401.268 204.469 400.948 204.272C400.628 204.075 400.281 204.008 399.908 204.072C399.545 204.131 399.252 204.299 399.028 204.576C398.804 204.853 398.662 205.237 398.604 205.728C398.55 206.219 398.585 206.811 398.708 207.504C398.83 208.187 399.009 208.752 399.244 209.2C399.478 209.648 399.756 209.971 400.076 210.168C400.396 210.365 400.742 210.432 401.116 210.368ZM408.271 206.768C408.271 205.989 408.381 205.339 408.599 204.816C408.818 204.293 409.106 203.901 409.463 203.64C409.821 203.373 410.202 203.24 410.607 203.24C411.119 203.24 411.511 203.387 411.783 203.68C412.061 203.968 412.199 204.381 412.199 204.92C412.199 205.395 412.101 205.749 411.903 205.984C411.706 206.219 411.45 206.336 411.135 206.336C410.821 206.336 410.578 206.251 410.407 206.08C410.242 205.909 410.159 205.675 410.159 205.376V205.08C410.159 204.915 410.122 204.792 410.047 204.712C409.973 204.627 409.85 204.584 409.679 204.584C409.493 204.584 409.311 204.661 409.135 204.816C408.965 204.965 408.823 205.197 408.711 205.512C408.605 205.827 408.551 206.232 408.551 206.728L408.271 206.768ZM408.423 203.792L408.551 205.616V209.728C408.551 209.877 408.581 209.989 408.639 210.064C408.698 210.133 408.807 210.179 408.967 210.2L409.655 210.312C409.783 210.333 409.877 210.373 409.935 210.432C409.994 210.485 410.023 210.563 410.023 210.664C410.023 210.771 409.986 210.853 409.911 210.912C409.837 210.971 409.727 211 409.583 211H405.847C405.698 211 405.589 210.971 405.519 210.912C405.45 210.853 405.415 210.773 405.415 210.672C405.415 210.592 405.439 210.525 405.487 210.472C405.535 210.413 405.61 210.368 405.711 210.336L406.023 210.248C406.119 210.221 406.191 210.171 406.239 210.096C406.287 210.016 406.311 209.893 406.311 209.728V205.144C406.311 205.011 406.29 204.915 406.247 204.856C406.205 204.797 406.138 204.76 406.047 204.744L405.623 204.712C405.527 204.691 405.458 204.656 405.415 204.608C405.373 204.56 405.351 204.499 405.351 204.424C405.351 204.339 405.378 204.269 405.431 204.216C405.485 204.157 405.581 204.104 405.719 204.056L407.191 203.52C407.447 203.424 407.637 203.363 407.759 203.336C407.882 203.304 407.978 203.288 408.047 203.288C408.159 203.288 408.245 203.328 408.303 203.408C408.362 203.483 408.402 203.611 408.423 203.792ZM320.512 225.568L320.152 225.192L320.464 224.92C321.141 224.296 321.731 223.861 322.232 223.616C322.733 223.365 323.208 223.24 323.656 223.24C324.339 223.24 324.888 223.459 325.304 223.896C325.725 224.333 325.936 224.92 325.936 225.656V229.704C325.936 229.875 325.96 230.003 326.008 230.088C326.061 230.168 326.139 230.224 326.24 230.256L326.528 230.336C326.624 230.368 326.696 230.413 326.744 230.472C326.792 230.525 326.816 230.592 326.816 230.672C326.816 230.773 326.781 230.853 326.712 230.912C326.643 230.971 326.533 231 326.384 231H323.288C322.995 231 322.848 230.885 322.848 230.656C322.848 230.512 322.931 230.405 323.096 230.336L323.4 230.248C323.501 230.216 323.573 230.16 323.616 230.08C323.664 230 323.688 229.875 323.688 229.704V225.984C323.688 225.515 323.573 225.165 323.344 224.936C323.12 224.701 322.816 224.584 322.432 224.584C322.192 224.584 321.936 224.643 321.664 224.76C321.397 224.872 321.123 225.048 320.84 225.288L320.512 225.568ZM320.76 219.616V229.728C320.76 229.893 320.784 230.013 320.832 230.088C320.88 230.163 320.952 230.216 321.048 230.248L321.336 230.336C321.507 230.405 321.592 230.512 321.592 230.656C321.592 230.885 321.445 231 321.152 231H318.056C317.907 231 317.797 230.971 317.728 230.912C317.659 230.853 317.624 230.773 317.624 230.672C317.624 230.592 317.648 230.525 317.696 230.472C317.744 230.413 317.819 230.368 317.92 230.336L318.232 230.248C318.328 230.216 318.397 230.163 318.44 230.088C318.488 230.013 318.512 229.893 318.512 229.728V220.952C318.512 220.819 318.491 220.723 318.448 220.664C318.411 220.605 318.347 220.568 318.256 220.552L317.832 220.52C317.736 220.499 317.667 220.464 317.624 220.416C317.581 220.368 317.56 220.307 317.56 220.232C317.56 220.141 317.587 220.069 317.64 220.016C317.693 219.963 317.789 219.912 317.928 219.864L319.424 219.32C319.627 219.245 319.789 219.192 319.912 219.16C320.035 219.123 320.149 219.104 320.256 219.104C320.421 219.104 320.547 219.152 320.632 219.248C320.717 219.339 320.76 219.461 320.76 219.616ZM331.562 223.248C332.383 223.248 333.106 223.416 333.73 223.752C334.354 224.088 334.839 224.557 335.186 225.16C335.538 225.757 335.714 226.451 335.714 227.24C335.714 227.992 335.533 228.667 335.17 229.264C334.813 229.861 334.317 230.333 333.682 230.68C333.053 231.027 332.319 231.2 331.482 231.2C330.661 231.2 329.938 231.029 329.314 230.688C328.695 230.347 328.21 229.877 327.858 229.28C327.511 228.677 327.338 227.987 327.338 227.208C327.338 226.445 327.517 225.765 327.874 225.168C328.231 224.571 328.727 224.101 329.362 223.76C329.997 223.419 330.73 223.248 331.562 223.248ZM332.13 230.368C332.493 230.315 332.783 230.149 333.002 229.872C333.226 229.589 333.367 229.203 333.426 228.712C333.485 228.221 333.453 227.629 333.33 226.936C333.207 226.253 333.029 225.688 332.794 225.24C332.559 224.792 332.282 224.469 331.962 224.272C331.642 224.075 331.295 224.008 330.922 224.072C330.559 224.131 330.266 224.299 330.042 224.576C329.818 224.853 329.677 225.237 329.618 225.728C329.565 226.219 329.599 226.811 329.722 227.504C329.845 228.187 330.023 228.752 330.258 229.2C330.493 229.648 330.77 229.971 331.09 230.168C331.41 230.365 331.757 230.432 332.13 230.368ZM339.574 219.616V229.728C339.574 229.893 339.595 230.016 339.638 230.096C339.686 230.171 339.758 230.221 339.854 230.248L340.158 230.328C340.259 230.365 340.334 230.413 340.382 230.472C340.43 230.525 340.454 230.592 340.454 230.672C340.454 230.773 340.419 230.853 340.35 230.912C340.28 230.971 340.168 231 340.014 231H336.862C336.718 231 336.611 230.971 336.542 230.912C336.472 230.853 336.438 230.773 336.438 230.672C336.438 230.592 336.459 230.525 336.502 230.472C336.55 230.413 336.624 230.368 336.726 230.336L337.046 230.248C337.142 230.216 337.211 230.163 337.254 230.088C337.302 230.013 337.326 229.893 337.326 229.728V220.952C337.326 220.819 337.304 220.723 337.262 220.664C337.219 220.605 337.152 220.568 337.062 220.552L336.646 220.52C336.544 220.499 336.472 220.464 336.43 220.416C336.392 220.368 336.374 220.307 336.374 220.232C336.374 220.141 336.398 220.069 336.446 220.016C336.499 219.963 336.595 219.912 336.734 219.864L338.238 219.32C338.446 219.24 338.608 219.184 338.726 219.152C338.848 219.12 338.955 219.104 339.046 219.104C339.222 219.104 339.352 219.152 339.438 219.248C339.528 219.339 339.574 219.461 339.574 219.616ZM344.359 219.616V229.728C344.359 229.893 344.381 230.016 344.423 230.096C344.471 230.171 344.543 230.221 344.639 230.248L344.943 230.328C345.045 230.365 345.119 230.413 345.167 230.472C345.215 230.525 345.239 230.592 345.239 230.672C345.239 230.773 345.205 230.853 345.135 230.912C345.066 230.971 344.954 231 344.799 231H341.647C341.503 231 341.397 230.971 341.327 230.912C341.258 230.853 341.223 230.773 341.223 230.672C341.223 230.592 341.245 230.525 341.287 230.472C341.335 230.413 341.41 230.368 341.511 230.336L341.831 230.248C341.927 230.216 341.997 230.163 342.039 230.088C342.087 230.013 342.111 229.893 342.111 229.728V220.952C342.111 220.819 342.09 220.723 342.047 220.664C342.005 220.605 341.938 220.568 341.847 220.552L341.431 220.52C341.33 220.499 341.258 220.464 341.215 220.416C341.178 220.368 341.159 220.307 341.159 220.232C341.159 220.141 341.183 220.069 341.231 220.016C341.285 219.963 341.381 219.912 341.519 219.864L343.023 219.32C343.231 219.24 343.394 219.184 343.511 219.152C343.634 219.12 343.741 219.104 343.831 219.104C344.007 219.104 344.138 219.152 344.223 219.248C344.314 219.339 344.359 219.461 344.359 219.616ZM350.677 229.984V229.824L350.525 229.784V225.008C350.525 224.635 350.429 224.347 350.237 224.144C350.05 223.936 349.784 223.832 349.437 223.832C349.122 223.832 348.88 223.901 348.709 224.04C348.538 224.173 348.453 224.336 348.453 224.528V225.232C348.453 225.552 348.346 225.8 348.133 225.976C347.92 226.147 347.618 226.232 347.229 226.232C346.898 226.232 346.648 226.155 346.477 226C346.312 225.845 346.229 225.629 346.229 225.352C346.229 225.016 346.365 224.688 346.637 224.368C346.914 224.048 347.322 223.781 347.861 223.568C348.4 223.355 349.061 223.248 349.845 223.248C350.826 223.248 351.554 223.448 352.029 223.848C352.509 224.243 352.749 224.779 352.749 225.456V229.616C352.749 229.765 352.778 229.88 352.837 229.96C352.901 230.035 352.989 230.072 353.101 230.072C353.218 230.072 353.306 230.043 353.365 229.984C353.424 229.925 353.474 229.869 353.517 229.816C353.549 229.779 353.578 229.749 353.605 229.728C353.637 229.701 353.677 229.688 353.725 229.688C353.789 229.688 353.837 229.712 353.869 229.76C353.901 229.808 353.917 229.869 353.917 229.944C353.917 230.125 353.853 230.312 353.725 230.504C353.597 230.696 353.41 230.861 353.165 231C352.92 231.133 352.613 231.2 352.245 231.2C351.765 231.2 351.384 231.093 351.101 230.88C350.818 230.661 350.677 230.363 350.677 229.984ZM345.885 229.328C345.885 228.661 346.181 228.125 346.773 227.72C347.37 227.309 348.202 227.104 349.269 227.104C349.616 227.104 349.928 227.133 350.205 227.192C350.482 227.251 350.725 227.328 350.933 227.424L350.757 227.936C350.576 227.851 350.389 227.784 350.197 227.736C350.01 227.688 349.805 227.664 349.581 227.664C349.144 227.664 348.8 227.779 348.549 228.008C348.304 228.232 348.181 228.547 348.181 228.952C348.181 229.352 348.285 229.659 348.493 229.872C348.706 230.085 348.981 230.192 349.317 230.192C349.605 230.192 349.88 230.125 350.141 229.992C350.408 229.859 350.632 229.677 350.813 229.448L350.981 229.896C350.688 230.312 350.296 230.635 349.805 230.864C349.314 231.088 348.792 231.2 348.237 231.2C347.538 231.2 346.97 231.027 346.533 230.68C346.101 230.333 345.885 229.883 345.885 229.328ZM357.438 223.792V229.728C357.438 229.893 357.462 230.013 357.51 230.088C357.558 230.163 357.63 230.216 357.726 230.248L358.014 230.336C358.185 230.405 358.27 230.512 358.27 230.656C358.27 230.885 358.123 231 357.83 231H354.734C354.585 231 354.475 230.971 354.406 230.912C354.337 230.853 354.302 230.773 354.302 230.672C354.302 230.592 354.326 230.525 354.374 230.472C354.422 230.413 354.497 230.368 354.598 230.336L354.91 230.248C355.006 230.216 355.075 230.163 355.118 230.088C355.166 230.013 355.19 229.893 355.19 229.728V225.128C355.19 224.995 355.169 224.899 355.126 224.84C355.089 224.781 355.025 224.744 354.934 224.728L354.51 224.696C354.414 224.675 354.345 224.64 354.302 224.592C354.259 224.544 354.238 224.483 354.238 224.408C354.238 224.323 354.265 224.253 354.318 224.2C354.371 224.141 354.467 224.088 354.606 224.04L356.102 223.496C356.305 223.421 356.467 223.368 356.59 223.336C356.713 223.299 356.827 223.28 356.934 223.28C357.099 223.28 357.225 223.328 357.31 223.424C357.395 223.515 357.438 223.637 357.438 223.792ZM357.19 225.568L356.83 225.192L357.142 224.92C357.819 224.296 358.409 223.861 358.91 223.616C359.411 223.365 359.886 223.24 360.334 223.24C361.017 223.24 361.566 223.459 361.982 223.896C362.403 224.333 362.614 224.92 362.614 225.656V229.704C362.614 229.875 362.638 230.003 362.686 230.088C362.739 230.168 362.817 230.224 362.918 230.256L363.206 230.336C363.302 230.368 363.374 230.413 363.422 230.472C363.47 230.525 363.494 230.592 363.494 230.672C363.494 230.773 363.459 230.853 363.39 230.912C363.321 230.971 363.211 231 363.062 231H359.966C359.673 231 359.526 230.885 359.526 230.656C359.526 230.512 359.609 230.405 359.774 230.336L360.078 230.248C360.179 230.216 360.251 230.16 360.294 230.08C360.342 230 360.366 229.875 360.366 229.704V225.984C360.366 225.515 360.251 225.165 360.022 224.936C359.798 224.701 359.494 224.584 359.11 224.584C358.87 224.584 358.614 224.643 358.342 224.76C358.075 224.872 357.801 225.048 357.518 225.288L357.19 225.568ZM369.84 229.664L369.768 229.624V220.952C369.768 220.819 369.747 220.723 369.704 220.664C369.667 220.605 369.6 220.568 369.504 220.552L369.088 220.52C368.992 220.499 368.923 220.464 368.88 220.416C368.837 220.368 368.816 220.307 368.816 220.232C368.816 220.141 368.84 220.069 368.888 220.016C368.941 219.963 369.04 219.912 369.184 219.864L370.68 219.32C370.877 219.245 371.037 219.192 371.16 219.16C371.283 219.123 371.4 219.104 371.512 219.104C371.677 219.104 371.803 219.152 371.888 219.248C371.973 219.339 372.016 219.461 372.016 219.616V229.728C372.016 229.893 372.037 230.016 372.08 230.096C372.128 230.171 372.2 230.221 372.296 230.248L372.6 230.328C372.701 230.365 372.776 230.413 372.824 230.472C372.872 230.525 372.896 230.592 372.896 230.672C372.896 230.773 372.861 230.853 372.792 230.912C372.723 230.971 372.613 231 372.464 231H370.8C370.528 231 370.299 230.912 370.112 230.736C369.931 230.56 369.84 230.328 369.84 230.04V229.664ZM364.008 227.424C364.008 226.571 364.179 225.832 364.52 225.208C364.861 224.584 365.32 224.101 365.896 223.76C366.477 223.413 367.128 223.24 367.848 223.24C368.483 223.24 369.043 223.389 369.528 223.688C370.019 223.987 370.421 224.419 370.736 224.984L370.2 225.44C369.939 225.003 369.643 224.677 369.312 224.464C368.987 224.251 368.635 224.144 368.256 224.144C367.893 224.144 367.568 224.253 367.28 224.472C366.992 224.685 366.765 225.016 366.6 225.464C366.435 225.907 366.352 226.48 366.352 227.184C366.352 227.835 366.432 228.373 366.592 228.8C366.752 229.227 366.971 229.547 367.248 229.76C367.531 229.968 367.851 230.072 368.208 230.072C368.592 230.072 368.952 229.957 369.288 229.728C369.624 229.493 369.936 229.136 370.224 228.656L370.576 229.112C370.155 229.768 369.669 230.28 369.12 230.648C368.571 231.016 367.963 231.2 367.296 231.2C366.667 231.2 366.104 231.04 365.608 230.72C365.112 230.395 364.72 229.949 364.432 229.384C364.149 228.813 364.008 228.16 364.008 227.424ZM378.378 229.984V229.824L378.226 229.784V225.008C378.226 224.635 378.13 224.347 377.938 224.144C377.751 223.936 377.484 223.832 377.138 223.832C376.823 223.832 376.58 223.901 376.41 224.04C376.239 224.173 376.154 224.336 376.154 224.528V225.232C376.154 225.552 376.047 225.8 375.834 225.976C375.62 226.147 375.319 226.232 374.93 226.232C374.599 226.232 374.348 226.155 374.178 226C374.012 225.845 373.93 225.629 373.93 225.352C373.93 225.016 374.066 224.688 374.338 224.368C374.615 224.048 375.023 223.781 375.562 223.568C376.1 223.355 376.762 223.248 377.546 223.248C378.527 223.248 379.255 223.448 379.73 223.848C380.21 224.243 380.45 224.779 380.45 225.456V229.616C380.45 229.765 380.479 229.88 380.538 229.96C380.602 230.035 380.69 230.072 380.802 230.072C380.919 230.072 381.007 230.043 381.066 229.984C381.124 229.925 381.175 229.869 381.218 229.816C381.25 229.779 381.279 229.749 381.306 229.728C381.338 229.701 381.378 229.688 381.426 229.688C381.49 229.688 381.538 229.712 381.57 229.76C381.602 229.808 381.618 229.869 381.618 229.944C381.618 230.125 381.554 230.312 381.426 230.504C381.298 230.696 381.111 230.861 380.866 231C380.62 231.133 380.314 231.2 379.946 231.2C379.466 231.2 379.084 231.093 378.802 230.88C378.519 230.661 378.378 230.363 378.378 229.984ZM373.586 229.328C373.586 228.661 373.882 228.125 374.474 227.72C375.071 227.309 375.903 227.104 376.97 227.104C377.316 227.104 377.628 227.133 377.906 227.192C378.183 227.251 378.426 227.328 378.634 227.424L378.458 227.936C378.276 227.851 378.09 227.784 377.898 227.736C377.711 227.688 377.506 227.664 377.282 227.664C376.844 227.664 376.5 227.779 376.25 228.008C376.004 228.232 375.882 228.547 375.882 228.952C375.882 229.352 375.986 229.659 376.194 229.872C376.407 230.085 376.682 230.192 377.018 230.192C377.306 230.192 377.58 230.125 377.842 229.992C378.108 229.859 378.332 229.677 378.514 229.448L378.682 229.896C378.388 230.312 377.996 230.635 377.506 230.864C377.015 231.088 376.492 231.2 375.938 231.2C375.239 231.2 374.671 231.027 374.234 230.68C373.802 230.333 373.586 229.883 373.586 229.328ZM385.139 223.792V229.728C385.139 229.893 385.163 230.016 385.211 230.096C385.259 230.171 385.331 230.221 385.427 230.248L385.731 230.328C385.832 230.365 385.907 230.413 385.955 230.472C386.003 230.525 386.027 230.592 386.027 230.672C386.027 230.773 385.989 230.853 385.915 230.912C385.845 230.971 385.736 231 385.587 231H382.435C382.285 231 382.176 230.971 382.107 230.912C382.037 230.853 382.003 230.773 382.003 230.672C382.003 230.592 382.027 230.525 382.075 230.472C382.123 230.413 382.197 230.368 382.299 230.336L382.611 230.248C382.707 230.216 382.779 230.163 382.827 230.088C382.875 230.013 382.899 229.893 382.899 229.728V225.128C382.899 224.995 382.877 224.899 382.835 224.84C382.792 224.781 382.725 224.744 382.635 224.728L382.211 224.696C382.115 224.675 382.045 224.64 382.003 224.592C381.96 224.544 381.939 224.483 381.939 224.408C381.939 224.323 381.965 224.253 382.019 224.2C382.072 224.141 382.168 224.088 382.307 224.04L383.811 223.496C384.013 223.416 384.176 223.36 384.299 223.328C384.421 223.296 384.528 223.28 384.619 223.28C384.795 223.28 384.925 223.328 385.011 223.424C385.096 223.515 385.139 223.637 385.139 223.792ZM383.843 222.064C383.416 222.064 383.075 221.955 382.819 221.736C382.563 221.512 382.435 221.221 382.435 220.864C382.435 220.507 382.563 220.221 382.819 220.008C383.075 219.789 383.416 219.68 383.843 219.68C384.275 219.68 384.619 219.789 384.875 220.008C385.136 220.221 385.267 220.507 385.267 220.864C385.267 221.221 385.136 221.512 384.875 221.736C384.619 221.955 384.275 222.064 383.843 222.064ZM389.713 223.96C389.345 223.96 389.057 224.053 388.849 224.24C388.647 224.421 388.545 224.653 388.545 224.936C388.545 225.112 388.583 225.272 388.657 225.416C388.737 225.56 388.887 225.691 389.105 225.808C389.324 225.925 389.644 226.035 390.065 226.136C390.887 226.301 391.521 226.512 391.969 226.768C392.417 227.024 392.729 227.32 392.905 227.656C393.081 227.992 393.169 228.365 393.169 228.776C393.169 229.512 392.905 230.101 392.377 230.544C391.855 230.981 391.097 231.2 390.105 231.2C389.753 231.2 389.465 231.168 389.241 231.104C389.017 231.045 388.833 230.987 388.689 230.928C388.545 230.864 388.417 230.832 388.305 230.832C388.193 230.832 388.103 230.864 388.033 230.928C387.964 230.987 387.895 231.045 387.825 231.104C387.761 231.168 387.676 231.2 387.569 231.2C387.479 231.2 387.409 231.173 387.361 231.12C387.313 231.067 387.265 230.971 387.217 230.832L386.689 229.216C386.631 229.029 386.612 228.877 386.633 228.76C386.66 228.643 386.735 228.56 386.857 228.512C386.975 228.469 387.079 228.472 387.169 228.52C387.26 228.563 387.345 228.645 387.425 228.768C387.665 229.184 387.919 229.517 388.185 229.768C388.457 230.019 388.743 230.2 389.041 230.312C389.345 230.424 389.657 230.48 389.977 230.48C390.436 230.48 390.777 230.387 391.001 230.2C391.231 230.013 391.345 229.763 391.345 229.448C391.345 229.261 391.297 229.093 391.201 228.944C391.105 228.795 390.927 228.656 390.665 228.528C390.404 228.4 390.025 228.28 389.529 228.168C388.841 228.019 388.292 227.827 387.881 227.592C387.476 227.352 387.185 227.064 387.009 226.728C386.833 226.392 386.745 226.003 386.745 225.56C386.745 225.101 386.863 224.699 387.097 224.352C387.337 224 387.671 223.728 388.097 223.536C388.524 223.339 389.017 223.24 389.577 223.24C389.935 223.24 390.223 223.275 390.441 223.344C390.665 223.408 390.847 223.475 390.985 223.544C391.129 223.608 391.26 223.64 391.377 223.64C391.5 223.64 391.599 223.608 391.673 223.544C391.753 223.475 391.828 223.408 391.897 223.344C391.967 223.275 392.052 223.24 392.153 223.24C392.233 223.24 392.3 223.269 392.353 223.328C392.407 223.387 392.447 223.485 392.473 223.624L392.865 225.16C392.903 225.352 392.911 225.504 392.889 225.616C392.873 225.723 392.804 225.8 392.681 225.848C392.569 225.896 392.468 225.891 392.377 225.832C392.287 225.773 392.196 225.672 392.105 225.528C391.775 224.957 391.399 224.555 390.977 224.32C390.561 224.08 390.14 223.96 389.713 223.96Z" fill="black"/>
<path d="M151.265 284C151.265 284 156.559 263.368 148.265 253C138.265 240.5 102.264 247 91.2646 238C80.7055 229.36 70.1952 207.005 86.265 188.5C102.765 169.5 204.265 172 220.765 188.5C237.265 205 236.765 223.991 225.765 238" stroke="#DC5959" stroke-width="2"/>
<line x1="311" y1="91" x2="271" y2="91" stroke="#322E2C" stroke-width="2"/>
<line x1="311" y1="213" x2="271" y2="213" stroke="#322E2C" stroke-width="2"/>
<g filter="url(#filter0_d_206_698)">
<rect x="76" y="175" width="30" height="30" rx="15" fill="#DC5959" shape-rendering="crispEdges"/>
<path d="M87.6 185.25C87.38 185.25 87.2167 185.203 87.11 185.11C87.01 185.017 86.96 184.89 86.96 184.73C86.96 184.57 87.0167 184.443 87.13 184.35C87.25 184.25 87.4167 184.2 87.63 184.2H88.92C89.4133 184.2 89.8267 184.14 90.16 184.02C90.5 183.893 90.85 183.69 91.21 183.41C91.3233 183.31 91.4333 183.24 91.54 183.2C91.6467 183.16 91.76 183.14 91.88 183.14C92.2467 183.14 92.43 183.333 92.43 183.72V195.6C92.43 195.833 92.4767 196.01 92.57 196.13C92.67 196.25 92.8267 196.33 93.04 196.37L94.22 196.57C94.5133 196.63 94.66 196.79 94.66 197.05C94.66 197.19 94.6133 197.3 94.52 197.38C94.4333 197.46 94.2967 197.5 94.11 197.5H87.49C87.29 197.5 87.1367 197.46 87.03 197.38C86.93 197.293 86.88 197.18 86.88 197.04C86.88 196.787 87.05 196.627 87.39 196.56L88.69 196.37C88.8967 196.33 89.0533 196.25 89.16 196.13C89.2733 196.01 89.33 195.833 89.33 195.6V185.99C89.33 185.703 89.2833 185.51 89.19 185.41C89.0967 185.303 88.94 185.25 88.72 185.25H87.6Z" fill="white"/>
</g>
<g filter="url(#filter1_d_206_698)">
<rect x="215" y="214" width="30" height="30" rx="15" fill="#DC5959" shape-rendering="crispEdges"/>
<path d="M225.89 233.85L225.38 233.43L227.85 231.67C228.65 231.123 229.303 230.577 229.81 230.03C230.323 229.483 230.7 228.903 230.94 228.29C231.187 227.67 231.31 226.98 231.31 226.22C231.31 225.453 231.23 224.83 231.07 224.35C230.91 223.863 230.683 223.507 230.39 223.28C230.103 223.047 229.763 222.93 229.37 222.93C228.75 222.93 228.297 223.12 228.01 223.5C227.723 223.88 227.58 224.37 227.58 224.97V226.08C227.58 226.54 227.447 226.903 227.18 227.17C226.913 227.43 226.55 227.56 226.09 227.56C225.65 227.56 225.3 227.417 225.04 227.13C224.78 226.843 224.65 226.44 224.65 225.92C224.65 225.273 224.833 224.667 225.2 224.1C225.573 223.533 226.133 223.073 226.88 222.72C227.627 222.367 228.563 222.19 229.69 222.19C230.783 222.19 231.687 222.36 232.4 222.7C233.113 223.04 233.647 223.507 234 224.1C234.353 224.687 234.53 225.357 234.53 226.11C234.53 226.77 234.367 227.39 234.04 227.97C233.72 228.543 233.193 229.127 232.46 229.72C231.733 230.313 230.763 230.963 229.55 231.67L225.89 233.85ZM224.35 235.23C224.35 234.55 224.607 233.993 225.12 233.56C225.64 233.127 226.39 232.91 227.37 232.91C227.837 232.91 228.287 232.967 228.72 233.08C229.16 233.187 229.59 233.313 230.01 233.46C230.43 233.6 230.853 233.727 231.28 233.84C231.707 233.947 232.143 234 232.59 234C233.07 234 233.443 233.903 233.71 233.71C233.983 233.51 234.217 233.19 234.41 232.75C234.477 232.623 234.553 232.537 234.64 232.49C234.733 232.437 234.83 232.413 234.93 232.42C235.05 232.433 235.14 232.493 235.2 232.6C235.267 232.7 235.29 232.86 235.27 233.08C235.183 233.987 235.007 234.713 234.74 235.26C234.473 235.807 234.127 236.203 233.7 236.45C233.273 236.69 232.773 236.81 232.2 236.81C231.733 236.81 231.317 236.743 230.95 236.61C230.59 236.483 230.26 236.273 229.96 235.98C229.667 235.68 229.38 235.283 229.1 234.79C228.86 234.457 228.657 234.233 228.49 234.12C228.33 234 228.157 233.94 227.97 233.94C227.757 233.94 227.587 234.033 227.46 234.22C227.333 234.4 227.257 234.703 227.23 235.13C227.197 235.543 227.113 235.873 226.98 236.12C226.847 236.367 226.667 236.543 226.44 236.65C226.22 236.757 225.957 236.81 225.65 236.81C225.277 236.81 224.967 236.67 224.72 236.39C224.473 236.103 224.35 235.717 224.35 235.23Z" fill="white"/>
</g>
<defs>
<filter id="filter0_d_206_698" x="74" y="173" width="38" height="38" filterUnits="userSpaceOnUse" color-interpolation-filters="sRGB">
<feFlood flood-opacity="0" result="BackgroundImageFix"/>
<feColorMatrix in="SourceAlpha" type="matrix" values="0 0 0 0 0 0 0 0 0 0 0 0 0 0 0 0 0 0 127 0" result="hardAlpha"/>
<feOffset dx="2" dy="2"/>
<feGaussianBlur stdDeviation="2"/>
<feComposite in2="hardAlpha" operator="out"/>
<feColorMatrix type="matrix" values="0 0 0 0 0.196078 0 0 0 0 0.180392 0 0 0 0 0.172549 0 0 0 0.4 0"/>
<feBlend mode="normal" in2="BackgroundImageFix" result="effect1_dropShadow_206_698"/>
<feBlend mode="normal" in="SourceGraphic" in2="effect1_dropShadow_206_698" result="shape"/>
</filter>
<filter id="filter1_d_206_698" x="213" y="212" width="38" height="38" filterUnits="userSpaceOnUse" color-interpolation-filters="sRGB">
<feFlood flood-opacity="0" result="BackgroundImageFix"/>
<feColorMatrix in="SourceAlpha" type="matrix" values="0 0 0 0 0 0 0 0 0 0 0 0 0 0 0 0 0 0 127 0" result="hardAlpha"/>
<feOffset dx="2" dy="2"/>
<feGaussianBlur stdDeviation="2"/>
<feComposite in2="hardAlpha" operator="out"/>
<feColorMatrix type="matrix" values="0 0 0 0 0.196078 0 0 0 0 0.180392 0 0 0 0 0.172549 0 0 0 0.4 0"/>
<feBlend mode="normal" in2="BackgroundImageFix" result="effect1_dropShadow_206_698"/>
<feBlend mode="normal" in="SourceGraphic" in2="effect1_dropShadow_206_698" result="shape"/>
</filter>
</defs>
</svg>
